M48
; DRILL file {KiCad (5.1.2-1)-1} date Thursday, August 29, 2019 at 10:38:57 AM
; FORMAT={3:3/ absolute / metric / suppress leading zeros}
; #@! TF.CreationDate,2019-08-29T10:38:57+12:00
; #@! TF.GenerationSoftware,Kicad,Pcbnew,(5.1.2-1)-1
FMAT,2
METRIC,TZ
T1C0.400
T2C1.000
T3C1.200
T4C2.540
%
G90
G05
T1
X134620Y-102870
X135890Y-101600
X137160Y-104140
X140970Y-110490
X152400Y-101600
T2
X129451Y-114300
X131991Y-114300
X134531Y-114300
X137071Y-114300
X139611Y-93980
X139611Y-114300
X142151Y-93980
X142151Y-114300
X144691Y-93980
X144691Y-114300
X147231Y-93980
X147231Y-114300
X149771Y-93980
X149771Y-114300
X152311Y-93980
X152311Y-114300
X154851Y-93980
X154851Y-114300
X157391Y-93980
X157391Y-114300
X159931Y-93980
X159931Y-114300
X162471Y-93980
X162471Y-114300
X165011Y-93980
X165011Y-114300
X167551Y-93980
X167551Y-114300
T3
X119380Y-96520
X119380Y-100020
X119380Y-108260
X119380Y-111760
T4
X125730Y-95250
X125730Y-113030
X171450Y-95250
X171450Y-113030
T0
M30
