G04 #@! TF.GenerationSoftware,KiCad,Pcbnew,(5.1.2-1)-1*
G04 #@! TF.CreationDate,2019-08-29T10:38:32+12:00*
G04 #@! TF.ProjectId,ModbusRTUFeather,4d6f6462-7573-4525-9455-466561746865,rev?*
G04 #@! TF.SameCoordinates,Original*
G04 #@! TF.FileFunction,Soldermask,Top*
G04 #@! TF.FilePolarity,Negative*
%FSLAX46Y46*%
G04 Gerber Fmt 4.6, Leading zero omitted, Abs format (unit mm)*
G04 Created by KiCad (PCBNEW (5.1.2-1)-1) date 2019-08-29 10:38:32*
%MOMM*%
%LPD*%
G04 APERTURE LIST*
%ADD10C,2.400000*%
%ADD11C,3.956000*%
%ADD12R,1.150000X1.600000*%
%ADD13R,1.650000X1.900000*%
%ADD14R,1.400000X1.400000*%
%ADD15R,1.600000X1.300000*%
%ADD16R,1.300000X1.600000*%
%ADD17R,1.000000X1.950000*%
%ADD18C,2.800000*%
%ADD19R,2.800000X2.800000*%
G04 APERTURE END LIST*
D10*
X129451100Y-114300000D03*
X131991100Y-114300000D03*
X134531100Y-114300000D03*
X137071100Y-114300000D03*
X139611100Y-114300000D03*
X142151100Y-114300000D03*
X144691100Y-114300000D03*
X147231100Y-114300000D03*
X149771100Y-114300000D03*
X152311100Y-114300000D03*
X154851100Y-114300000D03*
X157391100Y-114300000D03*
X159931100Y-114300000D03*
X162471100Y-114300000D03*
X165011100Y-114300000D03*
X167551100Y-114300000D03*
X167551100Y-93980000D03*
X165011100Y-93980000D03*
X162471100Y-93980000D03*
X159931100Y-93980000D03*
X157391100Y-93980000D03*
X154851100Y-93980000D03*
X152311100Y-93980000D03*
X149771100Y-93980000D03*
X147231100Y-93980000D03*
X144691100Y-93980000D03*
X142151100Y-93980000D03*
X139611100Y-93980000D03*
D11*
X171450000Y-113030000D03*
X125730000Y-113030000D03*
X171450000Y-95250000D03*
X125730000Y-95250000D03*
D12*
X133350000Y-108270000D03*
X133350000Y-110170000D03*
D13*
X129540000Y-101580000D03*
X129540000Y-99080000D03*
D14*
X134600000Y-99060000D03*
X132100000Y-99060000D03*
D15*
X118280000Y-104140000D03*
X120480000Y-104140000D03*
X131910000Y-104140000D03*
X129710000Y-104140000D03*
D16*
X127000000Y-106850000D03*
X127000000Y-109050000D03*
D17*
X139065000Y-108110000D03*
X140335000Y-108110000D03*
X141605000Y-108110000D03*
X142875000Y-108110000D03*
X142875000Y-102710000D03*
X141605000Y-102710000D03*
X140335000Y-102710000D03*
X139065000Y-102710000D03*
D18*
X119380000Y-100020000D03*
D19*
X119380000Y-96520000D03*
D18*
X119380000Y-111760000D03*
D19*
X119380000Y-108260000D03*
M02*
