G04 #@! TF.GenerationSoftware,KiCad,Pcbnew,(5.1.2-1)-1*
G04 #@! TF.CreationDate,2019-08-29T10:38:32+12:00*
G04 #@! TF.ProjectId,ModbusRTUFeather,4d6f6462-7573-4525-9455-466561746865,rev?*
G04 #@! TF.SameCoordinates,Original*
G04 #@! TF.FileFunction,Copper,L2,Bot*
G04 #@! TF.FilePolarity,Positive*
%FSLAX46Y46*%
G04 Gerber Fmt 4.6, Leading zero omitted, Abs format (unit mm)*
G04 Created by KiCad (PCBNEW (5.1.2-1)-1) date 2019-08-29 10:38:32*
%MOMM*%
%LPD*%
G04 APERTURE LIST*
%ADD10C,0.100000*%
%ADD11C,2.000000*%
%ADD12C,3.556000*%
%ADD13C,2.400000*%
%ADD14R,2.400000X2.400000*%
%ADD15C,0.600000*%
%ADD16C,0.250000*%
%ADD17C,0.254000*%
G04 APERTURE END LIST*
D10*
G36*
X154915573Y-110294810D02*
G01*
X154753895Y-110294810D01*
X154251779Y-111353333D01*
X153238545Y-111353333D01*
X153147037Y-111187291D01*
X153074632Y-111353333D01*
X152648493Y-111353333D01*
X152110417Y-110380522D01*
X152143050Y-110294810D01*
X152063119Y-110294810D01*
X151860328Y-109922667D01*
X152008721Y-109628099D01*
X151701525Y-109628099D01*
X151496160Y-109251362D01*
X151717583Y-108796270D01*
X152064265Y-108796270D01*
X151871169Y-108467389D01*
X152056244Y-108090676D01*
X152131632Y-108090676D01*
X152085875Y-108018024D01*
X152520974Y-107086667D01*
X152951075Y-107086667D01*
X153255630Y-107628457D01*
X153447631Y-107628457D01*
X153701326Y-107086667D01*
X154117788Y-107086667D01*
X154615438Y-107959081D01*
X155642145Y-107959081D01*
X155843840Y-108332658D01*
X154915573Y-110294810D01*
X154915573Y-110294810D01*
G37*
D11*
X129451100Y-114300000D03*
X131991100Y-114300000D03*
X134531100Y-114300000D03*
X137071100Y-114300000D03*
X139611100Y-114300000D03*
X142151100Y-114300000D03*
X144691100Y-114300000D03*
X147231100Y-114300000D03*
X149771100Y-114300000D03*
X152311100Y-114300000D03*
X154851100Y-114300000D03*
X157391100Y-114300000D03*
X159931100Y-114300000D03*
X162471100Y-114300000D03*
X165011100Y-114300000D03*
X167551100Y-114300000D03*
X167551100Y-93980000D03*
X165011100Y-93980000D03*
X162471100Y-93980000D03*
X159931100Y-93980000D03*
X157391100Y-93980000D03*
X154851100Y-93980000D03*
X152311100Y-93980000D03*
X149771100Y-93980000D03*
X147231100Y-93980000D03*
X144691100Y-93980000D03*
X142151100Y-93980000D03*
X139611100Y-93980000D03*
D12*
X171450000Y-113030000D03*
X125730000Y-113030000D03*
X171450000Y-95250000D03*
X125730000Y-95250000D03*
D13*
X119380000Y-100020000D03*
D14*
X119380000Y-96520000D03*
D13*
X119380000Y-111760000D03*
D14*
X119380000Y-108260000D03*
D15*
X134620000Y-102870000D03*
X152400000Y-101600000D03*
X135890000Y-101600000D03*
X137160000Y-104140000D03*
X140970000Y-110490000D03*
D16*
X134620000Y-102870000D02*
X134620000Y-111671100D01*
X134620000Y-111671100D02*
X131991100Y-114300000D01*
X135890000Y-101600000D02*
X152400000Y-101600000D01*
X135890000Y-101600000D02*
X135890000Y-113118900D01*
X135890000Y-113118900D02*
X137071100Y-114300000D01*
X140970000Y-107950000D02*
X137160000Y-104140000D01*
X140970000Y-110490000D02*
X140970000Y-107950000D01*
D17*
G36*
X123591628Y-94107016D02*
G01*
X123409731Y-94546154D01*
X123317000Y-95012340D01*
X123317000Y-95487660D01*
X123409731Y-95953846D01*
X123591628Y-96392984D01*
X123855701Y-96788198D01*
X124191802Y-97124299D01*
X124587016Y-97388372D01*
X125026154Y-97570269D01*
X125492340Y-97663000D01*
X125967660Y-97663000D01*
X126433846Y-97570269D01*
X126872984Y-97388372D01*
X127268198Y-97124299D01*
X127604299Y-96788198D01*
X127868372Y-96392984D01*
X128050269Y-95953846D01*
X128143000Y-95487660D01*
X128143000Y-95012340D01*
X128050269Y-94546154D01*
X127868372Y-94107016D01*
X127868361Y-94107000D01*
X137976100Y-94107000D01*
X137976100Y-94141033D01*
X138038932Y-94456912D01*
X138162182Y-94754463D01*
X138341113Y-95022252D01*
X138568848Y-95249987D01*
X138836637Y-95428918D01*
X139134188Y-95552168D01*
X139450067Y-95615000D01*
X139772133Y-95615000D01*
X140088012Y-95552168D01*
X140385563Y-95428918D01*
X140653352Y-95249987D01*
X140881087Y-95022252D01*
X140881100Y-95022233D01*
X140881113Y-95022252D01*
X141108848Y-95249987D01*
X141376637Y-95428918D01*
X141674188Y-95552168D01*
X141990067Y-95615000D01*
X142312133Y-95615000D01*
X142628012Y-95552168D01*
X142925563Y-95428918D01*
X143193352Y-95249987D01*
X143421087Y-95022252D01*
X143421100Y-95022233D01*
X143421113Y-95022252D01*
X143648848Y-95249987D01*
X143916637Y-95428918D01*
X144214188Y-95552168D01*
X144530067Y-95615000D01*
X144852133Y-95615000D01*
X145168012Y-95552168D01*
X145465563Y-95428918D01*
X145733352Y-95249987D01*
X145961087Y-95022252D01*
X145961100Y-95022233D01*
X145961113Y-95022252D01*
X146188848Y-95249987D01*
X146456637Y-95428918D01*
X146754188Y-95552168D01*
X147070067Y-95615000D01*
X147392133Y-95615000D01*
X147708012Y-95552168D01*
X148005563Y-95428918D01*
X148273352Y-95249987D01*
X148501087Y-95022252D01*
X148501100Y-95022233D01*
X148501113Y-95022252D01*
X148728848Y-95249987D01*
X148996637Y-95428918D01*
X149294188Y-95552168D01*
X149610067Y-95615000D01*
X149932133Y-95615000D01*
X150248012Y-95552168D01*
X150545563Y-95428918D01*
X150813352Y-95249987D01*
X151041087Y-95022252D01*
X151041100Y-95022233D01*
X151041113Y-95022252D01*
X151268848Y-95249987D01*
X151536637Y-95428918D01*
X151834188Y-95552168D01*
X152150067Y-95615000D01*
X152472133Y-95615000D01*
X152788012Y-95552168D01*
X153085563Y-95428918D01*
X153353352Y-95249987D01*
X153581087Y-95022252D01*
X153581100Y-95022233D01*
X153581113Y-95022252D01*
X153808848Y-95249987D01*
X154076637Y-95428918D01*
X154374188Y-95552168D01*
X154690067Y-95615000D01*
X155012133Y-95615000D01*
X155328012Y-95552168D01*
X155625563Y-95428918D01*
X155893352Y-95249987D01*
X156121087Y-95022252D01*
X156121100Y-95022233D01*
X156121113Y-95022252D01*
X156348848Y-95249987D01*
X156616637Y-95428918D01*
X156914188Y-95552168D01*
X157230067Y-95615000D01*
X157552133Y-95615000D01*
X157868012Y-95552168D01*
X158165563Y-95428918D01*
X158433352Y-95249987D01*
X158661087Y-95022252D01*
X158661100Y-95022233D01*
X158661113Y-95022252D01*
X158888848Y-95249987D01*
X159156637Y-95428918D01*
X159454188Y-95552168D01*
X159770067Y-95615000D01*
X160092133Y-95615000D01*
X160408012Y-95552168D01*
X160705563Y-95428918D01*
X160973352Y-95249987D01*
X161201087Y-95022252D01*
X161201100Y-95022233D01*
X161201113Y-95022252D01*
X161428848Y-95249987D01*
X161696637Y-95428918D01*
X161994188Y-95552168D01*
X162310067Y-95615000D01*
X162632133Y-95615000D01*
X162948012Y-95552168D01*
X163245563Y-95428918D01*
X163513352Y-95249987D01*
X163741087Y-95022252D01*
X163741100Y-95022233D01*
X163741113Y-95022252D01*
X163968848Y-95249987D01*
X164236637Y-95428918D01*
X164534188Y-95552168D01*
X164850067Y-95615000D01*
X165172133Y-95615000D01*
X165488012Y-95552168D01*
X165785563Y-95428918D01*
X166053352Y-95249987D01*
X166281087Y-95022252D01*
X166281100Y-95022233D01*
X166281113Y-95022252D01*
X166508848Y-95249987D01*
X166776637Y-95428918D01*
X167074188Y-95552168D01*
X167390067Y-95615000D01*
X167712133Y-95615000D01*
X168028012Y-95552168D01*
X168325563Y-95428918D01*
X168593352Y-95249987D01*
X168821087Y-95022252D01*
X169000018Y-94754463D01*
X169123268Y-94456912D01*
X169186100Y-94141033D01*
X169186100Y-94107000D01*
X169311639Y-94107000D01*
X169311628Y-94107016D01*
X169129731Y-94546154D01*
X169037000Y-95012340D01*
X169037000Y-95487660D01*
X169129731Y-95953846D01*
X169311628Y-96392984D01*
X169575701Y-96788198D01*
X169911802Y-97124299D01*
X170307016Y-97388372D01*
X170746154Y-97570269D01*
X171212340Y-97663000D01*
X171687660Y-97663000D01*
X172153846Y-97570269D01*
X172592984Y-97388372D01*
X172593000Y-97388361D01*
X172593000Y-110891639D01*
X172592984Y-110891628D01*
X172153846Y-110709731D01*
X171687660Y-110617000D01*
X171212340Y-110617000D01*
X170746154Y-110709731D01*
X170307016Y-110891628D01*
X169911802Y-111155701D01*
X169575701Y-111491802D01*
X169311628Y-111887016D01*
X169129731Y-112326154D01*
X169037000Y-112792340D01*
X169037000Y-113267660D01*
X169129731Y-113733846D01*
X169311628Y-114172984D01*
X169311639Y-114173000D01*
X169186100Y-114173000D01*
X169186100Y-114138967D01*
X169123268Y-113823088D01*
X169000018Y-113525537D01*
X168821087Y-113257748D01*
X168593352Y-113030013D01*
X168325563Y-112851082D01*
X168028012Y-112727832D01*
X167712133Y-112665000D01*
X167390067Y-112665000D01*
X167074188Y-112727832D01*
X166776637Y-112851082D01*
X166508848Y-113030013D01*
X166281113Y-113257748D01*
X166281100Y-113257767D01*
X166281087Y-113257748D01*
X166053352Y-113030013D01*
X165785563Y-112851082D01*
X165488012Y-112727832D01*
X165172133Y-112665000D01*
X164850067Y-112665000D01*
X164534188Y-112727832D01*
X164236637Y-112851082D01*
X163968848Y-113030013D01*
X163741113Y-113257748D01*
X163741100Y-113257767D01*
X163741087Y-113257748D01*
X163513352Y-113030013D01*
X163245563Y-112851082D01*
X162948012Y-112727832D01*
X162632133Y-112665000D01*
X162310067Y-112665000D01*
X161994188Y-112727832D01*
X161696637Y-112851082D01*
X161428848Y-113030013D01*
X161201113Y-113257748D01*
X161201100Y-113257767D01*
X161201087Y-113257748D01*
X160973352Y-113030013D01*
X160705563Y-112851082D01*
X160408012Y-112727832D01*
X160092133Y-112665000D01*
X159770067Y-112665000D01*
X159454188Y-112727832D01*
X159156637Y-112851082D01*
X158888848Y-113030013D01*
X158661113Y-113257748D01*
X158661100Y-113257767D01*
X158661087Y-113257748D01*
X158433352Y-113030013D01*
X158165563Y-112851082D01*
X157868012Y-112727832D01*
X157552133Y-112665000D01*
X157230067Y-112665000D01*
X156914188Y-112727832D01*
X156616637Y-112851082D01*
X156348848Y-113030013D01*
X156121113Y-113257748D01*
X156121100Y-113257767D01*
X156121087Y-113257748D01*
X155893352Y-113030013D01*
X155625563Y-112851082D01*
X155328012Y-112727832D01*
X155012133Y-112665000D01*
X154690067Y-112665000D01*
X154374188Y-112727832D01*
X154076637Y-112851082D01*
X153808848Y-113030013D01*
X153581113Y-113257748D01*
X153581100Y-113257767D01*
X153581087Y-113257748D01*
X153353352Y-113030013D01*
X153085563Y-112851082D01*
X152788012Y-112727832D01*
X152472133Y-112665000D01*
X152150067Y-112665000D01*
X151834188Y-112727832D01*
X151536637Y-112851082D01*
X151268848Y-113030013D01*
X151041113Y-113257748D01*
X151041100Y-113257767D01*
X151041087Y-113257748D01*
X150813352Y-113030013D01*
X150545563Y-112851082D01*
X150248012Y-112727832D01*
X149932133Y-112665000D01*
X149610067Y-112665000D01*
X149294188Y-112727832D01*
X148996637Y-112851082D01*
X148728848Y-113030013D01*
X148501113Y-113257748D01*
X148501100Y-113257767D01*
X148501087Y-113257748D01*
X148273352Y-113030013D01*
X148005563Y-112851082D01*
X147708012Y-112727832D01*
X147392133Y-112665000D01*
X147070067Y-112665000D01*
X146754188Y-112727832D01*
X146456637Y-112851082D01*
X146188848Y-113030013D01*
X145961113Y-113257748D01*
X145961100Y-113257767D01*
X145961087Y-113257748D01*
X145733352Y-113030013D01*
X145465563Y-112851082D01*
X145168012Y-112727832D01*
X144852133Y-112665000D01*
X144530067Y-112665000D01*
X144214188Y-112727832D01*
X143916637Y-112851082D01*
X143648848Y-113030013D01*
X143421113Y-113257748D01*
X143421100Y-113257767D01*
X143421087Y-113257748D01*
X143193352Y-113030013D01*
X142925563Y-112851082D01*
X142628012Y-112727832D01*
X142312133Y-112665000D01*
X141990067Y-112665000D01*
X141674188Y-112727832D01*
X141376637Y-112851082D01*
X141108848Y-113030013D01*
X140881113Y-113257748D01*
X140881100Y-113257767D01*
X140881087Y-113257748D01*
X140653352Y-113030013D01*
X140385563Y-112851082D01*
X140088012Y-112727832D01*
X139772133Y-112665000D01*
X139450067Y-112665000D01*
X139134188Y-112727832D01*
X138836637Y-112851082D01*
X138568848Y-113030013D01*
X138341113Y-113257748D01*
X138268380Y-113366600D01*
X138206513Y-113344192D01*
X137377705Y-114173000D01*
X136764495Y-114173000D01*
X135935687Y-113344192D01*
X135873820Y-113366600D01*
X135801087Y-113257748D01*
X135707926Y-113164587D01*
X136115292Y-113164587D01*
X137071100Y-114120395D01*
X138026908Y-113164587D01*
X137931144Y-112900186D01*
X137641529Y-112759296D01*
X137329992Y-112677616D01*
X137008505Y-112658282D01*
X136689425Y-112702039D01*
X136385012Y-112807205D01*
X136211056Y-112900186D01*
X136115292Y-113164587D01*
X135707926Y-113164587D01*
X135573352Y-113030013D01*
X135305563Y-112851082D01*
X135008012Y-112727832D01*
X134699447Y-112666455D01*
X135131003Y-112234899D01*
X135160001Y-112211101D01*
X135186332Y-112179017D01*
X135254974Y-112095377D01*
X135325546Y-111963347D01*
X135334565Y-111933614D01*
X135369003Y-111820086D01*
X135380000Y-111708433D01*
X135380000Y-111708420D01*
X135383676Y-111671101D01*
X135380000Y-111633778D01*
X135380000Y-104047911D01*
X136225000Y-104047911D01*
X136225000Y-104232089D01*
X136260932Y-104412729D01*
X136331414Y-104582889D01*
X136433738Y-104736028D01*
X136563972Y-104866262D01*
X136717111Y-104968586D01*
X136887271Y-105039068D01*
X137008352Y-105063153D01*
X140210001Y-108264803D01*
X140210000Y-109944464D01*
X140141414Y-110047111D01*
X140070932Y-110217271D01*
X140035000Y-110397911D01*
X140035000Y-110582089D01*
X140070932Y-110762729D01*
X140141414Y-110932889D01*
X140243738Y-111086028D01*
X140373972Y-111216262D01*
X140527111Y-111318586D01*
X140697271Y-111389068D01*
X140877911Y-111425000D01*
X141062089Y-111425000D01*
X141242729Y-111389068D01*
X141412889Y-111318586D01*
X141566028Y-111216262D01*
X141696262Y-111086028D01*
X141798586Y-110932889D01*
X141869068Y-110762729D01*
X141905000Y-110582089D01*
X141905000Y-110397911D01*
X141869068Y-110217271D01*
X141798586Y-110047111D01*
X141730000Y-109944465D01*
X141730000Y-109212098D01*
X150862375Y-109212098D01*
X150864150Y-109261565D01*
X150863973Y-109311071D01*
X150866369Y-109323401D01*
X150866819Y-109335949D01*
X150878168Y-109384126D01*
X150887611Y-109432726D01*
X150892356Y-109444355D01*
X150895235Y-109456578D01*
X150915728Y-109501640D01*
X150934428Y-109547473D01*
X150938617Y-109555287D01*
X151003000Y-109673396D01*
X151003000Y-111760000D01*
X151005440Y-111784776D01*
X151012667Y-111808601D01*
X151024403Y-111830557D01*
X151040197Y-111849803D01*
X151059443Y-111865597D01*
X151081399Y-111877333D01*
X151105224Y-111884560D01*
X151130000Y-111887000D01*
X152307420Y-111887000D01*
X152323472Y-111895825D01*
X152355751Y-111916829D01*
X152377661Y-111925616D01*
X152398340Y-111936984D01*
X152435036Y-111948625D01*
X152470777Y-111962958D01*
X152493973Y-111967321D01*
X152516469Y-111974457D01*
X152554731Y-111978749D01*
X152592572Y-111985866D01*
X152616173Y-111985640D01*
X152639627Y-111988271D01*
X152648493Y-111988333D01*
X153074632Y-111988333D01*
X153127737Y-111983126D01*
X153156833Y-111981071D01*
X153181653Y-111985779D01*
X153205738Y-111985586D01*
X153229679Y-111988271D01*
X153238545Y-111988333D01*
X154251779Y-111988333D01*
X154294909Y-111984104D01*
X154338205Y-111982424D01*
X154356446Y-111978071D01*
X154375118Y-111976240D01*
X154416611Y-111963712D01*
X154458750Y-111953656D01*
X154475797Y-111945843D01*
X154493759Y-111940420D01*
X154532031Y-111920071D01*
X154571411Y-111902022D01*
X154586616Y-111891047D01*
X154594227Y-111887000D01*
X156210000Y-111887000D01*
X156234776Y-111884560D01*
X156258601Y-111877333D01*
X156280557Y-111865597D01*
X156299803Y-111849803D01*
X156315597Y-111830557D01*
X156327333Y-111808601D01*
X156334560Y-111784776D01*
X156337000Y-111760000D01*
X156337000Y-108775103D01*
X156417846Y-108604212D01*
X156432949Y-108562074D01*
X156450326Y-108520807D01*
X156453818Y-108503848D01*
X156459660Y-108487549D01*
X156466291Y-108443275D01*
X156475321Y-108399423D01*
X156475452Y-108382108D01*
X156478017Y-108364985D01*
X156475922Y-108320264D01*
X156476262Y-108275496D01*
X156473028Y-108258487D01*
X156472218Y-108241191D01*
X156461478Y-108197733D01*
X156453115Y-108153747D01*
X156446637Y-108137686D01*
X156442484Y-108120880D01*
X156423509Y-108080339D01*
X156406761Y-108038812D01*
X156402603Y-108030981D01*
X156337000Y-107909472D01*
X156337000Y-106680000D01*
X156334560Y-106655224D01*
X156327333Y-106631399D01*
X156315597Y-106609443D01*
X156299803Y-106590197D01*
X156280557Y-106574403D01*
X156258601Y-106562667D01*
X156234776Y-106555440D01*
X156210000Y-106553000D01*
X154458861Y-106553000D01*
X154439163Y-106542171D01*
X154403089Y-106519367D01*
X154384961Y-106512373D01*
X154367941Y-106503016D01*
X154327270Y-106490114D01*
X154287466Y-106474757D01*
X154268333Y-106471418D01*
X154249812Y-106465543D01*
X154207406Y-106460787D01*
X154165380Y-106453453D01*
X154145959Y-106453894D01*
X154126654Y-106451729D01*
X154117788Y-106451667D01*
X153701326Y-106451667D01*
X153656618Y-106456050D01*
X153611760Y-106458016D01*
X153595084Y-106462084D01*
X153577987Y-106463760D01*
X153534977Y-106476746D01*
X153491360Y-106487385D01*
X153475790Y-106494615D01*
X153459346Y-106499580D01*
X153419679Y-106520672D01*
X153378958Y-106539581D01*
X153365089Y-106549698D01*
X153358878Y-106553000D01*
X153292148Y-106553000D01*
X153274187Y-106543126D01*
X153239936Y-106521172D01*
X153219998Y-106513335D01*
X153201228Y-106503016D01*
X153162456Y-106490717D01*
X153124596Y-106475835D01*
X153103518Y-106472020D01*
X153083099Y-106465543D01*
X153042670Y-106461008D01*
X153002647Y-106453765D01*
X152981230Y-106454117D01*
X152959941Y-106451729D01*
X152951075Y-106451667D01*
X152520974Y-106451667D01*
X152475985Y-106456078D01*
X152430847Y-106458096D01*
X152414449Y-106462111D01*
X152397635Y-106463760D01*
X152354360Y-106476825D01*
X152310474Y-106487572D01*
X152295164Y-106494698D01*
X152278994Y-106499580D01*
X152239087Y-106520799D01*
X152198118Y-106539868D01*
X152184483Y-106549832D01*
X152178526Y-106553000D01*
X151130000Y-106553000D01*
X151105224Y-106555440D01*
X151081399Y-106562667D01*
X151059443Y-106574403D01*
X151040197Y-106590197D01*
X151024403Y-106609443D01*
X151012667Y-106631399D01*
X151005440Y-106655224D01*
X151003000Y-106680000D01*
X151003000Y-108813557D01*
X150925159Y-108973544D01*
X150907946Y-109019963D01*
X150888921Y-109065658D01*
X150886439Y-109077965D01*
X150882071Y-109089743D01*
X150874202Y-109138629D01*
X150864416Y-109187141D01*
X150864371Y-109199698D01*
X150862375Y-109212098D01*
X141730000Y-109212098D01*
X141730000Y-107987325D01*
X141733676Y-107950000D01*
X141730000Y-107912675D01*
X141730000Y-107912667D01*
X141719003Y-107801014D01*
X141675546Y-107657753D01*
X141604974Y-107525724D01*
X141510001Y-107409999D01*
X141481003Y-107386201D01*
X138083153Y-103988352D01*
X138059068Y-103867271D01*
X137988586Y-103697111D01*
X137886262Y-103543972D01*
X137756028Y-103413738D01*
X137602889Y-103311414D01*
X137432729Y-103240932D01*
X137252089Y-103205000D01*
X137067911Y-103205000D01*
X136887271Y-103240932D01*
X136717111Y-103311414D01*
X136563972Y-103413738D01*
X136433738Y-103543972D01*
X136331414Y-103697111D01*
X136260932Y-103867271D01*
X136225000Y-104047911D01*
X135380000Y-104047911D01*
X135380000Y-103415535D01*
X135448586Y-103312889D01*
X135519068Y-103142729D01*
X135555000Y-102962089D01*
X135555000Y-102777911D01*
X135519068Y-102597271D01*
X135448586Y-102427111D01*
X135346262Y-102273972D01*
X135216028Y-102143738D01*
X135062889Y-102041414D01*
X134892729Y-101970932D01*
X134712089Y-101935000D01*
X134527911Y-101935000D01*
X134347271Y-101970932D01*
X134177111Y-102041414D01*
X134023972Y-102143738D01*
X133893738Y-102273972D01*
X133791414Y-102427111D01*
X133720932Y-102597271D01*
X133685000Y-102777911D01*
X133685000Y-102962089D01*
X133720932Y-103142729D01*
X133791414Y-103312889D01*
X133860000Y-103415536D01*
X133860001Y-111356297D01*
X132482476Y-112733823D01*
X132468012Y-112727832D01*
X132152133Y-112665000D01*
X131830067Y-112665000D01*
X131514188Y-112727832D01*
X131216637Y-112851082D01*
X130948848Y-113030013D01*
X130721113Y-113257748D01*
X130721100Y-113257767D01*
X130721087Y-113257748D01*
X130493352Y-113030013D01*
X130225563Y-112851082D01*
X129928012Y-112727832D01*
X129612133Y-112665000D01*
X129290067Y-112665000D01*
X128974188Y-112727832D01*
X128676637Y-112851082D01*
X128408848Y-113030013D01*
X128181113Y-113257748D01*
X128129652Y-113334765D01*
X128143000Y-113267660D01*
X128143000Y-112792340D01*
X128050269Y-112326154D01*
X127868372Y-111887016D01*
X127604299Y-111491802D01*
X127268198Y-111155701D01*
X126872984Y-110891628D01*
X126433846Y-110709731D01*
X125967660Y-110617000D01*
X125492340Y-110617000D01*
X125026154Y-110709731D01*
X124587016Y-110891628D01*
X124191802Y-111155701D01*
X123855701Y-111491802D01*
X123591628Y-111887016D01*
X123409731Y-112326154D01*
X123317000Y-112792340D01*
X123317000Y-113267660D01*
X123409731Y-113733846D01*
X123591628Y-114172984D01*
X123591639Y-114173000D01*
X113157000Y-114173000D01*
X113157000Y-107060000D01*
X117541928Y-107060000D01*
X117541928Y-109460000D01*
X117554188Y-109584482D01*
X117590498Y-109704180D01*
X117649463Y-109814494D01*
X117728815Y-109911185D01*
X117825506Y-109990537D01*
X117935820Y-110049502D01*
X118055518Y-110085812D01*
X118180000Y-110098072D01*
X118597162Y-110098072D01*
X118510801Y-110133844D01*
X118210256Y-110334662D01*
X117954662Y-110590256D01*
X117753844Y-110890801D01*
X117615518Y-111224750D01*
X117545000Y-111579268D01*
X117545000Y-111940732D01*
X117615518Y-112295250D01*
X117753844Y-112629199D01*
X117954662Y-112929744D01*
X118210256Y-113185338D01*
X118510801Y-113386156D01*
X118844750Y-113524482D01*
X119199268Y-113595000D01*
X119560732Y-113595000D01*
X119915250Y-113524482D01*
X120249199Y-113386156D01*
X120549744Y-113185338D01*
X120805338Y-112929744D01*
X121006156Y-112629199D01*
X121144482Y-112295250D01*
X121215000Y-111940732D01*
X121215000Y-111579268D01*
X121144482Y-111224750D01*
X121006156Y-110890801D01*
X120805338Y-110590256D01*
X120549744Y-110334662D01*
X120249199Y-110133844D01*
X120162838Y-110098072D01*
X120580000Y-110098072D01*
X120704482Y-110085812D01*
X120824180Y-110049502D01*
X120934494Y-109990537D01*
X121031185Y-109911185D01*
X121110537Y-109814494D01*
X121169502Y-109704180D01*
X121205812Y-109584482D01*
X121218072Y-109460000D01*
X121218072Y-107060000D01*
X121205812Y-106935518D01*
X121169502Y-106815820D01*
X121110537Y-106705506D01*
X121031185Y-106608815D01*
X120934494Y-106529463D01*
X120824180Y-106470498D01*
X120704482Y-106434188D01*
X120580000Y-106421928D01*
X118180000Y-106421928D01*
X118055518Y-106434188D01*
X117935820Y-106470498D01*
X117825506Y-106529463D01*
X117728815Y-106608815D01*
X117649463Y-106705506D01*
X117590498Y-106815820D01*
X117554188Y-106935518D01*
X117541928Y-107060000D01*
X113157000Y-107060000D01*
X113157000Y-101297980D01*
X118281626Y-101297980D01*
X118401514Y-101582836D01*
X118725210Y-101743699D01*
X119074069Y-101838322D01*
X119434684Y-101863067D01*
X119793198Y-101816985D01*
X120135833Y-101701846D01*
X120358486Y-101582836D01*
X120478374Y-101297980D01*
X119380000Y-100199605D01*
X118281626Y-101297980D01*
X113157000Y-101297980D01*
X113157000Y-100074684D01*
X117536933Y-100074684D01*
X117583015Y-100433198D01*
X117698154Y-100775833D01*
X117817164Y-100998486D01*
X118102020Y-101118374D01*
X119200395Y-100020000D01*
X119559605Y-100020000D01*
X120657980Y-101118374D01*
X120942836Y-100998486D01*
X121103699Y-100674790D01*
X121198322Y-100325931D01*
X121223067Y-99965316D01*
X121176985Y-99606802D01*
X121061846Y-99264167D01*
X120942836Y-99041514D01*
X120657980Y-98921626D01*
X119559605Y-100020000D01*
X119200395Y-100020000D01*
X118102020Y-98921626D01*
X117817164Y-99041514D01*
X117656301Y-99365210D01*
X117561678Y-99714069D01*
X117536933Y-100074684D01*
X113157000Y-100074684D01*
X113157000Y-95320000D01*
X117541928Y-95320000D01*
X117541928Y-97720000D01*
X117554188Y-97844482D01*
X117590498Y-97964180D01*
X117649463Y-98074494D01*
X117728815Y-98171185D01*
X117825506Y-98250537D01*
X117935820Y-98309502D01*
X118055518Y-98345812D01*
X118180000Y-98358072D01*
X118586903Y-98358072D01*
X118401514Y-98457164D01*
X118281626Y-98742020D01*
X119380000Y-99840395D01*
X120478374Y-98742020D01*
X120358486Y-98457164D01*
X120159088Y-98358072D01*
X120580000Y-98358072D01*
X120704482Y-98345812D01*
X120824180Y-98309502D01*
X120934494Y-98250537D01*
X121031185Y-98171185D01*
X121110537Y-98074494D01*
X121169502Y-97964180D01*
X121205812Y-97844482D01*
X121218072Y-97720000D01*
X121218072Y-95320000D01*
X121205812Y-95195518D01*
X121169502Y-95075820D01*
X121110537Y-94965506D01*
X121031185Y-94868815D01*
X120934494Y-94789463D01*
X120824180Y-94730498D01*
X120704482Y-94694188D01*
X120580000Y-94681928D01*
X118180000Y-94681928D01*
X118055518Y-94694188D01*
X117935820Y-94730498D01*
X117825506Y-94789463D01*
X117728815Y-94868815D01*
X117649463Y-94965506D01*
X117590498Y-95075820D01*
X117554188Y-95195518D01*
X117541928Y-95320000D01*
X113157000Y-95320000D01*
X113157000Y-94107000D01*
X123591639Y-94107000D01*
X123591628Y-94107016D01*
X123591628Y-94107016D01*
G37*
X123591628Y-94107016D02*
X123409731Y-94546154D01*
X123317000Y-95012340D01*
X123317000Y-95487660D01*
X123409731Y-95953846D01*
X123591628Y-96392984D01*
X123855701Y-96788198D01*
X124191802Y-97124299D01*
X124587016Y-97388372D01*
X125026154Y-97570269D01*
X125492340Y-97663000D01*
X125967660Y-97663000D01*
X126433846Y-97570269D01*
X126872984Y-97388372D01*
X127268198Y-97124299D01*
X127604299Y-96788198D01*
X127868372Y-96392984D01*
X128050269Y-95953846D01*
X128143000Y-95487660D01*
X128143000Y-95012340D01*
X128050269Y-94546154D01*
X127868372Y-94107016D01*
X127868361Y-94107000D01*
X137976100Y-94107000D01*
X137976100Y-94141033D01*
X138038932Y-94456912D01*
X138162182Y-94754463D01*
X138341113Y-95022252D01*
X138568848Y-95249987D01*
X138836637Y-95428918D01*
X139134188Y-95552168D01*
X139450067Y-95615000D01*
X139772133Y-95615000D01*
X140088012Y-95552168D01*
X140385563Y-95428918D01*
X140653352Y-95249987D01*
X140881087Y-95022252D01*
X140881100Y-95022233D01*
X140881113Y-95022252D01*
X141108848Y-95249987D01*
X141376637Y-95428918D01*
X141674188Y-95552168D01*
X141990067Y-95615000D01*
X142312133Y-95615000D01*
X142628012Y-95552168D01*
X142925563Y-95428918D01*
X143193352Y-95249987D01*
X143421087Y-95022252D01*
X143421100Y-95022233D01*
X143421113Y-95022252D01*
X143648848Y-95249987D01*
X143916637Y-95428918D01*
X144214188Y-95552168D01*
X144530067Y-95615000D01*
X144852133Y-95615000D01*
X145168012Y-95552168D01*
X145465563Y-95428918D01*
X145733352Y-95249987D01*
X145961087Y-95022252D01*
X145961100Y-95022233D01*
X145961113Y-95022252D01*
X146188848Y-95249987D01*
X146456637Y-95428918D01*
X146754188Y-95552168D01*
X147070067Y-95615000D01*
X147392133Y-95615000D01*
X147708012Y-95552168D01*
X148005563Y-95428918D01*
X148273352Y-95249987D01*
X148501087Y-95022252D01*
X148501100Y-95022233D01*
X148501113Y-95022252D01*
X148728848Y-95249987D01*
X148996637Y-95428918D01*
X149294188Y-95552168D01*
X149610067Y-95615000D01*
X149932133Y-95615000D01*
X150248012Y-95552168D01*
X150545563Y-95428918D01*
X150813352Y-95249987D01*
X151041087Y-95022252D01*
X151041100Y-95022233D01*
X151041113Y-95022252D01*
X151268848Y-95249987D01*
X151536637Y-95428918D01*
X151834188Y-95552168D01*
X152150067Y-95615000D01*
X152472133Y-95615000D01*
X152788012Y-95552168D01*
X153085563Y-95428918D01*
X153353352Y-95249987D01*
X153581087Y-95022252D01*
X153581100Y-95022233D01*
X153581113Y-95022252D01*
X153808848Y-95249987D01*
X154076637Y-95428918D01*
X154374188Y-95552168D01*
X154690067Y-95615000D01*
X155012133Y-95615000D01*
X155328012Y-95552168D01*
X155625563Y-95428918D01*
X155893352Y-95249987D01*
X156121087Y-95022252D01*
X156121100Y-95022233D01*
X156121113Y-95022252D01*
X156348848Y-95249987D01*
X156616637Y-95428918D01*
X156914188Y-95552168D01*
X157230067Y-95615000D01*
X157552133Y-95615000D01*
X157868012Y-95552168D01*
X158165563Y-95428918D01*
X158433352Y-95249987D01*
X158661087Y-95022252D01*
X158661100Y-95022233D01*
X158661113Y-95022252D01*
X158888848Y-95249987D01*
X159156637Y-95428918D01*
X159454188Y-95552168D01*
X159770067Y-95615000D01*
X160092133Y-95615000D01*
X160408012Y-95552168D01*
X160705563Y-95428918D01*
X160973352Y-95249987D01*
X161201087Y-95022252D01*
X161201100Y-95022233D01*
X161201113Y-95022252D01*
X161428848Y-95249987D01*
X161696637Y-95428918D01*
X161994188Y-95552168D01*
X162310067Y-95615000D01*
X162632133Y-95615000D01*
X162948012Y-95552168D01*
X163245563Y-95428918D01*
X163513352Y-95249987D01*
X163741087Y-95022252D01*
X163741100Y-95022233D01*
X163741113Y-95022252D01*
X163968848Y-95249987D01*
X164236637Y-95428918D01*
X164534188Y-95552168D01*
X164850067Y-95615000D01*
X165172133Y-95615000D01*
X165488012Y-95552168D01*
X165785563Y-95428918D01*
X166053352Y-95249987D01*
X166281087Y-95022252D01*
X166281100Y-95022233D01*
X166281113Y-95022252D01*
X166508848Y-95249987D01*
X166776637Y-95428918D01*
X167074188Y-95552168D01*
X167390067Y-95615000D01*
X167712133Y-95615000D01*
X168028012Y-95552168D01*
X168325563Y-95428918D01*
X168593352Y-95249987D01*
X168821087Y-95022252D01*
X169000018Y-94754463D01*
X169123268Y-94456912D01*
X169186100Y-94141033D01*
X169186100Y-94107000D01*
X169311639Y-94107000D01*
X169311628Y-94107016D01*
X169129731Y-94546154D01*
X169037000Y-95012340D01*
X169037000Y-95487660D01*
X169129731Y-95953846D01*
X169311628Y-96392984D01*
X169575701Y-96788198D01*
X169911802Y-97124299D01*
X170307016Y-97388372D01*
X170746154Y-97570269D01*
X171212340Y-97663000D01*
X171687660Y-97663000D01*
X172153846Y-97570269D01*
X172592984Y-97388372D01*
X172593000Y-97388361D01*
X172593000Y-110891639D01*
X172592984Y-110891628D01*
X172153846Y-110709731D01*
X171687660Y-110617000D01*
X171212340Y-110617000D01*
X170746154Y-110709731D01*
X170307016Y-110891628D01*
X169911802Y-111155701D01*
X169575701Y-111491802D01*
X169311628Y-111887016D01*
X169129731Y-112326154D01*
X169037000Y-112792340D01*
X169037000Y-113267660D01*
X169129731Y-113733846D01*
X169311628Y-114172984D01*
X169311639Y-114173000D01*
X169186100Y-114173000D01*
X169186100Y-114138967D01*
X169123268Y-113823088D01*
X169000018Y-113525537D01*
X168821087Y-113257748D01*
X168593352Y-113030013D01*
X168325563Y-112851082D01*
X168028012Y-112727832D01*
X167712133Y-112665000D01*
X167390067Y-112665000D01*
X167074188Y-112727832D01*
X166776637Y-112851082D01*
X166508848Y-113030013D01*
X166281113Y-113257748D01*
X166281100Y-113257767D01*
X166281087Y-113257748D01*
X166053352Y-113030013D01*
X165785563Y-112851082D01*
X165488012Y-112727832D01*
X165172133Y-112665000D01*
X164850067Y-112665000D01*
X164534188Y-112727832D01*
X164236637Y-112851082D01*
X163968848Y-113030013D01*
X163741113Y-113257748D01*
X163741100Y-113257767D01*
X163741087Y-113257748D01*
X163513352Y-113030013D01*
X163245563Y-112851082D01*
X162948012Y-112727832D01*
X162632133Y-112665000D01*
X162310067Y-112665000D01*
X161994188Y-112727832D01*
X161696637Y-112851082D01*
X161428848Y-113030013D01*
X161201113Y-113257748D01*
X161201100Y-113257767D01*
X161201087Y-113257748D01*
X160973352Y-113030013D01*
X160705563Y-112851082D01*
X160408012Y-112727832D01*
X160092133Y-112665000D01*
X159770067Y-112665000D01*
X159454188Y-112727832D01*
X159156637Y-112851082D01*
X158888848Y-113030013D01*
X158661113Y-113257748D01*
X158661100Y-113257767D01*
X158661087Y-113257748D01*
X158433352Y-113030013D01*
X158165563Y-112851082D01*
X157868012Y-112727832D01*
X157552133Y-112665000D01*
X157230067Y-112665000D01*
X156914188Y-112727832D01*
X156616637Y-112851082D01*
X156348848Y-113030013D01*
X156121113Y-113257748D01*
X156121100Y-113257767D01*
X156121087Y-113257748D01*
X155893352Y-113030013D01*
X155625563Y-112851082D01*
X155328012Y-112727832D01*
X155012133Y-112665000D01*
X154690067Y-112665000D01*
X154374188Y-112727832D01*
X154076637Y-112851082D01*
X153808848Y-113030013D01*
X153581113Y-113257748D01*
X153581100Y-113257767D01*
X153581087Y-113257748D01*
X153353352Y-113030013D01*
X153085563Y-112851082D01*
X152788012Y-112727832D01*
X152472133Y-112665000D01*
X152150067Y-112665000D01*
X151834188Y-112727832D01*
X151536637Y-112851082D01*
X151268848Y-113030013D01*
X151041113Y-113257748D01*
X151041100Y-113257767D01*
X151041087Y-113257748D01*
X150813352Y-113030013D01*
X150545563Y-112851082D01*
X150248012Y-112727832D01*
X149932133Y-112665000D01*
X149610067Y-112665000D01*
X149294188Y-112727832D01*
X148996637Y-112851082D01*
X148728848Y-113030013D01*
X148501113Y-113257748D01*
X148501100Y-113257767D01*
X148501087Y-113257748D01*
X148273352Y-113030013D01*
X148005563Y-112851082D01*
X147708012Y-112727832D01*
X147392133Y-112665000D01*
X147070067Y-112665000D01*
X146754188Y-112727832D01*
X146456637Y-112851082D01*
X146188848Y-113030013D01*
X145961113Y-113257748D01*
X145961100Y-113257767D01*
X145961087Y-113257748D01*
X145733352Y-113030013D01*
X145465563Y-112851082D01*
X145168012Y-112727832D01*
X144852133Y-112665000D01*
X144530067Y-112665000D01*
X144214188Y-112727832D01*
X143916637Y-112851082D01*
X143648848Y-113030013D01*
X143421113Y-113257748D01*
X143421100Y-113257767D01*
X143421087Y-113257748D01*
X143193352Y-113030013D01*
X142925563Y-112851082D01*
X142628012Y-112727832D01*
X142312133Y-112665000D01*
X141990067Y-112665000D01*
X141674188Y-112727832D01*
X141376637Y-112851082D01*
X141108848Y-113030013D01*
X140881113Y-113257748D01*
X140881100Y-113257767D01*
X140881087Y-113257748D01*
X140653352Y-113030013D01*
X140385563Y-112851082D01*
X140088012Y-112727832D01*
X139772133Y-112665000D01*
X139450067Y-112665000D01*
X139134188Y-112727832D01*
X138836637Y-112851082D01*
X138568848Y-113030013D01*
X138341113Y-113257748D01*
X138268380Y-113366600D01*
X138206513Y-113344192D01*
X137377705Y-114173000D01*
X136764495Y-114173000D01*
X135935687Y-113344192D01*
X135873820Y-113366600D01*
X135801087Y-113257748D01*
X135707926Y-113164587D01*
X136115292Y-113164587D01*
X137071100Y-114120395D01*
X138026908Y-113164587D01*
X137931144Y-112900186D01*
X137641529Y-112759296D01*
X137329992Y-112677616D01*
X137008505Y-112658282D01*
X136689425Y-112702039D01*
X136385012Y-112807205D01*
X136211056Y-112900186D01*
X136115292Y-113164587D01*
X135707926Y-113164587D01*
X135573352Y-113030013D01*
X135305563Y-112851082D01*
X135008012Y-112727832D01*
X134699447Y-112666455D01*
X135131003Y-112234899D01*
X135160001Y-112211101D01*
X135186332Y-112179017D01*
X135254974Y-112095377D01*
X135325546Y-111963347D01*
X135334565Y-111933614D01*
X135369003Y-111820086D01*
X135380000Y-111708433D01*
X135380000Y-111708420D01*
X135383676Y-111671101D01*
X135380000Y-111633778D01*
X135380000Y-104047911D01*
X136225000Y-104047911D01*
X136225000Y-104232089D01*
X136260932Y-104412729D01*
X136331414Y-104582889D01*
X136433738Y-104736028D01*
X136563972Y-104866262D01*
X136717111Y-104968586D01*
X136887271Y-105039068D01*
X137008352Y-105063153D01*
X140210001Y-108264803D01*
X140210000Y-109944464D01*
X140141414Y-110047111D01*
X140070932Y-110217271D01*
X140035000Y-110397911D01*
X140035000Y-110582089D01*
X140070932Y-110762729D01*
X140141414Y-110932889D01*
X140243738Y-111086028D01*
X140373972Y-111216262D01*
X140527111Y-111318586D01*
X140697271Y-111389068D01*
X140877911Y-111425000D01*
X141062089Y-111425000D01*
X141242729Y-111389068D01*
X141412889Y-111318586D01*
X141566028Y-111216262D01*
X141696262Y-111086028D01*
X141798586Y-110932889D01*
X141869068Y-110762729D01*
X141905000Y-110582089D01*
X141905000Y-110397911D01*
X141869068Y-110217271D01*
X141798586Y-110047111D01*
X141730000Y-109944465D01*
X141730000Y-109212098D01*
X150862375Y-109212098D01*
X150864150Y-109261565D01*
X150863973Y-109311071D01*
X150866369Y-109323401D01*
X150866819Y-109335949D01*
X150878168Y-109384126D01*
X150887611Y-109432726D01*
X150892356Y-109444355D01*
X150895235Y-109456578D01*
X150915728Y-109501640D01*
X150934428Y-109547473D01*
X150938617Y-109555287D01*
X151003000Y-109673396D01*
X151003000Y-111760000D01*
X151005440Y-111784776D01*
X151012667Y-111808601D01*
X151024403Y-111830557D01*
X151040197Y-111849803D01*
X151059443Y-111865597D01*
X151081399Y-111877333D01*
X151105224Y-111884560D01*
X151130000Y-111887000D01*
X152307420Y-111887000D01*
X152323472Y-111895825D01*
X152355751Y-111916829D01*
X152377661Y-111925616D01*
X152398340Y-111936984D01*
X152435036Y-111948625D01*
X152470777Y-111962958D01*
X152493973Y-111967321D01*
X152516469Y-111974457D01*
X152554731Y-111978749D01*
X152592572Y-111985866D01*
X152616173Y-111985640D01*
X152639627Y-111988271D01*
X152648493Y-111988333D01*
X153074632Y-111988333D01*
X153127737Y-111983126D01*
X153156833Y-111981071D01*
X153181653Y-111985779D01*
X153205738Y-111985586D01*
X153229679Y-111988271D01*
X153238545Y-111988333D01*
X154251779Y-111988333D01*
X154294909Y-111984104D01*
X154338205Y-111982424D01*
X154356446Y-111978071D01*
X154375118Y-111976240D01*
X154416611Y-111963712D01*
X154458750Y-111953656D01*
X154475797Y-111945843D01*
X154493759Y-111940420D01*
X154532031Y-111920071D01*
X154571411Y-111902022D01*
X154586616Y-111891047D01*
X154594227Y-111887000D01*
X156210000Y-111887000D01*
X156234776Y-111884560D01*
X156258601Y-111877333D01*
X156280557Y-111865597D01*
X156299803Y-111849803D01*
X156315597Y-111830557D01*
X156327333Y-111808601D01*
X156334560Y-111784776D01*
X156337000Y-111760000D01*
X156337000Y-108775103D01*
X156417846Y-108604212D01*
X156432949Y-108562074D01*
X156450326Y-108520807D01*
X156453818Y-108503848D01*
X156459660Y-108487549D01*
X156466291Y-108443275D01*
X156475321Y-108399423D01*
X156475452Y-108382108D01*
X156478017Y-108364985D01*
X156475922Y-108320264D01*
X156476262Y-108275496D01*
X156473028Y-108258487D01*
X156472218Y-108241191D01*
X156461478Y-108197733D01*
X156453115Y-108153747D01*
X156446637Y-108137686D01*
X156442484Y-108120880D01*
X156423509Y-108080339D01*
X156406761Y-108038812D01*
X156402603Y-108030981D01*
X156337000Y-107909472D01*
X156337000Y-106680000D01*
X156334560Y-106655224D01*
X156327333Y-106631399D01*
X156315597Y-106609443D01*
X156299803Y-106590197D01*
X156280557Y-106574403D01*
X156258601Y-106562667D01*
X156234776Y-106555440D01*
X156210000Y-106553000D01*
X154458861Y-106553000D01*
X154439163Y-106542171D01*
X154403089Y-106519367D01*
X154384961Y-106512373D01*
X154367941Y-106503016D01*
X154327270Y-106490114D01*
X154287466Y-106474757D01*
X154268333Y-106471418D01*
X154249812Y-106465543D01*
X154207406Y-106460787D01*
X154165380Y-106453453D01*
X154145959Y-106453894D01*
X154126654Y-106451729D01*
X154117788Y-106451667D01*
X153701326Y-106451667D01*
X153656618Y-106456050D01*
X153611760Y-106458016D01*
X153595084Y-106462084D01*
X153577987Y-106463760D01*
X153534977Y-106476746D01*
X153491360Y-106487385D01*
X153475790Y-106494615D01*
X153459346Y-106499580D01*
X153419679Y-106520672D01*
X153378958Y-106539581D01*
X153365089Y-106549698D01*
X153358878Y-106553000D01*
X153292148Y-106553000D01*
X153274187Y-106543126D01*
X153239936Y-106521172D01*
X153219998Y-106513335D01*
X153201228Y-106503016D01*
X153162456Y-106490717D01*
X153124596Y-106475835D01*
X153103518Y-106472020D01*
X153083099Y-106465543D01*
X153042670Y-106461008D01*
X153002647Y-106453765D01*
X152981230Y-106454117D01*
X152959941Y-106451729D01*
X152951075Y-106451667D01*
X152520974Y-106451667D01*
X152475985Y-106456078D01*
X152430847Y-106458096D01*
X152414449Y-106462111D01*
X152397635Y-106463760D01*
X152354360Y-106476825D01*
X152310474Y-106487572D01*
X152295164Y-106494698D01*
X152278994Y-106499580D01*
X152239087Y-106520799D01*
X152198118Y-106539868D01*
X152184483Y-106549832D01*
X152178526Y-106553000D01*
X151130000Y-106553000D01*
X151105224Y-106555440D01*
X151081399Y-106562667D01*
X151059443Y-106574403D01*
X151040197Y-106590197D01*
X151024403Y-106609443D01*
X151012667Y-106631399D01*
X151005440Y-106655224D01*
X151003000Y-106680000D01*
X151003000Y-108813557D01*
X150925159Y-108973544D01*
X150907946Y-109019963D01*
X150888921Y-109065658D01*
X150886439Y-109077965D01*
X150882071Y-109089743D01*
X150874202Y-109138629D01*
X150864416Y-109187141D01*
X150864371Y-109199698D01*
X150862375Y-109212098D01*
X141730000Y-109212098D01*
X141730000Y-107987325D01*
X141733676Y-107950000D01*
X141730000Y-107912675D01*
X141730000Y-107912667D01*
X141719003Y-107801014D01*
X141675546Y-107657753D01*
X141604974Y-107525724D01*
X141510001Y-107409999D01*
X141481003Y-107386201D01*
X138083153Y-103988352D01*
X138059068Y-103867271D01*
X137988586Y-103697111D01*
X137886262Y-103543972D01*
X137756028Y-103413738D01*
X137602889Y-103311414D01*
X137432729Y-103240932D01*
X137252089Y-103205000D01*
X137067911Y-103205000D01*
X136887271Y-103240932D01*
X136717111Y-103311414D01*
X136563972Y-103413738D01*
X136433738Y-103543972D01*
X136331414Y-103697111D01*
X136260932Y-103867271D01*
X136225000Y-104047911D01*
X135380000Y-104047911D01*
X135380000Y-103415535D01*
X135448586Y-103312889D01*
X135519068Y-103142729D01*
X135555000Y-102962089D01*
X135555000Y-102777911D01*
X135519068Y-102597271D01*
X135448586Y-102427111D01*
X135346262Y-102273972D01*
X135216028Y-102143738D01*
X135062889Y-102041414D01*
X134892729Y-101970932D01*
X134712089Y-101935000D01*
X134527911Y-101935000D01*
X134347271Y-101970932D01*
X134177111Y-102041414D01*
X134023972Y-102143738D01*
X133893738Y-102273972D01*
X133791414Y-102427111D01*
X133720932Y-102597271D01*
X133685000Y-102777911D01*
X133685000Y-102962089D01*
X133720932Y-103142729D01*
X133791414Y-103312889D01*
X133860000Y-103415536D01*
X133860001Y-111356297D01*
X132482476Y-112733823D01*
X132468012Y-112727832D01*
X132152133Y-112665000D01*
X131830067Y-112665000D01*
X131514188Y-112727832D01*
X131216637Y-112851082D01*
X130948848Y-113030013D01*
X130721113Y-113257748D01*
X130721100Y-113257767D01*
X130721087Y-113257748D01*
X130493352Y-113030013D01*
X130225563Y-112851082D01*
X129928012Y-112727832D01*
X129612133Y-112665000D01*
X129290067Y-112665000D01*
X128974188Y-112727832D01*
X128676637Y-112851082D01*
X128408848Y-113030013D01*
X128181113Y-113257748D01*
X128129652Y-113334765D01*
X128143000Y-113267660D01*
X128143000Y-112792340D01*
X128050269Y-112326154D01*
X127868372Y-111887016D01*
X127604299Y-111491802D01*
X127268198Y-111155701D01*
X126872984Y-110891628D01*
X126433846Y-110709731D01*
X125967660Y-110617000D01*
X125492340Y-110617000D01*
X125026154Y-110709731D01*
X124587016Y-110891628D01*
X124191802Y-111155701D01*
X123855701Y-111491802D01*
X123591628Y-111887016D01*
X123409731Y-112326154D01*
X123317000Y-112792340D01*
X123317000Y-113267660D01*
X123409731Y-113733846D01*
X123591628Y-114172984D01*
X123591639Y-114173000D01*
X113157000Y-114173000D01*
X113157000Y-107060000D01*
X117541928Y-107060000D01*
X117541928Y-109460000D01*
X117554188Y-109584482D01*
X117590498Y-109704180D01*
X117649463Y-109814494D01*
X117728815Y-109911185D01*
X117825506Y-109990537D01*
X117935820Y-110049502D01*
X118055518Y-110085812D01*
X118180000Y-110098072D01*
X118597162Y-110098072D01*
X118510801Y-110133844D01*
X118210256Y-110334662D01*
X117954662Y-110590256D01*
X117753844Y-110890801D01*
X117615518Y-111224750D01*
X117545000Y-111579268D01*
X117545000Y-111940732D01*
X117615518Y-112295250D01*
X117753844Y-112629199D01*
X117954662Y-112929744D01*
X118210256Y-113185338D01*
X118510801Y-113386156D01*
X118844750Y-113524482D01*
X119199268Y-113595000D01*
X119560732Y-113595000D01*
X119915250Y-113524482D01*
X120249199Y-113386156D01*
X120549744Y-113185338D01*
X120805338Y-112929744D01*
X121006156Y-112629199D01*
X121144482Y-112295250D01*
X121215000Y-111940732D01*
X121215000Y-111579268D01*
X121144482Y-111224750D01*
X121006156Y-110890801D01*
X120805338Y-110590256D01*
X120549744Y-110334662D01*
X120249199Y-110133844D01*
X120162838Y-110098072D01*
X120580000Y-110098072D01*
X120704482Y-110085812D01*
X120824180Y-110049502D01*
X120934494Y-109990537D01*
X121031185Y-109911185D01*
X121110537Y-109814494D01*
X121169502Y-109704180D01*
X121205812Y-109584482D01*
X121218072Y-109460000D01*
X121218072Y-107060000D01*
X121205812Y-106935518D01*
X121169502Y-106815820D01*
X121110537Y-106705506D01*
X121031185Y-106608815D01*
X120934494Y-106529463D01*
X120824180Y-106470498D01*
X120704482Y-106434188D01*
X120580000Y-106421928D01*
X118180000Y-106421928D01*
X118055518Y-106434188D01*
X117935820Y-106470498D01*
X117825506Y-106529463D01*
X117728815Y-106608815D01*
X117649463Y-106705506D01*
X117590498Y-106815820D01*
X117554188Y-106935518D01*
X117541928Y-107060000D01*
X113157000Y-107060000D01*
X113157000Y-101297980D01*
X118281626Y-101297980D01*
X118401514Y-101582836D01*
X118725210Y-101743699D01*
X119074069Y-101838322D01*
X119434684Y-101863067D01*
X119793198Y-101816985D01*
X120135833Y-101701846D01*
X120358486Y-101582836D01*
X120478374Y-101297980D01*
X119380000Y-100199605D01*
X118281626Y-101297980D01*
X113157000Y-101297980D01*
X113157000Y-100074684D01*
X117536933Y-100074684D01*
X117583015Y-100433198D01*
X117698154Y-100775833D01*
X117817164Y-100998486D01*
X118102020Y-101118374D01*
X119200395Y-100020000D01*
X119559605Y-100020000D01*
X120657980Y-101118374D01*
X120942836Y-100998486D01*
X121103699Y-100674790D01*
X121198322Y-100325931D01*
X121223067Y-99965316D01*
X121176985Y-99606802D01*
X121061846Y-99264167D01*
X120942836Y-99041514D01*
X120657980Y-98921626D01*
X119559605Y-100020000D01*
X119200395Y-100020000D01*
X118102020Y-98921626D01*
X117817164Y-99041514D01*
X117656301Y-99365210D01*
X117561678Y-99714069D01*
X117536933Y-100074684D01*
X113157000Y-100074684D01*
X113157000Y-95320000D01*
X117541928Y-95320000D01*
X117541928Y-97720000D01*
X117554188Y-97844482D01*
X117590498Y-97964180D01*
X117649463Y-98074494D01*
X117728815Y-98171185D01*
X117825506Y-98250537D01*
X117935820Y-98309502D01*
X118055518Y-98345812D01*
X118180000Y-98358072D01*
X118586903Y-98358072D01*
X118401514Y-98457164D01*
X118281626Y-98742020D01*
X119380000Y-99840395D01*
X120478374Y-98742020D01*
X120358486Y-98457164D01*
X120159088Y-98358072D01*
X120580000Y-98358072D01*
X120704482Y-98345812D01*
X120824180Y-98309502D01*
X120934494Y-98250537D01*
X121031185Y-98171185D01*
X121110537Y-98074494D01*
X121169502Y-97964180D01*
X121205812Y-97844482D01*
X121218072Y-97720000D01*
X121218072Y-95320000D01*
X121205812Y-95195518D01*
X121169502Y-95075820D01*
X121110537Y-94965506D01*
X121031185Y-94868815D01*
X120934494Y-94789463D01*
X120824180Y-94730498D01*
X120704482Y-94694188D01*
X120580000Y-94681928D01*
X118180000Y-94681928D01*
X118055518Y-94694188D01*
X117935820Y-94730498D01*
X117825506Y-94789463D01*
X117728815Y-94868815D01*
X117649463Y-94965506D01*
X117590498Y-95075820D01*
X117554188Y-95195518D01*
X117541928Y-95320000D01*
X113157000Y-95320000D01*
X113157000Y-94107000D01*
X123591639Y-94107000D01*
X123591628Y-94107016D01*
M02*
