G04 #@! TF.GenerationSoftware,KiCad,Pcbnew,(5.1.2-1)-1*
G04 #@! TF.CreationDate,2019-08-29T10:38:32+12:00*
G04 #@! TF.ProjectId,ModbusRTUFeather,4d6f6462-7573-4525-9455-466561746865,rev?*
G04 #@! TF.SameCoordinates,Original*
G04 #@! TF.FileFunction,Legend,Top*
G04 #@! TF.FilePolarity,Positive*
%FSLAX46Y46*%
G04 Gerber Fmt 4.6, Leading zero omitted, Abs format (unit mm)*
G04 Created by KiCad (PCBNEW (5.1.2-1)-1) date 2019-08-29 10:38:32*
%MOMM*%
%LPD*%
G04 APERTURE LIST*
%ADD10C,0.300000*%
%ADD11C,0.250000*%
%ADD12C,0.150000*%
%ADD13C,0.120000*%
G04 APERTURE END LIST*
D10*
X113607142Y-107342857D02*
X113821428Y-107414285D01*
X113892857Y-107485714D01*
X113964285Y-107628571D01*
X113964285Y-107842857D01*
X113892857Y-107985714D01*
X113821428Y-108057142D01*
X113678571Y-108128571D01*
X113107142Y-108128571D01*
X113107142Y-106628571D01*
X113607142Y-106628571D01*
X113750000Y-106700000D01*
X113821428Y-106771428D01*
X113892857Y-106914285D01*
X113892857Y-107057142D01*
X113821428Y-107200000D01*
X113750000Y-107271428D01*
X113607142Y-107342857D01*
X113107142Y-107342857D01*
X113142857Y-112800000D02*
X113857142Y-112800000D01*
X113000000Y-113228571D02*
X113500000Y-111728571D01*
X114000000Y-113228571D01*
D11*
X112738095Y-99500000D02*
X112642857Y-99452380D01*
X112500000Y-99452380D01*
X112357142Y-99500000D01*
X112261904Y-99595238D01*
X112214285Y-99690476D01*
X112166666Y-99880952D01*
X112166666Y-100023809D01*
X112214285Y-100214285D01*
X112261904Y-100309523D01*
X112357142Y-100404761D01*
X112500000Y-100452380D01*
X112595238Y-100452380D01*
X112738095Y-100404761D01*
X112785714Y-100357142D01*
X112785714Y-100023809D01*
X112595238Y-100023809D01*
X113214285Y-100452380D02*
X113214285Y-99452380D01*
X113785714Y-100452380D01*
X113785714Y-99452380D01*
X114261904Y-100452380D02*
X114261904Y-99452380D01*
X114500000Y-99452380D01*
X114642857Y-99500000D01*
X114738095Y-99595238D01*
X114785714Y-99690476D01*
X114833333Y-99880952D01*
X114833333Y-100023809D01*
X114785714Y-100214285D01*
X114738095Y-100309523D01*
X114642857Y-100404761D01*
X114500000Y-100452380D01*
X114261904Y-100452380D01*
D10*
X113285714Y-95678571D02*
X112571428Y-95678571D01*
X112500000Y-96392857D01*
X112571428Y-96321428D01*
X112714285Y-96250000D01*
X113071428Y-96250000D01*
X113214285Y-96321428D01*
X113285714Y-96392857D01*
X113357142Y-96535714D01*
X113357142Y-96892857D01*
X113285714Y-97035714D01*
X113214285Y-97107142D01*
X113071428Y-97178571D01*
X112714285Y-97178571D01*
X112571428Y-97107142D01*
X112500000Y-97035714D01*
X113857142Y-96178571D02*
X114214285Y-97178571D01*
X114571428Y-96178571D01*
D12*
X133950000Y-108870000D02*
X133950000Y-109570000D01*
X132750000Y-109570000D02*
X132750000Y-108870000D01*
X128690000Y-99830000D02*
X128690000Y-100830000D01*
X130390000Y-100830000D02*
X130390000Y-99830000D01*
D13*
X135250000Y-99910000D02*
X135250000Y-98210000D01*
X135250000Y-98210000D02*
X132100000Y-98210000D01*
X135250000Y-99910000D02*
X132100000Y-99910000D01*
X117580000Y-103590000D02*
X117580000Y-104690000D01*
X117580000Y-104690000D02*
X120180000Y-104690000D01*
X117580000Y-103590000D02*
X120180000Y-103590000D01*
D12*
X130310000Y-103465000D02*
X131310000Y-103465000D01*
X131310000Y-104815000D02*
X130310000Y-104815000D01*
X126325000Y-108450000D02*
X126325000Y-107450000D01*
X127675000Y-107450000D02*
X127675000Y-108450000D01*
X138395000Y-107485000D02*
X138445000Y-107485000D01*
X138395000Y-103335000D02*
X138540000Y-103335000D01*
X143545000Y-103335000D02*
X143400000Y-103335000D01*
X143545000Y-107485000D02*
X143400000Y-107485000D01*
X138395000Y-107485000D02*
X138395000Y-103335000D01*
X143545000Y-107485000D02*
X143545000Y-103335000D01*
X138445000Y-107485000D02*
X138445000Y-108885000D01*
X115280000Y-98270000D02*
X114880000Y-98270000D01*
X116380000Y-94770000D02*
X116380000Y-101770000D01*
X115280000Y-94770000D02*
X115280000Y-101770000D01*
X122480000Y-94770000D02*
X114880000Y-94770000D01*
X114880000Y-101770000D02*
X122480000Y-101770000D01*
X122480000Y-101770000D02*
X122480000Y-94770000D01*
X115280000Y-110010000D02*
X114880000Y-110010000D01*
X116380000Y-106510000D02*
X116380000Y-113510000D01*
X115280000Y-106510000D02*
X115280000Y-113510000D01*
X122480000Y-106510000D02*
X114880000Y-106510000D01*
X114880000Y-113510000D02*
X122480000Y-113510000D01*
X122480000Y-113510000D02*
X122480000Y-106510000D01*
M02*
