M48
; DRILL file {KiCad (5.1.6-0-10_14)} date Friday, August 14, 2020 at 02:07:08 PM
; FORMAT={-:-/ absolute / inch / decimal}
; #@! TF.CreationDate,2020-08-14T14:07:08-07:00
; #@! TF.GenerationSoftware,Kicad,Pcbnew,(5.1.6-0-10_14)
; #@! TF.FileFunction,NonPlated,1,2,NPTH
FMAT,2
INCH
T1C0.0197
T2C0.1000
%
G90
G05
T1
X4.5866Y-4.5418
X4.5866Y-4.6402
X4.626Y-4.5418
X4.626Y-4.6402
X4.6654Y-4.5418
X4.6654Y-4.6402
X4.7047Y-4.5418
X4.7047Y-4.6402
X4.7441Y-4.5418
X4.7441Y-4.6402
X4.5866Y-5.5217
X4.5866Y-5.6201
X4.626Y-5.5217
X4.626Y-5.6201
X4.6654Y-5.5217
X4.6654Y-5.6201
X4.7047Y-5.5217
X4.7047Y-5.6201
X4.7441Y-5.5217
X4.7441Y-5.6201
X6.9291Y-5.5217
X6.9291Y-5.6201
X6.9685Y-5.5217
X6.9685Y-5.6201
X7.0079Y-5.5217
X7.0079Y-5.6201
X7.0472Y-5.5217
X7.0472Y-5.6201
X7.0866Y-5.5217
X7.0866Y-5.6201
X6.9488Y-4.5374
X6.9488Y-4.6358
X6.9882Y-4.5374
X6.9882Y-4.6358
X7.0276Y-4.5374
X7.0276Y-4.6358
X7.0669Y-4.5374
X7.0669Y-4.6358
X7.1063Y-4.5374
X7.1063Y-4.6358
T2
X4.9501Y-5.713
X4.9501Y-6.413
X6.7501Y-5.713
X6.7501Y-6.413
X4.9501Y-4.7343
X4.9501Y-5.4343
X6.7501Y-4.7343
X6.7501Y-5.4343
X4.95Y-3.75
X4.95Y-4.45
X6.75Y-3.75
X6.75Y-4.45
T0
M30
