%TF.GenerationSoftware,KiCad,Pcbnew,(5.1.6-0-10_14)*%
%TF.CreationDate,2020-08-14T14:07:03-07:00*%
%TF.ProjectId,panel,70616e65-6c2e-46b6-9963-61645f706362,rev?*%
%TF.SameCoordinates,Original*%
%TF.FileFunction,Legend,Top*%
%TF.FilePolarity,Positive*%
%FSLAX46Y46*%
G04 Gerber Fmt 4.6, Leading zero omitted, Abs format (unit mm)*
G04 Created by KiCad (PCBNEW (5.1.6-0-10_14)) date 2020-08-14 14:07:03*
%MOMM*%
%LPD*%
G01*
G04 APERTURE LIST*
%ADD10C,0.150000*%
%ADD11C,0.250000*%
%ADD12C,0.120000*%
G04 APERTURE END LIST*
D10*
X119738095Y-108000000D02*
X119642857Y-107952380D01*
X119500000Y-107952380D01*
X119357142Y-108000000D01*
X119261904Y-108095238D01*
X119214285Y-108190476D01*
X119166666Y-108380952D01*
X119166666Y-108523809D01*
X119214285Y-108714285D01*
X119261904Y-108809523D01*
X119357142Y-108904761D01*
X119500000Y-108952380D01*
X119595238Y-108952380D01*
X119738095Y-108904761D01*
X119785714Y-108857142D01*
X119785714Y-108523809D01*
X119595238Y-108523809D01*
X120214285Y-108952380D02*
X120214285Y-107952380D01*
X120785714Y-108952380D01*
X120785714Y-107952380D01*
X121261904Y-108952380D02*
X121261904Y-107952380D01*
X121500000Y-107952380D01*
X121642857Y-108000000D01*
X121738095Y-108095238D01*
X121785714Y-108190476D01*
X121833333Y-108380952D01*
X121833333Y-108523809D01*
X121785714Y-108714285D01*
X121738095Y-108809523D01*
X121642857Y-108904761D01*
X121500000Y-108952380D01*
X121261904Y-108952380D01*
X116261904Y-108428571D02*
X116595238Y-108428571D01*
X116738095Y-108952380D02*
X116261904Y-108952380D01*
X116261904Y-107952380D01*
X116738095Y-107952380D01*
X117166666Y-108952380D02*
X117166666Y-107952380D01*
X117738095Y-108952380D01*
X117738095Y-107952380D01*
X112952380Y-108952380D02*
X112619047Y-108476190D01*
X112380952Y-108952380D02*
X112380952Y-107952380D01*
X112761904Y-107952380D01*
X112857142Y-108000000D01*
X112904761Y-108047619D01*
X112952380Y-108142857D01*
X112952380Y-108285714D01*
X112904761Y-108380952D01*
X112857142Y-108428571D01*
X112761904Y-108476190D01*
X112380952Y-108476190D01*
X113333333Y-108904761D02*
X113476190Y-108952380D01*
X113714285Y-108952380D01*
X113809523Y-108904761D01*
X113857142Y-108857142D01*
X113904761Y-108761904D01*
X113904761Y-108666666D01*
X113857142Y-108571428D01*
X113809523Y-108523809D01*
X113714285Y-108476190D01*
X113523809Y-108428571D01*
X113428571Y-108380952D01*
X113380952Y-108333333D01*
X113333333Y-108238095D01*
X113333333Y-108142857D01*
X113380952Y-108047619D01*
X113428571Y-108000000D01*
X113523809Y-107952380D01*
X113761904Y-107952380D01*
X113904761Y-108000000D01*
X114190476Y-107952380D02*
X114761904Y-107952380D01*
X114476190Y-108952380D02*
X114476190Y-107952380D01*
X116261904Y-99666666D02*
X116738095Y-99666666D01*
X116166666Y-99952380D02*
X116500000Y-98952380D01*
X116833333Y-99952380D01*
D11*
X183738095Y-95000000D02*
X183642857Y-94952380D01*
X183500000Y-94952380D01*
X183357142Y-95000000D01*
X183261904Y-95095238D01*
X183214285Y-95190476D01*
X183166666Y-95380952D01*
X183166666Y-95523809D01*
X183214285Y-95714285D01*
X183261904Y-95809523D01*
X183357142Y-95904761D01*
X183500000Y-95952380D01*
X183595238Y-95952380D01*
X183738095Y-95904761D01*
X183785714Y-95857142D01*
X183785714Y-95523809D01*
X183595238Y-95523809D01*
X184214285Y-95952380D02*
X184214285Y-94952380D01*
X184785714Y-95952380D01*
X184785714Y-94952380D01*
X185261904Y-95952380D02*
X185261904Y-94952380D01*
X185500000Y-94952380D01*
X185642857Y-95000000D01*
X185738095Y-95095238D01*
X185785714Y-95190476D01*
X185833333Y-95380952D01*
X185833333Y-95523809D01*
X185785714Y-95714285D01*
X185738095Y-95809523D01*
X185642857Y-95904761D01*
X185500000Y-95952380D01*
X185261904Y-95952380D01*
X183738095Y-98500000D02*
X183642857Y-98452380D01*
X183500000Y-98452380D01*
X183357142Y-98500000D01*
X183261904Y-98595238D01*
X183214285Y-98690476D01*
X183166666Y-98880952D01*
X183166666Y-99023809D01*
X183214285Y-99214285D01*
X183261904Y-99309523D01*
X183357142Y-99404761D01*
X183500000Y-99452380D01*
X183595238Y-99452380D01*
X183738095Y-99404761D01*
X183785714Y-99357142D01*
X183785714Y-99023809D01*
X183595238Y-99023809D01*
X184214285Y-99452380D02*
X184214285Y-98452380D01*
X184785714Y-99452380D01*
X184785714Y-98452380D01*
X185261904Y-99452380D02*
X185261904Y-98452380D01*
X185500000Y-98452380D01*
X185642857Y-98500000D01*
X185738095Y-98595238D01*
X185785714Y-98690476D01*
X185833333Y-98880952D01*
X185833333Y-99023809D01*
X185785714Y-99214285D01*
X185738095Y-99309523D01*
X185642857Y-99404761D01*
X185500000Y-99452380D01*
X185261904Y-99452380D01*
X183738095Y-102000000D02*
X183642857Y-101952380D01*
X183500000Y-101952380D01*
X183357142Y-102000000D01*
X183261904Y-102095238D01*
X183214285Y-102190476D01*
X183166666Y-102380952D01*
X183166666Y-102523809D01*
X183214285Y-102714285D01*
X183261904Y-102809523D01*
X183357142Y-102904761D01*
X183500000Y-102952380D01*
X183595238Y-102952380D01*
X183738095Y-102904761D01*
X183785714Y-102857142D01*
X183785714Y-102523809D01*
X183595238Y-102523809D01*
X184214285Y-102952380D02*
X184214285Y-101952380D01*
X184785714Y-102952380D01*
X184785714Y-101952380D01*
X185261904Y-102952380D02*
X185261904Y-101952380D01*
X185500000Y-101952380D01*
X185642857Y-102000000D01*
X185738095Y-102095238D01*
X185785714Y-102190476D01*
X185833333Y-102380952D01*
X185833333Y-102523809D01*
X185785714Y-102714285D01*
X185738095Y-102809523D01*
X185642857Y-102904761D01*
X185500000Y-102952380D01*
X185261904Y-102952380D01*
X183357142Y-105547619D02*
X183404761Y-105500000D01*
X183500000Y-105452380D01*
X183738095Y-105452380D01*
X183833333Y-105500000D01*
X183880952Y-105547619D01*
X183928571Y-105642857D01*
X183928571Y-105738095D01*
X183880952Y-105880952D01*
X183309523Y-106452380D01*
X183928571Y-106452380D01*
X184785714Y-105785714D02*
X184785714Y-106452380D01*
X184547619Y-105404761D02*
X184309523Y-106119047D01*
X184928571Y-106119047D01*
X185214285Y-105785714D02*
X185452380Y-106452380D01*
X185690476Y-105785714D01*
D10*
X120071428Y-99428571D02*
X120214285Y-99476190D01*
X120261904Y-99523809D01*
X120309523Y-99619047D01*
X120309523Y-99761904D01*
X120261904Y-99857142D01*
X120214285Y-99904761D01*
X120119047Y-99952380D01*
X119738095Y-99952380D01*
X119738095Y-98952380D01*
X120071428Y-98952380D01*
X120166666Y-99000000D01*
X120214285Y-99047619D01*
X120261904Y-99142857D01*
X120261904Y-99238095D01*
X120214285Y-99333333D01*
X120166666Y-99380952D01*
X120071428Y-99428571D01*
X119738095Y-99428571D01*
D11*
X183357142Y-109317619D02*
X183404761Y-109270000D01*
X183500000Y-109222380D01*
X183738095Y-109222380D01*
X183833333Y-109270000D01*
X183880952Y-109317619D01*
X183928571Y-109412857D01*
X183928571Y-109508095D01*
X183880952Y-109650952D01*
X183309523Y-110222380D01*
X183928571Y-110222380D01*
X184785714Y-109555714D02*
X184785714Y-110222380D01*
X184547619Y-109174761D02*
X184309523Y-109889047D01*
X184928571Y-109889047D01*
X185214285Y-109555714D02*
X185452380Y-110222380D01*
X185690476Y-109555714D01*
X183357142Y-112817619D02*
X183404761Y-112770000D01*
X183500000Y-112722380D01*
X183738095Y-112722380D01*
X183833333Y-112770000D01*
X183880952Y-112817619D01*
X183928571Y-112912857D01*
X183928571Y-113008095D01*
X183880952Y-113150952D01*
X183309523Y-113722380D01*
X183928571Y-113722380D01*
X184785714Y-113055714D02*
X184785714Y-113722380D01*
X184547619Y-112674761D02*
X184309523Y-113389047D01*
X184928571Y-113389047D01*
X185214285Y-113055714D02*
X185452380Y-113722380D01*
X185690476Y-113055714D01*
D10*
X119740095Y-133000000D02*
X119644857Y-132952380D01*
X119502000Y-132952380D01*
X119359142Y-133000000D01*
X119263904Y-133095238D01*
X119216285Y-133190476D01*
X119168666Y-133380952D01*
X119168666Y-133523809D01*
X119216285Y-133714285D01*
X119263904Y-133809523D01*
X119359142Y-133904761D01*
X119502000Y-133952380D01*
X119597238Y-133952380D01*
X119740095Y-133904761D01*
X119787714Y-133857142D01*
X119787714Y-133523809D01*
X119597238Y-133523809D01*
X120216285Y-133952380D02*
X120216285Y-132952380D01*
X120787714Y-133952380D01*
X120787714Y-132952380D01*
X121263904Y-133952380D02*
X121263904Y-132952380D01*
X121502000Y-132952380D01*
X121644857Y-133000000D01*
X121740095Y-133095238D01*
X121787714Y-133190476D01*
X121835333Y-133380952D01*
X121835333Y-133523809D01*
X121787714Y-133714285D01*
X121740095Y-133809523D01*
X121644857Y-133904761D01*
X121502000Y-133952380D01*
X121263904Y-133952380D01*
X116263904Y-133428571D02*
X116597238Y-133428571D01*
X116740095Y-133952380D02*
X116263904Y-133952380D01*
X116263904Y-132952380D01*
X116740095Y-132952380D01*
X117168666Y-133952380D02*
X117168666Y-132952380D01*
X117740095Y-133952380D01*
X117740095Y-132952380D01*
X112954380Y-133952380D02*
X112621047Y-133476190D01*
X112382952Y-133952380D02*
X112382952Y-132952380D01*
X112763904Y-132952380D01*
X112859142Y-133000000D01*
X112906761Y-133047619D01*
X112954380Y-133142857D01*
X112954380Y-133285714D01*
X112906761Y-133380952D01*
X112859142Y-133428571D01*
X112763904Y-133476190D01*
X112382952Y-133476190D01*
X113335333Y-133904761D02*
X113478190Y-133952380D01*
X113716285Y-133952380D01*
X113811523Y-133904761D01*
X113859142Y-133857142D01*
X113906761Y-133761904D01*
X113906761Y-133666666D01*
X113859142Y-133571428D01*
X113811523Y-133523809D01*
X113716285Y-133476190D01*
X113525809Y-133428571D01*
X113430571Y-133380952D01*
X113382952Y-133333333D01*
X113335333Y-133238095D01*
X113335333Y-133142857D01*
X113382952Y-133047619D01*
X113430571Y-133000000D01*
X113525809Y-132952380D01*
X113763904Y-132952380D01*
X113906761Y-133000000D01*
X114192476Y-132952380D02*
X114763904Y-132952380D01*
X114478190Y-133952380D02*
X114478190Y-132952380D01*
X116263904Y-124666666D02*
X116740095Y-124666666D01*
X116168666Y-124952380D02*
X116502000Y-123952380D01*
X116835333Y-124952380D01*
D11*
X183740095Y-120000000D02*
X183644857Y-119952380D01*
X183502000Y-119952380D01*
X183359142Y-120000000D01*
X183263904Y-120095238D01*
X183216285Y-120190476D01*
X183168666Y-120380952D01*
X183168666Y-120523809D01*
X183216285Y-120714285D01*
X183263904Y-120809523D01*
X183359142Y-120904761D01*
X183502000Y-120952380D01*
X183597238Y-120952380D01*
X183740095Y-120904761D01*
X183787714Y-120857142D01*
X183787714Y-120523809D01*
X183597238Y-120523809D01*
X184216285Y-120952380D02*
X184216285Y-119952380D01*
X184787714Y-120952380D01*
X184787714Y-119952380D01*
X185263904Y-120952380D02*
X185263904Y-119952380D01*
X185502000Y-119952380D01*
X185644857Y-120000000D01*
X185740095Y-120095238D01*
X185787714Y-120190476D01*
X185835333Y-120380952D01*
X185835333Y-120523809D01*
X185787714Y-120714285D01*
X185740095Y-120809523D01*
X185644857Y-120904761D01*
X185502000Y-120952380D01*
X185263904Y-120952380D01*
X183740095Y-123500000D02*
X183644857Y-123452380D01*
X183502000Y-123452380D01*
X183359142Y-123500000D01*
X183263904Y-123595238D01*
X183216285Y-123690476D01*
X183168666Y-123880952D01*
X183168666Y-124023809D01*
X183216285Y-124214285D01*
X183263904Y-124309523D01*
X183359142Y-124404761D01*
X183502000Y-124452380D01*
X183597238Y-124452380D01*
X183740095Y-124404761D01*
X183787714Y-124357142D01*
X183787714Y-124023809D01*
X183597238Y-124023809D01*
X184216285Y-124452380D02*
X184216285Y-123452380D01*
X184787714Y-124452380D01*
X184787714Y-123452380D01*
X185263904Y-124452380D02*
X185263904Y-123452380D01*
X185502000Y-123452380D01*
X185644857Y-123500000D01*
X185740095Y-123595238D01*
X185787714Y-123690476D01*
X185835333Y-123880952D01*
X185835333Y-124023809D01*
X185787714Y-124214285D01*
X185740095Y-124309523D01*
X185644857Y-124404761D01*
X185502000Y-124452380D01*
X185263904Y-124452380D01*
X183740095Y-127000000D02*
X183644857Y-126952380D01*
X183502000Y-126952380D01*
X183359142Y-127000000D01*
X183263904Y-127095238D01*
X183216285Y-127190476D01*
X183168666Y-127380952D01*
X183168666Y-127523809D01*
X183216285Y-127714285D01*
X183263904Y-127809523D01*
X183359142Y-127904761D01*
X183502000Y-127952380D01*
X183597238Y-127952380D01*
X183740095Y-127904761D01*
X183787714Y-127857142D01*
X183787714Y-127523809D01*
X183597238Y-127523809D01*
X184216285Y-127952380D02*
X184216285Y-126952380D01*
X184787714Y-127952380D01*
X184787714Y-126952380D01*
X185263904Y-127952380D02*
X185263904Y-126952380D01*
X185502000Y-126952380D01*
X185644857Y-127000000D01*
X185740095Y-127095238D01*
X185787714Y-127190476D01*
X185835333Y-127380952D01*
X185835333Y-127523809D01*
X185787714Y-127714285D01*
X185740095Y-127809523D01*
X185644857Y-127904761D01*
X185502000Y-127952380D01*
X185263904Y-127952380D01*
X183359142Y-130547619D02*
X183406761Y-130500000D01*
X183502000Y-130452380D01*
X183740095Y-130452380D01*
X183835333Y-130500000D01*
X183882952Y-130547619D01*
X183930571Y-130642857D01*
X183930571Y-130738095D01*
X183882952Y-130880952D01*
X183311523Y-131452380D01*
X183930571Y-131452380D01*
X184787714Y-130785714D02*
X184787714Y-131452380D01*
X184549619Y-130404761D02*
X184311523Y-131119047D01*
X184930571Y-131119047D01*
X185216285Y-130785714D02*
X185454380Y-131452380D01*
X185692476Y-130785714D01*
D10*
X120073428Y-124428571D02*
X120216285Y-124476190D01*
X120263904Y-124523809D01*
X120311523Y-124619047D01*
X120311523Y-124761904D01*
X120263904Y-124857142D01*
X120216285Y-124904761D01*
X120121047Y-124952380D01*
X119740095Y-124952380D01*
X119740095Y-123952380D01*
X120073428Y-123952380D01*
X120168666Y-124000000D01*
X120216285Y-124047619D01*
X120263904Y-124142857D01*
X120263904Y-124238095D01*
X120216285Y-124333333D01*
X120168666Y-124380952D01*
X120073428Y-124428571D01*
X119740095Y-124428571D01*
D11*
X183359142Y-134317619D02*
X183406761Y-134270000D01*
X183502000Y-134222380D01*
X183740095Y-134222380D01*
X183835333Y-134270000D01*
X183882952Y-134317619D01*
X183930571Y-134412857D01*
X183930571Y-134508095D01*
X183882952Y-134650952D01*
X183311523Y-135222380D01*
X183930571Y-135222380D01*
X184787714Y-134555714D02*
X184787714Y-135222380D01*
X184549619Y-134174761D02*
X184311523Y-134889047D01*
X184930571Y-134889047D01*
X185216285Y-134555714D02*
X185454380Y-135222380D01*
X185692476Y-134555714D01*
X183359142Y-137817619D02*
X183406761Y-137770000D01*
X183502000Y-137722380D01*
X183740095Y-137722380D01*
X183835333Y-137770000D01*
X183882952Y-137817619D01*
X183930571Y-137912857D01*
X183930571Y-138008095D01*
X183882952Y-138150952D01*
X183311523Y-138722380D01*
X183930571Y-138722380D01*
X184787714Y-138055714D02*
X184787714Y-138722380D01*
X184549619Y-137674761D02*
X184311523Y-138389047D01*
X184930571Y-138389047D01*
X185216285Y-138055714D02*
X185454380Y-138722380D01*
X185692476Y-138055714D01*
D10*
X119740095Y-157860000D02*
X119644857Y-157812380D01*
X119502000Y-157812380D01*
X119359142Y-157860000D01*
X119263904Y-157955238D01*
X119216285Y-158050476D01*
X119168666Y-158240952D01*
X119168666Y-158383809D01*
X119216285Y-158574285D01*
X119263904Y-158669523D01*
X119359142Y-158764761D01*
X119502000Y-158812380D01*
X119597238Y-158812380D01*
X119740095Y-158764761D01*
X119787714Y-158717142D01*
X119787714Y-158383809D01*
X119597238Y-158383809D01*
X120216285Y-158812380D02*
X120216285Y-157812380D01*
X120787714Y-158812380D01*
X120787714Y-157812380D01*
X121263904Y-158812380D02*
X121263904Y-157812380D01*
X121502000Y-157812380D01*
X121644857Y-157860000D01*
X121740095Y-157955238D01*
X121787714Y-158050476D01*
X121835333Y-158240952D01*
X121835333Y-158383809D01*
X121787714Y-158574285D01*
X121740095Y-158669523D01*
X121644857Y-158764761D01*
X121502000Y-158812380D01*
X121263904Y-158812380D01*
X116263904Y-158288571D02*
X116597238Y-158288571D01*
X116740095Y-158812380D02*
X116263904Y-158812380D01*
X116263904Y-157812380D01*
X116740095Y-157812380D01*
X117168666Y-158812380D02*
X117168666Y-157812380D01*
X117740095Y-158812380D01*
X117740095Y-157812380D01*
X112954380Y-158812380D02*
X112621047Y-158336190D01*
X112382952Y-158812380D02*
X112382952Y-157812380D01*
X112763904Y-157812380D01*
X112859142Y-157860000D01*
X112906761Y-157907619D01*
X112954380Y-158002857D01*
X112954380Y-158145714D01*
X112906761Y-158240952D01*
X112859142Y-158288571D01*
X112763904Y-158336190D01*
X112382952Y-158336190D01*
X113335333Y-158764761D02*
X113478190Y-158812380D01*
X113716285Y-158812380D01*
X113811523Y-158764761D01*
X113859142Y-158717142D01*
X113906761Y-158621904D01*
X113906761Y-158526666D01*
X113859142Y-158431428D01*
X113811523Y-158383809D01*
X113716285Y-158336190D01*
X113525809Y-158288571D01*
X113430571Y-158240952D01*
X113382952Y-158193333D01*
X113335333Y-158098095D01*
X113335333Y-158002857D01*
X113382952Y-157907619D01*
X113430571Y-157860000D01*
X113525809Y-157812380D01*
X113763904Y-157812380D01*
X113906761Y-157860000D01*
X114192476Y-157812380D02*
X114763904Y-157812380D01*
X114478190Y-158812380D02*
X114478190Y-157812380D01*
X116263904Y-149526666D02*
X116740095Y-149526666D01*
X116168666Y-149812380D02*
X116502000Y-148812380D01*
X116835333Y-149812380D01*
D11*
X183740095Y-144860000D02*
X183644857Y-144812380D01*
X183502000Y-144812380D01*
X183359142Y-144860000D01*
X183263904Y-144955238D01*
X183216285Y-145050476D01*
X183168666Y-145240952D01*
X183168666Y-145383809D01*
X183216285Y-145574285D01*
X183263904Y-145669523D01*
X183359142Y-145764761D01*
X183502000Y-145812380D01*
X183597238Y-145812380D01*
X183740095Y-145764761D01*
X183787714Y-145717142D01*
X183787714Y-145383809D01*
X183597238Y-145383809D01*
X184216285Y-145812380D02*
X184216285Y-144812380D01*
X184787714Y-145812380D01*
X184787714Y-144812380D01*
X185263904Y-145812380D02*
X185263904Y-144812380D01*
X185502000Y-144812380D01*
X185644857Y-144860000D01*
X185740095Y-144955238D01*
X185787714Y-145050476D01*
X185835333Y-145240952D01*
X185835333Y-145383809D01*
X185787714Y-145574285D01*
X185740095Y-145669523D01*
X185644857Y-145764761D01*
X185502000Y-145812380D01*
X185263904Y-145812380D01*
X183740095Y-148360000D02*
X183644857Y-148312380D01*
X183502000Y-148312380D01*
X183359142Y-148360000D01*
X183263904Y-148455238D01*
X183216285Y-148550476D01*
X183168666Y-148740952D01*
X183168666Y-148883809D01*
X183216285Y-149074285D01*
X183263904Y-149169523D01*
X183359142Y-149264761D01*
X183502000Y-149312380D01*
X183597238Y-149312380D01*
X183740095Y-149264761D01*
X183787714Y-149217142D01*
X183787714Y-148883809D01*
X183597238Y-148883809D01*
X184216285Y-149312380D02*
X184216285Y-148312380D01*
X184787714Y-149312380D01*
X184787714Y-148312380D01*
X185263904Y-149312380D02*
X185263904Y-148312380D01*
X185502000Y-148312380D01*
X185644857Y-148360000D01*
X185740095Y-148455238D01*
X185787714Y-148550476D01*
X185835333Y-148740952D01*
X185835333Y-148883809D01*
X185787714Y-149074285D01*
X185740095Y-149169523D01*
X185644857Y-149264761D01*
X185502000Y-149312380D01*
X185263904Y-149312380D01*
X183740095Y-151860000D02*
X183644857Y-151812380D01*
X183502000Y-151812380D01*
X183359142Y-151860000D01*
X183263904Y-151955238D01*
X183216285Y-152050476D01*
X183168666Y-152240952D01*
X183168666Y-152383809D01*
X183216285Y-152574285D01*
X183263904Y-152669523D01*
X183359142Y-152764761D01*
X183502000Y-152812380D01*
X183597238Y-152812380D01*
X183740095Y-152764761D01*
X183787714Y-152717142D01*
X183787714Y-152383809D01*
X183597238Y-152383809D01*
X184216285Y-152812380D02*
X184216285Y-151812380D01*
X184787714Y-152812380D01*
X184787714Y-151812380D01*
X185263904Y-152812380D02*
X185263904Y-151812380D01*
X185502000Y-151812380D01*
X185644857Y-151860000D01*
X185740095Y-151955238D01*
X185787714Y-152050476D01*
X185835333Y-152240952D01*
X185835333Y-152383809D01*
X185787714Y-152574285D01*
X185740095Y-152669523D01*
X185644857Y-152764761D01*
X185502000Y-152812380D01*
X185263904Y-152812380D01*
X183359142Y-155407619D02*
X183406761Y-155360000D01*
X183502000Y-155312380D01*
X183740095Y-155312380D01*
X183835333Y-155360000D01*
X183882952Y-155407619D01*
X183930571Y-155502857D01*
X183930571Y-155598095D01*
X183882952Y-155740952D01*
X183311523Y-156312380D01*
X183930571Y-156312380D01*
X184787714Y-155645714D02*
X184787714Y-156312380D01*
X184549619Y-155264761D02*
X184311523Y-155979047D01*
X184930571Y-155979047D01*
X185216285Y-155645714D02*
X185454380Y-156312380D01*
X185692476Y-155645714D01*
D10*
X120073428Y-149288571D02*
X120216285Y-149336190D01*
X120263904Y-149383809D01*
X120311523Y-149479047D01*
X120311523Y-149621904D01*
X120263904Y-149717142D01*
X120216285Y-149764761D01*
X120121047Y-149812380D01*
X119740095Y-149812380D01*
X119740095Y-148812380D01*
X120073428Y-148812380D01*
X120168666Y-148860000D01*
X120216285Y-148907619D01*
X120263904Y-149002857D01*
X120263904Y-149098095D01*
X120216285Y-149193333D01*
X120168666Y-149240952D01*
X120073428Y-149288571D01*
X119740095Y-149288571D01*
D11*
X183359142Y-159177619D02*
X183406761Y-159130000D01*
X183502000Y-159082380D01*
X183740095Y-159082380D01*
X183835333Y-159130000D01*
X183882952Y-159177619D01*
X183930571Y-159272857D01*
X183930571Y-159368095D01*
X183882952Y-159510952D01*
X183311523Y-160082380D01*
X183930571Y-160082380D01*
X184787714Y-159415714D02*
X184787714Y-160082380D01*
X184549619Y-159034761D02*
X184311523Y-159749047D01*
X184930571Y-159749047D01*
X185216285Y-159415714D02*
X185454380Y-160082380D01*
X185692476Y-159415714D01*
X183359142Y-162677619D02*
X183406761Y-162630000D01*
X183502000Y-162582380D01*
X183740095Y-162582380D01*
X183835333Y-162630000D01*
X183882952Y-162677619D01*
X183930571Y-162772857D01*
X183930571Y-162868095D01*
X183882952Y-163010952D01*
X183311523Y-163582380D01*
X183930571Y-163582380D01*
X184787714Y-162915714D02*
X184787714Y-163582380D01*
X184549619Y-162534761D02*
X184311523Y-163249047D01*
X184930571Y-163249047D01*
X185216285Y-162915714D02*
X185454380Y-163582380D01*
X185692476Y-162915714D01*
D10*
%TO.C,C1*%
X131400000Y-110850000D02*
X131400000Y-110150000D01*
X132600000Y-110150000D02*
X132600000Y-110850000D01*
%TO.C,C2*%
X169350000Y-105000000D02*
X169350000Y-104000000D01*
X167650000Y-104000000D02*
X167650000Y-105000000D01*
D12*
%TO.C,D1*%
X171850000Y-102600000D02*
X171850000Y-105750000D01*
X170150000Y-102600000D02*
X170150000Y-105750000D01*
X171850000Y-102600000D02*
X170150000Y-102600000D01*
%TO.C,D2*%
X123700000Y-102450000D02*
X126300000Y-102450000D01*
X123700000Y-103550000D02*
X126300000Y-103550000D01*
X123700000Y-102450000D02*
X123700000Y-103550000D01*
D10*
%TO.C,R1*%
X131000000Y-103675000D02*
X130000000Y-103675000D01*
X130000000Y-102325000D02*
X131000000Y-102325000D01*
%TO.C,R2*%
X126325000Y-108450000D02*
X126325000Y-107450000D01*
X127675000Y-107450000D02*
X127675000Y-108450000D01*
%TO.C,U2*%
X140075000Y-107935000D02*
X141475000Y-107935000D01*
X140075000Y-102835000D02*
X135925000Y-102835000D01*
X140075000Y-107985000D02*
X135925000Y-107985000D01*
X140075000Y-102835000D02*
X140075000Y-102980000D01*
X135925000Y-102835000D02*
X135925000Y-102980000D01*
X135925000Y-107985000D02*
X135925000Y-107840000D01*
X140075000Y-107985000D02*
X140075000Y-107935000D01*
%TO.C,J1*%
X175400000Y-100750000D02*
X175400000Y-107750000D01*
X183000000Y-100750000D02*
X175400000Y-100750000D01*
X175400000Y-107750000D02*
X183000000Y-107750000D01*
X182600000Y-107750000D02*
X182600000Y-100750000D01*
X181500000Y-107750000D02*
X181500000Y-100750000D01*
X182600000Y-104250000D02*
X183000000Y-104250000D01*
%TO.C,J2*%
X114750000Y-98350000D02*
X121750000Y-98350000D01*
X114750000Y-90750000D02*
X114750000Y-98350000D01*
X121750000Y-98350000D02*
X121750000Y-90750000D01*
X121750000Y-91150000D02*
X114750000Y-91150000D01*
X121750000Y-92250000D02*
X114750000Y-92250000D01*
X118250000Y-91150000D02*
X118250000Y-90750000D01*
D12*
%TO.C,J5*%
X183300000Y-115050000D02*
X183300000Y-114650000D01*
X182660000Y-115050000D02*
X183300000Y-115050000D01*
X179441000Y-110645000D02*
X179569000Y-110774000D01*
X177225000Y-108430000D02*
X177319000Y-108524000D01*
X179681000Y-110475000D02*
X179774000Y-110569000D01*
X177431000Y-108225000D02*
X177559000Y-108354000D01*
X175340000Y-107690000D02*
X183060000Y-107690000D01*
X175340000Y-114810000D02*
X183060000Y-114810000D01*
X183060000Y-114810000D02*
X183060000Y-107690000D01*
X175340000Y-114810000D02*
X175340000Y-107690000D01*
X181500000Y-114810000D02*
X181500000Y-107690000D01*
X182600000Y-114810000D02*
X182600000Y-107690000D01*
X180180000Y-109500000D02*
G75*
G03*
X180180000Y-109500000I-1680000J0D01*
G01*
X179924721Y-112109736D02*
G75*
G02*
X180180000Y-113000000I-1424721J-890264D01*
G01*
X177609807Y-111574495D02*
G75*
G02*
X179391000Y-111575000I890193J-1425505D01*
G01*
X177074642Y-113889894D02*
G75*
G02*
X177060000Y-112134000I1425358J889894D01*
G01*
X179389894Y-114425358D02*
G75*
G02*
X177634000Y-114440000I-889894J1425358D01*
G01*
X180180099Y-112971326D02*
G75*
G02*
X179940000Y-113866000I-1680099J-28674D01*
G01*
%TO.C,J6*%
X180180000Y-95500000D02*
G75*
G03*
X180180000Y-95500000I-1680000J0D01*
G01*
X182600000Y-100810000D02*
X182600000Y-93690000D01*
X181500000Y-100810000D02*
X181500000Y-93690000D01*
X175340000Y-100810000D02*
X175340000Y-93690000D01*
X183060000Y-100810000D02*
X183060000Y-93690000D01*
X175340000Y-100810000D02*
X183060000Y-100810000D01*
X175340000Y-93690000D02*
X183060000Y-93690000D01*
X177431000Y-94225000D02*
X177559000Y-94354000D01*
X179681000Y-96475000D02*
X179774000Y-96569000D01*
X177225000Y-94430000D02*
X177319000Y-94524000D01*
X179441000Y-96645000D02*
X179569000Y-96774000D01*
X182660000Y-101050000D02*
X183300000Y-101050000D01*
X183300000Y-101050000D02*
X183300000Y-100650000D01*
X180180099Y-98971326D02*
G75*
G02*
X179940000Y-99866000I-1680099J-28674D01*
G01*
X179389894Y-100425358D02*
G75*
G02*
X177634000Y-100440000I-889894J1425358D01*
G01*
X177074642Y-99889894D02*
G75*
G02*
X177060000Y-98134000I1425358J889894D01*
G01*
X177609807Y-97574495D02*
G75*
G02*
X179391000Y-97575000I890193J-1425505D01*
G01*
X179924721Y-98109736D02*
G75*
G02*
X180180000Y-99000000I-1424721J-890264D01*
G01*
D10*
%TO.C,U3*%
X165580000Y-111350000D02*
X165580000Y-98650000D01*
X155420000Y-111350000D02*
X165580000Y-111350000D01*
X155420000Y-108810000D02*
X155420000Y-111350000D01*
X155420000Y-106270000D02*
X155420000Y-108810000D01*
X155420000Y-103730000D02*
X155420000Y-106270000D01*
X155420000Y-101190000D02*
X155420000Y-103730000D01*
X155420000Y-98650000D02*
X155420000Y-101190000D01*
X157960000Y-98650000D02*
X155420000Y-98650000D01*
X160500000Y-98650000D02*
X157960000Y-98650000D01*
X163040000Y-98650000D02*
X160500000Y-98650000D01*
X165580000Y-98650000D02*
X163040000Y-98650000D01*
D12*
%TO.C,J7*%
X111450000Y-117800000D02*
X111850000Y-117800000D01*
X111450000Y-117160000D02*
X111450000Y-117800000D01*
X119355000Y-113941000D02*
X119226000Y-114069000D01*
X121570000Y-111725000D02*
X121476000Y-111819000D01*
X119525000Y-114181000D02*
X119431000Y-114274000D01*
X121775000Y-111931000D02*
X121646000Y-112059000D01*
X115855000Y-113941000D02*
X115726000Y-114069000D01*
X118070000Y-111725000D02*
X117976000Y-111819000D01*
X116025000Y-114181000D02*
X115931000Y-114274000D01*
X118275000Y-111931000D02*
X118146000Y-112059000D01*
X122310000Y-109840000D02*
X122310000Y-117560000D01*
X111690000Y-109840000D02*
X111690000Y-117560000D01*
X111690000Y-117560000D02*
X122310000Y-117560000D01*
X111690000Y-109840000D02*
X122310000Y-109840000D01*
X111690000Y-116000000D02*
X122310000Y-116000000D01*
X111690000Y-117100000D02*
X122310000Y-117100000D01*
X122180000Y-113000000D02*
G75*
G03*
X122180000Y-113000000I-1680000J0D01*
G01*
X118680000Y-113000000D02*
G75*
G03*
X118680000Y-113000000I-1680000J0D01*
G01*
X114390264Y-114424721D02*
G75*
G02*
X113500000Y-114680000I-890264J1424721D01*
G01*
X114925505Y-112109807D02*
G75*
G02*
X114925000Y-113891000I-1425505J-890193D01*
G01*
X112610106Y-111574642D02*
G75*
G02*
X114366000Y-111560000I889894J-1425358D01*
G01*
X112074642Y-113889894D02*
G75*
G02*
X112060000Y-112134000I1425358J889894D01*
G01*
X113528674Y-114680099D02*
G75*
G02*
X112634000Y-114440000I-28674J1680099D01*
G01*
D10*
%TO.C,C1*%
X131402000Y-135850000D02*
X131402000Y-135150000D01*
X132602000Y-135150000D02*
X132602000Y-135850000D01*
%TO.C,C2*%
X169352000Y-130000000D02*
X169352000Y-129000000D01*
X167652000Y-129000000D02*
X167652000Y-130000000D01*
D12*
%TO.C,D1*%
X171852000Y-127600000D02*
X171852000Y-130750000D01*
X170152000Y-127600000D02*
X170152000Y-130750000D01*
X171852000Y-127600000D02*
X170152000Y-127600000D01*
%TO.C,D2*%
X123702000Y-127450000D02*
X126302000Y-127450000D01*
X123702000Y-128550000D02*
X126302000Y-128550000D01*
X123702000Y-127450000D02*
X123702000Y-128550000D01*
D10*
%TO.C,R1*%
X131002000Y-128675000D02*
X130002000Y-128675000D01*
X130002000Y-127325000D02*
X131002000Y-127325000D01*
%TO.C,R2*%
X126327000Y-133450000D02*
X126327000Y-132450000D01*
X127677000Y-132450000D02*
X127677000Y-133450000D01*
%TO.C,U2*%
X140077000Y-132935000D02*
X141477000Y-132935000D01*
X140077000Y-127835000D02*
X135927000Y-127835000D01*
X140077000Y-132985000D02*
X135927000Y-132985000D01*
X140077000Y-127835000D02*
X140077000Y-127980000D01*
X135927000Y-127835000D02*
X135927000Y-127980000D01*
X135927000Y-132985000D02*
X135927000Y-132840000D01*
X140077000Y-132985000D02*
X140077000Y-132935000D01*
%TO.C,J1*%
X175402000Y-125750000D02*
X175402000Y-132750000D01*
X183002000Y-125750000D02*
X175402000Y-125750000D01*
X175402000Y-132750000D02*
X183002000Y-132750000D01*
X182602000Y-132750000D02*
X182602000Y-125750000D01*
X181502000Y-132750000D02*
X181502000Y-125750000D01*
X182602000Y-129250000D02*
X183002000Y-129250000D01*
%TO.C,J2*%
X114752000Y-123350000D02*
X121752000Y-123350000D01*
X114752000Y-115750000D02*
X114752000Y-123350000D01*
X121752000Y-123350000D02*
X121752000Y-115750000D01*
X121752000Y-116150000D02*
X114752000Y-116150000D01*
X121752000Y-117250000D02*
X114752000Y-117250000D01*
X118252000Y-116150000D02*
X118252000Y-115750000D01*
D12*
%TO.C,J5*%
X183302000Y-140050000D02*
X183302000Y-139650000D01*
X182662000Y-140050000D02*
X183302000Y-140050000D01*
X179443000Y-135645000D02*
X179571000Y-135774000D01*
X177227000Y-133430000D02*
X177321000Y-133524000D01*
X179683000Y-135475000D02*
X179776000Y-135569000D01*
X177433000Y-133225000D02*
X177561000Y-133354000D01*
X175342000Y-132690000D02*
X183062000Y-132690000D01*
X175342000Y-139810000D02*
X183062000Y-139810000D01*
X183062000Y-139810000D02*
X183062000Y-132690000D01*
X175342000Y-139810000D02*
X175342000Y-132690000D01*
X181502000Y-139810000D02*
X181502000Y-132690000D01*
X182602000Y-139810000D02*
X182602000Y-132690000D01*
X180182000Y-134500000D02*
G75*
G03*
X180182000Y-134500000I-1680000J0D01*
G01*
X179926721Y-137109736D02*
G75*
G02*
X180182000Y-138000000I-1424721J-890264D01*
G01*
X177611807Y-136574495D02*
G75*
G02*
X179393000Y-136575000I890193J-1425505D01*
G01*
X177076642Y-138889894D02*
G75*
G02*
X177062000Y-137134000I1425358J889894D01*
G01*
X179391894Y-139425358D02*
G75*
G02*
X177636000Y-139440000I-889894J1425358D01*
G01*
X180182099Y-137971326D02*
G75*
G02*
X179942000Y-138866000I-1680099J-28674D01*
G01*
%TO.C,J6*%
X180182000Y-120500000D02*
G75*
G03*
X180182000Y-120500000I-1680000J0D01*
G01*
X182602000Y-125810000D02*
X182602000Y-118690000D01*
X181502000Y-125810000D02*
X181502000Y-118690000D01*
X175342000Y-125810000D02*
X175342000Y-118690000D01*
X183062000Y-125810000D02*
X183062000Y-118690000D01*
X175342000Y-125810000D02*
X183062000Y-125810000D01*
X175342000Y-118690000D02*
X183062000Y-118690000D01*
X177433000Y-119225000D02*
X177561000Y-119354000D01*
X179683000Y-121475000D02*
X179776000Y-121569000D01*
X177227000Y-119430000D02*
X177321000Y-119524000D01*
X179443000Y-121645000D02*
X179571000Y-121774000D01*
X182662000Y-126050000D02*
X183302000Y-126050000D01*
X183302000Y-126050000D02*
X183302000Y-125650000D01*
X180182099Y-123971326D02*
G75*
G02*
X179942000Y-124866000I-1680099J-28674D01*
G01*
X179391894Y-125425358D02*
G75*
G02*
X177636000Y-125440000I-889894J1425358D01*
G01*
X177076642Y-124889894D02*
G75*
G02*
X177062000Y-123134000I1425358J889894D01*
G01*
X177611807Y-122574495D02*
G75*
G02*
X179393000Y-122575000I890193J-1425505D01*
G01*
X179926721Y-123109736D02*
G75*
G02*
X180182000Y-124000000I-1424721J-890264D01*
G01*
D10*
%TO.C,U3*%
X165582000Y-136350000D02*
X165582000Y-123650000D01*
X155422000Y-136350000D02*
X165582000Y-136350000D01*
X155422000Y-133810000D02*
X155422000Y-136350000D01*
X155422000Y-131270000D02*
X155422000Y-133810000D01*
X155422000Y-128730000D02*
X155422000Y-131270000D01*
X155422000Y-126190000D02*
X155422000Y-128730000D01*
X155422000Y-123650000D02*
X155422000Y-126190000D01*
X157962000Y-123650000D02*
X155422000Y-123650000D01*
X160502000Y-123650000D02*
X157962000Y-123650000D01*
X163042000Y-123650000D02*
X160502000Y-123650000D01*
X165582000Y-123650000D02*
X163042000Y-123650000D01*
D12*
%TO.C,J7*%
X111452000Y-142800000D02*
X111852000Y-142800000D01*
X111452000Y-142160000D02*
X111452000Y-142800000D01*
X119357000Y-138941000D02*
X119228000Y-139069000D01*
X121572000Y-136725000D02*
X121478000Y-136819000D01*
X119527000Y-139181000D02*
X119433000Y-139274000D01*
X121777000Y-136931000D02*
X121648000Y-137059000D01*
X115857000Y-138941000D02*
X115728000Y-139069000D01*
X118072000Y-136725000D02*
X117978000Y-136819000D01*
X116027000Y-139181000D02*
X115933000Y-139274000D01*
X118277000Y-136931000D02*
X118148000Y-137059000D01*
X122312000Y-134840000D02*
X122312000Y-142560000D01*
X111692000Y-134840000D02*
X111692000Y-142560000D01*
X111692000Y-142560000D02*
X122312000Y-142560000D01*
X111692000Y-134840000D02*
X122312000Y-134840000D01*
X111692000Y-141000000D02*
X122312000Y-141000000D01*
X111692000Y-142100000D02*
X122312000Y-142100000D01*
X122182000Y-138000000D02*
G75*
G03*
X122182000Y-138000000I-1680000J0D01*
G01*
X118682000Y-138000000D02*
G75*
G03*
X118682000Y-138000000I-1680000J0D01*
G01*
X114392264Y-139424721D02*
G75*
G02*
X113502000Y-139680000I-890264J1424721D01*
G01*
X114927505Y-137109807D02*
G75*
G02*
X114927000Y-138891000I-1425505J-890193D01*
G01*
X112612106Y-136574642D02*
G75*
G02*
X114368000Y-136560000I889894J-1425358D01*
G01*
X112076642Y-138889894D02*
G75*
G02*
X112062000Y-137134000I1425358J889894D01*
G01*
X113530674Y-139680099D02*
G75*
G02*
X112636000Y-139440000I-28674J1680099D01*
G01*
D10*
%TO.C,C1*%
X131402000Y-160710000D02*
X131402000Y-160010000D01*
X132602000Y-160010000D02*
X132602000Y-160710000D01*
%TO.C,C2*%
X169352000Y-154860000D02*
X169352000Y-153860000D01*
X167652000Y-153860000D02*
X167652000Y-154860000D01*
D12*
%TO.C,D1*%
X171852000Y-152460000D02*
X171852000Y-155610000D01*
X170152000Y-152460000D02*
X170152000Y-155610000D01*
X171852000Y-152460000D02*
X170152000Y-152460000D01*
%TO.C,D2*%
X123702000Y-152310000D02*
X126302000Y-152310000D01*
X123702000Y-153410000D02*
X126302000Y-153410000D01*
X123702000Y-152310000D02*
X123702000Y-153410000D01*
D10*
%TO.C,R1*%
X131002000Y-153535000D02*
X130002000Y-153535000D01*
X130002000Y-152185000D02*
X131002000Y-152185000D01*
%TO.C,R2*%
X126327000Y-158310000D02*
X126327000Y-157310000D01*
X127677000Y-157310000D02*
X127677000Y-158310000D01*
%TO.C,U2*%
X140077000Y-157795000D02*
X141477000Y-157795000D01*
X140077000Y-152695000D02*
X135927000Y-152695000D01*
X140077000Y-157845000D02*
X135927000Y-157845000D01*
X140077000Y-152695000D02*
X140077000Y-152840000D01*
X135927000Y-152695000D02*
X135927000Y-152840000D01*
X135927000Y-157845000D02*
X135927000Y-157700000D01*
X140077000Y-157845000D02*
X140077000Y-157795000D01*
%TO.C,J1*%
X175402000Y-150610000D02*
X175402000Y-157610000D01*
X183002000Y-150610000D02*
X175402000Y-150610000D01*
X175402000Y-157610000D02*
X183002000Y-157610000D01*
X182602000Y-157610000D02*
X182602000Y-150610000D01*
X181502000Y-157610000D02*
X181502000Y-150610000D01*
X182602000Y-154110000D02*
X183002000Y-154110000D01*
%TO.C,J2*%
X114752000Y-148210000D02*
X121752000Y-148210000D01*
X114752000Y-140610000D02*
X114752000Y-148210000D01*
X121752000Y-148210000D02*
X121752000Y-140610000D01*
X121752000Y-141010000D02*
X114752000Y-141010000D01*
X121752000Y-142110000D02*
X114752000Y-142110000D01*
X118252000Y-141010000D02*
X118252000Y-140610000D01*
D12*
%TO.C,J5*%
X183302000Y-164910000D02*
X183302000Y-164510000D01*
X182662000Y-164910000D02*
X183302000Y-164910000D01*
X179443000Y-160505000D02*
X179571000Y-160634000D01*
X177227000Y-158290000D02*
X177321000Y-158384000D01*
X179683000Y-160335000D02*
X179776000Y-160429000D01*
X177433000Y-158085000D02*
X177561000Y-158214000D01*
X175342000Y-157550000D02*
X183062000Y-157550000D01*
X175342000Y-164670000D02*
X183062000Y-164670000D01*
X183062000Y-164670000D02*
X183062000Y-157550000D01*
X175342000Y-164670000D02*
X175342000Y-157550000D01*
X181502000Y-164670000D02*
X181502000Y-157550000D01*
X182602000Y-164670000D02*
X182602000Y-157550000D01*
X180182000Y-159360000D02*
G75*
G03*
X180182000Y-159360000I-1680000J0D01*
G01*
X179926721Y-161969736D02*
G75*
G02*
X180182000Y-162860000I-1424721J-890264D01*
G01*
X177611807Y-161434495D02*
G75*
G02*
X179393000Y-161435000I890193J-1425505D01*
G01*
X177076642Y-163749894D02*
G75*
G02*
X177062000Y-161994000I1425358J889894D01*
G01*
X179391894Y-164285358D02*
G75*
G02*
X177636000Y-164300000I-889894J1425358D01*
G01*
X180182099Y-162831326D02*
G75*
G02*
X179942000Y-163726000I-1680099J-28674D01*
G01*
%TO.C,J6*%
X180182000Y-145360000D02*
G75*
G03*
X180182000Y-145360000I-1680000J0D01*
G01*
X182602000Y-150670000D02*
X182602000Y-143550000D01*
X181502000Y-150670000D02*
X181502000Y-143550000D01*
X175342000Y-150670000D02*
X175342000Y-143550000D01*
X183062000Y-150670000D02*
X183062000Y-143550000D01*
X175342000Y-150670000D02*
X183062000Y-150670000D01*
X175342000Y-143550000D02*
X183062000Y-143550000D01*
X177433000Y-144085000D02*
X177561000Y-144214000D01*
X179683000Y-146335000D02*
X179776000Y-146429000D01*
X177227000Y-144290000D02*
X177321000Y-144384000D01*
X179443000Y-146505000D02*
X179571000Y-146634000D01*
X182662000Y-150910000D02*
X183302000Y-150910000D01*
X183302000Y-150910000D02*
X183302000Y-150510000D01*
X180182099Y-148831326D02*
G75*
G02*
X179942000Y-149726000I-1680099J-28674D01*
G01*
X179391894Y-150285358D02*
G75*
G02*
X177636000Y-150300000I-889894J1425358D01*
G01*
X177076642Y-149749894D02*
G75*
G02*
X177062000Y-147994000I1425358J889894D01*
G01*
X177611807Y-147434495D02*
G75*
G02*
X179393000Y-147435000I890193J-1425505D01*
G01*
X179926721Y-147969736D02*
G75*
G02*
X180182000Y-148860000I-1424721J-890264D01*
G01*
D10*
%TO.C,U3*%
X165582000Y-161210000D02*
X165582000Y-148510000D01*
X155422000Y-161210000D02*
X165582000Y-161210000D01*
X155422000Y-158670000D02*
X155422000Y-161210000D01*
X155422000Y-156130000D02*
X155422000Y-158670000D01*
X155422000Y-153590000D02*
X155422000Y-156130000D01*
X155422000Y-151050000D02*
X155422000Y-153590000D01*
X155422000Y-148510000D02*
X155422000Y-151050000D01*
X157962000Y-148510000D02*
X155422000Y-148510000D01*
X160502000Y-148510000D02*
X157962000Y-148510000D01*
X163042000Y-148510000D02*
X160502000Y-148510000D01*
X165582000Y-148510000D02*
X163042000Y-148510000D01*
D12*
%TO.C,J7*%
X111452000Y-167660000D02*
X111852000Y-167660000D01*
X111452000Y-167020000D02*
X111452000Y-167660000D01*
X119357000Y-163801000D02*
X119228000Y-163929000D01*
X121572000Y-161585000D02*
X121478000Y-161679000D01*
X119527000Y-164041000D02*
X119433000Y-164134000D01*
X121777000Y-161791000D02*
X121648000Y-161919000D01*
X115857000Y-163801000D02*
X115728000Y-163929000D01*
X118072000Y-161585000D02*
X117978000Y-161679000D01*
X116027000Y-164041000D02*
X115933000Y-164134000D01*
X118277000Y-161791000D02*
X118148000Y-161919000D01*
X122312000Y-159700000D02*
X122312000Y-167420000D01*
X111692000Y-159700000D02*
X111692000Y-167420000D01*
X111692000Y-167420000D02*
X122312000Y-167420000D01*
X111692000Y-159700000D02*
X122312000Y-159700000D01*
X111692000Y-165860000D02*
X122312000Y-165860000D01*
X111692000Y-166960000D02*
X122312000Y-166960000D01*
X122182000Y-162860000D02*
G75*
G03*
X122182000Y-162860000I-1680000J0D01*
G01*
X118682000Y-162860000D02*
G75*
G03*
X118682000Y-162860000I-1680000J0D01*
G01*
X114392264Y-164284721D02*
G75*
G02*
X113502000Y-164540000I-890264J1424721D01*
G01*
X114927505Y-161969807D02*
G75*
G02*
X114927000Y-163751000I-1425505J-890193D01*
G01*
X112612106Y-161434642D02*
G75*
G02*
X114368000Y-161420000I889894J-1425358D01*
G01*
X112076642Y-163749894D02*
G75*
G02*
X112062000Y-161994000I1425358J889894D01*
G01*
X113530674Y-164540099D02*
G75*
G02*
X112636000Y-164300000I-28674J1680099D01*
G01*
%TD*%
M02*
