%TF.GenerationSoftware,KiCad,Pcbnew,(5.1.6-0-10_14)*%
%TF.CreationDate,2020-08-14T14:07:03-07:00*%
%TF.ProjectId,panel,70616e65-6c2e-46b6-9963-61645f706362,rev?*%
%TF.SameCoordinates,Original*%
%TF.FileFunction,Copper,L2,Bot*%
%TF.FilePolarity,Positive*%
%FSLAX46Y46*%
G04 Gerber Fmt 4.6, Leading zero omitted, Abs format (unit mm)*
G04 Created by KiCad (PCBNEW (5.1.6-0-10_14)) date 2020-08-14 14:07:03*
%MOMM*%
%LPD*%
G01*
G04 APERTURE LIST*
%TA.AperFunction,ComponentPad*%
%ADD10C,2.000000*%
%TD*%
%TA.AperFunction,WasherPad*%
%ADD11C,3.556000*%
%TD*%
%TA.AperFunction,ComponentPad*%
%ADD12R,2.400000X2.400000*%
%TD*%
%TA.AperFunction,ComponentPad*%
%ADD13C,2.400000*%
%TD*%
%TA.AperFunction,ViaPad*%
%ADD14C,0.600000*%
%TD*%
%TA.AperFunction,Conductor*%
%ADD15C,0.250000*%
%TD*%
%TA.AperFunction,Conductor*%
%ADD16C,3.000000*%
%TD*%
%TA.AperFunction,Conductor*%
%ADD17C,0.254000*%
%TD*%
G04 APERTURE END LIST*
D10*
%TO.P,U1,1*%
%TO.N,RST*%
X129451100Y-114300000D03*
%TO.P,U1,2*%
%TO.N,3v3*%
X131991100Y-114300000D03*
%TO.P,U1,3*%
%TO.N,Net-(U1-Pad3)*%
X134531100Y-114300000D03*
%TO.P,U1,4*%
%TO.N,GND*%
X137071100Y-114300000D03*
%TO.P,U1,5*%
%TO.N,Net-(U1-Pad5)*%
X139611100Y-114300000D03*
%TO.P,U1,6*%
%TO.N,Net-(U1-Pad6)*%
X142151100Y-114300000D03*
%TO.P,U1,7*%
%TO.N,Net-(U1-Pad7)*%
X144691100Y-114300000D03*
%TO.P,U1,8*%
%TO.N,Net-(U1-Pad8)*%
X147231100Y-114300000D03*
%TO.P,U1,9*%
%TO.N,Net-(U1-Pad9)*%
X149771100Y-114300000D03*
%TO.P,U1,10*%
%TO.N,Net-(U1-Pad10)*%
X152311100Y-114300000D03*
%TO.P,U1,11*%
%TO.N,Net-(U1-Pad11)*%
X154851100Y-114300000D03*
%TO.P,U1,12*%
%TO.N,Net-(U1-Pad12)*%
X157391100Y-114300000D03*
%TO.P,U1,13*%
%TO.N,Net-(U1-Pad13)*%
X159931100Y-114300000D03*
%TO.P,U1,14*%
%TO.N,RX*%
X162471100Y-114300000D03*
%TO.P,U1,15*%
%TO.N,TX*%
X165011100Y-114300000D03*
%TO.P,U1,16*%
%TO.N,N/C*%
X167551100Y-114300000D03*
%TO.P,U1,17*%
%TO.N,Net-(U1-Pad17)*%
X167551100Y-93980000D03*
%TO.P,U1,18*%
%TO.N,Net-(U1-Pad18)*%
X165011100Y-93980000D03*
%TO.P,U1,19*%
%TO.N,Net-(U1-Pad19)*%
X162471100Y-93980000D03*
%TO.P,U1,20*%
%TO.N,Net-(U1-Pad20)*%
X159931100Y-93980000D03*
%TO.P,U1,21*%
%TO.N,Net-(U1-Pad21)*%
X157391100Y-93980000D03*
%TO.P,U1,22*%
%TO.N,Net-(U1-Pad22)*%
X154851100Y-93980000D03*
%TO.P,U1,23*%
%TO.N,RTS*%
X152311100Y-93980000D03*
%TO.P,U1,24*%
%TO.N,Net-(U1-Pad24)*%
X149771100Y-93980000D03*
%TO.P,U1,25*%
%TO.N,Net-(U1-Pad25)*%
X147231100Y-93980000D03*
%TO.P,U1,26*%
%TO.N,VUSB*%
X144691100Y-93980000D03*
%TO.P,U1,27*%
%TO.N,EN*%
X142151100Y-93980000D03*
%TO.P,U1,28*%
%TO.N,Net-(U1-Pad28)*%
X139611100Y-93980000D03*
%TD*%
D11*
%TO.P,PCB\u002A\u002A,*%
%TO.N,*%
X171450000Y-113030000D03*
X125730000Y-113030000D03*
X171450000Y-95250000D03*
X125730000Y-95250000D03*
%TD*%
D12*
%TO.P,J1,2*%
%TO.N,GND*%
X178500000Y-102500000D03*
%TO.P,J1,1*%
%TO.N,v24*%
X178500000Y-106000000D03*
%TD*%
D13*
%TO.P,J2,2*%
%TO.N,A*%
X116500000Y-95250000D03*
D12*
%TO.P,J2,1*%
%TO.N,B*%
X120000000Y-95250000D03*
%TD*%
%TO.P,J5,1*%
%TO.N,v24*%
X178500000Y-113000000D03*
%TO.P,J5,2*%
X178500000Y-109500000D03*
%TD*%
%TO.P,J6,2*%
%TO.N,GND*%
X178500000Y-95500000D03*
%TO.P,J6,1*%
X178500000Y-99000000D03*
%TD*%
%TO.P,J7,1*%
%TO.N,RST*%
X113500000Y-113000000D03*
D13*
%TO.P,J7,2*%
%TO.N,EN*%
X117000000Y-113000000D03*
%TO.P,J7,3*%
%TO.N,GND*%
X120500000Y-113000000D03*
%TD*%
D10*
%TO.P,U1,1*%
%TO.N,C0_RST*%
X129453100Y-139300000D03*
%TO.P,U1,2*%
%TO.N,C0_3v3*%
X131993100Y-139300000D03*
%TO.P,U1,3*%
%TO.N,C0_Net-(U1-Pad3)*%
X134533100Y-139300000D03*
%TO.P,U1,4*%
%TO.N,C0_GND*%
X137073100Y-139300000D03*
%TO.P,U1,5*%
%TO.N,C0_Net-(U1-Pad5)*%
X139613100Y-139300000D03*
%TO.P,U1,6*%
%TO.N,C0_Net-(U1-Pad6)*%
X142153100Y-139300000D03*
%TO.P,U1,7*%
%TO.N,C0_Net-(U1-Pad7)*%
X144693100Y-139300000D03*
%TO.P,U1,8*%
%TO.N,C0_Net-(U1-Pad8)*%
X147233100Y-139300000D03*
%TO.P,U1,9*%
%TO.N,C0_Net-(U1-Pad9)*%
X149773100Y-139300000D03*
%TO.P,U1,10*%
%TO.N,C0_Net-(U1-Pad10)*%
X152313100Y-139300000D03*
%TO.P,U1,11*%
%TO.N,C0_Net-(U1-Pad11)*%
X154853100Y-139300000D03*
%TO.P,U1,12*%
%TO.N,C0_Net-(U1-Pad12)*%
X157393100Y-139300000D03*
%TO.P,U1,13*%
%TO.N,C0_Net-(U1-Pad13)*%
X159933100Y-139300000D03*
%TO.P,U1,14*%
%TO.N,C0_RX*%
X162473100Y-139300000D03*
%TO.P,U1,15*%
%TO.N,C0_TX*%
X165013100Y-139300000D03*
%TO.P,U1,16*%
%TO.N,N/C*%
X167553100Y-139300000D03*
%TO.P,U1,17*%
%TO.N,C0_Net-(U1-Pad17)*%
X167553100Y-118980000D03*
%TO.P,U1,18*%
%TO.N,C0_Net-(U1-Pad18)*%
X165013100Y-118980000D03*
%TO.P,U1,19*%
%TO.N,C0_Net-(U1-Pad19)*%
X162473100Y-118980000D03*
%TO.P,U1,20*%
%TO.N,C0_Net-(U1-Pad20)*%
X159933100Y-118980000D03*
%TO.P,U1,21*%
%TO.N,C0_Net-(U1-Pad21)*%
X157393100Y-118980000D03*
%TO.P,U1,22*%
%TO.N,C0_Net-(U1-Pad22)*%
X154853100Y-118980000D03*
%TO.P,U1,23*%
%TO.N,C0_RTS*%
X152313100Y-118980000D03*
%TO.P,U1,24*%
%TO.N,C0_Net-(U1-Pad24)*%
X149773100Y-118980000D03*
%TO.P,U1,25*%
%TO.N,C0_Net-(U1-Pad25)*%
X147233100Y-118980000D03*
%TO.P,U1,26*%
%TO.N,C0_VUSB*%
X144693100Y-118980000D03*
%TO.P,U1,27*%
%TO.N,C0_EN*%
X142153100Y-118980000D03*
%TO.P,U1,28*%
%TO.N,C0_Net-(U1-Pad28)*%
X139613100Y-118980000D03*
%TD*%
D11*
%TO.P,PCB\u002A\u002A,*%
%TO.N,*%
X171452000Y-138030000D03*
X125732000Y-138030000D03*
X171452000Y-120250000D03*
X125732000Y-120250000D03*
%TD*%
D12*
%TO.P,J1,2*%
%TO.N,C0_GND*%
X178502000Y-127500000D03*
%TO.P,J1,1*%
%TO.N,C0_v24*%
X178502000Y-131000000D03*
%TD*%
D13*
%TO.P,J2,2*%
%TO.N,C0_A*%
X116502000Y-120250000D03*
D12*
%TO.P,J2,1*%
%TO.N,C0_B*%
X120002000Y-120250000D03*
%TD*%
%TO.P,J5,1*%
%TO.N,C0_v24*%
X178502000Y-138000000D03*
%TO.P,J5,2*%
X178502000Y-134500000D03*
%TD*%
%TO.P,J6,2*%
%TO.N,C0_GND*%
X178502000Y-120500000D03*
%TO.P,J6,1*%
X178502000Y-124000000D03*
%TD*%
%TO.P,J7,1*%
%TO.N,C0_RST*%
X113502000Y-138000000D03*
D13*
%TO.P,J7,2*%
%TO.N,C0_EN*%
X117002000Y-138000000D03*
%TO.P,J7,3*%
%TO.N,C0_GND*%
X120502000Y-138000000D03*
%TD*%
D10*
%TO.P,U1,1*%
%TO.N,C1_RST*%
X129453100Y-164160000D03*
%TO.P,U1,2*%
%TO.N,C1_3v3*%
X131993100Y-164160000D03*
%TO.P,U1,3*%
%TO.N,C1_Net-(U1-Pad3)*%
X134533100Y-164160000D03*
%TO.P,U1,4*%
%TO.N,C1_GND*%
X137073100Y-164160000D03*
%TO.P,U1,5*%
%TO.N,C1_Net-(U1-Pad5)*%
X139613100Y-164160000D03*
%TO.P,U1,6*%
%TO.N,C1_Net-(U1-Pad6)*%
X142153100Y-164160000D03*
%TO.P,U1,7*%
%TO.N,C1_Net-(U1-Pad7)*%
X144693100Y-164160000D03*
%TO.P,U1,8*%
%TO.N,C1_Net-(U1-Pad8)*%
X147233100Y-164160000D03*
%TO.P,U1,9*%
%TO.N,C1_Net-(U1-Pad9)*%
X149773100Y-164160000D03*
%TO.P,U1,10*%
%TO.N,C1_Net-(U1-Pad10)*%
X152313100Y-164160000D03*
%TO.P,U1,11*%
%TO.N,C1_Net-(U1-Pad11)*%
X154853100Y-164160000D03*
%TO.P,U1,12*%
%TO.N,C1_Net-(U1-Pad12)*%
X157393100Y-164160000D03*
%TO.P,U1,13*%
%TO.N,C1_Net-(U1-Pad13)*%
X159933100Y-164160000D03*
%TO.P,U1,14*%
%TO.N,C1_RX*%
X162473100Y-164160000D03*
%TO.P,U1,15*%
%TO.N,C1_TX*%
X165013100Y-164160000D03*
%TO.P,U1,16*%
%TO.N,N/C*%
X167553100Y-164160000D03*
%TO.P,U1,17*%
%TO.N,C1_Net-(U1-Pad17)*%
X167553100Y-143840000D03*
%TO.P,U1,18*%
%TO.N,C1_Net-(U1-Pad18)*%
X165013100Y-143840000D03*
%TO.P,U1,19*%
%TO.N,C1_Net-(U1-Pad19)*%
X162473100Y-143840000D03*
%TO.P,U1,20*%
%TO.N,C1_Net-(U1-Pad20)*%
X159933100Y-143840000D03*
%TO.P,U1,21*%
%TO.N,C1_Net-(U1-Pad21)*%
X157393100Y-143840000D03*
%TO.P,U1,22*%
%TO.N,C1_Net-(U1-Pad22)*%
X154853100Y-143840000D03*
%TO.P,U1,23*%
%TO.N,C1_RTS*%
X152313100Y-143840000D03*
%TO.P,U1,24*%
%TO.N,C1_Net-(U1-Pad24)*%
X149773100Y-143840000D03*
%TO.P,U1,25*%
%TO.N,C1_Net-(U1-Pad25)*%
X147233100Y-143840000D03*
%TO.P,U1,26*%
%TO.N,C1_VUSB*%
X144693100Y-143840000D03*
%TO.P,U1,27*%
%TO.N,C1_EN*%
X142153100Y-143840000D03*
%TO.P,U1,28*%
%TO.N,C1_Net-(U1-Pad28)*%
X139613100Y-143840000D03*
%TD*%
D11*
%TO.P,PCB\u002A\u002A,*%
%TO.N,*%
X171452000Y-162890000D03*
X125732000Y-162890000D03*
X171452000Y-145110000D03*
X125732000Y-145110000D03*
%TD*%
D12*
%TO.P,J1,2*%
%TO.N,C1_GND*%
X178502000Y-152360000D03*
%TO.P,J1,1*%
%TO.N,C1_v24*%
X178502000Y-155860000D03*
%TD*%
D13*
%TO.P,J2,2*%
%TO.N,C1_A*%
X116502000Y-145110000D03*
D12*
%TO.P,J2,1*%
%TO.N,C1_B*%
X120002000Y-145110000D03*
%TD*%
%TO.P,J5,1*%
%TO.N,C1_v24*%
X178502000Y-162860000D03*
%TO.P,J5,2*%
X178502000Y-159360000D03*
%TD*%
%TO.P,J6,2*%
%TO.N,C1_GND*%
X178502000Y-145360000D03*
%TO.P,J6,1*%
X178502000Y-148860000D03*
%TD*%
%TO.P,J7,1*%
%TO.N,C1_RST*%
X113502000Y-162860000D03*
D13*
%TO.P,J7,2*%
%TO.N,C1_EN*%
X117002000Y-162860000D03*
%TO.P,J7,3*%
%TO.N,C1_GND*%
X120502000Y-162860000D03*
%TD*%
D14*
%TO.N,GND*%
X137500000Y-105500000D03*
X161000000Y-96500000D03*
%TO.N,B*%
X124500000Y-108500000D03*
%TO.N,A*%
X122000000Y-106500000D03*
%TO.N,RTS*%
X147500000Y-100000000D03*
%TO.N,C0_GND*%
X137502000Y-130500000D03*
X161002000Y-121500000D03*
%TO.N,C0_RTS*%
X147502000Y-125000000D03*
%TO.N,C0_B*%
X124502000Y-133500000D03*
%TO.N,C0_A*%
X122002000Y-131500000D03*
%TO.N,C1_GND*%
X137502000Y-155360000D03*
X161002000Y-146360000D03*
%TO.N,C1_RTS*%
X147502000Y-149860000D03*
%TO.N,C1_B*%
X124502000Y-158360000D03*
%TO.N,C1_A*%
X122002000Y-156360000D03*
%TD*%
D15*
%TO.N,GND*%
X137500000Y-105500000D02*
X152000000Y-105500000D01*
X152000000Y-105500000D02*
X161000000Y-96500000D01*
D16*
X178500000Y-102500000D02*
X178500000Y-99000000D01*
X178500000Y-99000000D02*
X178500000Y-95500000D01*
D15*
%TO.N,B*%
X124500000Y-99750000D02*
X120000000Y-95250000D01*
X124500000Y-108500000D02*
X124500000Y-99750000D01*
%TO.N,A*%
X122000000Y-100750000D02*
X116500000Y-95250000D01*
X122000000Y-106500000D02*
X122000000Y-100750000D01*
%TO.N,RTS*%
X147500000Y-98791100D02*
X152311100Y-93980000D01*
X147500000Y-100000000D02*
X147500000Y-98791100D01*
D16*
%TO.N,v24*%
X178500000Y-113000000D02*
X178500000Y-109500000D01*
X178500000Y-109500000D02*
X178500000Y-106000000D01*
D15*
%TO.N,RST*%
X127492312Y-110926999D02*
X115573001Y-110926999D01*
X129451100Y-112885787D02*
X127492312Y-110926999D01*
X115573001Y-110926999D02*
X113500000Y-113000000D01*
X129451100Y-114300000D02*
X129451100Y-112885787D01*
%TO.N,C0_RST*%
X127494312Y-135926999D02*
X115575001Y-135926999D01*
X129453100Y-137885787D02*
X127494312Y-135926999D01*
X115575001Y-135926999D02*
X113502000Y-138000000D01*
X129453100Y-139300000D02*
X129453100Y-137885787D01*
%TO.N,C0_GND*%
X137502000Y-130500000D02*
X152002000Y-130500000D01*
X152002000Y-130500000D02*
X161002000Y-121500000D01*
D16*
X178502000Y-127500000D02*
X178502000Y-124000000D01*
X178502000Y-124000000D02*
X178502000Y-120500000D01*
D15*
%TO.N,C0_RTS*%
X147502000Y-123791100D02*
X152313100Y-118980000D01*
X147502000Y-125000000D02*
X147502000Y-123791100D01*
D16*
%TO.N,C0_v24*%
X178502000Y-131000000D02*
X178502000Y-134500000D01*
X178502000Y-134500000D02*
X178502000Y-138000000D01*
D15*
%TO.N,C0_B*%
X124502000Y-124750000D02*
X120002000Y-120250000D01*
X124502000Y-133500000D02*
X124502000Y-124750000D01*
%TO.N,C0_A*%
X122002000Y-125750000D02*
X116502000Y-120250000D01*
X122002000Y-131500000D02*
X122002000Y-125750000D01*
%TO.N,C1_RST*%
X127494312Y-160786999D02*
X115575001Y-160786999D01*
X129453100Y-162745787D02*
X127494312Y-160786999D01*
X115575001Y-160786999D02*
X113502000Y-162860000D01*
X129453100Y-164160000D02*
X129453100Y-162745787D01*
%TO.N,C1_GND*%
X137502000Y-155360000D02*
X152002000Y-155360000D01*
X152002000Y-155360000D02*
X161002000Y-146360000D01*
D16*
X178502000Y-145360000D02*
X178502000Y-148860000D01*
X178502000Y-148860000D02*
X178502000Y-152360000D01*
D15*
%TO.N,C1_RTS*%
X147502000Y-148651100D02*
X152313100Y-143840000D01*
X147502000Y-149860000D02*
X147502000Y-148651100D01*
D16*
%TO.N,C1_v24*%
X178502000Y-155860000D02*
X178502000Y-159360000D01*
X178502000Y-159360000D02*
X178502000Y-162860000D01*
D15*
%TO.N,C1_B*%
X124502000Y-149610000D02*
X120002000Y-145110000D01*
X124502000Y-158360000D02*
X124502000Y-149610000D01*
%TO.N,C1_A*%
X122002000Y-150610000D02*
X116502000Y-145110000D01*
X122002000Y-156360000D02*
X122002000Y-150610000D01*
%TD*%
D17*
%TO.N,GND*%
G36*
X119401626Y-111722020D02*
G01*
X120500000Y-112820395D01*
X121598374Y-111722020D01*
X121583635Y-111686999D01*
X123725275Y-111686999D01*
X123591628Y-111887016D01*
X123409731Y-112326154D01*
X123317000Y-112792340D01*
X123317000Y-113267660D01*
X123409731Y-113733846D01*
X123583190Y-114152612D01*
X121835596Y-114155988D01*
X121777981Y-114098373D01*
X122062836Y-113978486D01*
X122223699Y-113654790D01*
X122318322Y-113305931D01*
X122343067Y-112945316D01*
X122296985Y-112586802D01*
X122181846Y-112244167D01*
X122062836Y-112021514D01*
X121777980Y-111901626D01*
X120679605Y-113000000D01*
X120693748Y-113014142D01*
X120514142Y-113193748D01*
X120500000Y-113179605D01*
X120485858Y-113193748D01*
X120306252Y-113014142D01*
X120320395Y-113000000D01*
X119222020Y-111901626D01*
X118937164Y-112021514D01*
X118776301Y-112345210D01*
X118752031Y-112434690D01*
X118626156Y-112130801D01*
X118425338Y-111830256D01*
X118282081Y-111686999D01*
X119416365Y-111686999D01*
X119401626Y-111722020D01*
G37*
X119401626Y-111722020D02*
X120500000Y-112820395D01*
X121598374Y-111722020D01*
X121583635Y-111686999D01*
X123725275Y-111686999D01*
X123591628Y-111887016D01*
X123409731Y-112326154D01*
X123317000Y-112792340D01*
X123317000Y-113267660D01*
X123409731Y-113733846D01*
X123583190Y-114152612D01*
X121835596Y-114155988D01*
X121777981Y-114098373D01*
X122062836Y-113978486D01*
X122223699Y-113654790D01*
X122318322Y-113305931D01*
X122343067Y-112945316D01*
X122296985Y-112586802D01*
X122181846Y-112244167D01*
X122062836Y-112021514D01*
X121777980Y-111901626D01*
X120679605Y-113000000D01*
X120693748Y-113014142D01*
X120514142Y-113193748D01*
X120500000Y-113179605D01*
X120485858Y-113193748D01*
X120306252Y-113014142D01*
X120320395Y-113000000D01*
X119222020Y-111901626D01*
X118937164Y-112021514D01*
X118776301Y-112345210D01*
X118752031Y-112434690D01*
X118626156Y-112130801D01*
X118425338Y-111830256D01*
X118282081Y-111686999D01*
X119416365Y-111686999D01*
X119401626Y-111722020D01*
G36*
X185373000Y-114033245D02*
G01*
X180363397Y-114042923D01*
X180482026Y-113820982D01*
X180604108Y-113418533D01*
X180635000Y-113104882D01*
X180635000Y-105895118D01*
X180604108Y-105581467D01*
X180482026Y-105179018D01*
X180338072Y-104909698D01*
X180338072Y-104800000D01*
X180325812Y-104675518D01*
X180289502Y-104555820D01*
X180230537Y-104445506D01*
X180151185Y-104348815D01*
X180054494Y-104269463D01*
X180018082Y-104250000D01*
X180054494Y-104230537D01*
X180151185Y-104151185D01*
X180230537Y-104054494D01*
X180289502Y-103944180D01*
X180325812Y-103824482D01*
X180338072Y-103700000D01*
X180335000Y-102785750D01*
X180176250Y-102627000D01*
X178627000Y-102627000D01*
X178627000Y-102647000D01*
X178373000Y-102647000D01*
X178373000Y-102627000D01*
X176823750Y-102627000D01*
X176665000Y-102785750D01*
X176661928Y-103700000D01*
X176674188Y-103824482D01*
X176710498Y-103944180D01*
X176769463Y-104054494D01*
X176848815Y-104151185D01*
X176945506Y-104230537D01*
X176981918Y-104250000D01*
X176945506Y-104269463D01*
X176848815Y-104348815D01*
X176769463Y-104445506D01*
X176710498Y-104555820D01*
X176674188Y-104675518D01*
X176661928Y-104800000D01*
X176661928Y-104909700D01*
X176517975Y-105179018D01*
X176395893Y-105581467D01*
X176365000Y-105895118D01*
X176365000Y-113104881D01*
X176395892Y-113418532D01*
X176517974Y-113820981D01*
X176640448Y-114050115D01*
X173636863Y-114055917D01*
X173770269Y-113733846D01*
X173863000Y-113267660D01*
X173863000Y-112792340D01*
X173770269Y-112326154D01*
X173588372Y-111887016D01*
X173324299Y-111491802D01*
X172988198Y-111155701D01*
X172592984Y-110891628D01*
X172153846Y-110709731D01*
X171687660Y-110617000D01*
X171212340Y-110617000D01*
X170746154Y-110709731D01*
X170307016Y-110891628D01*
X169911802Y-111155701D01*
X169575701Y-111491802D01*
X169311628Y-111887016D01*
X169129731Y-112326154D01*
X169037000Y-112792340D01*
X169037000Y-113267660D01*
X169129731Y-113733846D01*
X169266634Y-114064360D01*
X169171296Y-114064544D01*
X169123268Y-113823088D01*
X169000018Y-113525537D01*
X168821087Y-113257748D01*
X168593352Y-113030013D01*
X168325563Y-112851082D01*
X168028012Y-112727832D01*
X167712133Y-112665000D01*
X167390067Y-112665000D01*
X167074188Y-112727832D01*
X166776637Y-112851082D01*
X166508848Y-113030013D01*
X166281113Y-113257748D01*
X166281100Y-113257767D01*
X166281087Y-113257748D01*
X166053352Y-113030013D01*
X165785563Y-112851082D01*
X165488012Y-112727832D01*
X165172133Y-112665000D01*
X164850067Y-112665000D01*
X164534188Y-112727832D01*
X164236637Y-112851082D01*
X163968848Y-113030013D01*
X163741113Y-113257748D01*
X163741100Y-113257767D01*
X163741087Y-113257748D01*
X163513352Y-113030013D01*
X163245563Y-112851082D01*
X162948012Y-112727832D01*
X162632133Y-112665000D01*
X162310067Y-112665000D01*
X161994188Y-112727832D01*
X161696637Y-112851082D01*
X161428848Y-113030013D01*
X161201113Y-113257748D01*
X161201100Y-113257767D01*
X161201087Y-113257748D01*
X160973352Y-113030013D01*
X160705563Y-112851082D01*
X160408012Y-112727832D01*
X160092133Y-112665000D01*
X159770067Y-112665000D01*
X159454188Y-112727832D01*
X159156637Y-112851082D01*
X158888848Y-113030013D01*
X158661113Y-113257748D01*
X158661100Y-113257767D01*
X158661087Y-113257748D01*
X158433352Y-113030013D01*
X158165563Y-112851082D01*
X157868012Y-112727832D01*
X157552133Y-112665000D01*
X157230067Y-112665000D01*
X156914188Y-112727832D01*
X156616637Y-112851082D01*
X156348848Y-113030013D01*
X156121113Y-113257748D01*
X156121100Y-113257767D01*
X156121087Y-113257748D01*
X155893352Y-113030013D01*
X155625563Y-112851082D01*
X155328012Y-112727832D01*
X155012133Y-112665000D01*
X154690067Y-112665000D01*
X154374188Y-112727832D01*
X154076637Y-112851082D01*
X153808848Y-113030013D01*
X153581113Y-113257748D01*
X153581100Y-113257767D01*
X153581087Y-113257748D01*
X153353352Y-113030013D01*
X153085563Y-112851082D01*
X152788012Y-112727832D01*
X152472133Y-112665000D01*
X152150067Y-112665000D01*
X151834188Y-112727832D01*
X151536637Y-112851082D01*
X151268848Y-113030013D01*
X151041113Y-113257748D01*
X151041100Y-113257767D01*
X151041087Y-113257748D01*
X150813352Y-113030013D01*
X150545563Y-112851082D01*
X150248012Y-112727832D01*
X149932133Y-112665000D01*
X149610067Y-112665000D01*
X149294188Y-112727832D01*
X148996637Y-112851082D01*
X148728848Y-113030013D01*
X148501113Y-113257748D01*
X148501100Y-113257767D01*
X148501087Y-113257748D01*
X148273352Y-113030013D01*
X148005563Y-112851082D01*
X147708012Y-112727832D01*
X147392133Y-112665000D01*
X147070067Y-112665000D01*
X146754188Y-112727832D01*
X146456637Y-112851082D01*
X146188848Y-113030013D01*
X145961113Y-113257748D01*
X145961100Y-113257767D01*
X145961087Y-113257748D01*
X145733352Y-113030013D01*
X145465563Y-112851082D01*
X145168012Y-112727832D01*
X144852133Y-112665000D01*
X144530067Y-112665000D01*
X144214188Y-112727832D01*
X143916637Y-112851082D01*
X143648848Y-113030013D01*
X143421113Y-113257748D01*
X143421100Y-113257767D01*
X143421087Y-113257748D01*
X143193352Y-113030013D01*
X142925563Y-112851082D01*
X142628012Y-112727832D01*
X142312133Y-112665000D01*
X141990067Y-112665000D01*
X141674188Y-112727832D01*
X141376637Y-112851082D01*
X141108848Y-113030013D01*
X140881113Y-113257748D01*
X140881100Y-113257767D01*
X140881087Y-113257748D01*
X140653352Y-113030013D01*
X140385563Y-112851082D01*
X140088012Y-112727832D01*
X139772133Y-112665000D01*
X139450067Y-112665000D01*
X139134188Y-112727832D01*
X138836637Y-112851082D01*
X138568848Y-113030013D01*
X138341113Y-113257748D01*
X138268380Y-113366600D01*
X138206513Y-113344192D01*
X137424832Y-114125873D01*
X136718732Y-114127237D01*
X135935687Y-113344192D01*
X135873820Y-113366600D01*
X135801087Y-113257748D01*
X135707926Y-113164587D01*
X136115292Y-113164587D01*
X137071100Y-114120395D01*
X138026908Y-113164587D01*
X137931144Y-112900186D01*
X137641529Y-112759296D01*
X137329992Y-112677616D01*
X137008505Y-112658282D01*
X136689425Y-112702039D01*
X136385012Y-112807205D01*
X136211056Y-112900186D01*
X136115292Y-113164587D01*
X135707926Y-113164587D01*
X135573352Y-113030013D01*
X135305563Y-112851082D01*
X135008012Y-112727832D01*
X134692133Y-112665000D01*
X134370067Y-112665000D01*
X134054188Y-112727832D01*
X133756637Y-112851082D01*
X133488848Y-113030013D01*
X133261113Y-113257748D01*
X133261100Y-113257767D01*
X133261087Y-113257748D01*
X133033352Y-113030013D01*
X132765563Y-112851082D01*
X132468012Y-112727832D01*
X132152133Y-112665000D01*
X131830067Y-112665000D01*
X131514188Y-112727832D01*
X131216637Y-112851082D01*
X130948848Y-113030013D01*
X130721113Y-113257748D01*
X130721100Y-113257767D01*
X130721087Y-113257748D01*
X130493352Y-113030013D01*
X130225563Y-112851082D01*
X130210755Y-112844948D01*
X130200103Y-112736801D01*
X130156646Y-112593540D01*
X130086074Y-112461511D01*
X130014899Y-112374784D01*
X129991101Y-112345786D01*
X129962103Y-112321988D01*
X128056116Y-110416002D01*
X128032313Y-110386998D01*
X127916588Y-110292025D01*
X127784559Y-110221453D01*
X127641298Y-110177996D01*
X127529645Y-110166999D01*
X127529634Y-110166999D01*
X127492312Y-110163323D01*
X127454990Y-110166999D01*
X115610323Y-110166999D01*
X115573000Y-110163323D01*
X115535677Y-110166999D01*
X115535668Y-110166999D01*
X115424015Y-110177996D01*
X115280754Y-110221453D01*
X115148724Y-110292025D01*
X115065084Y-110360667D01*
X115033000Y-110386998D01*
X115009202Y-110415996D01*
X114263270Y-111161928D01*
X113157000Y-111161928D01*
X113157000Y-94106755D01*
X115059412Y-94103080D01*
X114873844Y-94380801D01*
X114735518Y-94714750D01*
X114665000Y-95069268D01*
X114665000Y-95430732D01*
X114735518Y-95785250D01*
X114873844Y-96119199D01*
X115074662Y-96419744D01*
X115330256Y-96675338D01*
X115630801Y-96876156D01*
X115964750Y-97014482D01*
X116319268Y-97085000D01*
X116680732Y-97085000D01*
X117035250Y-97014482D01*
X117144449Y-96969250D01*
X121240001Y-101064803D01*
X121240000Y-105954464D01*
X121171414Y-106057111D01*
X121100932Y-106227271D01*
X121065000Y-106407911D01*
X121065000Y-106592089D01*
X121100932Y-106772729D01*
X121171414Y-106942889D01*
X121273738Y-107096028D01*
X121403972Y-107226262D01*
X121557111Y-107328586D01*
X121727271Y-107399068D01*
X121907911Y-107435000D01*
X122092089Y-107435000D01*
X122272729Y-107399068D01*
X122442889Y-107328586D01*
X122596028Y-107226262D01*
X122726262Y-107096028D01*
X122828586Y-106942889D01*
X122899068Y-106772729D01*
X122935000Y-106592089D01*
X122935000Y-106407911D01*
X122899068Y-106227271D01*
X122828586Y-106057111D01*
X122760000Y-105954465D01*
X122760000Y-100787333D01*
X122763677Y-100750000D01*
X122749003Y-100601014D01*
X122705546Y-100457753D01*
X122634974Y-100325724D01*
X122563799Y-100238997D01*
X122540001Y-100209999D01*
X122511003Y-100186201D01*
X119412873Y-97088072D01*
X120763271Y-97088072D01*
X123740001Y-100064803D01*
X123740000Y-107954464D01*
X123671414Y-108057111D01*
X123600932Y-108227271D01*
X123565000Y-108407911D01*
X123565000Y-108592089D01*
X123600932Y-108772729D01*
X123671414Y-108942889D01*
X123773738Y-109096028D01*
X123903972Y-109226262D01*
X124057111Y-109328586D01*
X124227271Y-109399068D01*
X124407911Y-109435000D01*
X124592089Y-109435000D01*
X124772729Y-109399068D01*
X124942889Y-109328586D01*
X125096028Y-109226262D01*
X125226262Y-109096028D01*
X125328586Y-108942889D01*
X125399068Y-108772729D01*
X125435000Y-108592089D01*
X125435000Y-108407911D01*
X125399068Y-108227271D01*
X125328586Y-108057111D01*
X125260000Y-107954465D01*
X125260000Y-99787322D01*
X125263676Y-99749999D01*
X125260000Y-99712676D01*
X125260000Y-99712667D01*
X125249003Y-99601014D01*
X125205546Y-99457753D01*
X125150569Y-99354899D01*
X125134974Y-99325723D01*
X125063799Y-99238997D01*
X125040001Y-99209999D01*
X125011003Y-99186201D01*
X121838072Y-96013271D01*
X121838072Y-94089985D01*
X123605289Y-94086571D01*
X123591628Y-94107016D01*
X123409731Y-94546154D01*
X123317000Y-95012340D01*
X123317000Y-95487660D01*
X123409731Y-95953846D01*
X123591628Y-96392984D01*
X123855701Y-96788198D01*
X124191802Y-97124299D01*
X124587016Y-97388372D01*
X125026154Y-97570269D01*
X125492340Y-97663000D01*
X125967660Y-97663000D01*
X126433846Y-97570269D01*
X126872984Y-97388372D01*
X127268198Y-97124299D01*
X127604299Y-96788198D01*
X127868372Y-96392984D01*
X128050269Y-95953846D01*
X128143000Y-95487660D01*
X128143000Y-95012340D01*
X128050269Y-94546154D01*
X127868372Y-94107016D01*
X127849233Y-94078372D01*
X137976100Y-94058809D01*
X137976100Y-94141033D01*
X138038932Y-94456912D01*
X138162182Y-94754463D01*
X138341113Y-95022252D01*
X138568848Y-95249987D01*
X138836637Y-95428918D01*
X139134188Y-95552168D01*
X139450067Y-95615000D01*
X139772133Y-95615000D01*
X140088012Y-95552168D01*
X140385563Y-95428918D01*
X140653352Y-95249987D01*
X140881087Y-95022252D01*
X140881100Y-95022233D01*
X140881113Y-95022252D01*
X141108848Y-95249987D01*
X141376637Y-95428918D01*
X141674188Y-95552168D01*
X141990067Y-95615000D01*
X142312133Y-95615000D01*
X142628012Y-95552168D01*
X142925563Y-95428918D01*
X143193352Y-95249987D01*
X143421087Y-95022252D01*
X143421100Y-95022233D01*
X143421113Y-95022252D01*
X143648848Y-95249987D01*
X143916637Y-95428918D01*
X144214188Y-95552168D01*
X144530067Y-95615000D01*
X144852133Y-95615000D01*
X145168012Y-95552168D01*
X145465563Y-95428918D01*
X145733352Y-95249987D01*
X145961087Y-95022252D01*
X145961100Y-95022233D01*
X145961113Y-95022252D01*
X146188848Y-95249987D01*
X146456637Y-95428918D01*
X146754188Y-95552168D01*
X147070067Y-95615000D01*
X147392133Y-95615000D01*
X147708012Y-95552168D01*
X148005563Y-95428918D01*
X148273352Y-95249987D01*
X148501087Y-95022252D01*
X148501100Y-95022233D01*
X148501113Y-95022252D01*
X148728848Y-95249987D01*
X148996637Y-95428918D01*
X149294188Y-95552168D01*
X149602753Y-95613545D01*
X146988998Y-98227301D01*
X146960000Y-98251099D01*
X146936202Y-98280097D01*
X146936201Y-98280098D01*
X146865026Y-98366824D01*
X146794454Y-98498854D01*
X146750998Y-98642115D01*
X146736324Y-98791100D01*
X146740001Y-98828432D01*
X146740000Y-99454464D01*
X146671414Y-99557111D01*
X146600932Y-99727271D01*
X146565000Y-99907911D01*
X146565000Y-100092089D01*
X146600932Y-100272729D01*
X146671414Y-100442889D01*
X146773738Y-100596028D01*
X146903972Y-100726262D01*
X147057111Y-100828586D01*
X147227271Y-100899068D01*
X147407911Y-100935000D01*
X147592089Y-100935000D01*
X147772729Y-100899068D01*
X147942889Y-100828586D01*
X148096028Y-100726262D01*
X148226262Y-100596028D01*
X148328586Y-100442889D01*
X148399068Y-100272729D01*
X148413534Y-100200000D01*
X176661928Y-100200000D01*
X176674188Y-100324482D01*
X176710498Y-100444180D01*
X176769463Y-100554494D01*
X176848815Y-100651185D01*
X176945506Y-100730537D01*
X176981918Y-100750000D01*
X176945506Y-100769463D01*
X176848815Y-100848815D01*
X176769463Y-100945506D01*
X176710498Y-101055820D01*
X176674188Y-101175518D01*
X176661928Y-101300000D01*
X176665000Y-102214250D01*
X176823750Y-102373000D01*
X178373000Y-102373000D01*
X178373000Y-100823750D01*
X178299250Y-100750000D01*
X178373000Y-100676250D01*
X178373000Y-99127000D01*
X178627000Y-99127000D01*
X178627000Y-100676250D01*
X178700750Y-100750000D01*
X178627000Y-100823750D01*
X178627000Y-102373000D01*
X180176250Y-102373000D01*
X180335000Y-102214250D01*
X180338072Y-101300000D01*
X180325812Y-101175518D01*
X180289502Y-101055820D01*
X180230537Y-100945506D01*
X180151185Y-100848815D01*
X180054494Y-100769463D01*
X180018082Y-100750000D01*
X180054494Y-100730537D01*
X180151185Y-100651185D01*
X180230537Y-100554494D01*
X180289502Y-100444180D01*
X180325812Y-100324482D01*
X180338072Y-100200000D01*
X180335000Y-99285750D01*
X180176250Y-99127000D01*
X178627000Y-99127000D01*
X178373000Y-99127000D01*
X176823750Y-99127000D01*
X176665000Y-99285750D01*
X176661928Y-100200000D01*
X148413534Y-100200000D01*
X148435000Y-100092089D01*
X148435000Y-99907911D01*
X148399068Y-99727271D01*
X148328586Y-99557111D01*
X148260000Y-99454465D01*
X148260000Y-99105901D01*
X151819725Y-95546177D01*
X151834188Y-95552168D01*
X152150067Y-95615000D01*
X152472133Y-95615000D01*
X152788012Y-95552168D01*
X153085563Y-95428918D01*
X153353352Y-95249987D01*
X153581087Y-95022252D01*
X153581100Y-95022233D01*
X153581113Y-95022252D01*
X153808848Y-95249987D01*
X154076637Y-95428918D01*
X154374188Y-95552168D01*
X154690067Y-95615000D01*
X155012133Y-95615000D01*
X155328012Y-95552168D01*
X155625563Y-95428918D01*
X155893352Y-95249987D01*
X156121087Y-95022252D01*
X156121100Y-95022233D01*
X156121113Y-95022252D01*
X156348848Y-95249987D01*
X156616637Y-95428918D01*
X156914188Y-95552168D01*
X157230067Y-95615000D01*
X157552133Y-95615000D01*
X157868012Y-95552168D01*
X158165563Y-95428918D01*
X158433352Y-95249987D01*
X158661087Y-95022252D01*
X158661100Y-95022233D01*
X158661113Y-95022252D01*
X158888848Y-95249987D01*
X159156637Y-95428918D01*
X159454188Y-95552168D01*
X159770067Y-95615000D01*
X160092133Y-95615000D01*
X160408012Y-95552168D01*
X160705563Y-95428918D01*
X160973352Y-95249987D01*
X161201087Y-95022252D01*
X161201100Y-95022233D01*
X161201113Y-95022252D01*
X161428848Y-95249987D01*
X161696637Y-95428918D01*
X161994188Y-95552168D01*
X162310067Y-95615000D01*
X162632133Y-95615000D01*
X162948012Y-95552168D01*
X163245563Y-95428918D01*
X163513352Y-95249987D01*
X163741087Y-95022252D01*
X163741100Y-95022233D01*
X163741113Y-95022252D01*
X163968848Y-95249987D01*
X164236637Y-95428918D01*
X164534188Y-95552168D01*
X164850067Y-95615000D01*
X165172133Y-95615000D01*
X165488012Y-95552168D01*
X165785563Y-95428918D01*
X166053352Y-95249987D01*
X166281087Y-95022252D01*
X166281100Y-95022233D01*
X166281113Y-95022252D01*
X166508848Y-95249987D01*
X166776637Y-95428918D01*
X167074188Y-95552168D01*
X167390067Y-95615000D01*
X167712133Y-95615000D01*
X168028012Y-95552168D01*
X168325563Y-95428918D01*
X168593352Y-95249987D01*
X168821087Y-95022252D01*
X169000018Y-94754463D01*
X169123268Y-94456912D01*
X169186100Y-94141033D01*
X169186100Y-93998516D01*
X169384381Y-93998133D01*
X169311628Y-94107016D01*
X169129731Y-94546154D01*
X169037000Y-95012340D01*
X169037000Y-95487660D01*
X169129731Y-95953846D01*
X169311628Y-96392984D01*
X169575701Y-96788198D01*
X169911802Y-97124299D01*
X170307016Y-97388372D01*
X170746154Y-97570269D01*
X171212340Y-97663000D01*
X171687660Y-97663000D01*
X172153846Y-97570269D01*
X172592984Y-97388372D01*
X172988198Y-97124299D01*
X173324299Y-96788198D01*
X173383230Y-96700000D01*
X176661928Y-96700000D01*
X176674188Y-96824482D01*
X176710498Y-96944180D01*
X176769463Y-97054494D01*
X176848815Y-97151185D01*
X176945506Y-97230537D01*
X176981918Y-97250000D01*
X176945506Y-97269463D01*
X176848815Y-97348815D01*
X176769463Y-97445506D01*
X176710498Y-97555820D01*
X176674188Y-97675518D01*
X176661928Y-97800000D01*
X176665000Y-98714250D01*
X176823750Y-98873000D01*
X178373000Y-98873000D01*
X178373000Y-97323750D01*
X178299250Y-97250000D01*
X178373000Y-97176250D01*
X178373000Y-95627000D01*
X178627000Y-95627000D01*
X178627000Y-97176250D01*
X178700750Y-97250000D01*
X178627000Y-97323750D01*
X178627000Y-98873000D01*
X180176250Y-98873000D01*
X180335000Y-98714250D01*
X180338072Y-97800000D01*
X180325812Y-97675518D01*
X180289502Y-97555820D01*
X180230537Y-97445506D01*
X180151185Y-97348815D01*
X180054494Y-97269463D01*
X180018082Y-97250000D01*
X180054494Y-97230537D01*
X180151185Y-97151185D01*
X180230537Y-97054494D01*
X180289502Y-96944180D01*
X180325812Y-96824482D01*
X180338072Y-96700000D01*
X180335000Y-95785750D01*
X180176250Y-95627000D01*
X178627000Y-95627000D01*
X178373000Y-95627000D01*
X176823750Y-95627000D01*
X176665000Y-95785750D01*
X176661928Y-96700000D01*
X173383230Y-96700000D01*
X173588372Y-96392984D01*
X173770269Y-95953846D01*
X173863000Y-95487660D01*
X173863000Y-95012340D01*
X173770269Y-94546154D01*
X173588372Y-94107016D01*
X173510293Y-93990163D01*
X176748937Y-93983906D01*
X176710498Y-94055820D01*
X176674188Y-94175518D01*
X176661928Y-94300000D01*
X176665000Y-95214250D01*
X176823750Y-95373000D01*
X178373000Y-95373000D01*
X178373000Y-95353000D01*
X178627000Y-95353000D01*
X178627000Y-95373000D01*
X180176250Y-95373000D01*
X180335000Y-95214250D01*
X180338072Y-94300000D01*
X180325812Y-94175518D01*
X180289502Y-94055820D01*
X180247450Y-93977148D01*
X185373000Y-93967246D01*
X185373000Y-114033245D01*
G37*
X185373000Y-114033245D02*
X180363397Y-114042923D01*
X180482026Y-113820982D01*
X180604108Y-113418533D01*
X180635000Y-113104882D01*
X180635000Y-105895118D01*
X180604108Y-105581467D01*
X180482026Y-105179018D01*
X180338072Y-104909698D01*
X180338072Y-104800000D01*
X180325812Y-104675518D01*
X180289502Y-104555820D01*
X180230537Y-104445506D01*
X180151185Y-104348815D01*
X180054494Y-104269463D01*
X180018082Y-104250000D01*
X180054494Y-104230537D01*
X180151185Y-104151185D01*
X180230537Y-104054494D01*
X180289502Y-103944180D01*
X180325812Y-103824482D01*
X180338072Y-103700000D01*
X180335000Y-102785750D01*
X180176250Y-102627000D01*
X178627000Y-102627000D01*
X178627000Y-102647000D01*
X178373000Y-102647000D01*
X178373000Y-102627000D01*
X176823750Y-102627000D01*
X176665000Y-102785750D01*
X176661928Y-103700000D01*
X176674188Y-103824482D01*
X176710498Y-103944180D01*
X176769463Y-104054494D01*
X176848815Y-104151185D01*
X176945506Y-104230537D01*
X176981918Y-104250000D01*
X176945506Y-104269463D01*
X176848815Y-104348815D01*
X176769463Y-104445506D01*
X176710498Y-104555820D01*
X176674188Y-104675518D01*
X176661928Y-104800000D01*
X176661928Y-104909700D01*
X176517975Y-105179018D01*
X176395893Y-105581467D01*
X176365000Y-105895118D01*
X176365000Y-113104881D01*
X176395892Y-113418532D01*
X176517974Y-113820981D01*
X176640448Y-114050115D01*
X173636863Y-114055917D01*
X173770269Y-113733846D01*
X173863000Y-113267660D01*
X173863000Y-112792340D01*
X173770269Y-112326154D01*
X173588372Y-111887016D01*
X173324299Y-111491802D01*
X172988198Y-111155701D01*
X172592984Y-110891628D01*
X172153846Y-110709731D01*
X171687660Y-110617000D01*
X171212340Y-110617000D01*
X170746154Y-110709731D01*
X170307016Y-110891628D01*
X169911802Y-111155701D01*
X169575701Y-111491802D01*
X169311628Y-111887016D01*
X169129731Y-112326154D01*
X169037000Y-112792340D01*
X169037000Y-113267660D01*
X169129731Y-113733846D01*
X169266634Y-114064360D01*
X169171296Y-114064544D01*
X169123268Y-113823088D01*
X169000018Y-113525537D01*
X168821087Y-113257748D01*
X168593352Y-113030013D01*
X168325563Y-112851082D01*
X168028012Y-112727832D01*
X167712133Y-112665000D01*
X167390067Y-112665000D01*
X167074188Y-112727832D01*
X166776637Y-112851082D01*
X166508848Y-113030013D01*
X166281113Y-113257748D01*
X166281100Y-113257767D01*
X166281087Y-113257748D01*
X166053352Y-113030013D01*
X165785563Y-112851082D01*
X165488012Y-112727832D01*
X165172133Y-112665000D01*
X164850067Y-112665000D01*
X164534188Y-112727832D01*
X164236637Y-112851082D01*
X163968848Y-113030013D01*
X163741113Y-113257748D01*
X163741100Y-113257767D01*
X163741087Y-113257748D01*
X163513352Y-113030013D01*
X163245563Y-112851082D01*
X162948012Y-112727832D01*
X162632133Y-112665000D01*
X162310067Y-112665000D01*
X161994188Y-112727832D01*
X161696637Y-112851082D01*
X161428848Y-113030013D01*
X161201113Y-113257748D01*
X161201100Y-113257767D01*
X161201087Y-113257748D01*
X160973352Y-113030013D01*
X160705563Y-112851082D01*
X160408012Y-112727832D01*
X160092133Y-112665000D01*
X159770067Y-112665000D01*
X159454188Y-112727832D01*
X159156637Y-112851082D01*
X158888848Y-113030013D01*
X158661113Y-113257748D01*
X158661100Y-113257767D01*
X158661087Y-113257748D01*
X158433352Y-113030013D01*
X158165563Y-112851082D01*
X157868012Y-112727832D01*
X157552133Y-112665000D01*
X157230067Y-112665000D01*
X156914188Y-112727832D01*
X156616637Y-112851082D01*
X156348848Y-113030013D01*
X156121113Y-113257748D01*
X156121100Y-113257767D01*
X156121087Y-113257748D01*
X155893352Y-113030013D01*
X155625563Y-112851082D01*
X155328012Y-112727832D01*
X155012133Y-112665000D01*
X154690067Y-112665000D01*
X154374188Y-112727832D01*
X154076637Y-112851082D01*
X153808848Y-113030013D01*
X153581113Y-113257748D01*
X153581100Y-113257767D01*
X153581087Y-113257748D01*
X153353352Y-113030013D01*
X153085563Y-112851082D01*
X152788012Y-112727832D01*
X152472133Y-112665000D01*
X152150067Y-112665000D01*
X151834188Y-112727832D01*
X151536637Y-112851082D01*
X151268848Y-113030013D01*
X151041113Y-113257748D01*
X151041100Y-113257767D01*
X151041087Y-113257748D01*
X150813352Y-113030013D01*
X150545563Y-112851082D01*
X150248012Y-112727832D01*
X149932133Y-112665000D01*
X149610067Y-112665000D01*
X149294188Y-112727832D01*
X148996637Y-112851082D01*
X148728848Y-113030013D01*
X148501113Y-113257748D01*
X148501100Y-113257767D01*
X148501087Y-113257748D01*
X148273352Y-113030013D01*
X148005563Y-112851082D01*
X147708012Y-112727832D01*
X147392133Y-112665000D01*
X147070067Y-112665000D01*
X146754188Y-112727832D01*
X146456637Y-112851082D01*
X146188848Y-113030013D01*
X145961113Y-113257748D01*
X145961100Y-113257767D01*
X145961087Y-113257748D01*
X145733352Y-113030013D01*
X145465563Y-112851082D01*
X145168012Y-112727832D01*
X144852133Y-112665000D01*
X144530067Y-112665000D01*
X144214188Y-112727832D01*
X143916637Y-112851082D01*
X143648848Y-113030013D01*
X143421113Y-113257748D01*
X143421100Y-113257767D01*
X143421087Y-113257748D01*
X143193352Y-113030013D01*
X142925563Y-112851082D01*
X142628012Y-112727832D01*
X142312133Y-112665000D01*
X141990067Y-112665000D01*
X141674188Y-112727832D01*
X141376637Y-112851082D01*
X141108848Y-113030013D01*
X140881113Y-113257748D01*
X140881100Y-113257767D01*
X140881087Y-113257748D01*
X140653352Y-113030013D01*
X140385563Y-112851082D01*
X140088012Y-112727832D01*
X139772133Y-112665000D01*
X139450067Y-112665000D01*
X139134188Y-112727832D01*
X138836637Y-112851082D01*
X138568848Y-113030013D01*
X138341113Y-113257748D01*
X138268380Y-113366600D01*
X138206513Y-113344192D01*
X137424832Y-114125873D01*
X136718732Y-114127237D01*
X135935687Y-113344192D01*
X135873820Y-113366600D01*
X135801087Y-113257748D01*
X135707926Y-113164587D01*
X136115292Y-113164587D01*
X137071100Y-114120395D01*
X138026908Y-113164587D01*
X137931144Y-112900186D01*
X137641529Y-112759296D01*
X137329992Y-112677616D01*
X137008505Y-112658282D01*
X136689425Y-112702039D01*
X136385012Y-112807205D01*
X136211056Y-112900186D01*
X136115292Y-113164587D01*
X135707926Y-113164587D01*
X135573352Y-113030013D01*
X135305563Y-112851082D01*
X135008012Y-112727832D01*
X134692133Y-112665000D01*
X134370067Y-112665000D01*
X134054188Y-112727832D01*
X133756637Y-112851082D01*
X133488848Y-113030013D01*
X133261113Y-113257748D01*
X133261100Y-113257767D01*
X133261087Y-113257748D01*
X133033352Y-113030013D01*
X132765563Y-112851082D01*
X132468012Y-112727832D01*
X132152133Y-112665000D01*
X131830067Y-112665000D01*
X131514188Y-112727832D01*
X131216637Y-112851082D01*
X130948848Y-113030013D01*
X130721113Y-113257748D01*
X130721100Y-113257767D01*
X130721087Y-113257748D01*
X130493352Y-113030013D01*
X130225563Y-112851082D01*
X130210755Y-112844948D01*
X130200103Y-112736801D01*
X130156646Y-112593540D01*
X130086074Y-112461511D01*
X130014899Y-112374784D01*
X129991101Y-112345786D01*
X129962103Y-112321988D01*
X128056116Y-110416002D01*
X128032313Y-110386998D01*
X127916588Y-110292025D01*
X127784559Y-110221453D01*
X127641298Y-110177996D01*
X127529645Y-110166999D01*
X127529634Y-110166999D01*
X127492312Y-110163323D01*
X127454990Y-110166999D01*
X115610323Y-110166999D01*
X115573000Y-110163323D01*
X115535677Y-110166999D01*
X115535668Y-110166999D01*
X115424015Y-110177996D01*
X115280754Y-110221453D01*
X115148724Y-110292025D01*
X115065084Y-110360667D01*
X115033000Y-110386998D01*
X115009202Y-110415996D01*
X114263270Y-111161928D01*
X113157000Y-111161928D01*
X113157000Y-94106755D01*
X115059412Y-94103080D01*
X114873844Y-94380801D01*
X114735518Y-94714750D01*
X114665000Y-95069268D01*
X114665000Y-95430732D01*
X114735518Y-95785250D01*
X114873844Y-96119199D01*
X115074662Y-96419744D01*
X115330256Y-96675338D01*
X115630801Y-96876156D01*
X115964750Y-97014482D01*
X116319268Y-97085000D01*
X116680732Y-97085000D01*
X117035250Y-97014482D01*
X117144449Y-96969250D01*
X121240001Y-101064803D01*
X121240000Y-105954464D01*
X121171414Y-106057111D01*
X121100932Y-106227271D01*
X121065000Y-106407911D01*
X121065000Y-106592089D01*
X121100932Y-106772729D01*
X121171414Y-106942889D01*
X121273738Y-107096028D01*
X121403972Y-107226262D01*
X121557111Y-107328586D01*
X121727271Y-107399068D01*
X121907911Y-107435000D01*
X122092089Y-107435000D01*
X122272729Y-107399068D01*
X122442889Y-107328586D01*
X122596028Y-107226262D01*
X122726262Y-107096028D01*
X122828586Y-106942889D01*
X122899068Y-106772729D01*
X122935000Y-106592089D01*
X122935000Y-106407911D01*
X122899068Y-106227271D01*
X122828586Y-106057111D01*
X122760000Y-105954465D01*
X122760000Y-100787333D01*
X122763677Y-100750000D01*
X122749003Y-100601014D01*
X122705546Y-100457753D01*
X122634974Y-100325724D01*
X122563799Y-100238997D01*
X122540001Y-100209999D01*
X122511003Y-100186201D01*
X119412873Y-97088072D01*
X120763271Y-97088072D01*
X123740001Y-100064803D01*
X123740000Y-107954464D01*
X123671414Y-108057111D01*
X123600932Y-108227271D01*
X123565000Y-108407911D01*
X123565000Y-108592089D01*
X123600932Y-108772729D01*
X123671414Y-108942889D01*
X123773738Y-109096028D01*
X123903972Y-109226262D01*
X124057111Y-109328586D01*
X124227271Y-109399068D01*
X124407911Y-109435000D01*
X124592089Y-109435000D01*
X124772729Y-109399068D01*
X124942889Y-109328586D01*
X125096028Y-109226262D01*
X125226262Y-109096028D01*
X125328586Y-108942889D01*
X125399068Y-108772729D01*
X125435000Y-108592089D01*
X125435000Y-108407911D01*
X125399068Y-108227271D01*
X125328586Y-108057111D01*
X125260000Y-107954465D01*
X125260000Y-99787322D01*
X125263676Y-99749999D01*
X125260000Y-99712676D01*
X125260000Y-99712667D01*
X125249003Y-99601014D01*
X125205546Y-99457753D01*
X125150569Y-99354899D01*
X125134974Y-99325723D01*
X125063799Y-99238997D01*
X125040001Y-99209999D01*
X125011003Y-99186201D01*
X121838072Y-96013271D01*
X121838072Y-94089985D01*
X123605289Y-94086571D01*
X123591628Y-94107016D01*
X123409731Y-94546154D01*
X123317000Y-95012340D01*
X123317000Y-95487660D01*
X123409731Y-95953846D01*
X123591628Y-96392984D01*
X123855701Y-96788198D01*
X124191802Y-97124299D01*
X124587016Y-97388372D01*
X125026154Y-97570269D01*
X125492340Y-97663000D01*
X125967660Y-97663000D01*
X126433846Y-97570269D01*
X126872984Y-97388372D01*
X127268198Y-97124299D01*
X127604299Y-96788198D01*
X127868372Y-96392984D01*
X128050269Y-95953846D01*
X128143000Y-95487660D01*
X128143000Y-95012340D01*
X128050269Y-94546154D01*
X127868372Y-94107016D01*
X127849233Y-94078372D01*
X137976100Y-94058809D01*
X137976100Y-94141033D01*
X138038932Y-94456912D01*
X138162182Y-94754463D01*
X138341113Y-95022252D01*
X138568848Y-95249987D01*
X138836637Y-95428918D01*
X139134188Y-95552168D01*
X139450067Y-95615000D01*
X139772133Y-95615000D01*
X140088012Y-95552168D01*
X140385563Y-95428918D01*
X140653352Y-95249987D01*
X140881087Y-95022252D01*
X140881100Y-95022233D01*
X140881113Y-95022252D01*
X141108848Y-95249987D01*
X141376637Y-95428918D01*
X141674188Y-95552168D01*
X141990067Y-95615000D01*
X142312133Y-95615000D01*
X142628012Y-95552168D01*
X142925563Y-95428918D01*
X143193352Y-95249987D01*
X143421087Y-95022252D01*
X143421100Y-95022233D01*
X143421113Y-95022252D01*
X143648848Y-95249987D01*
X143916637Y-95428918D01*
X144214188Y-95552168D01*
X144530067Y-95615000D01*
X144852133Y-95615000D01*
X145168012Y-95552168D01*
X145465563Y-95428918D01*
X145733352Y-95249987D01*
X145961087Y-95022252D01*
X145961100Y-95022233D01*
X145961113Y-95022252D01*
X146188848Y-95249987D01*
X146456637Y-95428918D01*
X146754188Y-95552168D01*
X147070067Y-95615000D01*
X147392133Y-95615000D01*
X147708012Y-95552168D01*
X148005563Y-95428918D01*
X148273352Y-95249987D01*
X148501087Y-95022252D01*
X148501100Y-95022233D01*
X148501113Y-95022252D01*
X148728848Y-95249987D01*
X148996637Y-95428918D01*
X149294188Y-95552168D01*
X149602753Y-95613545D01*
X146988998Y-98227301D01*
X146960000Y-98251099D01*
X146936202Y-98280097D01*
X146936201Y-98280098D01*
X146865026Y-98366824D01*
X146794454Y-98498854D01*
X146750998Y-98642115D01*
X146736324Y-98791100D01*
X146740001Y-98828432D01*
X146740000Y-99454464D01*
X146671414Y-99557111D01*
X146600932Y-99727271D01*
X146565000Y-99907911D01*
X146565000Y-100092089D01*
X146600932Y-100272729D01*
X146671414Y-100442889D01*
X146773738Y-100596028D01*
X146903972Y-100726262D01*
X147057111Y-100828586D01*
X147227271Y-100899068D01*
X147407911Y-100935000D01*
X147592089Y-100935000D01*
X147772729Y-100899068D01*
X147942889Y-100828586D01*
X148096028Y-100726262D01*
X148226262Y-100596028D01*
X148328586Y-100442889D01*
X148399068Y-100272729D01*
X148413534Y-100200000D01*
X176661928Y-100200000D01*
X176674188Y-100324482D01*
X176710498Y-100444180D01*
X176769463Y-100554494D01*
X176848815Y-100651185D01*
X176945506Y-100730537D01*
X176981918Y-100750000D01*
X176945506Y-100769463D01*
X176848815Y-100848815D01*
X176769463Y-100945506D01*
X176710498Y-101055820D01*
X176674188Y-101175518D01*
X176661928Y-101300000D01*
X176665000Y-102214250D01*
X176823750Y-102373000D01*
X178373000Y-102373000D01*
X178373000Y-100823750D01*
X178299250Y-100750000D01*
X178373000Y-100676250D01*
X178373000Y-99127000D01*
X178627000Y-99127000D01*
X178627000Y-100676250D01*
X178700750Y-100750000D01*
X178627000Y-100823750D01*
X178627000Y-102373000D01*
X180176250Y-102373000D01*
X180335000Y-102214250D01*
X180338072Y-101300000D01*
X180325812Y-101175518D01*
X180289502Y-101055820D01*
X180230537Y-100945506D01*
X180151185Y-100848815D01*
X180054494Y-100769463D01*
X180018082Y-100750000D01*
X180054494Y-100730537D01*
X180151185Y-100651185D01*
X180230537Y-100554494D01*
X180289502Y-100444180D01*
X180325812Y-100324482D01*
X180338072Y-100200000D01*
X180335000Y-99285750D01*
X180176250Y-99127000D01*
X178627000Y-99127000D01*
X178373000Y-99127000D01*
X176823750Y-99127000D01*
X176665000Y-99285750D01*
X176661928Y-100200000D01*
X148413534Y-100200000D01*
X148435000Y-100092089D01*
X148435000Y-99907911D01*
X148399068Y-99727271D01*
X148328586Y-99557111D01*
X148260000Y-99454465D01*
X148260000Y-99105901D01*
X151819725Y-95546177D01*
X151834188Y-95552168D01*
X152150067Y-95615000D01*
X152472133Y-95615000D01*
X152788012Y-95552168D01*
X153085563Y-95428918D01*
X153353352Y-95249987D01*
X153581087Y-95022252D01*
X153581100Y-95022233D01*
X153581113Y-95022252D01*
X153808848Y-95249987D01*
X154076637Y-95428918D01*
X154374188Y-95552168D01*
X154690067Y-95615000D01*
X155012133Y-95615000D01*
X155328012Y-95552168D01*
X155625563Y-95428918D01*
X155893352Y-95249987D01*
X156121087Y-95022252D01*
X156121100Y-95022233D01*
X156121113Y-95022252D01*
X156348848Y-95249987D01*
X156616637Y-95428918D01*
X156914188Y-95552168D01*
X157230067Y-95615000D01*
X157552133Y-95615000D01*
X157868012Y-95552168D01*
X158165563Y-95428918D01*
X158433352Y-95249987D01*
X158661087Y-95022252D01*
X158661100Y-95022233D01*
X158661113Y-95022252D01*
X158888848Y-95249987D01*
X159156637Y-95428918D01*
X159454188Y-95552168D01*
X159770067Y-95615000D01*
X160092133Y-95615000D01*
X160408012Y-95552168D01*
X160705563Y-95428918D01*
X160973352Y-95249987D01*
X161201087Y-95022252D01*
X161201100Y-95022233D01*
X161201113Y-95022252D01*
X161428848Y-95249987D01*
X161696637Y-95428918D01*
X161994188Y-95552168D01*
X162310067Y-95615000D01*
X162632133Y-95615000D01*
X162948012Y-95552168D01*
X163245563Y-95428918D01*
X163513352Y-95249987D01*
X163741087Y-95022252D01*
X163741100Y-95022233D01*
X163741113Y-95022252D01*
X163968848Y-95249987D01*
X164236637Y-95428918D01*
X164534188Y-95552168D01*
X164850067Y-95615000D01*
X165172133Y-95615000D01*
X165488012Y-95552168D01*
X165785563Y-95428918D01*
X166053352Y-95249987D01*
X166281087Y-95022252D01*
X166281100Y-95022233D01*
X166281113Y-95022252D01*
X166508848Y-95249987D01*
X166776637Y-95428918D01*
X167074188Y-95552168D01*
X167390067Y-95615000D01*
X167712133Y-95615000D01*
X168028012Y-95552168D01*
X168325563Y-95428918D01*
X168593352Y-95249987D01*
X168821087Y-95022252D01*
X169000018Y-94754463D01*
X169123268Y-94456912D01*
X169186100Y-94141033D01*
X169186100Y-93998516D01*
X169384381Y-93998133D01*
X169311628Y-94107016D01*
X169129731Y-94546154D01*
X169037000Y-95012340D01*
X169037000Y-95487660D01*
X169129731Y-95953846D01*
X169311628Y-96392984D01*
X169575701Y-96788198D01*
X169911802Y-97124299D01*
X170307016Y-97388372D01*
X170746154Y-97570269D01*
X171212340Y-97663000D01*
X171687660Y-97663000D01*
X172153846Y-97570269D01*
X172592984Y-97388372D01*
X172988198Y-97124299D01*
X173324299Y-96788198D01*
X173383230Y-96700000D01*
X176661928Y-96700000D01*
X176674188Y-96824482D01*
X176710498Y-96944180D01*
X176769463Y-97054494D01*
X176848815Y-97151185D01*
X176945506Y-97230537D01*
X176981918Y-97250000D01*
X176945506Y-97269463D01*
X176848815Y-97348815D01*
X176769463Y-97445506D01*
X176710498Y-97555820D01*
X176674188Y-97675518D01*
X176661928Y-97800000D01*
X176665000Y-98714250D01*
X176823750Y-98873000D01*
X178373000Y-98873000D01*
X178373000Y-97323750D01*
X178299250Y-97250000D01*
X178373000Y-97176250D01*
X178373000Y-95627000D01*
X178627000Y-95627000D01*
X178627000Y-97176250D01*
X178700750Y-97250000D01*
X178627000Y-97323750D01*
X178627000Y-98873000D01*
X180176250Y-98873000D01*
X180335000Y-98714250D01*
X180338072Y-97800000D01*
X180325812Y-97675518D01*
X180289502Y-97555820D01*
X180230537Y-97445506D01*
X180151185Y-97348815D01*
X180054494Y-97269463D01*
X180018082Y-97250000D01*
X180054494Y-97230537D01*
X180151185Y-97151185D01*
X180230537Y-97054494D01*
X180289502Y-96944180D01*
X180325812Y-96824482D01*
X180338072Y-96700000D01*
X180335000Y-95785750D01*
X180176250Y-95627000D01*
X178627000Y-95627000D01*
X178373000Y-95627000D01*
X176823750Y-95627000D01*
X176665000Y-95785750D01*
X176661928Y-96700000D01*
X173383230Y-96700000D01*
X173588372Y-96392984D01*
X173770269Y-95953846D01*
X173863000Y-95487660D01*
X173863000Y-95012340D01*
X173770269Y-94546154D01*
X173588372Y-94107016D01*
X173510293Y-93990163D01*
X176748937Y-93983906D01*
X176710498Y-94055820D01*
X176674188Y-94175518D01*
X176661928Y-94300000D01*
X176665000Y-95214250D01*
X176823750Y-95373000D01*
X178373000Y-95373000D01*
X178373000Y-95353000D01*
X178627000Y-95353000D01*
X178627000Y-95373000D01*
X180176250Y-95373000D01*
X180335000Y-95214250D01*
X180338072Y-94300000D01*
X180325812Y-94175518D01*
X180289502Y-94055820D01*
X180247450Y-93977148D01*
X185373000Y-93967246D01*
X185373000Y-114033245D01*
%TO.N,C0_GND*%
G36*
X119403626Y-136722020D02*
G01*
X120502000Y-137820395D01*
X121600374Y-136722020D01*
X121585635Y-136686999D01*
X123727275Y-136686999D01*
X123593628Y-136887016D01*
X123411731Y-137326154D01*
X123319000Y-137792340D01*
X123319000Y-138267660D01*
X123411731Y-138733846D01*
X123585190Y-139152612D01*
X121837596Y-139155988D01*
X121779981Y-139098373D01*
X122064836Y-138978486D01*
X122225699Y-138654790D01*
X122320322Y-138305931D01*
X122345067Y-137945316D01*
X122298985Y-137586802D01*
X122183846Y-137244167D01*
X122064836Y-137021514D01*
X121779980Y-136901626D01*
X120681605Y-138000000D01*
X120695748Y-138014142D01*
X120516142Y-138193748D01*
X120502000Y-138179605D01*
X120487858Y-138193748D01*
X120308252Y-138014142D01*
X120322395Y-138000000D01*
X119224020Y-136901626D01*
X118939164Y-137021514D01*
X118778301Y-137345210D01*
X118754031Y-137434690D01*
X118628156Y-137130801D01*
X118427338Y-136830256D01*
X118284081Y-136686999D01*
X119418365Y-136686999D01*
X119403626Y-136722020D01*
G37*
X119403626Y-136722020D02*
X120502000Y-137820395D01*
X121600374Y-136722020D01*
X121585635Y-136686999D01*
X123727275Y-136686999D01*
X123593628Y-136887016D01*
X123411731Y-137326154D01*
X123319000Y-137792340D01*
X123319000Y-138267660D01*
X123411731Y-138733846D01*
X123585190Y-139152612D01*
X121837596Y-139155988D01*
X121779981Y-139098373D01*
X122064836Y-138978486D01*
X122225699Y-138654790D01*
X122320322Y-138305931D01*
X122345067Y-137945316D01*
X122298985Y-137586802D01*
X122183846Y-137244167D01*
X122064836Y-137021514D01*
X121779980Y-136901626D01*
X120681605Y-138000000D01*
X120695748Y-138014142D01*
X120516142Y-138193748D01*
X120502000Y-138179605D01*
X120487858Y-138193748D01*
X120308252Y-138014142D01*
X120322395Y-138000000D01*
X119224020Y-136901626D01*
X118939164Y-137021514D01*
X118778301Y-137345210D01*
X118754031Y-137434690D01*
X118628156Y-137130801D01*
X118427338Y-136830256D01*
X118284081Y-136686999D01*
X119418365Y-136686999D01*
X119403626Y-136722020D01*
G36*
X185375000Y-139033245D02*
G01*
X180365397Y-139042923D01*
X180484026Y-138820982D01*
X180606108Y-138418533D01*
X180637000Y-138104882D01*
X180637000Y-130895118D01*
X180606108Y-130581467D01*
X180484026Y-130179018D01*
X180340072Y-129909698D01*
X180340072Y-129800000D01*
X180327812Y-129675518D01*
X180291502Y-129555820D01*
X180232537Y-129445506D01*
X180153185Y-129348815D01*
X180056494Y-129269463D01*
X180020082Y-129250000D01*
X180056494Y-129230537D01*
X180153185Y-129151185D01*
X180232537Y-129054494D01*
X180291502Y-128944180D01*
X180327812Y-128824482D01*
X180340072Y-128700000D01*
X180337000Y-127785750D01*
X180178250Y-127627000D01*
X178629000Y-127627000D01*
X178629000Y-127647000D01*
X178375000Y-127647000D01*
X178375000Y-127627000D01*
X176825750Y-127627000D01*
X176667000Y-127785750D01*
X176663928Y-128700000D01*
X176676188Y-128824482D01*
X176712498Y-128944180D01*
X176771463Y-129054494D01*
X176850815Y-129151185D01*
X176947506Y-129230537D01*
X176983918Y-129250000D01*
X176947506Y-129269463D01*
X176850815Y-129348815D01*
X176771463Y-129445506D01*
X176712498Y-129555820D01*
X176676188Y-129675518D01*
X176663928Y-129800000D01*
X176663928Y-129909698D01*
X176519974Y-130179019D01*
X176397892Y-130581468D01*
X176367000Y-130895119D01*
X176367000Y-138104882D01*
X176397893Y-138418533D01*
X176519975Y-138820982D01*
X176642449Y-139050115D01*
X173638863Y-139055917D01*
X173772269Y-138733846D01*
X173865000Y-138267660D01*
X173865000Y-137792340D01*
X173772269Y-137326154D01*
X173590372Y-136887016D01*
X173326299Y-136491802D01*
X172990198Y-136155701D01*
X172594984Y-135891628D01*
X172155846Y-135709731D01*
X171689660Y-135617000D01*
X171214340Y-135617000D01*
X170748154Y-135709731D01*
X170309016Y-135891628D01*
X169913802Y-136155701D01*
X169577701Y-136491802D01*
X169313628Y-136887016D01*
X169131731Y-137326154D01*
X169039000Y-137792340D01*
X169039000Y-138267660D01*
X169131731Y-138733846D01*
X169268634Y-139064360D01*
X169173296Y-139064544D01*
X169125268Y-138823088D01*
X169002018Y-138525537D01*
X168823087Y-138257748D01*
X168595352Y-138030013D01*
X168327563Y-137851082D01*
X168030012Y-137727832D01*
X167714133Y-137665000D01*
X167392067Y-137665000D01*
X167076188Y-137727832D01*
X166778637Y-137851082D01*
X166510848Y-138030013D01*
X166283113Y-138257748D01*
X166283100Y-138257767D01*
X166283087Y-138257748D01*
X166055352Y-138030013D01*
X165787563Y-137851082D01*
X165490012Y-137727832D01*
X165174133Y-137665000D01*
X164852067Y-137665000D01*
X164536188Y-137727832D01*
X164238637Y-137851082D01*
X163970848Y-138030013D01*
X163743113Y-138257748D01*
X163743100Y-138257767D01*
X163743087Y-138257748D01*
X163515352Y-138030013D01*
X163247563Y-137851082D01*
X162950012Y-137727832D01*
X162634133Y-137665000D01*
X162312067Y-137665000D01*
X161996188Y-137727832D01*
X161698637Y-137851082D01*
X161430848Y-138030013D01*
X161203113Y-138257748D01*
X161203100Y-138257767D01*
X161203087Y-138257748D01*
X160975352Y-138030013D01*
X160707563Y-137851082D01*
X160410012Y-137727832D01*
X160094133Y-137665000D01*
X159772067Y-137665000D01*
X159456188Y-137727832D01*
X159158637Y-137851082D01*
X158890848Y-138030013D01*
X158663113Y-138257748D01*
X158663100Y-138257767D01*
X158663087Y-138257748D01*
X158435352Y-138030013D01*
X158167563Y-137851082D01*
X157870012Y-137727832D01*
X157554133Y-137665000D01*
X157232067Y-137665000D01*
X156916188Y-137727832D01*
X156618637Y-137851082D01*
X156350848Y-138030013D01*
X156123113Y-138257748D01*
X156123100Y-138257767D01*
X156123087Y-138257748D01*
X155895352Y-138030013D01*
X155627563Y-137851082D01*
X155330012Y-137727832D01*
X155014133Y-137665000D01*
X154692067Y-137665000D01*
X154376188Y-137727832D01*
X154078637Y-137851082D01*
X153810848Y-138030013D01*
X153583113Y-138257748D01*
X153583100Y-138257767D01*
X153583087Y-138257748D01*
X153355352Y-138030013D01*
X153087563Y-137851082D01*
X152790012Y-137727832D01*
X152474133Y-137665000D01*
X152152067Y-137665000D01*
X151836188Y-137727832D01*
X151538637Y-137851082D01*
X151270848Y-138030013D01*
X151043113Y-138257748D01*
X151043100Y-138257767D01*
X151043087Y-138257748D01*
X150815352Y-138030013D01*
X150547563Y-137851082D01*
X150250012Y-137727832D01*
X149934133Y-137665000D01*
X149612067Y-137665000D01*
X149296188Y-137727832D01*
X148998637Y-137851082D01*
X148730848Y-138030013D01*
X148503113Y-138257748D01*
X148503100Y-138257767D01*
X148503087Y-138257748D01*
X148275352Y-138030013D01*
X148007563Y-137851082D01*
X147710012Y-137727832D01*
X147394133Y-137665000D01*
X147072067Y-137665000D01*
X146756188Y-137727832D01*
X146458637Y-137851082D01*
X146190848Y-138030013D01*
X145963113Y-138257748D01*
X145963100Y-138257767D01*
X145963087Y-138257748D01*
X145735352Y-138030013D01*
X145467563Y-137851082D01*
X145170012Y-137727832D01*
X144854133Y-137665000D01*
X144532067Y-137665000D01*
X144216188Y-137727832D01*
X143918637Y-137851082D01*
X143650848Y-138030013D01*
X143423113Y-138257748D01*
X143423100Y-138257767D01*
X143423087Y-138257748D01*
X143195352Y-138030013D01*
X142927563Y-137851082D01*
X142630012Y-137727832D01*
X142314133Y-137665000D01*
X141992067Y-137665000D01*
X141676188Y-137727832D01*
X141378637Y-137851082D01*
X141110848Y-138030013D01*
X140883113Y-138257748D01*
X140883100Y-138257767D01*
X140883087Y-138257748D01*
X140655352Y-138030013D01*
X140387563Y-137851082D01*
X140090012Y-137727832D01*
X139774133Y-137665000D01*
X139452067Y-137665000D01*
X139136188Y-137727832D01*
X138838637Y-137851082D01*
X138570848Y-138030013D01*
X138343113Y-138257748D01*
X138270380Y-138366600D01*
X138208513Y-138344192D01*
X137426832Y-139125873D01*
X136720732Y-139127237D01*
X135937687Y-138344192D01*
X135875820Y-138366600D01*
X135803087Y-138257748D01*
X135709926Y-138164587D01*
X136117292Y-138164587D01*
X137073100Y-139120395D01*
X138028908Y-138164587D01*
X137933144Y-137900186D01*
X137643529Y-137759296D01*
X137331992Y-137677616D01*
X137010505Y-137658282D01*
X136691425Y-137702039D01*
X136387012Y-137807205D01*
X136213056Y-137900186D01*
X136117292Y-138164587D01*
X135709926Y-138164587D01*
X135575352Y-138030013D01*
X135307563Y-137851082D01*
X135010012Y-137727832D01*
X134694133Y-137665000D01*
X134372067Y-137665000D01*
X134056188Y-137727832D01*
X133758637Y-137851082D01*
X133490848Y-138030013D01*
X133263113Y-138257748D01*
X133263100Y-138257767D01*
X133263087Y-138257748D01*
X133035352Y-138030013D01*
X132767563Y-137851082D01*
X132470012Y-137727832D01*
X132154133Y-137665000D01*
X131832067Y-137665000D01*
X131516188Y-137727832D01*
X131218637Y-137851082D01*
X130950848Y-138030013D01*
X130723113Y-138257748D01*
X130723100Y-138257767D01*
X130723087Y-138257748D01*
X130495352Y-138030013D01*
X130227563Y-137851082D01*
X130212755Y-137844948D01*
X130202103Y-137736801D01*
X130158646Y-137593540D01*
X130088074Y-137461511D01*
X130016899Y-137374784D01*
X129993101Y-137345786D01*
X129964103Y-137321988D01*
X128058116Y-135416002D01*
X128034313Y-135386998D01*
X127918588Y-135292025D01*
X127786559Y-135221453D01*
X127643298Y-135177996D01*
X127531645Y-135166999D01*
X127531634Y-135166999D01*
X127494312Y-135163323D01*
X127456990Y-135166999D01*
X115612323Y-135166999D01*
X115575000Y-135163323D01*
X115537677Y-135166999D01*
X115537668Y-135166999D01*
X115426015Y-135177996D01*
X115282754Y-135221453D01*
X115150724Y-135292025D01*
X115067084Y-135360667D01*
X115035000Y-135386998D01*
X115011202Y-135415996D01*
X114265270Y-136161928D01*
X113159000Y-136161928D01*
X113159000Y-119106755D01*
X115061412Y-119103080D01*
X114875844Y-119380801D01*
X114737518Y-119714750D01*
X114667000Y-120069268D01*
X114667000Y-120430732D01*
X114737518Y-120785250D01*
X114875844Y-121119199D01*
X115076662Y-121419744D01*
X115332256Y-121675338D01*
X115632801Y-121876156D01*
X115966750Y-122014482D01*
X116321268Y-122085000D01*
X116682732Y-122085000D01*
X117037250Y-122014482D01*
X117146449Y-121969250D01*
X121242001Y-126064803D01*
X121242000Y-130954464D01*
X121173414Y-131057111D01*
X121102932Y-131227271D01*
X121067000Y-131407911D01*
X121067000Y-131592089D01*
X121102932Y-131772729D01*
X121173414Y-131942889D01*
X121275738Y-132096028D01*
X121405972Y-132226262D01*
X121559111Y-132328586D01*
X121729271Y-132399068D01*
X121909911Y-132435000D01*
X122094089Y-132435000D01*
X122274729Y-132399068D01*
X122444889Y-132328586D01*
X122598028Y-132226262D01*
X122728262Y-132096028D01*
X122830586Y-131942889D01*
X122901068Y-131772729D01*
X122937000Y-131592089D01*
X122937000Y-131407911D01*
X122901068Y-131227271D01*
X122830586Y-131057111D01*
X122762000Y-130954465D01*
X122762000Y-125787333D01*
X122765677Y-125750000D01*
X122751003Y-125601014D01*
X122707546Y-125457753D01*
X122636974Y-125325724D01*
X122565799Y-125238997D01*
X122542001Y-125209999D01*
X122513003Y-125186201D01*
X119414873Y-122088072D01*
X120765271Y-122088072D01*
X123742001Y-125064803D01*
X123742000Y-132954464D01*
X123673414Y-133057111D01*
X123602932Y-133227271D01*
X123567000Y-133407911D01*
X123567000Y-133592089D01*
X123602932Y-133772729D01*
X123673414Y-133942889D01*
X123775738Y-134096028D01*
X123905972Y-134226262D01*
X124059111Y-134328586D01*
X124229271Y-134399068D01*
X124409911Y-134435000D01*
X124594089Y-134435000D01*
X124774729Y-134399068D01*
X124944889Y-134328586D01*
X125098028Y-134226262D01*
X125228262Y-134096028D01*
X125330586Y-133942889D01*
X125401068Y-133772729D01*
X125437000Y-133592089D01*
X125437000Y-133407911D01*
X125401068Y-133227271D01*
X125330586Y-133057111D01*
X125262000Y-132954465D01*
X125262000Y-124787322D01*
X125265676Y-124749999D01*
X125262000Y-124712676D01*
X125262000Y-124712667D01*
X125251003Y-124601014D01*
X125207546Y-124457753D01*
X125152569Y-124354899D01*
X125136974Y-124325723D01*
X125065799Y-124238997D01*
X125042001Y-124209999D01*
X125013003Y-124186201D01*
X121840072Y-121013271D01*
X121840072Y-119089985D01*
X123607289Y-119086571D01*
X123593628Y-119107016D01*
X123411731Y-119546154D01*
X123319000Y-120012340D01*
X123319000Y-120487660D01*
X123411731Y-120953846D01*
X123593628Y-121392984D01*
X123857701Y-121788198D01*
X124193802Y-122124299D01*
X124589016Y-122388372D01*
X125028154Y-122570269D01*
X125494340Y-122663000D01*
X125969660Y-122663000D01*
X126435846Y-122570269D01*
X126874984Y-122388372D01*
X127270198Y-122124299D01*
X127606299Y-121788198D01*
X127870372Y-121392984D01*
X128052269Y-120953846D01*
X128145000Y-120487660D01*
X128145000Y-120012340D01*
X128052269Y-119546154D01*
X127870372Y-119107016D01*
X127851233Y-119078372D01*
X137978100Y-119058809D01*
X137978100Y-119141033D01*
X138040932Y-119456912D01*
X138164182Y-119754463D01*
X138343113Y-120022252D01*
X138570848Y-120249987D01*
X138838637Y-120428918D01*
X139136188Y-120552168D01*
X139452067Y-120615000D01*
X139774133Y-120615000D01*
X140090012Y-120552168D01*
X140387563Y-120428918D01*
X140655352Y-120249987D01*
X140883087Y-120022252D01*
X140883100Y-120022233D01*
X140883113Y-120022252D01*
X141110848Y-120249987D01*
X141378637Y-120428918D01*
X141676188Y-120552168D01*
X141992067Y-120615000D01*
X142314133Y-120615000D01*
X142630012Y-120552168D01*
X142927563Y-120428918D01*
X143195352Y-120249987D01*
X143423087Y-120022252D01*
X143423100Y-120022233D01*
X143423113Y-120022252D01*
X143650848Y-120249987D01*
X143918637Y-120428918D01*
X144216188Y-120552168D01*
X144532067Y-120615000D01*
X144854133Y-120615000D01*
X145170012Y-120552168D01*
X145467563Y-120428918D01*
X145735352Y-120249987D01*
X145963087Y-120022252D01*
X145963100Y-120022233D01*
X145963113Y-120022252D01*
X146190848Y-120249987D01*
X146458637Y-120428918D01*
X146756188Y-120552168D01*
X147072067Y-120615000D01*
X147394133Y-120615000D01*
X147710012Y-120552168D01*
X148007563Y-120428918D01*
X148275352Y-120249987D01*
X148503087Y-120022252D01*
X148503100Y-120022233D01*
X148503113Y-120022252D01*
X148730848Y-120249987D01*
X148998637Y-120428918D01*
X149296188Y-120552168D01*
X149604753Y-120613545D01*
X146990998Y-123227301D01*
X146962000Y-123251099D01*
X146938202Y-123280097D01*
X146938201Y-123280098D01*
X146867026Y-123366824D01*
X146796454Y-123498854D01*
X146752998Y-123642115D01*
X146738324Y-123791100D01*
X146742001Y-123828432D01*
X146742000Y-124454464D01*
X146673414Y-124557111D01*
X146602932Y-124727271D01*
X146567000Y-124907911D01*
X146567000Y-125092089D01*
X146602932Y-125272729D01*
X146673414Y-125442889D01*
X146775738Y-125596028D01*
X146905972Y-125726262D01*
X147059111Y-125828586D01*
X147229271Y-125899068D01*
X147409911Y-125935000D01*
X147594089Y-125935000D01*
X147774729Y-125899068D01*
X147944889Y-125828586D01*
X148098028Y-125726262D01*
X148228262Y-125596028D01*
X148330586Y-125442889D01*
X148401068Y-125272729D01*
X148415534Y-125200000D01*
X176663928Y-125200000D01*
X176676188Y-125324482D01*
X176712498Y-125444180D01*
X176771463Y-125554494D01*
X176850815Y-125651185D01*
X176947506Y-125730537D01*
X176983918Y-125750000D01*
X176947506Y-125769463D01*
X176850815Y-125848815D01*
X176771463Y-125945506D01*
X176712498Y-126055820D01*
X176676188Y-126175518D01*
X176663928Y-126300000D01*
X176667000Y-127214250D01*
X176825750Y-127373000D01*
X178375000Y-127373000D01*
X178375000Y-125823750D01*
X178301250Y-125750000D01*
X178375000Y-125676250D01*
X178375000Y-124127000D01*
X178629000Y-124127000D01*
X178629000Y-125676250D01*
X178702750Y-125750000D01*
X178629000Y-125823750D01*
X178629000Y-127373000D01*
X180178250Y-127373000D01*
X180337000Y-127214250D01*
X180340072Y-126300000D01*
X180327812Y-126175518D01*
X180291502Y-126055820D01*
X180232537Y-125945506D01*
X180153185Y-125848815D01*
X180056494Y-125769463D01*
X180020082Y-125750000D01*
X180056494Y-125730537D01*
X180153185Y-125651185D01*
X180232537Y-125554494D01*
X180291502Y-125444180D01*
X180327812Y-125324482D01*
X180340072Y-125200000D01*
X180337000Y-124285750D01*
X180178250Y-124127000D01*
X178629000Y-124127000D01*
X178375000Y-124127000D01*
X176825750Y-124127000D01*
X176667000Y-124285750D01*
X176663928Y-125200000D01*
X148415534Y-125200000D01*
X148437000Y-125092089D01*
X148437000Y-124907911D01*
X148401068Y-124727271D01*
X148330586Y-124557111D01*
X148262000Y-124454465D01*
X148262000Y-124105901D01*
X151821725Y-120546177D01*
X151836188Y-120552168D01*
X152152067Y-120615000D01*
X152474133Y-120615000D01*
X152790012Y-120552168D01*
X153087563Y-120428918D01*
X153355352Y-120249987D01*
X153583087Y-120022252D01*
X153583100Y-120022233D01*
X153583113Y-120022252D01*
X153810848Y-120249987D01*
X154078637Y-120428918D01*
X154376188Y-120552168D01*
X154692067Y-120615000D01*
X155014133Y-120615000D01*
X155330012Y-120552168D01*
X155627563Y-120428918D01*
X155895352Y-120249987D01*
X156123087Y-120022252D01*
X156123100Y-120022233D01*
X156123113Y-120022252D01*
X156350848Y-120249987D01*
X156618637Y-120428918D01*
X156916188Y-120552168D01*
X157232067Y-120615000D01*
X157554133Y-120615000D01*
X157870012Y-120552168D01*
X158167563Y-120428918D01*
X158435352Y-120249987D01*
X158663087Y-120022252D01*
X158663100Y-120022233D01*
X158663113Y-120022252D01*
X158890848Y-120249987D01*
X159158637Y-120428918D01*
X159456188Y-120552168D01*
X159772067Y-120615000D01*
X160094133Y-120615000D01*
X160410012Y-120552168D01*
X160707563Y-120428918D01*
X160975352Y-120249987D01*
X161203087Y-120022252D01*
X161203100Y-120022233D01*
X161203113Y-120022252D01*
X161430848Y-120249987D01*
X161698637Y-120428918D01*
X161996188Y-120552168D01*
X162312067Y-120615000D01*
X162634133Y-120615000D01*
X162950012Y-120552168D01*
X163247563Y-120428918D01*
X163515352Y-120249987D01*
X163743087Y-120022252D01*
X163743100Y-120022233D01*
X163743113Y-120022252D01*
X163970848Y-120249987D01*
X164238637Y-120428918D01*
X164536188Y-120552168D01*
X164852067Y-120615000D01*
X165174133Y-120615000D01*
X165490012Y-120552168D01*
X165787563Y-120428918D01*
X166055352Y-120249987D01*
X166283087Y-120022252D01*
X166283100Y-120022233D01*
X166283113Y-120022252D01*
X166510848Y-120249987D01*
X166778637Y-120428918D01*
X167076188Y-120552168D01*
X167392067Y-120615000D01*
X167714133Y-120615000D01*
X168030012Y-120552168D01*
X168327563Y-120428918D01*
X168595352Y-120249987D01*
X168823087Y-120022252D01*
X169002018Y-119754463D01*
X169125268Y-119456912D01*
X169188100Y-119141033D01*
X169188100Y-118998516D01*
X169386381Y-118998133D01*
X169313628Y-119107016D01*
X169131731Y-119546154D01*
X169039000Y-120012340D01*
X169039000Y-120487660D01*
X169131731Y-120953846D01*
X169313628Y-121392984D01*
X169577701Y-121788198D01*
X169913802Y-122124299D01*
X170309016Y-122388372D01*
X170748154Y-122570269D01*
X171214340Y-122663000D01*
X171689660Y-122663000D01*
X172155846Y-122570269D01*
X172594984Y-122388372D01*
X172990198Y-122124299D01*
X173326299Y-121788198D01*
X173385230Y-121700000D01*
X176663928Y-121700000D01*
X176676188Y-121824482D01*
X176712498Y-121944180D01*
X176771463Y-122054494D01*
X176850815Y-122151185D01*
X176947506Y-122230537D01*
X176983918Y-122250000D01*
X176947506Y-122269463D01*
X176850815Y-122348815D01*
X176771463Y-122445506D01*
X176712498Y-122555820D01*
X176676188Y-122675518D01*
X176663928Y-122800000D01*
X176667000Y-123714250D01*
X176825750Y-123873000D01*
X178375000Y-123873000D01*
X178375000Y-122323750D01*
X178301250Y-122250000D01*
X178375000Y-122176250D01*
X178375000Y-120627000D01*
X178629000Y-120627000D01*
X178629000Y-122176250D01*
X178702750Y-122250000D01*
X178629000Y-122323750D01*
X178629000Y-123873000D01*
X180178250Y-123873000D01*
X180337000Y-123714250D01*
X180340072Y-122800000D01*
X180327812Y-122675518D01*
X180291502Y-122555820D01*
X180232537Y-122445506D01*
X180153185Y-122348815D01*
X180056494Y-122269463D01*
X180020082Y-122250000D01*
X180056494Y-122230537D01*
X180153185Y-122151185D01*
X180232537Y-122054494D01*
X180291502Y-121944180D01*
X180327812Y-121824482D01*
X180340072Y-121700000D01*
X180337000Y-120785750D01*
X180178250Y-120627000D01*
X178629000Y-120627000D01*
X178375000Y-120627000D01*
X176825750Y-120627000D01*
X176667000Y-120785750D01*
X176663928Y-121700000D01*
X173385230Y-121700000D01*
X173590372Y-121392984D01*
X173772269Y-120953846D01*
X173865000Y-120487660D01*
X173865000Y-120012340D01*
X173772269Y-119546154D01*
X173590372Y-119107016D01*
X173512293Y-118990163D01*
X176750937Y-118983906D01*
X176712498Y-119055820D01*
X176676188Y-119175518D01*
X176663928Y-119300000D01*
X176667000Y-120214250D01*
X176825750Y-120373000D01*
X178375000Y-120373000D01*
X178375000Y-120353000D01*
X178629000Y-120353000D01*
X178629000Y-120373000D01*
X180178250Y-120373000D01*
X180337000Y-120214250D01*
X180340072Y-119300000D01*
X180327812Y-119175518D01*
X180291502Y-119055820D01*
X180249450Y-118977148D01*
X185375000Y-118967246D01*
X185375000Y-139033245D01*
G37*
X185375000Y-139033245D02*
X180365397Y-139042923D01*
X180484026Y-138820982D01*
X180606108Y-138418533D01*
X180637000Y-138104882D01*
X180637000Y-130895118D01*
X180606108Y-130581467D01*
X180484026Y-130179018D01*
X180340072Y-129909698D01*
X180340072Y-129800000D01*
X180327812Y-129675518D01*
X180291502Y-129555820D01*
X180232537Y-129445506D01*
X180153185Y-129348815D01*
X180056494Y-129269463D01*
X180020082Y-129250000D01*
X180056494Y-129230537D01*
X180153185Y-129151185D01*
X180232537Y-129054494D01*
X180291502Y-128944180D01*
X180327812Y-128824482D01*
X180340072Y-128700000D01*
X180337000Y-127785750D01*
X180178250Y-127627000D01*
X178629000Y-127627000D01*
X178629000Y-127647000D01*
X178375000Y-127647000D01*
X178375000Y-127627000D01*
X176825750Y-127627000D01*
X176667000Y-127785750D01*
X176663928Y-128700000D01*
X176676188Y-128824482D01*
X176712498Y-128944180D01*
X176771463Y-129054494D01*
X176850815Y-129151185D01*
X176947506Y-129230537D01*
X176983918Y-129250000D01*
X176947506Y-129269463D01*
X176850815Y-129348815D01*
X176771463Y-129445506D01*
X176712498Y-129555820D01*
X176676188Y-129675518D01*
X176663928Y-129800000D01*
X176663928Y-129909698D01*
X176519974Y-130179019D01*
X176397892Y-130581468D01*
X176367000Y-130895119D01*
X176367000Y-138104882D01*
X176397893Y-138418533D01*
X176519975Y-138820982D01*
X176642449Y-139050115D01*
X173638863Y-139055917D01*
X173772269Y-138733846D01*
X173865000Y-138267660D01*
X173865000Y-137792340D01*
X173772269Y-137326154D01*
X173590372Y-136887016D01*
X173326299Y-136491802D01*
X172990198Y-136155701D01*
X172594984Y-135891628D01*
X172155846Y-135709731D01*
X171689660Y-135617000D01*
X171214340Y-135617000D01*
X170748154Y-135709731D01*
X170309016Y-135891628D01*
X169913802Y-136155701D01*
X169577701Y-136491802D01*
X169313628Y-136887016D01*
X169131731Y-137326154D01*
X169039000Y-137792340D01*
X169039000Y-138267660D01*
X169131731Y-138733846D01*
X169268634Y-139064360D01*
X169173296Y-139064544D01*
X169125268Y-138823088D01*
X169002018Y-138525537D01*
X168823087Y-138257748D01*
X168595352Y-138030013D01*
X168327563Y-137851082D01*
X168030012Y-137727832D01*
X167714133Y-137665000D01*
X167392067Y-137665000D01*
X167076188Y-137727832D01*
X166778637Y-137851082D01*
X166510848Y-138030013D01*
X166283113Y-138257748D01*
X166283100Y-138257767D01*
X166283087Y-138257748D01*
X166055352Y-138030013D01*
X165787563Y-137851082D01*
X165490012Y-137727832D01*
X165174133Y-137665000D01*
X164852067Y-137665000D01*
X164536188Y-137727832D01*
X164238637Y-137851082D01*
X163970848Y-138030013D01*
X163743113Y-138257748D01*
X163743100Y-138257767D01*
X163743087Y-138257748D01*
X163515352Y-138030013D01*
X163247563Y-137851082D01*
X162950012Y-137727832D01*
X162634133Y-137665000D01*
X162312067Y-137665000D01*
X161996188Y-137727832D01*
X161698637Y-137851082D01*
X161430848Y-138030013D01*
X161203113Y-138257748D01*
X161203100Y-138257767D01*
X161203087Y-138257748D01*
X160975352Y-138030013D01*
X160707563Y-137851082D01*
X160410012Y-137727832D01*
X160094133Y-137665000D01*
X159772067Y-137665000D01*
X159456188Y-137727832D01*
X159158637Y-137851082D01*
X158890848Y-138030013D01*
X158663113Y-138257748D01*
X158663100Y-138257767D01*
X158663087Y-138257748D01*
X158435352Y-138030013D01*
X158167563Y-137851082D01*
X157870012Y-137727832D01*
X157554133Y-137665000D01*
X157232067Y-137665000D01*
X156916188Y-137727832D01*
X156618637Y-137851082D01*
X156350848Y-138030013D01*
X156123113Y-138257748D01*
X156123100Y-138257767D01*
X156123087Y-138257748D01*
X155895352Y-138030013D01*
X155627563Y-137851082D01*
X155330012Y-137727832D01*
X155014133Y-137665000D01*
X154692067Y-137665000D01*
X154376188Y-137727832D01*
X154078637Y-137851082D01*
X153810848Y-138030013D01*
X153583113Y-138257748D01*
X153583100Y-138257767D01*
X153583087Y-138257748D01*
X153355352Y-138030013D01*
X153087563Y-137851082D01*
X152790012Y-137727832D01*
X152474133Y-137665000D01*
X152152067Y-137665000D01*
X151836188Y-137727832D01*
X151538637Y-137851082D01*
X151270848Y-138030013D01*
X151043113Y-138257748D01*
X151043100Y-138257767D01*
X151043087Y-138257748D01*
X150815352Y-138030013D01*
X150547563Y-137851082D01*
X150250012Y-137727832D01*
X149934133Y-137665000D01*
X149612067Y-137665000D01*
X149296188Y-137727832D01*
X148998637Y-137851082D01*
X148730848Y-138030013D01*
X148503113Y-138257748D01*
X148503100Y-138257767D01*
X148503087Y-138257748D01*
X148275352Y-138030013D01*
X148007563Y-137851082D01*
X147710012Y-137727832D01*
X147394133Y-137665000D01*
X147072067Y-137665000D01*
X146756188Y-137727832D01*
X146458637Y-137851082D01*
X146190848Y-138030013D01*
X145963113Y-138257748D01*
X145963100Y-138257767D01*
X145963087Y-138257748D01*
X145735352Y-138030013D01*
X145467563Y-137851082D01*
X145170012Y-137727832D01*
X144854133Y-137665000D01*
X144532067Y-137665000D01*
X144216188Y-137727832D01*
X143918637Y-137851082D01*
X143650848Y-138030013D01*
X143423113Y-138257748D01*
X143423100Y-138257767D01*
X143423087Y-138257748D01*
X143195352Y-138030013D01*
X142927563Y-137851082D01*
X142630012Y-137727832D01*
X142314133Y-137665000D01*
X141992067Y-137665000D01*
X141676188Y-137727832D01*
X141378637Y-137851082D01*
X141110848Y-138030013D01*
X140883113Y-138257748D01*
X140883100Y-138257767D01*
X140883087Y-138257748D01*
X140655352Y-138030013D01*
X140387563Y-137851082D01*
X140090012Y-137727832D01*
X139774133Y-137665000D01*
X139452067Y-137665000D01*
X139136188Y-137727832D01*
X138838637Y-137851082D01*
X138570848Y-138030013D01*
X138343113Y-138257748D01*
X138270380Y-138366600D01*
X138208513Y-138344192D01*
X137426832Y-139125873D01*
X136720732Y-139127237D01*
X135937687Y-138344192D01*
X135875820Y-138366600D01*
X135803087Y-138257748D01*
X135709926Y-138164587D01*
X136117292Y-138164587D01*
X137073100Y-139120395D01*
X138028908Y-138164587D01*
X137933144Y-137900186D01*
X137643529Y-137759296D01*
X137331992Y-137677616D01*
X137010505Y-137658282D01*
X136691425Y-137702039D01*
X136387012Y-137807205D01*
X136213056Y-137900186D01*
X136117292Y-138164587D01*
X135709926Y-138164587D01*
X135575352Y-138030013D01*
X135307563Y-137851082D01*
X135010012Y-137727832D01*
X134694133Y-137665000D01*
X134372067Y-137665000D01*
X134056188Y-137727832D01*
X133758637Y-137851082D01*
X133490848Y-138030013D01*
X133263113Y-138257748D01*
X133263100Y-138257767D01*
X133263087Y-138257748D01*
X133035352Y-138030013D01*
X132767563Y-137851082D01*
X132470012Y-137727832D01*
X132154133Y-137665000D01*
X131832067Y-137665000D01*
X131516188Y-137727832D01*
X131218637Y-137851082D01*
X130950848Y-138030013D01*
X130723113Y-138257748D01*
X130723100Y-138257767D01*
X130723087Y-138257748D01*
X130495352Y-138030013D01*
X130227563Y-137851082D01*
X130212755Y-137844948D01*
X130202103Y-137736801D01*
X130158646Y-137593540D01*
X130088074Y-137461511D01*
X130016899Y-137374784D01*
X129993101Y-137345786D01*
X129964103Y-137321988D01*
X128058116Y-135416002D01*
X128034313Y-135386998D01*
X127918588Y-135292025D01*
X127786559Y-135221453D01*
X127643298Y-135177996D01*
X127531645Y-135166999D01*
X127531634Y-135166999D01*
X127494312Y-135163323D01*
X127456990Y-135166999D01*
X115612323Y-135166999D01*
X115575000Y-135163323D01*
X115537677Y-135166999D01*
X115537668Y-135166999D01*
X115426015Y-135177996D01*
X115282754Y-135221453D01*
X115150724Y-135292025D01*
X115067084Y-135360667D01*
X115035000Y-135386998D01*
X115011202Y-135415996D01*
X114265270Y-136161928D01*
X113159000Y-136161928D01*
X113159000Y-119106755D01*
X115061412Y-119103080D01*
X114875844Y-119380801D01*
X114737518Y-119714750D01*
X114667000Y-120069268D01*
X114667000Y-120430732D01*
X114737518Y-120785250D01*
X114875844Y-121119199D01*
X115076662Y-121419744D01*
X115332256Y-121675338D01*
X115632801Y-121876156D01*
X115966750Y-122014482D01*
X116321268Y-122085000D01*
X116682732Y-122085000D01*
X117037250Y-122014482D01*
X117146449Y-121969250D01*
X121242001Y-126064803D01*
X121242000Y-130954464D01*
X121173414Y-131057111D01*
X121102932Y-131227271D01*
X121067000Y-131407911D01*
X121067000Y-131592089D01*
X121102932Y-131772729D01*
X121173414Y-131942889D01*
X121275738Y-132096028D01*
X121405972Y-132226262D01*
X121559111Y-132328586D01*
X121729271Y-132399068D01*
X121909911Y-132435000D01*
X122094089Y-132435000D01*
X122274729Y-132399068D01*
X122444889Y-132328586D01*
X122598028Y-132226262D01*
X122728262Y-132096028D01*
X122830586Y-131942889D01*
X122901068Y-131772729D01*
X122937000Y-131592089D01*
X122937000Y-131407911D01*
X122901068Y-131227271D01*
X122830586Y-131057111D01*
X122762000Y-130954465D01*
X122762000Y-125787333D01*
X122765677Y-125750000D01*
X122751003Y-125601014D01*
X122707546Y-125457753D01*
X122636974Y-125325724D01*
X122565799Y-125238997D01*
X122542001Y-125209999D01*
X122513003Y-125186201D01*
X119414873Y-122088072D01*
X120765271Y-122088072D01*
X123742001Y-125064803D01*
X123742000Y-132954464D01*
X123673414Y-133057111D01*
X123602932Y-133227271D01*
X123567000Y-133407911D01*
X123567000Y-133592089D01*
X123602932Y-133772729D01*
X123673414Y-133942889D01*
X123775738Y-134096028D01*
X123905972Y-134226262D01*
X124059111Y-134328586D01*
X124229271Y-134399068D01*
X124409911Y-134435000D01*
X124594089Y-134435000D01*
X124774729Y-134399068D01*
X124944889Y-134328586D01*
X125098028Y-134226262D01*
X125228262Y-134096028D01*
X125330586Y-133942889D01*
X125401068Y-133772729D01*
X125437000Y-133592089D01*
X125437000Y-133407911D01*
X125401068Y-133227271D01*
X125330586Y-133057111D01*
X125262000Y-132954465D01*
X125262000Y-124787322D01*
X125265676Y-124749999D01*
X125262000Y-124712676D01*
X125262000Y-124712667D01*
X125251003Y-124601014D01*
X125207546Y-124457753D01*
X125152569Y-124354899D01*
X125136974Y-124325723D01*
X125065799Y-124238997D01*
X125042001Y-124209999D01*
X125013003Y-124186201D01*
X121840072Y-121013271D01*
X121840072Y-119089985D01*
X123607289Y-119086571D01*
X123593628Y-119107016D01*
X123411731Y-119546154D01*
X123319000Y-120012340D01*
X123319000Y-120487660D01*
X123411731Y-120953846D01*
X123593628Y-121392984D01*
X123857701Y-121788198D01*
X124193802Y-122124299D01*
X124589016Y-122388372D01*
X125028154Y-122570269D01*
X125494340Y-122663000D01*
X125969660Y-122663000D01*
X126435846Y-122570269D01*
X126874984Y-122388372D01*
X127270198Y-122124299D01*
X127606299Y-121788198D01*
X127870372Y-121392984D01*
X128052269Y-120953846D01*
X128145000Y-120487660D01*
X128145000Y-120012340D01*
X128052269Y-119546154D01*
X127870372Y-119107016D01*
X127851233Y-119078372D01*
X137978100Y-119058809D01*
X137978100Y-119141033D01*
X138040932Y-119456912D01*
X138164182Y-119754463D01*
X138343113Y-120022252D01*
X138570848Y-120249987D01*
X138838637Y-120428918D01*
X139136188Y-120552168D01*
X139452067Y-120615000D01*
X139774133Y-120615000D01*
X140090012Y-120552168D01*
X140387563Y-120428918D01*
X140655352Y-120249987D01*
X140883087Y-120022252D01*
X140883100Y-120022233D01*
X140883113Y-120022252D01*
X141110848Y-120249987D01*
X141378637Y-120428918D01*
X141676188Y-120552168D01*
X141992067Y-120615000D01*
X142314133Y-120615000D01*
X142630012Y-120552168D01*
X142927563Y-120428918D01*
X143195352Y-120249987D01*
X143423087Y-120022252D01*
X143423100Y-120022233D01*
X143423113Y-120022252D01*
X143650848Y-120249987D01*
X143918637Y-120428918D01*
X144216188Y-120552168D01*
X144532067Y-120615000D01*
X144854133Y-120615000D01*
X145170012Y-120552168D01*
X145467563Y-120428918D01*
X145735352Y-120249987D01*
X145963087Y-120022252D01*
X145963100Y-120022233D01*
X145963113Y-120022252D01*
X146190848Y-120249987D01*
X146458637Y-120428918D01*
X146756188Y-120552168D01*
X147072067Y-120615000D01*
X147394133Y-120615000D01*
X147710012Y-120552168D01*
X148007563Y-120428918D01*
X148275352Y-120249987D01*
X148503087Y-120022252D01*
X148503100Y-120022233D01*
X148503113Y-120022252D01*
X148730848Y-120249987D01*
X148998637Y-120428918D01*
X149296188Y-120552168D01*
X149604753Y-120613545D01*
X146990998Y-123227301D01*
X146962000Y-123251099D01*
X146938202Y-123280097D01*
X146938201Y-123280098D01*
X146867026Y-123366824D01*
X146796454Y-123498854D01*
X146752998Y-123642115D01*
X146738324Y-123791100D01*
X146742001Y-123828432D01*
X146742000Y-124454464D01*
X146673414Y-124557111D01*
X146602932Y-124727271D01*
X146567000Y-124907911D01*
X146567000Y-125092089D01*
X146602932Y-125272729D01*
X146673414Y-125442889D01*
X146775738Y-125596028D01*
X146905972Y-125726262D01*
X147059111Y-125828586D01*
X147229271Y-125899068D01*
X147409911Y-125935000D01*
X147594089Y-125935000D01*
X147774729Y-125899068D01*
X147944889Y-125828586D01*
X148098028Y-125726262D01*
X148228262Y-125596028D01*
X148330586Y-125442889D01*
X148401068Y-125272729D01*
X148415534Y-125200000D01*
X176663928Y-125200000D01*
X176676188Y-125324482D01*
X176712498Y-125444180D01*
X176771463Y-125554494D01*
X176850815Y-125651185D01*
X176947506Y-125730537D01*
X176983918Y-125750000D01*
X176947506Y-125769463D01*
X176850815Y-125848815D01*
X176771463Y-125945506D01*
X176712498Y-126055820D01*
X176676188Y-126175518D01*
X176663928Y-126300000D01*
X176667000Y-127214250D01*
X176825750Y-127373000D01*
X178375000Y-127373000D01*
X178375000Y-125823750D01*
X178301250Y-125750000D01*
X178375000Y-125676250D01*
X178375000Y-124127000D01*
X178629000Y-124127000D01*
X178629000Y-125676250D01*
X178702750Y-125750000D01*
X178629000Y-125823750D01*
X178629000Y-127373000D01*
X180178250Y-127373000D01*
X180337000Y-127214250D01*
X180340072Y-126300000D01*
X180327812Y-126175518D01*
X180291502Y-126055820D01*
X180232537Y-125945506D01*
X180153185Y-125848815D01*
X180056494Y-125769463D01*
X180020082Y-125750000D01*
X180056494Y-125730537D01*
X180153185Y-125651185D01*
X180232537Y-125554494D01*
X180291502Y-125444180D01*
X180327812Y-125324482D01*
X180340072Y-125200000D01*
X180337000Y-124285750D01*
X180178250Y-124127000D01*
X178629000Y-124127000D01*
X178375000Y-124127000D01*
X176825750Y-124127000D01*
X176667000Y-124285750D01*
X176663928Y-125200000D01*
X148415534Y-125200000D01*
X148437000Y-125092089D01*
X148437000Y-124907911D01*
X148401068Y-124727271D01*
X148330586Y-124557111D01*
X148262000Y-124454465D01*
X148262000Y-124105901D01*
X151821725Y-120546177D01*
X151836188Y-120552168D01*
X152152067Y-120615000D01*
X152474133Y-120615000D01*
X152790012Y-120552168D01*
X153087563Y-120428918D01*
X153355352Y-120249987D01*
X153583087Y-120022252D01*
X153583100Y-120022233D01*
X153583113Y-120022252D01*
X153810848Y-120249987D01*
X154078637Y-120428918D01*
X154376188Y-120552168D01*
X154692067Y-120615000D01*
X155014133Y-120615000D01*
X155330012Y-120552168D01*
X155627563Y-120428918D01*
X155895352Y-120249987D01*
X156123087Y-120022252D01*
X156123100Y-120022233D01*
X156123113Y-120022252D01*
X156350848Y-120249987D01*
X156618637Y-120428918D01*
X156916188Y-120552168D01*
X157232067Y-120615000D01*
X157554133Y-120615000D01*
X157870012Y-120552168D01*
X158167563Y-120428918D01*
X158435352Y-120249987D01*
X158663087Y-120022252D01*
X158663100Y-120022233D01*
X158663113Y-120022252D01*
X158890848Y-120249987D01*
X159158637Y-120428918D01*
X159456188Y-120552168D01*
X159772067Y-120615000D01*
X160094133Y-120615000D01*
X160410012Y-120552168D01*
X160707563Y-120428918D01*
X160975352Y-120249987D01*
X161203087Y-120022252D01*
X161203100Y-120022233D01*
X161203113Y-120022252D01*
X161430848Y-120249987D01*
X161698637Y-120428918D01*
X161996188Y-120552168D01*
X162312067Y-120615000D01*
X162634133Y-120615000D01*
X162950012Y-120552168D01*
X163247563Y-120428918D01*
X163515352Y-120249987D01*
X163743087Y-120022252D01*
X163743100Y-120022233D01*
X163743113Y-120022252D01*
X163970848Y-120249987D01*
X164238637Y-120428918D01*
X164536188Y-120552168D01*
X164852067Y-120615000D01*
X165174133Y-120615000D01*
X165490012Y-120552168D01*
X165787563Y-120428918D01*
X166055352Y-120249987D01*
X166283087Y-120022252D01*
X166283100Y-120022233D01*
X166283113Y-120022252D01*
X166510848Y-120249987D01*
X166778637Y-120428918D01*
X167076188Y-120552168D01*
X167392067Y-120615000D01*
X167714133Y-120615000D01*
X168030012Y-120552168D01*
X168327563Y-120428918D01*
X168595352Y-120249987D01*
X168823087Y-120022252D01*
X169002018Y-119754463D01*
X169125268Y-119456912D01*
X169188100Y-119141033D01*
X169188100Y-118998516D01*
X169386381Y-118998133D01*
X169313628Y-119107016D01*
X169131731Y-119546154D01*
X169039000Y-120012340D01*
X169039000Y-120487660D01*
X169131731Y-120953846D01*
X169313628Y-121392984D01*
X169577701Y-121788198D01*
X169913802Y-122124299D01*
X170309016Y-122388372D01*
X170748154Y-122570269D01*
X171214340Y-122663000D01*
X171689660Y-122663000D01*
X172155846Y-122570269D01*
X172594984Y-122388372D01*
X172990198Y-122124299D01*
X173326299Y-121788198D01*
X173385230Y-121700000D01*
X176663928Y-121700000D01*
X176676188Y-121824482D01*
X176712498Y-121944180D01*
X176771463Y-122054494D01*
X176850815Y-122151185D01*
X176947506Y-122230537D01*
X176983918Y-122250000D01*
X176947506Y-122269463D01*
X176850815Y-122348815D01*
X176771463Y-122445506D01*
X176712498Y-122555820D01*
X176676188Y-122675518D01*
X176663928Y-122800000D01*
X176667000Y-123714250D01*
X176825750Y-123873000D01*
X178375000Y-123873000D01*
X178375000Y-122323750D01*
X178301250Y-122250000D01*
X178375000Y-122176250D01*
X178375000Y-120627000D01*
X178629000Y-120627000D01*
X178629000Y-122176250D01*
X178702750Y-122250000D01*
X178629000Y-122323750D01*
X178629000Y-123873000D01*
X180178250Y-123873000D01*
X180337000Y-123714250D01*
X180340072Y-122800000D01*
X180327812Y-122675518D01*
X180291502Y-122555820D01*
X180232537Y-122445506D01*
X180153185Y-122348815D01*
X180056494Y-122269463D01*
X180020082Y-122250000D01*
X180056494Y-122230537D01*
X180153185Y-122151185D01*
X180232537Y-122054494D01*
X180291502Y-121944180D01*
X180327812Y-121824482D01*
X180340072Y-121700000D01*
X180337000Y-120785750D01*
X180178250Y-120627000D01*
X178629000Y-120627000D01*
X178375000Y-120627000D01*
X176825750Y-120627000D01*
X176667000Y-120785750D01*
X176663928Y-121700000D01*
X173385230Y-121700000D01*
X173590372Y-121392984D01*
X173772269Y-120953846D01*
X173865000Y-120487660D01*
X173865000Y-120012340D01*
X173772269Y-119546154D01*
X173590372Y-119107016D01*
X173512293Y-118990163D01*
X176750937Y-118983906D01*
X176712498Y-119055820D01*
X176676188Y-119175518D01*
X176663928Y-119300000D01*
X176667000Y-120214250D01*
X176825750Y-120373000D01*
X178375000Y-120373000D01*
X178375000Y-120353000D01*
X178629000Y-120353000D01*
X178629000Y-120373000D01*
X180178250Y-120373000D01*
X180337000Y-120214250D01*
X180340072Y-119300000D01*
X180327812Y-119175518D01*
X180291502Y-119055820D01*
X180249450Y-118977148D01*
X185375000Y-118967246D01*
X185375000Y-139033245D01*
%TO.N,C1_GND*%
G36*
X119403626Y-161582020D02*
G01*
X120502000Y-162680395D01*
X121600374Y-161582020D01*
X121585635Y-161546999D01*
X123727275Y-161546999D01*
X123593628Y-161747016D01*
X123411731Y-162186154D01*
X123319000Y-162652340D01*
X123319000Y-163127660D01*
X123411731Y-163593846D01*
X123585190Y-164012612D01*
X121837596Y-164015988D01*
X121779981Y-163958373D01*
X122064836Y-163838486D01*
X122225699Y-163514790D01*
X122320322Y-163165931D01*
X122345067Y-162805316D01*
X122298985Y-162446802D01*
X122183846Y-162104167D01*
X122064836Y-161881514D01*
X121779980Y-161761626D01*
X120681605Y-162860000D01*
X120695748Y-162874142D01*
X120516142Y-163053748D01*
X120502000Y-163039605D01*
X120487858Y-163053748D01*
X120308252Y-162874142D01*
X120322395Y-162860000D01*
X119224020Y-161761626D01*
X118939164Y-161881514D01*
X118778301Y-162205210D01*
X118754031Y-162294690D01*
X118628156Y-161990801D01*
X118427338Y-161690256D01*
X118284081Y-161546999D01*
X119418365Y-161546999D01*
X119403626Y-161582020D01*
G37*
X119403626Y-161582020D02*
X120502000Y-162680395D01*
X121600374Y-161582020D01*
X121585635Y-161546999D01*
X123727275Y-161546999D01*
X123593628Y-161747016D01*
X123411731Y-162186154D01*
X123319000Y-162652340D01*
X123319000Y-163127660D01*
X123411731Y-163593846D01*
X123585190Y-164012612D01*
X121837596Y-164015988D01*
X121779981Y-163958373D01*
X122064836Y-163838486D01*
X122225699Y-163514790D01*
X122320322Y-163165931D01*
X122345067Y-162805316D01*
X122298985Y-162446802D01*
X122183846Y-162104167D01*
X122064836Y-161881514D01*
X121779980Y-161761626D01*
X120681605Y-162860000D01*
X120695748Y-162874142D01*
X120516142Y-163053748D01*
X120502000Y-163039605D01*
X120487858Y-163053748D01*
X120308252Y-162874142D01*
X120322395Y-162860000D01*
X119224020Y-161761626D01*
X118939164Y-161881514D01*
X118778301Y-162205210D01*
X118754031Y-162294690D01*
X118628156Y-161990801D01*
X118427338Y-161690256D01*
X118284081Y-161546999D01*
X119418365Y-161546999D01*
X119403626Y-161582020D01*
G36*
X185375000Y-163893245D02*
G01*
X180365397Y-163902923D01*
X180484026Y-163680982D01*
X180606108Y-163278533D01*
X180637000Y-162964882D01*
X180637000Y-155755118D01*
X180606108Y-155441467D01*
X180484026Y-155039018D01*
X180340072Y-154769698D01*
X180340072Y-154660000D01*
X180327812Y-154535518D01*
X180291502Y-154415820D01*
X180232537Y-154305506D01*
X180153185Y-154208815D01*
X180056494Y-154129463D01*
X180020082Y-154110000D01*
X180056494Y-154090537D01*
X180153185Y-154011185D01*
X180232537Y-153914494D01*
X180291502Y-153804180D01*
X180327812Y-153684482D01*
X180340072Y-153560000D01*
X180337000Y-152645750D01*
X180178250Y-152487000D01*
X178629000Y-152487000D01*
X178629000Y-152507000D01*
X178375000Y-152507000D01*
X178375000Y-152487000D01*
X176825750Y-152487000D01*
X176667000Y-152645750D01*
X176663928Y-153560000D01*
X176676188Y-153684482D01*
X176712498Y-153804180D01*
X176771463Y-153914494D01*
X176850815Y-154011185D01*
X176947506Y-154090537D01*
X176983918Y-154110000D01*
X176947506Y-154129463D01*
X176850815Y-154208815D01*
X176771463Y-154305506D01*
X176712498Y-154415820D01*
X176676188Y-154535518D01*
X176663928Y-154660000D01*
X176663928Y-154769698D01*
X176519974Y-155039019D01*
X176397892Y-155441468D01*
X176367000Y-155755119D01*
X176367000Y-162964882D01*
X176397893Y-163278533D01*
X176519975Y-163680982D01*
X176642449Y-163910115D01*
X173638863Y-163915917D01*
X173772269Y-163593846D01*
X173865000Y-163127660D01*
X173865000Y-162652340D01*
X173772269Y-162186154D01*
X173590372Y-161747016D01*
X173326299Y-161351802D01*
X172990198Y-161015701D01*
X172594984Y-160751628D01*
X172155846Y-160569731D01*
X171689660Y-160477000D01*
X171214340Y-160477000D01*
X170748154Y-160569731D01*
X170309016Y-160751628D01*
X169913802Y-161015701D01*
X169577701Y-161351802D01*
X169313628Y-161747016D01*
X169131731Y-162186154D01*
X169039000Y-162652340D01*
X169039000Y-163127660D01*
X169131731Y-163593846D01*
X169268634Y-163924360D01*
X169173296Y-163924544D01*
X169125268Y-163683088D01*
X169002018Y-163385537D01*
X168823087Y-163117748D01*
X168595352Y-162890013D01*
X168327563Y-162711082D01*
X168030012Y-162587832D01*
X167714133Y-162525000D01*
X167392067Y-162525000D01*
X167076188Y-162587832D01*
X166778637Y-162711082D01*
X166510848Y-162890013D01*
X166283113Y-163117748D01*
X166283100Y-163117767D01*
X166283087Y-163117748D01*
X166055352Y-162890013D01*
X165787563Y-162711082D01*
X165490012Y-162587832D01*
X165174133Y-162525000D01*
X164852067Y-162525000D01*
X164536188Y-162587832D01*
X164238637Y-162711082D01*
X163970848Y-162890013D01*
X163743113Y-163117748D01*
X163743100Y-163117767D01*
X163743087Y-163117748D01*
X163515352Y-162890013D01*
X163247563Y-162711082D01*
X162950012Y-162587832D01*
X162634133Y-162525000D01*
X162312067Y-162525000D01*
X161996188Y-162587832D01*
X161698637Y-162711082D01*
X161430848Y-162890013D01*
X161203113Y-163117748D01*
X161203100Y-163117767D01*
X161203087Y-163117748D01*
X160975352Y-162890013D01*
X160707563Y-162711082D01*
X160410012Y-162587832D01*
X160094133Y-162525000D01*
X159772067Y-162525000D01*
X159456188Y-162587832D01*
X159158637Y-162711082D01*
X158890848Y-162890013D01*
X158663113Y-163117748D01*
X158663100Y-163117767D01*
X158663087Y-163117748D01*
X158435352Y-162890013D01*
X158167563Y-162711082D01*
X157870012Y-162587832D01*
X157554133Y-162525000D01*
X157232067Y-162525000D01*
X156916188Y-162587832D01*
X156618637Y-162711082D01*
X156350848Y-162890013D01*
X156123113Y-163117748D01*
X156123100Y-163117767D01*
X156123087Y-163117748D01*
X155895352Y-162890013D01*
X155627563Y-162711082D01*
X155330012Y-162587832D01*
X155014133Y-162525000D01*
X154692067Y-162525000D01*
X154376188Y-162587832D01*
X154078637Y-162711082D01*
X153810848Y-162890013D01*
X153583113Y-163117748D01*
X153583100Y-163117767D01*
X153583087Y-163117748D01*
X153355352Y-162890013D01*
X153087563Y-162711082D01*
X152790012Y-162587832D01*
X152474133Y-162525000D01*
X152152067Y-162525000D01*
X151836188Y-162587832D01*
X151538637Y-162711082D01*
X151270848Y-162890013D01*
X151043113Y-163117748D01*
X151043100Y-163117767D01*
X151043087Y-163117748D01*
X150815352Y-162890013D01*
X150547563Y-162711082D01*
X150250012Y-162587832D01*
X149934133Y-162525000D01*
X149612067Y-162525000D01*
X149296188Y-162587832D01*
X148998637Y-162711082D01*
X148730848Y-162890013D01*
X148503113Y-163117748D01*
X148503100Y-163117767D01*
X148503087Y-163117748D01*
X148275352Y-162890013D01*
X148007563Y-162711082D01*
X147710012Y-162587832D01*
X147394133Y-162525000D01*
X147072067Y-162525000D01*
X146756188Y-162587832D01*
X146458637Y-162711082D01*
X146190848Y-162890013D01*
X145963113Y-163117748D01*
X145963100Y-163117767D01*
X145963087Y-163117748D01*
X145735352Y-162890013D01*
X145467563Y-162711082D01*
X145170012Y-162587832D01*
X144854133Y-162525000D01*
X144532067Y-162525000D01*
X144216188Y-162587832D01*
X143918637Y-162711082D01*
X143650848Y-162890013D01*
X143423113Y-163117748D01*
X143423100Y-163117767D01*
X143423087Y-163117748D01*
X143195352Y-162890013D01*
X142927563Y-162711082D01*
X142630012Y-162587832D01*
X142314133Y-162525000D01*
X141992067Y-162525000D01*
X141676188Y-162587832D01*
X141378637Y-162711082D01*
X141110848Y-162890013D01*
X140883113Y-163117748D01*
X140883100Y-163117767D01*
X140883087Y-163117748D01*
X140655352Y-162890013D01*
X140387563Y-162711082D01*
X140090012Y-162587832D01*
X139774133Y-162525000D01*
X139452067Y-162525000D01*
X139136188Y-162587832D01*
X138838637Y-162711082D01*
X138570848Y-162890013D01*
X138343113Y-163117748D01*
X138270380Y-163226600D01*
X138208513Y-163204192D01*
X137426832Y-163985873D01*
X136720732Y-163987237D01*
X135937687Y-163204192D01*
X135875820Y-163226600D01*
X135803087Y-163117748D01*
X135709926Y-163024587D01*
X136117292Y-163024587D01*
X137073100Y-163980395D01*
X138028908Y-163024587D01*
X137933144Y-162760186D01*
X137643529Y-162619296D01*
X137331992Y-162537616D01*
X137010505Y-162518282D01*
X136691425Y-162562039D01*
X136387012Y-162667205D01*
X136213056Y-162760186D01*
X136117292Y-163024587D01*
X135709926Y-163024587D01*
X135575352Y-162890013D01*
X135307563Y-162711082D01*
X135010012Y-162587832D01*
X134694133Y-162525000D01*
X134372067Y-162525000D01*
X134056188Y-162587832D01*
X133758637Y-162711082D01*
X133490848Y-162890013D01*
X133263113Y-163117748D01*
X133263100Y-163117767D01*
X133263087Y-163117748D01*
X133035352Y-162890013D01*
X132767563Y-162711082D01*
X132470012Y-162587832D01*
X132154133Y-162525000D01*
X131832067Y-162525000D01*
X131516188Y-162587832D01*
X131218637Y-162711082D01*
X130950848Y-162890013D01*
X130723113Y-163117748D01*
X130723100Y-163117767D01*
X130723087Y-163117748D01*
X130495352Y-162890013D01*
X130227563Y-162711082D01*
X130212755Y-162704948D01*
X130202103Y-162596801D01*
X130158646Y-162453540D01*
X130088074Y-162321511D01*
X130016899Y-162234784D01*
X129993101Y-162205786D01*
X129964103Y-162181988D01*
X128058116Y-160276002D01*
X128034313Y-160246998D01*
X127918588Y-160152025D01*
X127786559Y-160081453D01*
X127643298Y-160037996D01*
X127531645Y-160026999D01*
X127531634Y-160026999D01*
X127494312Y-160023323D01*
X127456990Y-160026999D01*
X115612323Y-160026999D01*
X115575000Y-160023323D01*
X115537677Y-160026999D01*
X115537668Y-160026999D01*
X115426015Y-160037996D01*
X115282754Y-160081453D01*
X115150724Y-160152025D01*
X115067084Y-160220667D01*
X115035000Y-160246998D01*
X115011202Y-160275996D01*
X114265270Y-161021928D01*
X113159000Y-161021928D01*
X113159000Y-143966755D01*
X115061412Y-143963080D01*
X114875844Y-144240801D01*
X114737518Y-144574750D01*
X114667000Y-144929268D01*
X114667000Y-145290732D01*
X114737518Y-145645250D01*
X114875844Y-145979199D01*
X115076662Y-146279744D01*
X115332256Y-146535338D01*
X115632801Y-146736156D01*
X115966750Y-146874482D01*
X116321268Y-146945000D01*
X116682732Y-146945000D01*
X117037250Y-146874482D01*
X117146449Y-146829250D01*
X121242001Y-150924803D01*
X121242000Y-155814464D01*
X121173414Y-155917111D01*
X121102932Y-156087271D01*
X121067000Y-156267911D01*
X121067000Y-156452089D01*
X121102932Y-156632729D01*
X121173414Y-156802889D01*
X121275738Y-156956028D01*
X121405972Y-157086262D01*
X121559111Y-157188586D01*
X121729271Y-157259068D01*
X121909911Y-157295000D01*
X122094089Y-157295000D01*
X122274729Y-157259068D01*
X122444889Y-157188586D01*
X122598028Y-157086262D01*
X122728262Y-156956028D01*
X122830586Y-156802889D01*
X122901068Y-156632729D01*
X122937000Y-156452089D01*
X122937000Y-156267911D01*
X122901068Y-156087271D01*
X122830586Y-155917111D01*
X122762000Y-155814465D01*
X122762000Y-150647333D01*
X122765677Y-150610000D01*
X122751003Y-150461014D01*
X122707546Y-150317753D01*
X122636974Y-150185724D01*
X122565799Y-150098997D01*
X122542001Y-150069999D01*
X122513003Y-150046201D01*
X119414873Y-146948072D01*
X120765271Y-146948072D01*
X123742001Y-149924803D01*
X123742000Y-157814464D01*
X123673414Y-157917111D01*
X123602932Y-158087271D01*
X123567000Y-158267911D01*
X123567000Y-158452089D01*
X123602932Y-158632729D01*
X123673414Y-158802889D01*
X123775738Y-158956028D01*
X123905972Y-159086262D01*
X124059111Y-159188586D01*
X124229271Y-159259068D01*
X124409911Y-159295000D01*
X124594089Y-159295000D01*
X124774729Y-159259068D01*
X124944889Y-159188586D01*
X125098028Y-159086262D01*
X125228262Y-158956028D01*
X125330586Y-158802889D01*
X125401068Y-158632729D01*
X125437000Y-158452089D01*
X125437000Y-158267911D01*
X125401068Y-158087271D01*
X125330586Y-157917111D01*
X125262000Y-157814465D01*
X125262000Y-149647322D01*
X125265676Y-149609999D01*
X125262000Y-149572676D01*
X125262000Y-149572667D01*
X125251003Y-149461014D01*
X125207546Y-149317753D01*
X125152569Y-149214899D01*
X125136974Y-149185723D01*
X125065799Y-149098997D01*
X125042001Y-149069999D01*
X125013003Y-149046201D01*
X121840072Y-145873271D01*
X121840072Y-143949985D01*
X123607289Y-143946571D01*
X123593628Y-143967016D01*
X123411731Y-144406154D01*
X123319000Y-144872340D01*
X123319000Y-145347660D01*
X123411731Y-145813846D01*
X123593628Y-146252984D01*
X123857701Y-146648198D01*
X124193802Y-146984299D01*
X124589016Y-147248372D01*
X125028154Y-147430269D01*
X125494340Y-147523000D01*
X125969660Y-147523000D01*
X126435846Y-147430269D01*
X126874984Y-147248372D01*
X127270198Y-146984299D01*
X127606299Y-146648198D01*
X127870372Y-146252984D01*
X128052269Y-145813846D01*
X128145000Y-145347660D01*
X128145000Y-144872340D01*
X128052269Y-144406154D01*
X127870372Y-143967016D01*
X127851233Y-143938372D01*
X137978100Y-143918809D01*
X137978100Y-144001033D01*
X138040932Y-144316912D01*
X138164182Y-144614463D01*
X138343113Y-144882252D01*
X138570848Y-145109987D01*
X138838637Y-145288918D01*
X139136188Y-145412168D01*
X139452067Y-145475000D01*
X139774133Y-145475000D01*
X140090012Y-145412168D01*
X140387563Y-145288918D01*
X140655352Y-145109987D01*
X140883087Y-144882252D01*
X140883100Y-144882233D01*
X140883113Y-144882252D01*
X141110848Y-145109987D01*
X141378637Y-145288918D01*
X141676188Y-145412168D01*
X141992067Y-145475000D01*
X142314133Y-145475000D01*
X142630012Y-145412168D01*
X142927563Y-145288918D01*
X143195352Y-145109987D01*
X143423087Y-144882252D01*
X143423100Y-144882233D01*
X143423113Y-144882252D01*
X143650848Y-145109987D01*
X143918637Y-145288918D01*
X144216188Y-145412168D01*
X144532067Y-145475000D01*
X144854133Y-145475000D01*
X145170012Y-145412168D01*
X145467563Y-145288918D01*
X145735352Y-145109987D01*
X145963087Y-144882252D01*
X145963100Y-144882233D01*
X145963113Y-144882252D01*
X146190848Y-145109987D01*
X146458637Y-145288918D01*
X146756188Y-145412168D01*
X147072067Y-145475000D01*
X147394133Y-145475000D01*
X147710012Y-145412168D01*
X148007563Y-145288918D01*
X148275352Y-145109987D01*
X148503087Y-144882252D01*
X148503100Y-144882233D01*
X148503113Y-144882252D01*
X148730848Y-145109987D01*
X148998637Y-145288918D01*
X149296188Y-145412168D01*
X149604753Y-145473545D01*
X146990998Y-148087301D01*
X146962000Y-148111099D01*
X146938202Y-148140097D01*
X146938201Y-148140098D01*
X146867026Y-148226824D01*
X146796454Y-148358854D01*
X146752998Y-148502115D01*
X146738324Y-148651100D01*
X146742001Y-148688432D01*
X146742000Y-149314464D01*
X146673414Y-149417111D01*
X146602932Y-149587271D01*
X146567000Y-149767911D01*
X146567000Y-149952089D01*
X146602932Y-150132729D01*
X146673414Y-150302889D01*
X146775738Y-150456028D01*
X146905972Y-150586262D01*
X147059111Y-150688586D01*
X147229271Y-150759068D01*
X147409911Y-150795000D01*
X147594089Y-150795000D01*
X147774729Y-150759068D01*
X147944889Y-150688586D01*
X148098028Y-150586262D01*
X148228262Y-150456028D01*
X148330586Y-150302889D01*
X148401068Y-150132729D01*
X148415534Y-150060000D01*
X176663928Y-150060000D01*
X176676188Y-150184482D01*
X176712498Y-150304180D01*
X176771463Y-150414494D01*
X176850815Y-150511185D01*
X176947506Y-150590537D01*
X176983918Y-150610000D01*
X176947506Y-150629463D01*
X176850815Y-150708815D01*
X176771463Y-150805506D01*
X176712498Y-150915820D01*
X176676188Y-151035518D01*
X176663928Y-151160000D01*
X176667000Y-152074250D01*
X176825750Y-152233000D01*
X178375000Y-152233000D01*
X178375000Y-150683750D01*
X178301250Y-150610000D01*
X178375000Y-150536250D01*
X178375000Y-148987000D01*
X178629000Y-148987000D01*
X178629000Y-150536250D01*
X178702750Y-150610000D01*
X178629000Y-150683750D01*
X178629000Y-152233000D01*
X180178250Y-152233000D01*
X180337000Y-152074250D01*
X180340072Y-151160000D01*
X180327812Y-151035518D01*
X180291502Y-150915820D01*
X180232537Y-150805506D01*
X180153185Y-150708815D01*
X180056494Y-150629463D01*
X180020082Y-150610000D01*
X180056494Y-150590537D01*
X180153185Y-150511185D01*
X180232537Y-150414494D01*
X180291502Y-150304180D01*
X180327812Y-150184482D01*
X180340072Y-150060000D01*
X180337000Y-149145750D01*
X180178250Y-148987000D01*
X178629000Y-148987000D01*
X178375000Y-148987000D01*
X176825750Y-148987000D01*
X176667000Y-149145750D01*
X176663928Y-150060000D01*
X148415534Y-150060000D01*
X148437000Y-149952089D01*
X148437000Y-149767911D01*
X148401068Y-149587271D01*
X148330586Y-149417111D01*
X148262000Y-149314465D01*
X148262000Y-148965901D01*
X151821725Y-145406177D01*
X151836188Y-145412168D01*
X152152067Y-145475000D01*
X152474133Y-145475000D01*
X152790012Y-145412168D01*
X153087563Y-145288918D01*
X153355352Y-145109987D01*
X153583087Y-144882252D01*
X153583100Y-144882233D01*
X153583113Y-144882252D01*
X153810848Y-145109987D01*
X154078637Y-145288918D01*
X154376188Y-145412168D01*
X154692067Y-145475000D01*
X155014133Y-145475000D01*
X155330012Y-145412168D01*
X155627563Y-145288918D01*
X155895352Y-145109987D01*
X156123087Y-144882252D01*
X156123100Y-144882233D01*
X156123113Y-144882252D01*
X156350848Y-145109987D01*
X156618637Y-145288918D01*
X156916188Y-145412168D01*
X157232067Y-145475000D01*
X157554133Y-145475000D01*
X157870012Y-145412168D01*
X158167563Y-145288918D01*
X158435352Y-145109987D01*
X158663087Y-144882252D01*
X158663100Y-144882233D01*
X158663113Y-144882252D01*
X158890848Y-145109987D01*
X159158637Y-145288918D01*
X159456188Y-145412168D01*
X159772067Y-145475000D01*
X160094133Y-145475000D01*
X160410012Y-145412168D01*
X160707563Y-145288918D01*
X160975352Y-145109987D01*
X161203087Y-144882252D01*
X161203100Y-144882233D01*
X161203113Y-144882252D01*
X161430848Y-145109987D01*
X161698637Y-145288918D01*
X161996188Y-145412168D01*
X162312067Y-145475000D01*
X162634133Y-145475000D01*
X162950012Y-145412168D01*
X163247563Y-145288918D01*
X163515352Y-145109987D01*
X163743087Y-144882252D01*
X163743100Y-144882233D01*
X163743113Y-144882252D01*
X163970848Y-145109987D01*
X164238637Y-145288918D01*
X164536188Y-145412168D01*
X164852067Y-145475000D01*
X165174133Y-145475000D01*
X165490012Y-145412168D01*
X165787563Y-145288918D01*
X166055352Y-145109987D01*
X166283087Y-144882252D01*
X166283100Y-144882233D01*
X166283113Y-144882252D01*
X166510848Y-145109987D01*
X166778637Y-145288918D01*
X167076188Y-145412168D01*
X167392067Y-145475000D01*
X167714133Y-145475000D01*
X168030012Y-145412168D01*
X168327563Y-145288918D01*
X168595352Y-145109987D01*
X168823087Y-144882252D01*
X169002018Y-144614463D01*
X169125268Y-144316912D01*
X169188100Y-144001033D01*
X169188100Y-143858516D01*
X169386381Y-143858133D01*
X169313628Y-143967016D01*
X169131731Y-144406154D01*
X169039000Y-144872340D01*
X169039000Y-145347660D01*
X169131731Y-145813846D01*
X169313628Y-146252984D01*
X169577701Y-146648198D01*
X169913802Y-146984299D01*
X170309016Y-147248372D01*
X170748154Y-147430269D01*
X171214340Y-147523000D01*
X171689660Y-147523000D01*
X172155846Y-147430269D01*
X172594984Y-147248372D01*
X172990198Y-146984299D01*
X173326299Y-146648198D01*
X173385230Y-146560000D01*
X176663928Y-146560000D01*
X176676188Y-146684482D01*
X176712498Y-146804180D01*
X176771463Y-146914494D01*
X176850815Y-147011185D01*
X176947506Y-147090537D01*
X176983918Y-147110000D01*
X176947506Y-147129463D01*
X176850815Y-147208815D01*
X176771463Y-147305506D01*
X176712498Y-147415820D01*
X176676188Y-147535518D01*
X176663928Y-147660000D01*
X176667000Y-148574250D01*
X176825750Y-148733000D01*
X178375000Y-148733000D01*
X178375000Y-147183750D01*
X178301250Y-147110000D01*
X178375000Y-147036250D01*
X178375000Y-145487000D01*
X178629000Y-145487000D01*
X178629000Y-147036250D01*
X178702750Y-147110000D01*
X178629000Y-147183750D01*
X178629000Y-148733000D01*
X180178250Y-148733000D01*
X180337000Y-148574250D01*
X180340072Y-147660000D01*
X180327812Y-147535518D01*
X180291502Y-147415820D01*
X180232537Y-147305506D01*
X180153185Y-147208815D01*
X180056494Y-147129463D01*
X180020082Y-147110000D01*
X180056494Y-147090537D01*
X180153185Y-147011185D01*
X180232537Y-146914494D01*
X180291502Y-146804180D01*
X180327812Y-146684482D01*
X180340072Y-146560000D01*
X180337000Y-145645750D01*
X180178250Y-145487000D01*
X178629000Y-145487000D01*
X178375000Y-145487000D01*
X176825750Y-145487000D01*
X176667000Y-145645750D01*
X176663928Y-146560000D01*
X173385230Y-146560000D01*
X173590372Y-146252984D01*
X173772269Y-145813846D01*
X173865000Y-145347660D01*
X173865000Y-144872340D01*
X173772269Y-144406154D01*
X173590372Y-143967016D01*
X173512293Y-143850163D01*
X176750937Y-143843906D01*
X176712498Y-143915820D01*
X176676188Y-144035518D01*
X176663928Y-144160000D01*
X176667000Y-145074250D01*
X176825750Y-145233000D01*
X178375000Y-145233000D01*
X178375000Y-145213000D01*
X178629000Y-145213000D01*
X178629000Y-145233000D01*
X180178250Y-145233000D01*
X180337000Y-145074250D01*
X180340072Y-144160000D01*
X180327812Y-144035518D01*
X180291502Y-143915820D01*
X180249450Y-143837148D01*
X185375000Y-143827246D01*
X185375000Y-163893245D01*
G37*
X185375000Y-163893245D02*
X180365397Y-163902923D01*
X180484026Y-163680982D01*
X180606108Y-163278533D01*
X180637000Y-162964882D01*
X180637000Y-155755118D01*
X180606108Y-155441467D01*
X180484026Y-155039018D01*
X180340072Y-154769698D01*
X180340072Y-154660000D01*
X180327812Y-154535518D01*
X180291502Y-154415820D01*
X180232537Y-154305506D01*
X180153185Y-154208815D01*
X180056494Y-154129463D01*
X180020082Y-154110000D01*
X180056494Y-154090537D01*
X180153185Y-154011185D01*
X180232537Y-153914494D01*
X180291502Y-153804180D01*
X180327812Y-153684482D01*
X180340072Y-153560000D01*
X180337000Y-152645750D01*
X180178250Y-152487000D01*
X178629000Y-152487000D01*
X178629000Y-152507000D01*
X178375000Y-152507000D01*
X178375000Y-152487000D01*
X176825750Y-152487000D01*
X176667000Y-152645750D01*
X176663928Y-153560000D01*
X176676188Y-153684482D01*
X176712498Y-153804180D01*
X176771463Y-153914494D01*
X176850815Y-154011185D01*
X176947506Y-154090537D01*
X176983918Y-154110000D01*
X176947506Y-154129463D01*
X176850815Y-154208815D01*
X176771463Y-154305506D01*
X176712498Y-154415820D01*
X176676188Y-154535518D01*
X176663928Y-154660000D01*
X176663928Y-154769698D01*
X176519974Y-155039019D01*
X176397892Y-155441468D01*
X176367000Y-155755119D01*
X176367000Y-162964882D01*
X176397893Y-163278533D01*
X176519975Y-163680982D01*
X176642449Y-163910115D01*
X173638863Y-163915917D01*
X173772269Y-163593846D01*
X173865000Y-163127660D01*
X173865000Y-162652340D01*
X173772269Y-162186154D01*
X173590372Y-161747016D01*
X173326299Y-161351802D01*
X172990198Y-161015701D01*
X172594984Y-160751628D01*
X172155846Y-160569731D01*
X171689660Y-160477000D01*
X171214340Y-160477000D01*
X170748154Y-160569731D01*
X170309016Y-160751628D01*
X169913802Y-161015701D01*
X169577701Y-161351802D01*
X169313628Y-161747016D01*
X169131731Y-162186154D01*
X169039000Y-162652340D01*
X169039000Y-163127660D01*
X169131731Y-163593846D01*
X169268634Y-163924360D01*
X169173296Y-163924544D01*
X169125268Y-163683088D01*
X169002018Y-163385537D01*
X168823087Y-163117748D01*
X168595352Y-162890013D01*
X168327563Y-162711082D01*
X168030012Y-162587832D01*
X167714133Y-162525000D01*
X167392067Y-162525000D01*
X167076188Y-162587832D01*
X166778637Y-162711082D01*
X166510848Y-162890013D01*
X166283113Y-163117748D01*
X166283100Y-163117767D01*
X166283087Y-163117748D01*
X166055352Y-162890013D01*
X165787563Y-162711082D01*
X165490012Y-162587832D01*
X165174133Y-162525000D01*
X164852067Y-162525000D01*
X164536188Y-162587832D01*
X164238637Y-162711082D01*
X163970848Y-162890013D01*
X163743113Y-163117748D01*
X163743100Y-163117767D01*
X163743087Y-163117748D01*
X163515352Y-162890013D01*
X163247563Y-162711082D01*
X162950012Y-162587832D01*
X162634133Y-162525000D01*
X162312067Y-162525000D01*
X161996188Y-162587832D01*
X161698637Y-162711082D01*
X161430848Y-162890013D01*
X161203113Y-163117748D01*
X161203100Y-163117767D01*
X161203087Y-163117748D01*
X160975352Y-162890013D01*
X160707563Y-162711082D01*
X160410012Y-162587832D01*
X160094133Y-162525000D01*
X159772067Y-162525000D01*
X159456188Y-162587832D01*
X159158637Y-162711082D01*
X158890848Y-162890013D01*
X158663113Y-163117748D01*
X158663100Y-163117767D01*
X158663087Y-163117748D01*
X158435352Y-162890013D01*
X158167563Y-162711082D01*
X157870012Y-162587832D01*
X157554133Y-162525000D01*
X157232067Y-162525000D01*
X156916188Y-162587832D01*
X156618637Y-162711082D01*
X156350848Y-162890013D01*
X156123113Y-163117748D01*
X156123100Y-163117767D01*
X156123087Y-163117748D01*
X155895352Y-162890013D01*
X155627563Y-162711082D01*
X155330012Y-162587832D01*
X155014133Y-162525000D01*
X154692067Y-162525000D01*
X154376188Y-162587832D01*
X154078637Y-162711082D01*
X153810848Y-162890013D01*
X153583113Y-163117748D01*
X153583100Y-163117767D01*
X153583087Y-163117748D01*
X153355352Y-162890013D01*
X153087563Y-162711082D01*
X152790012Y-162587832D01*
X152474133Y-162525000D01*
X152152067Y-162525000D01*
X151836188Y-162587832D01*
X151538637Y-162711082D01*
X151270848Y-162890013D01*
X151043113Y-163117748D01*
X151043100Y-163117767D01*
X151043087Y-163117748D01*
X150815352Y-162890013D01*
X150547563Y-162711082D01*
X150250012Y-162587832D01*
X149934133Y-162525000D01*
X149612067Y-162525000D01*
X149296188Y-162587832D01*
X148998637Y-162711082D01*
X148730848Y-162890013D01*
X148503113Y-163117748D01*
X148503100Y-163117767D01*
X148503087Y-163117748D01*
X148275352Y-162890013D01*
X148007563Y-162711082D01*
X147710012Y-162587832D01*
X147394133Y-162525000D01*
X147072067Y-162525000D01*
X146756188Y-162587832D01*
X146458637Y-162711082D01*
X146190848Y-162890013D01*
X145963113Y-163117748D01*
X145963100Y-163117767D01*
X145963087Y-163117748D01*
X145735352Y-162890013D01*
X145467563Y-162711082D01*
X145170012Y-162587832D01*
X144854133Y-162525000D01*
X144532067Y-162525000D01*
X144216188Y-162587832D01*
X143918637Y-162711082D01*
X143650848Y-162890013D01*
X143423113Y-163117748D01*
X143423100Y-163117767D01*
X143423087Y-163117748D01*
X143195352Y-162890013D01*
X142927563Y-162711082D01*
X142630012Y-162587832D01*
X142314133Y-162525000D01*
X141992067Y-162525000D01*
X141676188Y-162587832D01*
X141378637Y-162711082D01*
X141110848Y-162890013D01*
X140883113Y-163117748D01*
X140883100Y-163117767D01*
X140883087Y-163117748D01*
X140655352Y-162890013D01*
X140387563Y-162711082D01*
X140090012Y-162587832D01*
X139774133Y-162525000D01*
X139452067Y-162525000D01*
X139136188Y-162587832D01*
X138838637Y-162711082D01*
X138570848Y-162890013D01*
X138343113Y-163117748D01*
X138270380Y-163226600D01*
X138208513Y-163204192D01*
X137426832Y-163985873D01*
X136720732Y-163987237D01*
X135937687Y-163204192D01*
X135875820Y-163226600D01*
X135803087Y-163117748D01*
X135709926Y-163024587D01*
X136117292Y-163024587D01*
X137073100Y-163980395D01*
X138028908Y-163024587D01*
X137933144Y-162760186D01*
X137643529Y-162619296D01*
X137331992Y-162537616D01*
X137010505Y-162518282D01*
X136691425Y-162562039D01*
X136387012Y-162667205D01*
X136213056Y-162760186D01*
X136117292Y-163024587D01*
X135709926Y-163024587D01*
X135575352Y-162890013D01*
X135307563Y-162711082D01*
X135010012Y-162587832D01*
X134694133Y-162525000D01*
X134372067Y-162525000D01*
X134056188Y-162587832D01*
X133758637Y-162711082D01*
X133490848Y-162890013D01*
X133263113Y-163117748D01*
X133263100Y-163117767D01*
X133263087Y-163117748D01*
X133035352Y-162890013D01*
X132767563Y-162711082D01*
X132470012Y-162587832D01*
X132154133Y-162525000D01*
X131832067Y-162525000D01*
X131516188Y-162587832D01*
X131218637Y-162711082D01*
X130950848Y-162890013D01*
X130723113Y-163117748D01*
X130723100Y-163117767D01*
X130723087Y-163117748D01*
X130495352Y-162890013D01*
X130227563Y-162711082D01*
X130212755Y-162704948D01*
X130202103Y-162596801D01*
X130158646Y-162453540D01*
X130088074Y-162321511D01*
X130016899Y-162234784D01*
X129993101Y-162205786D01*
X129964103Y-162181988D01*
X128058116Y-160276002D01*
X128034313Y-160246998D01*
X127918588Y-160152025D01*
X127786559Y-160081453D01*
X127643298Y-160037996D01*
X127531645Y-160026999D01*
X127531634Y-160026999D01*
X127494312Y-160023323D01*
X127456990Y-160026999D01*
X115612323Y-160026999D01*
X115575000Y-160023323D01*
X115537677Y-160026999D01*
X115537668Y-160026999D01*
X115426015Y-160037996D01*
X115282754Y-160081453D01*
X115150724Y-160152025D01*
X115067084Y-160220667D01*
X115035000Y-160246998D01*
X115011202Y-160275996D01*
X114265270Y-161021928D01*
X113159000Y-161021928D01*
X113159000Y-143966755D01*
X115061412Y-143963080D01*
X114875844Y-144240801D01*
X114737518Y-144574750D01*
X114667000Y-144929268D01*
X114667000Y-145290732D01*
X114737518Y-145645250D01*
X114875844Y-145979199D01*
X115076662Y-146279744D01*
X115332256Y-146535338D01*
X115632801Y-146736156D01*
X115966750Y-146874482D01*
X116321268Y-146945000D01*
X116682732Y-146945000D01*
X117037250Y-146874482D01*
X117146449Y-146829250D01*
X121242001Y-150924803D01*
X121242000Y-155814464D01*
X121173414Y-155917111D01*
X121102932Y-156087271D01*
X121067000Y-156267911D01*
X121067000Y-156452089D01*
X121102932Y-156632729D01*
X121173414Y-156802889D01*
X121275738Y-156956028D01*
X121405972Y-157086262D01*
X121559111Y-157188586D01*
X121729271Y-157259068D01*
X121909911Y-157295000D01*
X122094089Y-157295000D01*
X122274729Y-157259068D01*
X122444889Y-157188586D01*
X122598028Y-157086262D01*
X122728262Y-156956028D01*
X122830586Y-156802889D01*
X122901068Y-156632729D01*
X122937000Y-156452089D01*
X122937000Y-156267911D01*
X122901068Y-156087271D01*
X122830586Y-155917111D01*
X122762000Y-155814465D01*
X122762000Y-150647333D01*
X122765677Y-150610000D01*
X122751003Y-150461014D01*
X122707546Y-150317753D01*
X122636974Y-150185724D01*
X122565799Y-150098997D01*
X122542001Y-150069999D01*
X122513003Y-150046201D01*
X119414873Y-146948072D01*
X120765271Y-146948072D01*
X123742001Y-149924803D01*
X123742000Y-157814464D01*
X123673414Y-157917111D01*
X123602932Y-158087271D01*
X123567000Y-158267911D01*
X123567000Y-158452089D01*
X123602932Y-158632729D01*
X123673414Y-158802889D01*
X123775738Y-158956028D01*
X123905972Y-159086262D01*
X124059111Y-159188586D01*
X124229271Y-159259068D01*
X124409911Y-159295000D01*
X124594089Y-159295000D01*
X124774729Y-159259068D01*
X124944889Y-159188586D01*
X125098028Y-159086262D01*
X125228262Y-158956028D01*
X125330586Y-158802889D01*
X125401068Y-158632729D01*
X125437000Y-158452089D01*
X125437000Y-158267911D01*
X125401068Y-158087271D01*
X125330586Y-157917111D01*
X125262000Y-157814465D01*
X125262000Y-149647322D01*
X125265676Y-149609999D01*
X125262000Y-149572676D01*
X125262000Y-149572667D01*
X125251003Y-149461014D01*
X125207546Y-149317753D01*
X125152569Y-149214899D01*
X125136974Y-149185723D01*
X125065799Y-149098997D01*
X125042001Y-149069999D01*
X125013003Y-149046201D01*
X121840072Y-145873271D01*
X121840072Y-143949985D01*
X123607289Y-143946571D01*
X123593628Y-143967016D01*
X123411731Y-144406154D01*
X123319000Y-144872340D01*
X123319000Y-145347660D01*
X123411731Y-145813846D01*
X123593628Y-146252984D01*
X123857701Y-146648198D01*
X124193802Y-146984299D01*
X124589016Y-147248372D01*
X125028154Y-147430269D01*
X125494340Y-147523000D01*
X125969660Y-147523000D01*
X126435846Y-147430269D01*
X126874984Y-147248372D01*
X127270198Y-146984299D01*
X127606299Y-146648198D01*
X127870372Y-146252984D01*
X128052269Y-145813846D01*
X128145000Y-145347660D01*
X128145000Y-144872340D01*
X128052269Y-144406154D01*
X127870372Y-143967016D01*
X127851233Y-143938372D01*
X137978100Y-143918809D01*
X137978100Y-144001033D01*
X138040932Y-144316912D01*
X138164182Y-144614463D01*
X138343113Y-144882252D01*
X138570848Y-145109987D01*
X138838637Y-145288918D01*
X139136188Y-145412168D01*
X139452067Y-145475000D01*
X139774133Y-145475000D01*
X140090012Y-145412168D01*
X140387563Y-145288918D01*
X140655352Y-145109987D01*
X140883087Y-144882252D01*
X140883100Y-144882233D01*
X140883113Y-144882252D01*
X141110848Y-145109987D01*
X141378637Y-145288918D01*
X141676188Y-145412168D01*
X141992067Y-145475000D01*
X142314133Y-145475000D01*
X142630012Y-145412168D01*
X142927563Y-145288918D01*
X143195352Y-145109987D01*
X143423087Y-144882252D01*
X143423100Y-144882233D01*
X143423113Y-144882252D01*
X143650848Y-145109987D01*
X143918637Y-145288918D01*
X144216188Y-145412168D01*
X144532067Y-145475000D01*
X144854133Y-145475000D01*
X145170012Y-145412168D01*
X145467563Y-145288918D01*
X145735352Y-145109987D01*
X145963087Y-144882252D01*
X145963100Y-144882233D01*
X145963113Y-144882252D01*
X146190848Y-145109987D01*
X146458637Y-145288918D01*
X146756188Y-145412168D01*
X147072067Y-145475000D01*
X147394133Y-145475000D01*
X147710012Y-145412168D01*
X148007563Y-145288918D01*
X148275352Y-145109987D01*
X148503087Y-144882252D01*
X148503100Y-144882233D01*
X148503113Y-144882252D01*
X148730848Y-145109987D01*
X148998637Y-145288918D01*
X149296188Y-145412168D01*
X149604753Y-145473545D01*
X146990998Y-148087301D01*
X146962000Y-148111099D01*
X146938202Y-148140097D01*
X146938201Y-148140098D01*
X146867026Y-148226824D01*
X146796454Y-148358854D01*
X146752998Y-148502115D01*
X146738324Y-148651100D01*
X146742001Y-148688432D01*
X146742000Y-149314464D01*
X146673414Y-149417111D01*
X146602932Y-149587271D01*
X146567000Y-149767911D01*
X146567000Y-149952089D01*
X146602932Y-150132729D01*
X146673414Y-150302889D01*
X146775738Y-150456028D01*
X146905972Y-150586262D01*
X147059111Y-150688586D01*
X147229271Y-150759068D01*
X147409911Y-150795000D01*
X147594089Y-150795000D01*
X147774729Y-150759068D01*
X147944889Y-150688586D01*
X148098028Y-150586262D01*
X148228262Y-150456028D01*
X148330586Y-150302889D01*
X148401068Y-150132729D01*
X148415534Y-150060000D01*
X176663928Y-150060000D01*
X176676188Y-150184482D01*
X176712498Y-150304180D01*
X176771463Y-150414494D01*
X176850815Y-150511185D01*
X176947506Y-150590537D01*
X176983918Y-150610000D01*
X176947506Y-150629463D01*
X176850815Y-150708815D01*
X176771463Y-150805506D01*
X176712498Y-150915820D01*
X176676188Y-151035518D01*
X176663928Y-151160000D01*
X176667000Y-152074250D01*
X176825750Y-152233000D01*
X178375000Y-152233000D01*
X178375000Y-150683750D01*
X178301250Y-150610000D01*
X178375000Y-150536250D01*
X178375000Y-148987000D01*
X178629000Y-148987000D01*
X178629000Y-150536250D01*
X178702750Y-150610000D01*
X178629000Y-150683750D01*
X178629000Y-152233000D01*
X180178250Y-152233000D01*
X180337000Y-152074250D01*
X180340072Y-151160000D01*
X180327812Y-151035518D01*
X180291502Y-150915820D01*
X180232537Y-150805506D01*
X180153185Y-150708815D01*
X180056494Y-150629463D01*
X180020082Y-150610000D01*
X180056494Y-150590537D01*
X180153185Y-150511185D01*
X180232537Y-150414494D01*
X180291502Y-150304180D01*
X180327812Y-150184482D01*
X180340072Y-150060000D01*
X180337000Y-149145750D01*
X180178250Y-148987000D01*
X178629000Y-148987000D01*
X178375000Y-148987000D01*
X176825750Y-148987000D01*
X176667000Y-149145750D01*
X176663928Y-150060000D01*
X148415534Y-150060000D01*
X148437000Y-149952089D01*
X148437000Y-149767911D01*
X148401068Y-149587271D01*
X148330586Y-149417111D01*
X148262000Y-149314465D01*
X148262000Y-148965901D01*
X151821725Y-145406177D01*
X151836188Y-145412168D01*
X152152067Y-145475000D01*
X152474133Y-145475000D01*
X152790012Y-145412168D01*
X153087563Y-145288918D01*
X153355352Y-145109987D01*
X153583087Y-144882252D01*
X153583100Y-144882233D01*
X153583113Y-144882252D01*
X153810848Y-145109987D01*
X154078637Y-145288918D01*
X154376188Y-145412168D01*
X154692067Y-145475000D01*
X155014133Y-145475000D01*
X155330012Y-145412168D01*
X155627563Y-145288918D01*
X155895352Y-145109987D01*
X156123087Y-144882252D01*
X156123100Y-144882233D01*
X156123113Y-144882252D01*
X156350848Y-145109987D01*
X156618637Y-145288918D01*
X156916188Y-145412168D01*
X157232067Y-145475000D01*
X157554133Y-145475000D01*
X157870012Y-145412168D01*
X158167563Y-145288918D01*
X158435352Y-145109987D01*
X158663087Y-144882252D01*
X158663100Y-144882233D01*
X158663113Y-144882252D01*
X158890848Y-145109987D01*
X159158637Y-145288918D01*
X159456188Y-145412168D01*
X159772067Y-145475000D01*
X160094133Y-145475000D01*
X160410012Y-145412168D01*
X160707563Y-145288918D01*
X160975352Y-145109987D01*
X161203087Y-144882252D01*
X161203100Y-144882233D01*
X161203113Y-144882252D01*
X161430848Y-145109987D01*
X161698637Y-145288918D01*
X161996188Y-145412168D01*
X162312067Y-145475000D01*
X162634133Y-145475000D01*
X162950012Y-145412168D01*
X163247563Y-145288918D01*
X163515352Y-145109987D01*
X163743087Y-144882252D01*
X163743100Y-144882233D01*
X163743113Y-144882252D01*
X163970848Y-145109987D01*
X164238637Y-145288918D01*
X164536188Y-145412168D01*
X164852067Y-145475000D01*
X165174133Y-145475000D01*
X165490012Y-145412168D01*
X165787563Y-145288918D01*
X166055352Y-145109987D01*
X166283087Y-144882252D01*
X166283100Y-144882233D01*
X166283113Y-144882252D01*
X166510848Y-145109987D01*
X166778637Y-145288918D01*
X167076188Y-145412168D01*
X167392067Y-145475000D01*
X167714133Y-145475000D01*
X168030012Y-145412168D01*
X168327563Y-145288918D01*
X168595352Y-145109987D01*
X168823087Y-144882252D01*
X169002018Y-144614463D01*
X169125268Y-144316912D01*
X169188100Y-144001033D01*
X169188100Y-143858516D01*
X169386381Y-143858133D01*
X169313628Y-143967016D01*
X169131731Y-144406154D01*
X169039000Y-144872340D01*
X169039000Y-145347660D01*
X169131731Y-145813846D01*
X169313628Y-146252984D01*
X169577701Y-146648198D01*
X169913802Y-146984299D01*
X170309016Y-147248372D01*
X170748154Y-147430269D01*
X171214340Y-147523000D01*
X171689660Y-147523000D01*
X172155846Y-147430269D01*
X172594984Y-147248372D01*
X172990198Y-146984299D01*
X173326299Y-146648198D01*
X173385230Y-146560000D01*
X176663928Y-146560000D01*
X176676188Y-146684482D01*
X176712498Y-146804180D01*
X176771463Y-146914494D01*
X176850815Y-147011185D01*
X176947506Y-147090537D01*
X176983918Y-147110000D01*
X176947506Y-147129463D01*
X176850815Y-147208815D01*
X176771463Y-147305506D01*
X176712498Y-147415820D01*
X176676188Y-147535518D01*
X176663928Y-147660000D01*
X176667000Y-148574250D01*
X176825750Y-148733000D01*
X178375000Y-148733000D01*
X178375000Y-147183750D01*
X178301250Y-147110000D01*
X178375000Y-147036250D01*
X178375000Y-145487000D01*
X178629000Y-145487000D01*
X178629000Y-147036250D01*
X178702750Y-147110000D01*
X178629000Y-147183750D01*
X178629000Y-148733000D01*
X180178250Y-148733000D01*
X180337000Y-148574250D01*
X180340072Y-147660000D01*
X180327812Y-147535518D01*
X180291502Y-147415820D01*
X180232537Y-147305506D01*
X180153185Y-147208815D01*
X180056494Y-147129463D01*
X180020082Y-147110000D01*
X180056494Y-147090537D01*
X180153185Y-147011185D01*
X180232537Y-146914494D01*
X180291502Y-146804180D01*
X180327812Y-146684482D01*
X180340072Y-146560000D01*
X180337000Y-145645750D01*
X180178250Y-145487000D01*
X178629000Y-145487000D01*
X178375000Y-145487000D01*
X176825750Y-145487000D01*
X176667000Y-145645750D01*
X176663928Y-146560000D01*
X173385230Y-146560000D01*
X173590372Y-146252984D01*
X173772269Y-145813846D01*
X173865000Y-145347660D01*
X173865000Y-144872340D01*
X173772269Y-144406154D01*
X173590372Y-143967016D01*
X173512293Y-143850163D01*
X176750937Y-143843906D01*
X176712498Y-143915820D01*
X176676188Y-144035518D01*
X176663928Y-144160000D01*
X176667000Y-145074250D01*
X176825750Y-145233000D01*
X178375000Y-145233000D01*
X178375000Y-145213000D01*
X178629000Y-145213000D01*
X178629000Y-145233000D01*
X180178250Y-145233000D01*
X180337000Y-145074250D01*
X180340072Y-144160000D01*
X180327812Y-144035518D01*
X180291502Y-143915820D01*
X180249450Y-143837148D01*
X185375000Y-143827246D01*
X185375000Y-163893245D01*
%TD*%
M02*
