%TF.GenerationSoftware,KiCad,Pcbnew,(5.1.6-0-10_14)*%
%TF.CreationDate,2020-08-14T14:07:03-07:00*%
%TF.ProjectId,panel,70616e65-6c2e-46b6-9963-61645f706362,rev?*%
%TF.SameCoordinates,Original*%
%TF.FileFunction,Profile,NP*%
%FSLAX46Y46*%
G04 Gerber Fmt 4.6, Leading zero omitted, Abs format (unit mm)*
G04 Created by KiCad (PCBNEW (5.1.6-0-10_14)) date 2020-08-14 14:07:03*
%MOMM*%
%LPD*%
G01*
G04 APERTURE LIST*
%TA.AperFunction,Profile*%
%ADD10C,2.000000*%
%TD*%
%TA.AperFunction,Profile*%
%ADD11C,0.150000*%
%TD*%
G04 APERTURE END LIST*
D10*
X180594000Y-141554200D02*
X185166000Y-141554200D01*
X120904000Y-141554200D02*
X175514000Y-141554200D01*
X113004600Y-141554200D02*
X116052600Y-141554200D01*
X175996600Y-116611400D02*
X121005600Y-116611400D01*
X181127400Y-116636800D02*
X185674000Y-116636800D01*
X113411000Y-116636800D02*
X115951000Y-116636800D01*
D11*
X111252000Y-113030000D02*
G75*
G03*
X113792000Y-115570000I2540000J0D01*
G01*
X113792000Y-92710000D02*
G75*
G03*
X111252000Y-95250000I0J-2540000D01*
G01*
X111252000Y-95250000D02*
X111252000Y-113030000D01*
X120650000Y-92710000D02*
X113792000Y-92710000D01*
X184206000Y-115566000D02*
G75*
G03*
X186746000Y-113026000I0J2540000D01*
G01*
X186746000Y-95246000D02*
G75*
G03*
X184206000Y-92706000I-2540000J0D01*
G01*
X186746000Y-113026000D02*
X186746000Y-95246000D01*
X184206000Y-92710000D02*
X120650000Y-92710000D01*
X111254000Y-138030000D02*
G75*
G03*
X113794000Y-140570000I2540000J0D01*
G01*
X113794000Y-117710000D02*
G75*
G03*
X111254000Y-120250000I0J-2540000D01*
G01*
X111254000Y-120250000D02*
X111254000Y-138030000D01*
X184208000Y-140566000D02*
G75*
G03*
X186748000Y-138026000I0J2540000D01*
G01*
X186748000Y-120246000D02*
G75*
G03*
X184208000Y-117706000I-2540000J0D01*
G01*
X186748000Y-138026000D02*
X186748000Y-120246000D01*
X111254000Y-162890000D02*
G75*
G03*
X113794000Y-165430000I2540000J0D01*
G01*
X113794000Y-142570000D02*
G75*
G03*
X111254000Y-145110000I0J-2540000D01*
G01*
X113794000Y-165430000D02*
X120652000Y-165430000D01*
X111254000Y-145110000D02*
X111254000Y-162890000D01*
X184208000Y-165426000D02*
G75*
G03*
X186748000Y-162886000I0J2540000D01*
G01*
X186748000Y-145106000D02*
G75*
G03*
X184208000Y-142566000I-2540000J0D01*
G01*
X186748000Y-162886000D02*
X186748000Y-145106000D01*
X120652000Y-165430000D02*
X184208000Y-165430000D01*
M02*
