M48
; DRILL file {KiCad (5.1.6-0-10_14)} date Friday, August 14, 2020 at 02:07:08 PM
; FORMAT={-:-/ absolute / inch / decimal}
; #@! TF.CreationDate,2020-08-14T14:07:08-07:00
; #@! TF.GenerationSoftware,Kicad,Pcbnew,(5.1.6-0-10_14)
; #@! TF.FileFunction,Plated,1,2,PTH
FMAT,2
INCH
T1C0.0157
T2C0.0394
T3C0.0472
%
G90
G05
T1
X4.8031Y-4.1929
X4.8032Y-5.1772
X4.8032Y-6.1559
X4.9016Y-4.2717
X4.9017Y-5.2559
X4.9017Y-6.2346
X5.4134Y-4.1535
X5.4135Y-5.1378
X5.4135Y-6.1165
X5.8071Y-3.937
X5.8072Y-4.9213
X5.8072Y-5.9
X6.3386Y-3.7992
X6.3387Y-4.7835
X6.3387Y-5.7622
T2
X5.0966Y-5.4843
X5.1966Y-5.4843
X5.2966Y-5.4843
X5.3966Y-5.4843
X5.4966Y-4.6843
X5.4966Y-5.4843
X5.5966Y-4.6843
X5.5966Y-5.4843
X5.6966Y-4.6843
X5.6966Y-5.4843
X5.7966Y-4.6843
X5.7966Y-5.4843
X5.8966Y-4.6843
X5.8966Y-5.4843
X5.9966Y-4.6843
X5.9966Y-5.4843
X6.0966Y-4.6843
X6.0966Y-5.4843
X6.1966Y-4.6843
X6.1966Y-5.4843
X6.2966Y-4.6843
X6.2966Y-5.4843
X6.3966Y-4.6843
X6.3966Y-5.4843
X6.4966Y-4.6843
X6.4966Y-5.4843
X6.5966Y-4.6843
X6.5966Y-5.4843
X5.0966Y-6.463
X5.1966Y-6.463
X5.2966Y-6.463
X5.3966Y-6.463
X5.4966Y-5.663
X5.4966Y-6.463
X5.5966Y-5.663
X5.5966Y-6.463
X5.6966Y-5.663
X5.6966Y-6.463
X5.7966Y-5.663
X5.7966Y-6.463
X5.8966Y-5.663
X5.8966Y-6.463
X5.9966Y-5.663
X5.9966Y-6.463
X6.0966Y-5.663
X6.0966Y-6.463
X6.1966Y-5.663
X6.1966Y-6.463
X6.2966Y-5.663
X6.2966Y-6.463
X6.3966Y-5.663
X6.3966Y-6.463
X6.4966Y-5.663
X6.4966Y-6.463
X6.5966Y-5.663
X6.5966Y-6.463
X5.0965Y-4.5
X5.1965Y-4.5
X5.2965Y-4.5
X5.3965Y-4.5
X5.4965Y-3.7
X5.4965Y-4.5
X5.5965Y-3.7
X5.5965Y-4.5
X5.6965Y-3.7
X5.6965Y-4.5
X5.7965Y-3.7
X5.7965Y-4.5
X5.8965Y-3.7
X5.8965Y-4.5
X5.9965Y-3.7
X5.9965Y-4.5
X6.0965Y-3.7
X6.0965Y-4.5
X6.1965Y-3.7
X6.1965Y-4.5
X6.2965Y-3.7
X6.2965Y-4.5
X6.3965Y-3.7
X6.3965Y-4.5
X6.4965Y-3.7
X6.4965Y-4.5
X6.5965Y-3.7
X6.5965Y-4.5
T3
X4.4685Y-4.4488
X4.6063Y-4.4488
X4.7441Y-4.4488
X7.0276Y-5.2953
X7.0276Y-5.4331
X4.4686Y-5.4331
X4.6064Y-5.4331
X4.7442Y-5.4331
X7.0276Y-4.7441
X7.0276Y-4.8819
X7.0276Y-5.0197
X7.0276Y-5.1575
X7.0276Y-5.9984
X7.0276Y-6.1362
X7.0276Y-5.7228
X7.0276Y-5.8606
X4.5867Y-4.7343
X4.7245Y-4.7343
X4.5866Y-3.75
X4.7244Y-3.75
X7.0276Y-4.311
X7.0276Y-4.4488
X4.5867Y-5.713
X4.7245Y-5.713
X4.4686Y-6.4118
X4.6064Y-6.4118
X4.7442Y-6.4118
X7.0276Y-3.7598
X7.0276Y-3.8976
X7.0276Y-6.274
X7.0276Y-6.4118
X7.0276Y-4.0354
X7.0276Y-4.1732
T0
M30
