%TF.GenerationSoftware,KiCad,Pcbnew,(5.1.6-0-10_14)*%
%TF.CreationDate,2020-08-14T14:07:03-07:00*%
%TF.ProjectId,panel,70616e65-6c2e-46b6-9963-61645f706362,rev?*%
%TF.SameCoordinates,Original*%
%TF.FileFunction,Soldermask,Bot*%
%TF.FilePolarity,Negative*%
%FSLAX46Y46*%
G04 Gerber Fmt 4.6, Leading zero omitted, Abs format (unit mm)*
G04 Created by KiCad (PCBNEW (5.1.6-0-10_14)) date 2020-08-14 14:07:03*
%MOMM*%
%LPD*%
G01*
G04 APERTURE LIST*
%ADD10C,0.900000*%
%ADD11C,2.400000*%
%ADD12C,3.956000*%
%ADD13R,2.800000X2.800000*%
%ADD14C,2.800000*%
G04 APERTURE END LIST*
D10*
%TO.C,REF\u002A\u002A*%
X176000000Y-140250000D03*
X177000000Y-140250000D03*
X178000000Y-140250000D03*
X179000000Y-140250000D03*
X180000000Y-140250000D03*
X180000000Y-142750000D03*
X179000000Y-142750000D03*
X178000000Y-142750000D03*
X177000000Y-142750000D03*
X176000000Y-142750000D03*
%TD*%
%TO.C,REF\u002A\u002A*%
X116500000Y-140250000D03*
X117500000Y-140250000D03*
X118500000Y-140250000D03*
X119500000Y-140250000D03*
X120500000Y-140250000D03*
X120500000Y-142750000D03*
X119500000Y-142750000D03*
X118500000Y-142750000D03*
X117500000Y-142750000D03*
X116500000Y-142750000D03*
%TD*%
%TO.C,REF\u002A\u002A*%
X116500000Y-115361400D03*
X117500000Y-115361400D03*
X118500000Y-115361400D03*
X119500000Y-115361400D03*
X120500000Y-115361400D03*
X120500000Y-117861400D03*
X119500000Y-117861400D03*
X118500000Y-117861400D03*
X117500000Y-117861400D03*
X116500000Y-117861400D03*
%TD*%
%TO.C,REF\u002A\u002A*%
X176500000Y-115250000D03*
X177500000Y-115250000D03*
X178500000Y-115250000D03*
X179500000Y-115250000D03*
X180500000Y-115250000D03*
X180500000Y-117750000D03*
X179500000Y-117750000D03*
X178500000Y-117750000D03*
X177500000Y-117750000D03*
X176500000Y-117750000D03*
%TD*%
D11*
%TO.C,U1*%
X129451100Y-114300000D03*
X131991100Y-114300000D03*
X134531100Y-114300000D03*
X137071100Y-114300000D03*
X139611100Y-114300000D03*
X142151100Y-114300000D03*
X144691100Y-114300000D03*
X147231100Y-114300000D03*
X149771100Y-114300000D03*
X152311100Y-114300000D03*
X154851100Y-114300000D03*
X157391100Y-114300000D03*
X159931100Y-114300000D03*
X162471100Y-114300000D03*
X165011100Y-114300000D03*
X167551100Y-114300000D03*
X167551100Y-93980000D03*
X165011100Y-93980000D03*
X162471100Y-93980000D03*
X159931100Y-93980000D03*
X157391100Y-93980000D03*
X154851100Y-93980000D03*
X152311100Y-93980000D03*
X149771100Y-93980000D03*
X147231100Y-93980000D03*
X144691100Y-93980000D03*
X142151100Y-93980000D03*
X139611100Y-93980000D03*
%TD*%
D12*
%TO.C,PCB\u002A\u002A*%
X171450000Y-113030000D03*
X125730000Y-113030000D03*
X171450000Y-95250000D03*
X125730000Y-95250000D03*
%TD*%
D13*
%TO.C,J1*%
X178500000Y-102500000D03*
X178500000Y-106000000D03*
%TD*%
D14*
%TO.C,J2*%
X116500000Y-95250000D03*
D13*
X120000000Y-95250000D03*
%TD*%
%TO.C,J5*%
X178500000Y-113000000D03*
X178500000Y-109500000D03*
%TD*%
%TO.C,J6*%
X178500000Y-95500000D03*
X178500000Y-99000000D03*
%TD*%
%TO.C,J7*%
X113500000Y-113000000D03*
D14*
X117000000Y-113000000D03*
X120500000Y-113000000D03*
%TD*%
D11*
%TO.C,U1*%
X129453100Y-139300000D03*
X131993100Y-139300000D03*
X134533100Y-139300000D03*
X137073100Y-139300000D03*
X139613100Y-139300000D03*
X142153100Y-139300000D03*
X144693100Y-139300000D03*
X147233100Y-139300000D03*
X149773100Y-139300000D03*
X152313100Y-139300000D03*
X154853100Y-139300000D03*
X157393100Y-139300000D03*
X159933100Y-139300000D03*
X162473100Y-139300000D03*
X165013100Y-139300000D03*
X167553100Y-139300000D03*
X167553100Y-118980000D03*
X165013100Y-118980000D03*
X162473100Y-118980000D03*
X159933100Y-118980000D03*
X157393100Y-118980000D03*
X154853100Y-118980000D03*
X152313100Y-118980000D03*
X149773100Y-118980000D03*
X147233100Y-118980000D03*
X144693100Y-118980000D03*
X142153100Y-118980000D03*
X139613100Y-118980000D03*
%TD*%
D12*
%TO.C,PCB\u002A\u002A*%
X171452000Y-138030000D03*
X125732000Y-138030000D03*
X171452000Y-120250000D03*
X125732000Y-120250000D03*
%TD*%
D13*
%TO.C,J1*%
X178502000Y-127500000D03*
X178502000Y-131000000D03*
%TD*%
D14*
%TO.C,J2*%
X116502000Y-120250000D03*
D13*
X120002000Y-120250000D03*
%TD*%
%TO.C,J5*%
X178502000Y-138000000D03*
X178502000Y-134500000D03*
%TD*%
%TO.C,J6*%
X178502000Y-120500000D03*
X178502000Y-124000000D03*
%TD*%
%TO.C,J7*%
X113502000Y-138000000D03*
D14*
X117002000Y-138000000D03*
X120502000Y-138000000D03*
%TD*%
D11*
%TO.C,U1*%
X129453100Y-164160000D03*
X131993100Y-164160000D03*
X134533100Y-164160000D03*
X137073100Y-164160000D03*
X139613100Y-164160000D03*
X142153100Y-164160000D03*
X144693100Y-164160000D03*
X147233100Y-164160000D03*
X149773100Y-164160000D03*
X152313100Y-164160000D03*
X154853100Y-164160000D03*
X157393100Y-164160000D03*
X159933100Y-164160000D03*
X162473100Y-164160000D03*
X165013100Y-164160000D03*
X167553100Y-164160000D03*
X167553100Y-143840000D03*
X165013100Y-143840000D03*
X162473100Y-143840000D03*
X159933100Y-143840000D03*
X157393100Y-143840000D03*
X154853100Y-143840000D03*
X152313100Y-143840000D03*
X149773100Y-143840000D03*
X147233100Y-143840000D03*
X144693100Y-143840000D03*
X142153100Y-143840000D03*
X139613100Y-143840000D03*
%TD*%
D12*
%TO.C,PCB\u002A\u002A*%
X171452000Y-162890000D03*
X125732000Y-162890000D03*
X171452000Y-145110000D03*
X125732000Y-145110000D03*
%TD*%
D13*
%TO.C,J1*%
X178502000Y-152360000D03*
X178502000Y-155860000D03*
%TD*%
D14*
%TO.C,J2*%
X116502000Y-145110000D03*
D13*
X120002000Y-145110000D03*
%TD*%
%TO.C,J5*%
X178502000Y-162860000D03*
X178502000Y-159360000D03*
%TD*%
%TO.C,J6*%
X178502000Y-145360000D03*
X178502000Y-148860000D03*
%TD*%
%TO.C,J7*%
X113502000Y-162860000D03*
D14*
X117002000Y-162860000D03*
X120502000Y-162860000D03*
%TD*%
M02*
