%TF.GenerationSoftware,KiCad,Pcbnew,(5.1.6-0-10_14)*%
%TF.CreationDate,2020-08-14T14:07:03-07:00*%
%TF.ProjectId,panel,70616e65-6c2e-46b6-9963-61645f706362,rev?*%
%TF.SameCoordinates,Original*%
%TF.FileFunction,Legend,Bot*%
%TF.FilePolarity,Positive*%
%FSLAX46Y46*%
G04 Gerber Fmt 4.6, Leading zero omitted, Abs format (unit mm)*
G04 Created by KiCad (PCBNEW (5.1.6-0-10_14)) date 2020-08-14 14:07:03*
%MOMM*%
%LPD*%
G01*
G04 APERTURE LIST*
%ADD10C,0.150000*%
%ADD11C,0.300000*%
%ADD12C,0.010000*%
G04 APERTURE END LIST*
D10*
X142372619Y-106500000D02*
X143372619Y-106500000D01*
X142896428Y-106500000D02*
X142896428Y-105928571D01*
X142372619Y-105928571D02*
X143372619Y-105928571D01*
X143039285Y-105023809D02*
X142372619Y-105023809D01*
X143039285Y-105452380D02*
X142515476Y-105452380D01*
X142420238Y-105404761D01*
X142372619Y-105309523D01*
X142372619Y-105166666D01*
X142420238Y-105071428D01*
X142467857Y-105023809D01*
X142372619Y-104119047D02*
X143372619Y-104119047D01*
X142420238Y-104119047D02*
X142372619Y-104214285D01*
X142372619Y-104404761D01*
X142420238Y-104500000D01*
X142467857Y-104547619D01*
X142563095Y-104595238D01*
X142848809Y-104595238D01*
X142944047Y-104547619D01*
X142991666Y-104500000D01*
X143039285Y-104404761D01*
X143039285Y-104214285D01*
X142991666Y-104119047D01*
X142420238Y-103690476D02*
X142372619Y-103595238D01*
X142372619Y-103404761D01*
X142420238Y-103309523D01*
X142515476Y-103261904D01*
X142563095Y-103261904D01*
X142658333Y-103309523D01*
X142705952Y-103404761D01*
X142705952Y-103547619D01*
X142753571Y-103642857D01*
X142848809Y-103690476D01*
X142896428Y-103690476D01*
X142991666Y-103642857D01*
X143039285Y-103547619D01*
X143039285Y-103404761D01*
X142991666Y-103309523D01*
X142372619Y-102690476D02*
X142420238Y-102785714D01*
X142467857Y-102833333D01*
X142563095Y-102880952D01*
X142848809Y-102880952D01*
X142944047Y-102833333D01*
X142991666Y-102785714D01*
X143039285Y-102690476D01*
X143039285Y-102547619D01*
X142991666Y-102452380D01*
X142944047Y-102404761D01*
X142848809Y-102357142D01*
X142563095Y-102357142D01*
X142467857Y-102404761D01*
X142420238Y-102452380D01*
X142372619Y-102547619D01*
X142372619Y-102690476D01*
X143039285Y-101928571D02*
X142372619Y-101928571D01*
X142944047Y-101928571D02*
X142991666Y-101880952D01*
X143039285Y-101785714D01*
X143039285Y-101642857D01*
X142991666Y-101547619D01*
X142896428Y-101500000D01*
X142372619Y-101500000D01*
X140770238Y-106761904D02*
X140722619Y-106619047D01*
X140722619Y-106380952D01*
X140770238Y-106285714D01*
X140817857Y-106238095D01*
X140913095Y-106190476D01*
X141008333Y-106190476D01*
X141103571Y-106238095D01*
X141151190Y-106285714D01*
X141198809Y-106380952D01*
X141246428Y-106571428D01*
X141294047Y-106666666D01*
X141341666Y-106714285D01*
X141436904Y-106761904D01*
X141532142Y-106761904D01*
X141627380Y-106714285D01*
X141675000Y-106666666D01*
X141722619Y-106571428D01*
X141722619Y-106333333D01*
X141675000Y-106190476D01*
X140722619Y-105619047D02*
X140770238Y-105714285D01*
X140817857Y-105761904D01*
X140913095Y-105809523D01*
X141198809Y-105809523D01*
X141294047Y-105761904D01*
X141341666Y-105714285D01*
X141389285Y-105619047D01*
X141389285Y-105476190D01*
X141341666Y-105380952D01*
X141294047Y-105333333D01*
X141198809Y-105285714D01*
X140913095Y-105285714D01*
X140817857Y-105333333D01*
X140770238Y-105380952D01*
X140722619Y-105476190D01*
X140722619Y-105619047D01*
X141389285Y-104857142D02*
X140722619Y-104857142D01*
X141294047Y-104857142D02*
X141341666Y-104809523D01*
X141389285Y-104714285D01*
X141389285Y-104571428D01*
X141341666Y-104476190D01*
X141246428Y-104428571D01*
X140722619Y-104428571D01*
X140722619Y-103809523D02*
X140770238Y-103904761D01*
X140817857Y-103952380D01*
X140913095Y-104000000D01*
X141198809Y-104000000D01*
X141294047Y-103952380D01*
X141341666Y-103904761D01*
X141389285Y-103809523D01*
X141389285Y-103666666D01*
X141341666Y-103571428D01*
X141294047Y-103523809D01*
X141198809Y-103476190D01*
X140913095Y-103476190D01*
X140817857Y-103523809D01*
X140770238Y-103571428D01*
X140722619Y-103666666D01*
X140722619Y-103809523D01*
X140722619Y-103047619D02*
X141389285Y-103047619D01*
X141294047Y-103047619D02*
X141341666Y-103000000D01*
X141389285Y-102904761D01*
X141389285Y-102761904D01*
X141341666Y-102666666D01*
X141246428Y-102619047D01*
X140722619Y-102619047D01*
X141246428Y-102619047D02*
X141341666Y-102571428D01*
X141389285Y-102476190D01*
X141389285Y-102333333D01*
X141341666Y-102238095D01*
X141246428Y-102190476D01*
X140722619Y-102190476D01*
X140722619Y-101285714D02*
X141246428Y-101285714D01*
X141341666Y-101333333D01*
X141389285Y-101428571D01*
X141389285Y-101619047D01*
X141341666Y-101714285D01*
X140770238Y-101285714D02*
X140722619Y-101380952D01*
X140722619Y-101619047D01*
X140770238Y-101714285D01*
X140865476Y-101761904D01*
X140960714Y-101761904D01*
X141055952Y-101714285D01*
X141103571Y-101619047D01*
X141103571Y-101380952D01*
X141151190Y-101285714D01*
D11*
X168251428Y-110640000D02*
X169751428Y-110640000D01*
X168680000Y-110140000D01*
X169751428Y-109640000D01*
X168251428Y-109640000D01*
X168251428Y-108711428D02*
X168322857Y-108854285D01*
X168394285Y-108925714D01*
X168537142Y-108997142D01*
X168965714Y-108997142D01*
X169108571Y-108925714D01*
X169180000Y-108854285D01*
X169251428Y-108711428D01*
X169251428Y-108497142D01*
X169180000Y-108354285D01*
X169108571Y-108282857D01*
X168965714Y-108211428D01*
X168537142Y-108211428D01*
X168394285Y-108282857D01*
X168322857Y-108354285D01*
X168251428Y-108497142D01*
X168251428Y-108711428D01*
X168251428Y-106925714D02*
X169751428Y-106925714D01*
X168322857Y-106925714D02*
X168251428Y-107068571D01*
X168251428Y-107354285D01*
X168322857Y-107497142D01*
X168394285Y-107568571D01*
X168537142Y-107640000D01*
X168965714Y-107640000D01*
X169108571Y-107568571D01*
X169180000Y-107497142D01*
X169251428Y-107354285D01*
X169251428Y-107068571D01*
X169180000Y-106925714D01*
X168251428Y-106211428D02*
X169751428Y-106211428D01*
X169180000Y-106211428D02*
X169251428Y-106068571D01*
X169251428Y-105782857D01*
X169180000Y-105640000D01*
X169108571Y-105568571D01*
X168965714Y-105497142D01*
X168537142Y-105497142D01*
X168394285Y-105568571D01*
X168322857Y-105640000D01*
X168251428Y-105782857D01*
X168251428Y-106068571D01*
X168322857Y-106211428D01*
X169251428Y-104211428D02*
X168251428Y-104211428D01*
X169251428Y-104854285D02*
X168465714Y-104854285D01*
X168322857Y-104782857D01*
X168251428Y-104640000D01*
X168251428Y-104425714D01*
X168322857Y-104282857D01*
X168394285Y-104211428D01*
X168322857Y-103568571D02*
X168251428Y-103425714D01*
X168251428Y-103140000D01*
X168322857Y-102997142D01*
X168465714Y-102925714D01*
X168537142Y-102925714D01*
X168680000Y-102997142D01*
X168751428Y-103140000D01*
X168751428Y-103354285D01*
X168822857Y-103497142D01*
X168965714Y-103568571D01*
X169037142Y-103568571D01*
X169180000Y-103497142D01*
X169251428Y-103354285D01*
X169251428Y-103140000D01*
X169180000Y-102997142D01*
X168251428Y-100282857D02*
X168965714Y-100782857D01*
X168251428Y-101140000D02*
X169751428Y-101140000D01*
X169751428Y-100568571D01*
X169680000Y-100425714D01*
X169608571Y-100354285D01*
X169465714Y-100282857D01*
X169251428Y-100282857D01*
X169108571Y-100354285D01*
X169037142Y-100425714D01*
X168965714Y-100568571D01*
X168965714Y-101140000D01*
X169751428Y-99854285D02*
X169751428Y-98997142D01*
X168251428Y-99425714D02*
X169751428Y-99425714D01*
X169751428Y-98497142D02*
X168537142Y-98497142D01*
X168394285Y-98425714D01*
X168322857Y-98354285D01*
X168251428Y-98211428D01*
X168251428Y-97925714D01*
X168322857Y-97782857D01*
X168394285Y-97711428D01*
X168537142Y-97640000D01*
X169751428Y-97640000D01*
X166487142Y-107461428D02*
X166487142Y-107961428D01*
X165701428Y-107961428D02*
X167201428Y-107961428D01*
X167201428Y-107247142D01*
X165772857Y-106104285D02*
X165701428Y-106247142D01*
X165701428Y-106532857D01*
X165772857Y-106675714D01*
X165915714Y-106747142D01*
X166487142Y-106747142D01*
X166630000Y-106675714D01*
X166701428Y-106532857D01*
X166701428Y-106247142D01*
X166630000Y-106104285D01*
X166487142Y-106032857D01*
X166344285Y-106032857D01*
X166201428Y-106747142D01*
X165701428Y-104747142D02*
X166487142Y-104747142D01*
X166630000Y-104818571D01*
X166701428Y-104961428D01*
X166701428Y-105247142D01*
X166630000Y-105390000D01*
X165772857Y-104747142D02*
X165701428Y-104890000D01*
X165701428Y-105247142D01*
X165772857Y-105390000D01*
X165915714Y-105461428D01*
X166058571Y-105461428D01*
X166201428Y-105390000D01*
X166272857Y-105247142D01*
X166272857Y-104890000D01*
X166344285Y-104747142D01*
X166701428Y-104247142D02*
X166701428Y-103675714D01*
X167201428Y-104032857D02*
X165915714Y-104032857D01*
X165772857Y-103961428D01*
X165701428Y-103818571D01*
X165701428Y-103675714D01*
X165701428Y-103175714D02*
X167201428Y-103175714D01*
X165701428Y-102532857D02*
X166487142Y-102532857D01*
X166630000Y-102604285D01*
X166701428Y-102747142D01*
X166701428Y-102961428D01*
X166630000Y-103104285D01*
X166558571Y-103175714D01*
X165772857Y-101247142D02*
X165701428Y-101390000D01*
X165701428Y-101675714D01*
X165772857Y-101818571D01*
X165915714Y-101890000D01*
X166487142Y-101890000D01*
X166630000Y-101818571D01*
X166701428Y-101675714D01*
X166701428Y-101390000D01*
X166630000Y-101247142D01*
X166487142Y-101175714D01*
X166344285Y-101175714D01*
X166201428Y-101890000D01*
X165701428Y-100532857D02*
X166701428Y-100532857D01*
X166415714Y-100532857D02*
X166558571Y-100461428D01*
X166630000Y-100390000D01*
X166701428Y-100247142D01*
X166701428Y-100104285D01*
X162580000Y-108425714D02*
X162651428Y-108497142D01*
X162865714Y-108640000D01*
X163008571Y-108711428D01*
X163222857Y-108782857D01*
X163580000Y-108854285D01*
X163865714Y-108854285D01*
X164222857Y-108782857D01*
X164437142Y-108711428D01*
X164580000Y-108640000D01*
X164794285Y-108497142D01*
X164865714Y-108425714D01*
X163222857Y-107211428D02*
X163151428Y-107354285D01*
X163151428Y-107640000D01*
X163222857Y-107782857D01*
X163294285Y-107854285D01*
X163437142Y-107925714D01*
X163865714Y-107925714D01*
X164008571Y-107854285D01*
X164080000Y-107782857D01*
X164151428Y-107640000D01*
X164151428Y-107354285D01*
X164080000Y-107211428D01*
X162580000Y-106711428D02*
X162651428Y-106640000D01*
X162865714Y-106497142D01*
X163008571Y-106425714D01*
X163222857Y-106354285D01*
X163580000Y-106282857D01*
X163865714Y-106282857D01*
X164222857Y-106354285D01*
X164437142Y-106425714D01*
X164580000Y-106497142D01*
X164794285Y-106640000D01*
X164865714Y-106711428D01*
X164508571Y-104497142D02*
X164580000Y-104425714D01*
X164651428Y-104282857D01*
X164651428Y-103925714D01*
X164580000Y-103782857D01*
X164508571Y-103711428D01*
X164365714Y-103640000D01*
X164222857Y-103640000D01*
X164008571Y-103711428D01*
X163151428Y-104568571D01*
X163151428Y-103640000D01*
X164651428Y-102711428D02*
X164651428Y-102568571D01*
X164580000Y-102425714D01*
X164508571Y-102354285D01*
X164365714Y-102282857D01*
X164080000Y-102211428D01*
X163722857Y-102211428D01*
X163437142Y-102282857D01*
X163294285Y-102354285D01*
X163222857Y-102425714D01*
X163151428Y-102568571D01*
X163151428Y-102711428D01*
X163222857Y-102854285D01*
X163294285Y-102925714D01*
X163437142Y-102997142D01*
X163722857Y-103068571D01*
X164080000Y-103068571D01*
X164365714Y-102997142D01*
X164508571Y-102925714D01*
X164580000Y-102854285D01*
X164651428Y-102711428D01*
X164508571Y-101640000D02*
X164580000Y-101568571D01*
X164651428Y-101425714D01*
X164651428Y-101068571D01*
X164580000Y-100925714D01*
X164508571Y-100854285D01*
X164365714Y-100782857D01*
X164222857Y-100782857D01*
X164008571Y-100854285D01*
X163151428Y-101711428D01*
X163151428Y-100782857D01*
X164651428Y-99854285D02*
X164651428Y-99711428D01*
X164580000Y-99568571D01*
X164508571Y-99497142D01*
X164365714Y-99425714D01*
X164080000Y-99354285D01*
X163722857Y-99354285D01*
X163437142Y-99425714D01*
X163294285Y-99497142D01*
X163222857Y-99568571D01*
X163151428Y-99711428D01*
X163151428Y-99854285D01*
X163222857Y-99997142D01*
X163294285Y-100068571D01*
X163437142Y-100140000D01*
X163722857Y-100211428D01*
X164080000Y-100211428D01*
X164365714Y-100140000D01*
X164508571Y-100068571D01*
X164580000Y-99997142D01*
X164651428Y-99854285D01*
X160601428Y-107747142D02*
X162101428Y-107747142D01*
X161030000Y-107247142D01*
X162101428Y-106747142D01*
X160601428Y-106747142D01*
X160601428Y-105175714D02*
X161315714Y-105675714D01*
X160601428Y-106032857D02*
X162101428Y-106032857D01*
X162101428Y-105461428D01*
X162030000Y-105318571D01*
X161958571Y-105247142D01*
X161815714Y-105175714D01*
X161601428Y-105175714D01*
X161458571Y-105247142D01*
X161387142Y-105318571D01*
X161315714Y-105461428D01*
X161315714Y-106032857D01*
X161601428Y-104675714D02*
X160601428Y-104318571D01*
X161601428Y-103961428D01*
X162101428Y-103104285D02*
X162101428Y-102961428D01*
X162030000Y-102818571D01*
X161958571Y-102747142D01*
X161815714Y-102675714D01*
X161530000Y-102604285D01*
X161172857Y-102604285D01*
X160887142Y-102675714D01*
X160744285Y-102747142D01*
X160672857Y-102818571D01*
X160601428Y-102961428D01*
X160601428Y-103104285D01*
X160672857Y-103247142D01*
X160744285Y-103318571D01*
X160887142Y-103390000D01*
X161172857Y-103461428D01*
X161530000Y-103461428D01*
X161815714Y-103390000D01*
X161958571Y-103318571D01*
X162030000Y-103247142D01*
X162101428Y-103104285D01*
X160744285Y-101961428D02*
X160672857Y-101890000D01*
X160601428Y-101961428D01*
X160672857Y-102032857D01*
X160744285Y-101961428D01*
X160601428Y-101961428D01*
X161458571Y-101032857D02*
X161530000Y-101175714D01*
X161601428Y-101247142D01*
X161744285Y-101318571D01*
X161815714Y-101318571D01*
X161958571Y-101247142D01*
X162030000Y-101175714D01*
X162101428Y-101032857D01*
X162101428Y-100747142D01*
X162030000Y-100604285D01*
X161958571Y-100532857D01*
X161815714Y-100461428D01*
X161744285Y-100461428D01*
X161601428Y-100532857D01*
X161530000Y-100604285D01*
X161458571Y-100747142D01*
X161458571Y-101032857D01*
X161387142Y-101175714D01*
X161315714Y-101247142D01*
X161172857Y-101318571D01*
X160887142Y-101318571D01*
X160744285Y-101247142D01*
X160672857Y-101175714D01*
X160601428Y-101032857D01*
X160601428Y-100747142D01*
X160672857Y-100604285D01*
X160744285Y-100532857D01*
X160887142Y-100461428D01*
X161172857Y-100461428D01*
X161315714Y-100532857D01*
X161387142Y-100604285D01*
X161458571Y-100747142D01*
X159408571Y-112140000D02*
X159480000Y-112068571D01*
X159551428Y-111925714D01*
X159551428Y-111568571D01*
X159480000Y-111425714D01*
X159408571Y-111354285D01*
X159265714Y-111282857D01*
X159122857Y-111282857D01*
X158908571Y-111354285D01*
X158051428Y-112211428D01*
X158051428Y-111282857D01*
X159051428Y-109997142D02*
X158051428Y-109997142D01*
X159622857Y-110354285D02*
X158551428Y-110711428D01*
X158551428Y-109782857D01*
X159051428Y-109354285D02*
X158051428Y-108997142D01*
X159051428Y-108640000D01*
X157480000Y-106497142D02*
X157551428Y-106568571D01*
X157765714Y-106711428D01*
X157908571Y-106782857D01*
X158122857Y-106854285D01*
X158480000Y-106925714D01*
X158765714Y-106925714D01*
X159122857Y-106854285D01*
X159337142Y-106782857D01*
X159480000Y-106711428D01*
X159694285Y-106568571D01*
X159765714Y-106497142D01*
X159551428Y-105211428D02*
X159551428Y-105925714D01*
X158837142Y-105997142D01*
X158908571Y-105925714D01*
X158980000Y-105782857D01*
X158980000Y-105425714D01*
X158908571Y-105282857D01*
X158837142Y-105211428D01*
X158694285Y-105140000D01*
X158337142Y-105140000D01*
X158194285Y-105211428D01*
X158122857Y-105282857D01*
X158051428Y-105425714D01*
X158051428Y-105782857D01*
X158122857Y-105925714D01*
X158194285Y-105997142D01*
X158194285Y-104497142D02*
X158122857Y-104425714D01*
X158051428Y-104497142D01*
X158122857Y-104568571D01*
X158194285Y-104497142D01*
X158051428Y-104497142D01*
X159408571Y-103854285D02*
X159480000Y-103782857D01*
X159551428Y-103640000D01*
X159551428Y-103282857D01*
X159480000Y-103140000D01*
X159408571Y-103068571D01*
X159265714Y-102997142D01*
X159122857Y-102997142D01*
X158908571Y-103068571D01*
X158051428Y-103925714D01*
X158051428Y-102997142D01*
X158622857Y-102354285D02*
X158622857Y-101211428D01*
X159551428Y-100640000D02*
X159551428Y-99711428D01*
X158980000Y-100211428D01*
X158980000Y-99997142D01*
X158908571Y-99854285D01*
X158837142Y-99782857D01*
X158694285Y-99711428D01*
X158337142Y-99711428D01*
X158194285Y-99782857D01*
X158122857Y-99854285D01*
X158051428Y-99997142D01*
X158051428Y-100425714D01*
X158122857Y-100568571D01*
X158194285Y-100640000D01*
X159551428Y-98425714D02*
X159551428Y-98711428D01*
X159480000Y-98854285D01*
X159408571Y-98925714D01*
X159194285Y-99068571D01*
X158908571Y-99140000D01*
X158337142Y-99140000D01*
X158194285Y-99068571D01*
X158122857Y-98997142D01*
X158051428Y-98854285D01*
X158051428Y-98568571D01*
X158122857Y-98425714D01*
X158194285Y-98354285D01*
X158337142Y-98282857D01*
X158694285Y-98282857D01*
X158837142Y-98354285D01*
X158908571Y-98425714D01*
X158980000Y-98568571D01*
X158980000Y-98854285D01*
X158908571Y-98997142D01*
X158837142Y-99068571D01*
X158694285Y-99140000D01*
X159051428Y-97782857D02*
X158051428Y-97425714D01*
X159051428Y-97068571D01*
X157480000Y-96640000D02*
X157551428Y-96568571D01*
X157765714Y-96425714D01*
X157908571Y-96354285D01*
X158122857Y-96282857D01*
X158480000Y-96211428D01*
X158765714Y-96211428D01*
X159122857Y-96282857D01*
X159337142Y-96354285D01*
X159480000Y-96425714D01*
X159694285Y-96568571D01*
X159765714Y-96640000D01*
D10*
X142374619Y-131500000D02*
X143374619Y-131500000D01*
X142898428Y-131500000D02*
X142898428Y-130928571D01*
X142374619Y-130928571D02*
X143374619Y-130928571D01*
X143041285Y-130023809D02*
X142374619Y-130023809D01*
X143041285Y-130452380D02*
X142517476Y-130452380D01*
X142422238Y-130404761D01*
X142374619Y-130309523D01*
X142374619Y-130166666D01*
X142422238Y-130071428D01*
X142469857Y-130023809D01*
X142374619Y-129119047D02*
X143374619Y-129119047D01*
X142422238Y-129119047D02*
X142374619Y-129214285D01*
X142374619Y-129404761D01*
X142422238Y-129500000D01*
X142469857Y-129547619D01*
X142565095Y-129595238D01*
X142850809Y-129595238D01*
X142946047Y-129547619D01*
X142993666Y-129500000D01*
X143041285Y-129404761D01*
X143041285Y-129214285D01*
X142993666Y-129119047D01*
X142422238Y-128690476D02*
X142374619Y-128595238D01*
X142374619Y-128404761D01*
X142422238Y-128309523D01*
X142517476Y-128261904D01*
X142565095Y-128261904D01*
X142660333Y-128309523D01*
X142707952Y-128404761D01*
X142707952Y-128547619D01*
X142755571Y-128642857D01*
X142850809Y-128690476D01*
X142898428Y-128690476D01*
X142993666Y-128642857D01*
X143041285Y-128547619D01*
X143041285Y-128404761D01*
X142993666Y-128309523D01*
X142374619Y-127690476D02*
X142422238Y-127785714D01*
X142469857Y-127833333D01*
X142565095Y-127880952D01*
X142850809Y-127880952D01*
X142946047Y-127833333D01*
X142993666Y-127785714D01*
X143041285Y-127690476D01*
X143041285Y-127547619D01*
X142993666Y-127452380D01*
X142946047Y-127404761D01*
X142850809Y-127357142D01*
X142565095Y-127357142D01*
X142469857Y-127404761D01*
X142422238Y-127452380D01*
X142374619Y-127547619D01*
X142374619Y-127690476D01*
X143041285Y-126928571D02*
X142374619Y-126928571D01*
X142946047Y-126928571D02*
X142993666Y-126880952D01*
X143041285Y-126785714D01*
X143041285Y-126642857D01*
X142993666Y-126547619D01*
X142898428Y-126500000D01*
X142374619Y-126500000D01*
X140772238Y-131761904D02*
X140724619Y-131619047D01*
X140724619Y-131380952D01*
X140772238Y-131285714D01*
X140819857Y-131238095D01*
X140915095Y-131190476D01*
X141010333Y-131190476D01*
X141105571Y-131238095D01*
X141153190Y-131285714D01*
X141200809Y-131380952D01*
X141248428Y-131571428D01*
X141296047Y-131666666D01*
X141343666Y-131714285D01*
X141438904Y-131761904D01*
X141534142Y-131761904D01*
X141629380Y-131714285D01*
X141677000Y-131666666D01*
X141724619Y-131571428D01*
X141724619Y-131333333D01*
X141677000Y-131190476D01*
X140724619Y-130619047D02*
X140772238Y-130714285D01*
X140819857Y-130761904D01*
X140915095Y-130809523D01*
X141200809Y-130809523D01*
X141296047Y-130761904D01*
X141343666Y-130714285D01*
X141391285Y-130619047D01*
X141391285Y-130476190D01*
X141343666Y-130380952D01*
X141296047Y-130333333D01*
X141200809Y-130285714D01*
X140915095Y-130285714D01*
X140819857Y-130333333D01*
X140772238Y-130380952D01*
X140724619Y-130476190D01*
X140724619Y-130619047D01*
X141391285Y-129857142D02*
X140724619Y-129857142D01*
X141296047Y-129857142D02*
X141343666Y-129809523D01*
X141391285Y-129714285D01*
X141391285Y-129571428D01*
X141343666Y-129476190D01*
X141248428Y-129428571D01*
X140724619Y-129428571D01*
X140724619Y-128809523D02*
X140772238Y-128904761D01*
X140819857Y-128952380D01*
X140915095Y-129000000D01*
X141200809Y-129000000D01*
X141296047Y-128952380D01*
X141343666Y-128904761D01*
X141391285Y-128809523D01*
X141391285Y-128666666D01*
X141343666Y-128571428D01*
X141296047Y-128523809D01*
X141200809Y-128476190D01*
X140915095Y-128476190D01*
X140819857Y-128523809D01*
X140772238Y-128571428D01*
X140724619Y-128666666D01*
X140724619Y-128809523D01*
X140724619Y-128047619D02*
X141391285Y-128047619D01*
X141296047Y-128047619D02*
X141343666Y-128000000D01*
X141391285Y-127904761D01*
X141391285Y-127761904D01*
X141343666Y-127666666D01*
X141248428Y-127619047D01*
X140724619Y-127619047D01*
X141248428Y-127619047D02*
X141343666Y-127571428D01*
X141391285Y-127476190D01*
X141391285Y-127333333D01*
X141343666Y-127238095D01*
X141248428Y-127190476D01*
X140724619Y-127190476D01*
X140724619Y-126285714D02*
X141248428Y-126285714D01*
X141343666Y-126333333D01*
X141391285Y-126428571D01*
X141391285Y-126619047D01*
X141343666Y-126714285D01*
X140772238Y-126285714D02*
X140724619Y-126380952D01*
X140724619Y-126619047D01*
X140772238Y-126714285D01*
X140867476Y-126761904D01*
X140962714Y-126761904D01*
X141057952Y-126714285D01*
X141105571Y-126619047D01*
X141105571Y-126380952D01*
X141153190Y-126285714D01*
D11*
X168253428Y-135640000D02*
X169753428Y-135640000D01*
X168682000Y-135140000D01*
X169753428Y-134640000D01*
X168253428Y-134640000D01*
X168253428Y-133711428D02*
X168324857Y-133854285D01*
X168396285Y-133925714D01*
X168539142Y-133997142D01*
X168967714Y-133997142D01*
X169110571Y-133925714D01*
X169182000Y-133854285D01*
X169253428Y-133711428D01*
X169253428Y-133497142D01*
X169182000Y-133354285D01*
X169110571Y-133282857D01*
X168967714Y-133211428D01*
X168539142Y-133211428D01*
X168396285Y-133282857D01*
X168324857Y-133354285D01*
X168253428Y-133497142D01*
X168253428Y-133711428D01*
X168253428Y-131925714D02*
X169753428Y-131925714D01*
X168324857Y-131925714D02*
X168253428Y-132068571D01*
X168253428Y-132354285D01*
X168324857Y-132497142D01*
X168396285Y-132568571D01*
X168539142Y-132640000D01*
X168967714Y-132640000D01*
X169110571Y-132568571D01*
X169182000Y-132497142D01*
X169253428Y-132354285D01*
X169253428Y-132068571D01*
X169182000Y-131925714D01*
X168253428Y-131211428D02*
X169753428Y-131211428D01*
X169182000Y-131211428D02*
X169253428Y-131068571D01*
X169253428Y-130782857D01*
X169182000Y-130640000D01*
X169110571Y-130568571D01*
X168967714Y-130497142D01*
X168539142Y-130497142D01*
X168396285Y-130568571D01*
X168324857Y-130640000D01*
X168253428Y-130782857D01*
X168253428Y-131068571D01*
X168324857Y-131211428D01*
X169253428Y-129211428D02*
X168253428Y-129211428D01*
X169253428Y-129854285D02*
X168467714Y-129854285D01*
X168324857Y-129782857D01*
X168253428Y-129640000D01*
X168253428Y-129425714D01*
X168324857Y-129282857D01*
X168396285Y-129211428D01*
X168324857Y-128568571D02*
X168253428Y-128425714D01*
X168253428Y-128140000D01*
X168324857Y-127997142D01*
X168467714Y-127925714D01*
X168539142Y-127925714D01*
X168682000Y-127997142D01*
X168753428Y-128140000D01*
X168753428Y-128354285D01*
X168824857Y-128497142D01*
X168967714Y-128568571D01*
X169039142Y-128568571D01*
X169182000Y-128497142D01*
X169253428Y-128354285D01*
X169253428Y-128140000D01*
X169182000Y-127997142D01*
X168253428Y-125282857D02*
X168967714Y-125782857D01*
X168253428Y-126140000D02*
X169753428Y-126140000D01*
X169753428Y-125568571D01*
X169682000Y-125425714D01*
X169610571Y-125354285D01*
X169467714Y-125282857D01*
X169253428Y-125282857D01*
X169110571Y-125354285D01*
X169039142Y-125425714D01*
X168967714Y-125568571D01*
X168967714Y-126140000D01*
X169753428Y-124854285D02*
X169753428Y-123997142D01*
X168253428Y-124425714D02*
X169753428Y-124425714D01*
X169753428Y-123497142D02*
X168539142Y-123497142D01*
X168396285Y-123425714D01*
X168324857Y-123354285D01*
X168253428Y-123211428D01*
X168253428Y-122925714D01*
X168324857Y-122782857D01*
X168396285Y-122711428D01*
X168539142Y-122640000D01*
X169753428Y-122640000D01*
X166489142Y-132461428D02*
X166489142Y-132961428D01*
X165703428Y-132961428D02*
X167203428Y-132961428D01*
X167203428Y-132247142D01*
X165774857Y-131104285D02*
X165703428Y-131247142D01*
X165703428Y-131532857D01*
X165774857Y-131675714D01*
X165917714Y-131747142D01*
X166489142Y-131747142D01*
X166632000Y-131675714D01*
X166703428Y-131532857D01*
X166703428Y-131247142D01*
X166632000Y-131104285D01*
X166489142Y-131032857D01*
X166346285Y-131032857D01*
X166203428Y-131747142D01*
X165703428Y-129747142D02*
X166489142Y-129747142D01*
X166632000Y-129818571D01*
X166703428Y-129961428D01*
X166703428Y-130247142D01*
X166632000Y-130390000D01*
X165774857Y-129747142D02*
X165703428Y-129890000D01*
X165703428Y-130247142D01*
X165774857Y-130390000D01*
X165917714Y-130461428D01*
X166060571Y-130461428D01*
X166203428Y-130390000D01*
X166274857Y-130247142D01*
X166274857Y-129890000D01*
X166346285Y-129747142D01*
X166703428Y-129247142D02*
X166703428Y-128675714D01*
X167203428Y-129032857D02*
X165917714Y-129032857D01*
X165774857Y-128961428D01*
X165703428Y-128818571D01*
X165703428Y-128675714D01*
X165703428Y-128175714D02*
X167203428Y-128175714D01*
X165703428Y-127532857D02*
X166489142Y-127532857D01*
X166632000Y-127604285D01*
X166703428Y-127747142D01*
X166703428Y-127961428D01*
X166632000Y-128104285D01*
X166560571Y-128175714D01*
X165774857Y-126247142D02*
X165703428Y-126390000D01*
X165703428Y-126675714D01*
X165774857Y-126818571D01*
X165917714Y-126890000D01*
X166489142Y-126890000D01*
X166632000Y-126818571D01*
X166703428Y-126675714D01*
X166703428Y-126390000D01*
X166632000Y-126247142D01*
X166489142Y-126175714D01*
X166346285Y-126175714D01*
X166203428Y-126890000D01*
X165703428Y-125532857D02*
X166703428Y-125532857D01*
X166417714Y-125532857D02*
X166560571Y-125461428D01*
X166632000Y-125390000D01*
X166703428Y-125247142D01*
X166703428Y-125104285D01*
X162582000Y-133425714D02*
X162653428Y-133497142D01*
X162867714Y-133640000D01*
X163010571Y-133711428D01*
X163224857Y-133782857D01*
X163582000Y-133854285D01*
X163867714Y-133854285D01*
X164224857Y-133782857D01*
X164439142Y-133711428D01*
X164582000Y-133640000D01*
X164796285Y-133497142D01*
X164867714Y-133425714D01*
X163224857Y-132211428D02*
X163153428Y-132354285D01*
X163153428Y-132640000D01*
X163224857Y-132782857D01*
X163296285Y-132854285D01*
X163439142Y-132925714D01*
X163867714Y-132925714D01*
X164010571Y-132854285D01*
X164082000Y-132782857D01*
X164153428Y-132640000D01*
X164153428Y-132354285D01*
X164082000Y-132211428D01*
X162582000Y-131711428D02*
X162653428Y-131640000D01*
X162867714Y-131497142D01*
X163010571Y-131425714D01*
X163224857Y-131354285D01*
X163582000Y-131282857D01*
X163867714Y-131282857D01*
X164224857Y-131354285D01*
X164439142Y-131425714D01*
X164582000Y-131497142D01*
X164796285Y-131640000D01*
X164867714Y-131711428D01*
X164510571Y-129497142D02*
X164582000Y-129425714D01*
X164653428Y-129282857D01*
X164653428Y-128925714D01*
X164582000Y-128782857D01*
X164510571Y-128711428D01*
X164367714Y-128640000D01*
X164224857Y-128640000D01*
X164010571Y-128711428D01*
X163153428Y-129568571D01*
X163153428Y-128640000D01*
X164653428Y-127711428D02*
X164653428Y-127568571D01*
X164582000Y-127425714D01*
X164510571Y-127354285D01*
X164367714Y-127282857D01*
X164082000Y-127211428D01*
X163724857Y-127211428D01*
X163439142Y-127282857D01*
X163296285Y-127354285D01*
X163224857Y-127425714D01*
X163153428Y-127568571D01*
X163153428Y-127711428D01*
X163224857Y-127854285D01*
X163296285Y-127925714D01*
X163439142Y-127997142D01*
X163724857Y-128068571D01*
X164082000Y-128068571D01*
X164367714Y-127997142D01*
X164510571Y-127925714D01*
X164582000Y-127854285D01*
X164653428Y-127711428D01*
X164510571Y-126640000D02*
X164582000Y-126568571D01*
X164653428Y-126425714D01*
X164653428Y-126068571D01*
X164582000Y-125925714D01*
X164510571Y-125854285D01*
X164367714Y-125782857D01*
X164224857Y-125782857D01*
X164010571Y-125854285D01*
X163153428Y-126711428D01*
X163153428Y-125782857D01*
X164653428Y-124854285D02*
X164653428Y-124711428D01*
X164582000Y-124568571D01*
X164510571Y-124497142D01*
X164367714Y-124425714D01*
X164082000Y-124354285D01*
X163724857Y-124354285D01*
X163439142Y-124425714D01*
X163296285Y-124497142D01*
X163224857Y-124568571D01*
X163153428Y-124711428D01*
X163153428Y-124854285D01*
X163224857Y-124997142D01*
X163296285Y-125068571D01*
X163439142Y-125140000D01*
X163724857Y-125211428D01*
X164082000Y-125211428D01*
X164367714Y-125140000D01*
X164510571Y-125068571D01*
X164582000Y-124997142D01*
X164653428Y-124854285D01*
X160603428Y-132747142D02*
X162103428Y-132747142D01*
X161032000Y-132247142D01*
X162103428Y-131747142D01*
X160603428Y-131747142D01*
X160603428Y-130175714D02*
X161317714Y-130675714D01*
X160603428Y-131032857D02*
X162103428Y-131032857D01*
X162103428Y-130461428D01*
X162032000Y-130318571D01*
X161960571Y-130247142D01*
X161817714Y-130175714D01*
X161603428Y-130175714D01*
X161460571Y-130247142D01*
X161389142Y-130318571D01*
X161317714Y-130461428D01*
X161317714Y-131032857D01*
X161603428Y-129675714D02*
X160603428Y-129318571D01*
X161603428Y-128961428D01*
X162103428Y-128104285D02*
X162103428Y-127961428D01*
X162032000Y-127818571D01*
X161960571Y-127747142D01*
X161817714Y-127675714D01*
X161532000Y-127604285D01*
X161174857Y-127604285D01*
X160889142Y-127675714D01*
X160746285Y-127747142D01*
X160674857Y-127818571D01*
X160603428Y-127961428D01*
X160603428Y-128104285D01*
X160674857Y-128247142D01*
X160746285Y-128318571D01*
X160889142Y-128390000D01*
X161174857Y-128461428D01*
X161532000Y-128461428D01*
X161817714Y-128390000D01*
X161960571Y-128318571D01*
X162032000Y-128247142D01*
X162103428Y-128104285D01*
X160746285Y-126961428D02*
X160674857Y-126890000D01*
X160603428Y-126961428D01*
X160674857Y-127032857D01*
X160746285Y-126961428D01*
X160603428Y-126961428D01*
X161460571Y-126032857D02*
X161532000Y-126175714D01*
X161603428Y-126247142D01*
X161746285Y-126318571D01*
X161817714Y-126318571D01*
X161960571Y-126247142D01*
X162032000Y-126175714D01*
X162103428Y-126032857D01*
X162103428Y-125747142D01*
X162032000Y-125604285D01*
X161960571Y-125532857D01*
X161817714Y-125461428D01*
X161746285Y-125461428D01*
X161603428Y-125532857D01*
X161532000Y-125604285D01*
X161460571Y-125747142D01*
X161460571Y-126032857D01*
X161389142Y-126175714D01*
X161317714Y-126247142D01*
X161174857Y-126318571D01*
X160889142Y-126318571D01*
X160746285Y-126247142D01*
X160674857Y-126175714D01*
X160603428Y-126032857D01*
X160603428Y-125747142D01*
X160674857Y-125604285D01*
X160746285Y-125532857D01*
X160889142Y-125461428D01*
X161174857Y-125461428D01*
X161317714Y-125532857D01*
X161389142Y-125604285D01*
X161460571Y-125747142D01*
X159410571Y-137140000D02*
X159482000Y-137068571D01*
X159553428Y-136925714D01*
X159553428Y-136568571D01*
X159482000Y-136425714D01*
X159410571Y-136354285D01*
X159267714Y-136282857D01*
X159124857Y-136282857D01*
X158910571Y-136354285D01*
X158053428Y-137211428D01*
X158053428Y-136282857D01*
X159053428Y-134997142D02*
X158053428Y-134997142D01*
X159624857Y-135354285D02*
X158553428Y-135711428D01*
X158553428Y-134782857D01*
X159053428Y-134354285D02*
X158053428Y-133997142D01*
X159053428Y-133640000D01*
X157482000Y-131497142D02*
X157553428Y-131568571D01*
X157767714Y-131711428D01*
X157910571Y-131782857D01*
X158124857Y-131854285D01*
X158482000Y-131925714D01*
X158767714Y-131925714D01*
X159124857Y-131854285D01*
X159339142Y-131782857D01*
X159482000Y-131711428D01*
X159696285Y-131568571D01*
X159767714Y-131497142D01*
X159553428Y-130211428D02*
X159553428Y-130925714D01*
X158839142Y-130997142D01*
X158910571Y-130925714D01*
X158982000Y-130782857D01*
X158982000Y-130425714D01*
X158910571Y-130282857D01*
X158839142Y-130211428D01*
X158696285Y-130140000D01*
X158339142Y-130140000D01*
X158196285Y-130211428D01*
X158124857Y-130282857D01*
X158053428Y-130425714D01*
X158053428Y-130782857D01*
X158124857Y-130925714D01*
X158196285Y-130997142D01*
X158196285Y-129497142D02*
X158124857Y-129425714D01*
X158053428Y-129497142D01*
X158124857Y-129568571D01*
X158196285Y-129497142D01*
X158053428Y-129497142D01*
X159410571Y-128854285D02*
X159482000Y-128782857D01*
X159553428Y-128640000D01*
X159553428Y-128282857D01*
X159482000Y-128140000D01*
X159410571Y-128068571D01*
X159267714Y-127997142D01*
X159124857Y-127997142D01*
X158910571Y-128068571D01*
X158053428Y-128925714D01*
X158053428Y-127997142D01*
X158624857Y-127354285D02*
X158624857Y-126211428D01*
X159553428Y-125640000D02*
X159553428Y-124711428D01*
X158982000Y-125211428D01*
X158982000Y-124997142D01*
X158910571Y-124854285D01*
X158839142Y-124782857D01*
X158696285Y-124711428D01*
X158339142Y-124711428D01*
X158196285Y-124782857D01*
X158124857Y-124854285D01*
X158053428Y-124997142D01*
X158053428Y-125425714D01*
X158124857Y-125568571D01*
X158196285Y-125640000D01*
X159553428Y-123425714D02*
X159553428Y-123711428D01*
X159482000Y-123854285D01*
X159410571Y-123925714D01*
X159196285Y-124068571D01*
X158910571Y-124140000D01*
X158339142Y-124140000D01*
X158196285Y-124068571D01*
X158124857Y-123997142D01*
X158053428Y-123854285D01*
X158053428Y-123568571D01*
X158124857Y-123425714D01*
X158196285Y-123354285D01*
X158339142Y-123282857D01*
X158696285Y-123282857D01*
X158839142Y-123354285D01*
X158910571Y-123425714D01*
X158982000Y-123568571D01*
X158982000Y-123854285D01*
X158910571Y-123997142D01*
X158839142Y-124068571D01*
X158696285Y-124140000D01*
X159053428Y-122782857D02*
X158053428Y-122425714D01*
X159053428Y-122068571D01*
X157482000Y-121640000D02*
X157553428Y-121568571D01*
X157767714Y-121425714D01*
X157910571Y-121354285D01*
X158124857Y-121282857D01*
X158482000Y-121211428D01*
X158767714Y-121211428D01*
X159124857Y-121282857D01*
X159339142Y-121354285D01*
X159482000Y-121425714D01*
X159696285Y-121568571D01*
X159767714Y-121640000D01*
D10*
X142374619Y-156360000D02*
X143374619Y-156360000D01*
X142898428Y-156360000D02*
X142898428Y-155788571D01*
X142374619Y-155788571D02*
X143374619Y-155788571D01*
X143041285Y-154883809D02*
X142374619Y-154883809D01*
X143041285Y-155312380D02*
X142517476Y-155312380D01*
X142422238Y-155264761D01*
X142374619Y-155169523D01*
X142374619Y-155026666D01*
X142422238Y-154931428D01*
X142469857Y-154883809D01*
X142374619Y-153979047D02*
X143374619Y-153979047D01*
X142422238Y-153979047D02*
X142374619Y-154074285D01*
X142374619Y-154264761D01*
X142422238Y-154360000D01*
X142469857Y-154407619D01*
X142565095Y-154455238D01*
X142850809Y-154455238D01*
X142946047Y-154407619D01*
X142993666Y-154360000D01*
X143041285Y-154264761D01*
X143041285Y-154074285D01*
X142993666Y-153979047D01*
X142422238Y-153550476D02*
X142374619Y-153455238D01*
X142374619Y-153264761D01*
X142422238Y-153169523D01*
X142517476Y-153121904D01*
X142565095Y-153121904D01*
X142660333Y-153169523D01*
X142707952Y-153264761D01*
X142707952Y-153407619D01*
X142755571Y-153502857D01*
X142850809Y-153550476D01*
X142898428Y-153550476D01*
X142993666Y-153502857D01*
X143041285Y-153407619D01*
X143041285Y-153264761D01*
X142993666Y-153169523D01*
X142374619Y-152550476D02*
X142422238Y-152645714D01*
X142469857Y-152693333D01*
X142565095Y-152740952D01*
X142850809Y-152740952D01*
X142946047Y-152693333D01*
X142993666Y-152645714D01*
X143041285Y-152550476D01*
X143041285Y-152407619D01*
X142993666Y-152312380D01*
X142946047Y-152264761D01*
X142850809Y-152217142D01*
X142565095Y-152217142D01*
X142469857Y-152264761D01*
X142422238Y-152312380D01*
X142374619Y-152407619D01*
X142374619Y-152550476D01*
X143041285Y-151788571D02*
X142374619Y-151788571D01*
X142946047Y-151788571D02*
X142993666Y-151740952D01*
X143041285Y-151645714D01*
X143041285Y-151502857D01*
X142993666Y-151407619D01*
X142898428Y-151360000D01*
X142374619Y-151360000D01*
X140772238Y-156621904D02*
X140724619Y-156479047D01*
X140724619Y-156240952D01*
X140772238Y-156145714D01*
X140819857Y-156098095D01*
X140915095Y-156050476D01*
X141010333Y-156050476D01*
X141105571Y-156098095D01*
X141153190Y-156145714D01*
X141200809Y-156240952D01*
X141248428Y-156431428D01*
X141296047Y-156526666D01*
X141343666Y-156574285D01*
X141438904Y-156621904D01*
X141534142Y-156621904D01*
X141629380Y-156574285D01*
X141677000Y-156526666D01*
X141724619Y-156431428D01*
X141724619Y-156193333D01*
X141677000Y-156050476D01*
X140724619Y-155479047D02*
X140772238Y-155574285D01*
X140819857Y-155621904D01*
X140915095Y-155669523D01*
X141200809Y-155669523D01*
X141296047Y-155621904D01*
X141343666Y-155574285D01*
X141391285Y-155479047D01*
X141391285Y-155336190D01*
X141343666Y-155240952D01*
X141296047Y-155193333D01*
X141200809Y-155145714D01*
X140915095Y-155145714D01*
X140819857Y-155193333D01*
X140772238Y-155240952D01*
X140724619Y-155336190D01*
X140724619Y-155479047D01*
X141391285Y-154717142D02*
X140724619Y-154717142D01*
X141296047Y-154717142D02*
X141343666Y-154669523D01*
X141391285Y-154574285D01*
X141391285Y-154431428D01*
X141343666Y-154336190D01*
X141248428Y-154288571D01*
X140724619Y-154288571D01*
X140724619Y-153669523D02*
X140772238Y-153764761D01*
X140819857Y-153812380D01*
X140915095Y-153860000D01*
X141200809Y-153860000D01*
X141296047Y-153812380D01*
X141343666Y-153764761D01*
X141391285Y-153669523D01*
X141391285Y-153526666D01*
X141343666Y-153431428D01*
X141296047Y-153383809D01*
X141200809Y-153336190D01*
X140915095Y-153336190D01*
X140819857Y-153383809D01*
X140772238Y-153431428D01*
X140724619Y-153526666D01*
X140724619Y-153669523D01*
X140724619Y-152907619D02*
X141391285Y-152907619D01*
X141296047Y-152907619D02*
X141343666Y-152860000D01*
X141391285Y-152764761D01*
X141391285Y-152621904D01*
X141343666Y-152526666D01*
X141248428Y-152479047D01*
X140724619Y-152479047D01*
X141248428Y-152479047D02*
X141343666Y-152431428D01*
X141391285Y-152336190D01*
X141391285Y-152193333D01*
X141343666Y-152098095D01*
X141248428Y-152050476D01*
X140724619Y-152050476D01*
X140724619Y-151145714D02*
X141248428Y-151145714D01*
X141343666Y-151193333D01*
X141391285Y-151288571D01*
X141391285Y-151479047D01*
X141343666Y-151574285D01*
X140772238Y-151145714D02*
X140724619Y-151240952D01*
X140724619Y-151479047D01*
X140772238Y-151574285D01*
X140867476Y-151621904D01*
X140962714Y-151621904D01*
X141057952Y-151574285D01*
X141105571Y-151479047D01*
X141105571Y-151240952D01*
X141153190Y-151145714D01*
D11*
X168253428Y-160500000D02*
X169753428Y-160500000D01*
X168682000Y-160000000D01*
X169753428Y-159500000D01*
X168253428Y-159500000D01*
X168253428Y-158571428D02*
X168324857Y-158714285D01*
X168396285Y-158785714D01*
X168539142Y-158857142D01*
X168967714Y-158857142D01*
X169110571Y-158785714D01*
X169182000Y-158714285D01*
X169253428Y-158571428D01*
X169253428Y-158357142D01*
X169182000Y-158214285D01*
X169110571Y-158142857D01*
X168967714Y-158071428D01*
X168539142Y-158071428D01*
X168396285Y-158142857D01*
X168324857Y-158214285D01*
X168253428Y-158357142D01*
X168253428Y-158571428D01*
X168253428Y-156785714D02*
X169753428Y-156785714D01*
X168324857Y-156785714D02*
X168253428Y-156928571D01*
X168253428Y-157214285D01*
X168324857Y-157357142D01*
X168396285Y-157428571D01*
X168539142Y-157500000D01*
X168967714Y-157500000D01*
X169110571Y-157428571D01*
X169182000Y-157357142D01*
X169253428Y-157214285D01*
X169253428Y-156928571D01*
X169182000Y-156785714D01*
X168253428Y-156071428D02*
X169753428Y-156071428D01*
X169182000Y-156071428D02*
X169253428Y-155928571D01*
X169253428Y-155642857D01*
X169182000Y-155500000D01*
X169110571Y-155428571D01*
X168967714Y-155357142D01*
X168539142Y-155357142D01*
X168396285Y-155428571D01*
X168324857Y-155500000D01*
X168253428Y-155642857D01*
X168253428Y-155928571D01*
X168324857Y-156071428D01*
X169253428Y-154071428D02*
X168253428Y-154071428D01*
X169253428Y-154714285D02*
X168467714Y-154714285D01*
X168324857Y-154642857D01*
X168253428Y-154500000D01*
X168253428Y-154285714D01*
X168324857Y-154142857D01*
X168396285Y-154071428D01*
X168324857Y-153428571D02*
X168253428Y-153285714D01*
X168253428Y-153000000D01*
X168324857Y-152857142D01*
X168467714Y-152785714D01*
X168539142Y-152785714D01*
X168682000Y-152857142D01*
X168753428Y-153000000D01*
X168753428Y-153214285D01*
X168824857Y-153357142D01*
X168967714Y-153428571D01*
X169039142Y-153428571D01*
X169182000Y-153357142D01*
X169253428Y-153214285D01*
X169253428Y-153000000D01*
X169182000Y-152857142D01*
X168253428Y-150142857D02*
X168967714Y-150642857D01*
X168253428Y-151000000D02*
X169753428Y-151000000D01*
X169753428Y-150428571D01*
X169682000Y-150285714D01*
X169610571Y-150214285D01*
X169467714Y-150142857D01*
X169253428Y-150142857D01*
X169110571Y-150214285D01*
X169039142Y-150285714D01*
X168967714Y-150428571D01*
X168967714Y-151000000D01*
X169753428Y-149714285D02*
X169753428Y-148857142D01*
X168253428Y-149285714D02*
X169753428Y-149285714D01*
X169753428Y-148357142D02*
X168539142Y-148357142D01*
X168396285Y-148285714D01*
X168324857Y-148214285D01*
X168253428Y-148071428D01*
X168253428Y-147785714D01*
X168324857Y-147642857D01*
X168396285Y-147571428D01*
X168539142Y-147500000D01*
X169753428Y-147500000D01*
X166489142Y-157321428D02*
X166489142Y-157821428D01*
X165703428Y-157821428D02*
X167203428Y-157821428D01*
X167203428Y-157107142D01*
X165774857Y-155964285D02*
X165703428Y-156107142D01*
X165703428Y-156392857D01*
X165774857Y-156535714D01*
X165917714Y-156607142D01*
X166489142Y-156607142D01*
X166632000Y-156535714D01*
X166703428Y-156392857D01*
X166703428Y-156107142D01*
X166632000Y-155964285D01*
X166489142Y-155892857D01*
X166346285Y-155892857D01*
X166203428Y-156607142D01*
X165703428Y-154607142D02*
X166489142Y-154607142D01*
X166632000Y-154678571D01*
X166703428Y-154821428D01*
X166703428Y-155107142D01*
X166632000Y-155250000D01*
X165774857Y-154607142D02*
X165703428Y-154750000D01*
X165703428Y-155107142D01*
X165774857Y-155250000D01*
X165917714Y-155321428D01*
X166060571Y-155321428D01*
X166203428Y-155250000D01*
X166274857Y-155107142D01*
X166274857Y-154750000D01*
X166346285Y-154607142D01*
X166703428Y-154107142D02*
X166703428Y-153535714D01*
X167203428Y-153892857D02*
X165917714Y-153892857D01*
X165774857Y-153821428D01*
X165703428Y-153678571D01*
X165703428Y-153535714D01*
X165703428Y-153035714D02*
X167203428Y-153035714D01*
X165703428Y-152392857D02*
X166489142Y-152392857D01*
X166632000Y-152464285D01*
X166703428Y-152607142D01*
X166703428Y-152821428D01*
X166632000Y-152964285D01*
X166560571Y-153035714D01*
X165774857Y-151107142D02*
X165703428Y-151250000D01*
X165703428Y-151535714D01*
X165774857Y-151678571D01*
X165917714Y-151750000D01*
X166489142Y-151750000D01*
X166632000Y-151678571D01*
X166703428Y-151535714D01*
X166703428Y-151250000D01*
X166632000Y-151107142D01*
X166489142Y-151035714D01*
X166346285Y-151035714D01*
X166203428Y-151750000D01*
X165703428Y-150392857D02*
X166703428Y-150392857D01*
X166417714Y-150392857D02*
X166560571Y-150321428D01*
X166632000Y-150250000D01*
X166703428Y-150107142D01*
X166703428Y-149964285D01*
X162582000Y-158285714D02*
X162653428Y-158357142D01*
X162867714Y-158500000D01*
X163010571Y-158571428D01*
X163224857Y-158642857D01*
X163582000Y-158714285D01*
X163867714Y-158714285D01*
X164224857Y-158642857D01*
X164439142Y-158571428D01*
X164582000Y-158500000D01*
X164796285Y-158357142D01*
X164867714Y-158285714D01*
X163224857Y-157071428D02*
X163153428Y-157214285D01*
X163153428Y-157500000D01*
X163224857Y-157642857D01*
X163296285Y-157714285D01*
X163439142Y-157785714D01*
X163867714Y-157785714D01*
X164010571Y-157714285D01*
X164082000Y-157642857D01*
X164153428Y-157500000D01*
X164153428Y-157214285D01*
X164082000Y-157071428D01*
X162582000Y-156571428D02*
X162653428Y-156500000D01*
X162867714Y-156357142D01*
X163010571Y-156285714D01*
X163224857Y-156214285D01*
X163582000Y-156142857D01*
X163867714Y-156142857D01*
X164224857Y-156214285D01*
X164439142Y-156285714D01*
X164582000Y-156357142D01*
X164796285Y-156500000D01*
X164867714Y-156571428D01*
X164510571Y-154357142D02*
X164582000Y-154285714D01*
X164653428Y-154142857D01*
X164653428Y-153785714D01*
X164582000Y-153642857D01*
X164510571Y-153571428D01*
X164367714Y-153500000D01*
X164224857Y-153500000D01*
X164010571Y-153571428D01*
X163153428Y-154428571D01*
X163153428Y-153500000D01*
X164653428Y-152571428D02*
X164653428Y-152428571D01*
X164582000Y-152285714D01*
X164510571Y-152214285D01*
X164367714Y-152142857D01*
X164082000Y-152071428D01*
X163724857Y-152071428D01*
X163439142Y-152142857D01*
X163296285Y-152214285D01*
X163224857Y-152285714D01*
X163153428Y-152428571D01*
X163153428Y-152571428D01*
X163224857Y-152714285D01*
X163296285Y-152785714D01*
X163439142Y-152857142D01*
X163724857Y-152928571D01*
X164082000Y-152928571D01*
X164367714Y-152857142D01*
X164510571Y-152785714D01*
X164582000Y-152714285D01*
X164653428Y-152571428D01*
X164510571Y-151500000D02*
X164582000Y-151428571D01*
X164653428Y-151285714D01*
X164653428Y-150928571D01*
X164582000Y-150785714D01*
X164510571Y-150714285D01*
X164367714Y-150642857D01*
X164224857Y-150642857D01*
X164010571Y-150714285D01*
X163153428Y-151571428D01*
X163153428Y-150642857D01*
X164653428Y-149714285D02*
X164653428Y-149571428D01*
X164582000Y-149428571D01*
X164510571Y-149357142D01*
X164367714Y-149285714D01*
X164082000Y-149214285D01*
X163724857Y-149214285D01*
X163439142Y-149285714D01*
X163296285Y-149357142D01*
X163224857Y-149428571D01*
X163153428Y-149571428D01*
X163153428Y-149714285D01*
X163224857Y-149857142D01*
X163296285Y-149928571D01*
X163439142Y-150000000D01*
X163724857Y-150071428D01*
X164082000Y-150071428D01*
X164367714Y-150000000D01*
X164510571Y-149928571D01*
X164582000Y-149857142D01*
X164653428Y-149714285D01*
X160603428Y-157607142D02*
X162103428Y-157607142D01*
X161032000Y-157107142D01*
X162103428Y-156607142D01*
X160603428Y-156607142D01*
X160603428Y-155035714D02*
X161317714Y-155535714D01*
X160603428Y-155892857D02*
X162103428Y-155892857D01*
X162103428Y-155321428D01*
X162032000Y-155178571D01*
X161960571Y-155107142D01*
X161817714Y-155035714D01*
X161603428Y-155035714D01*
X161460571Y-155107142D01*
X161389142Y-155178571D01*
X161317714Y-155321428D01*
X161317714Y-155892857D01*
X161603428Y-154535714D02*
X160603428Y-154178571D01*
X161603428Y-153821428D01*
X162103428Y-152964285D02*
X162103428Y-152821428D01*
X162032000Y-152678571D01*
X161960571Y-152607142D01*
X161817714Y-152535714D01*
X161532000Y-152464285D01*
X161174857Y-152464285D01*
X160889142Y-152535714D01*
X160746285Y-152607142D01*
X160674857Y-152678571D01*
X160603428Y-152821428D01*
X160603428Y-152964285D01*
X160674857Y-153107142D01*
X160746285Y-153178571D01*
X160889142Y-153250000D01*
X161174857Y-153321428D01*
X161532000Y-153321428D01*
X161817714Y-153250000D01*
X161960571Y-153178571D01*
X162032000Y-153107142D01*
X162103428Y-152964285D01*
X160746285Y-151821428D02*
X160674857Y-151750000D01*
X160603428Y-151821428D01*
X160674857Y-151892857D01*
X160746285Y-151821428D01*
X160603428Y-151821428D01*
X161460571Y-150892857D02*
X161532000Y-151035714D01*
X161603428Y-151107142D01*
X161746285Y-151178571D01*
X161817714Y-151178571D01*
X161960571Y-151107142D01*
X162032000Y-151035714D01*
X162103428Y-150892857D01*
X162103428Y-150607142D01*
X162032000Y-150464285D01*
X161960571Y-150392857D01*
X161817714Y-150321428D01*
X161746285Y-150321428D01*
X161603428Y-150392857D01*
X161532000Y-150464285D01*
X161460571Y-150607142D01*
X161460571Y-150892857D01*
X161389142Y-151035714D01*
X161317714Y-151107142D01*
X161174857Y-151178571D01*
X160889142Y-151178571D01*
X160746285Y-151107142D01*
X160674857Y-151035714D01*
X160603428Y-150892857D01*
X160603428Y-150607142D01*
X160674857Y-150464285D01*
X160746285Y-150392857D01*
X160889142Y-150321428D01*
X161174857Y-150321428D01*
X161317714Y-150392857D01*
X161389142Y-150464285D01*
X161460571Y-150607142D01*
X159410571Y-162000000D02*
X159482000Y-161928571D01*
X159553428Y-161785714D01*
X159553428Y-161428571D01*
X159482000Y-161285714D01*
X159410571Y-161214285D01*
X159267714Y-161142857D01*
X159124857Y-161142857D01*
X158910571Y-161214285D01*
X158053428Y-162071428D01*
X158053428Y-161142857D01*
X159053428Y-159857142D02*
X158053428Y-159857142D01*
X159624857Y-160214285D02*
X158553428Y-160571428D01*
X158553428Y-159642857D01*
X159053428Y-159214285D02*
X158053428Y-158857142D01*
X159053428Y-158500000D01*
X157482000Y-156357142D02*
X157553428Y-156428571D01*
X157767714Y-156571428D01*
X157910571Y-156642857D01*
X158124857Y-156714285D01*
X158482000Y-156785714D01*
X158767714Y-156785714D01*
X159124857Y-156714285D01*
X159339142Y-156642857D01*
X159482000Y-156571428D01*
X159696285Y-156428571D01*
X159767714Y-156357142D01*
X159553428Y-155071428D02*
X159553428Y-155785714D01*
X158839142Y-155857142D01*
X158910571Y-155785714D01*
X158982000Y-155642857D01*
X158982000Y-155285714D01*
X158910571Y-155142857D01*
X158839142Y-155071428D01*
X158696285Y-155000000D01*
X158339142Y-155000000D01*
X158196285Y-155071428D01*
X158124857Y-155142857D01*
X158053428Y-155285714D01*
X158053428Y-155642857D01*
X158124857Y-155785714D01*
X158196285Y-155857142D01*
X158196285Y-154357142D02*
X158124857Y-154285714D01*
X158053428Y-154357142D01*
X158124857Y-154428571D01*
X158196285Y-154357142D01*
X158053428Y-154357142D01*
X159410571Y-153714285D02*
X159482000Y-153642857D01*
X159553428Y-153500000D01*
X159553428Y-153142857D01*
X159482000Y-153000000D01*
X159410571Y-152928571D01*
X159267714Y-152857142D01*
X159124857Y-152857142D01*
X158910571Y-152928571D01*
X158053428Y-153785714D01*
X158053428Y-152857142D01*
X158624857Y-152214285D02*
X158624857Y-151071428D01*
X159553428Y-150500000D02*
X159553428Y-149571428D01*
X158982000Y-150071428D01*
X158982000Y-149857142D01*
X158910571Y-149714285D01*
X158839142Y-149642857D01*
X158696285Y-149571428D01*
X158339142Y-149571428D01*
X158196285Y-149642857D01*
X158124857Y-149714285D01*
X158053428Y-149857142D01*
X158053428Y-150285714D01*
X158124857Y-150428571D01*
X158196285Y-150500000D01*
X159553428Y-148285714D02*
X159553428Y-148571428D01*
X159482000Y-148714285D01*
X159410571Y-148785714D01*
X159196285Y-148928571D01*
X158910571Y-149000000D01*
X158339142Y-149000000D01*
X158196285Y-148928571D01*
X158124857Y-148857142D01*
X158053428Y-148714285D01*
X158053428Y-148428571D01*
X158124857Y-148285714D01*
X158196285Y-148214285D01*
X158339142Y-148142857D01*
X158696285Y-148142857D01*
X158839142Y-148214285D01*
X158910571Y-148285714D01*
X158982000Y-148428571D01*
X158982000Y-148714285D01*
X158910571Y-148857142D01*
X158839142Y-148928571D01*
X158696285Y-149000000D01*
X159053428Y-147642857D02*
X158053428Y-147285714D01*
X159053428Y-146928571D01*
X157482000Y-146500000D02*
X157553428Y-146428571D01*
X157767714Y-146285714D01*
X157910571Y-146214285D01*
X158124857Y-146142857D01*
X158482000Y-146071428D01*
X158767714Y-146071428D01*
X159124857Y-146142857D01*
X159339142Y-146214285D01*
X159482000Y-146285714D01*
X159696285Y-146428571D01*
X159767714Y-146500000D01*
D12*
%TO.C,G\u002A\u002A\u002A*%
G36*
X149611547Y-153447827D02*
G01*
X149597395Y-153422723D01*
X149563951Y-153363897D01*
X149512945Y-153274377D01*
X149446102Y-153157189D01*
X149365150Y-153015358D01*
X149271818Y-152851911D01*
X149167833Y-152669873D01*
X149054922Y-152472272D01*
X148934812Y-152262133D01*
X148831734Y-152081834D01*
X148075324Y-150758917D01*
X144924676Y-150758917D01*
X144146004Y-152121425D01*
X144020121Y-152341914D01*
X143900597Y-152551691D01*
X143789065Y-152747865D01*
X143687158Y-152927544D01*
X143596508Y-153087835D01*
X143518749Y-153225846D01*
X143455512Y-153338687D01*
X143408431Y-153423465D01*
X143379138Y-153477288D01*
X143369264Y-153497258D01*
X143379886Y-153517787D01*
X143409531Y-153571283D01*
X143456091Y-153654032D01*
X143517455Y-153762318D01*
X143591516Y-153892428D01*
X143676163Y-154040647D01*
X143769287Y-154203261D01*
X143851603Y-154346667D01*
X144332012Y-155182750D01*
X145897548Y-155187454D01*
X147463083Y-155192158D01*
X147939333Y-154355023D01*
X148037191Y-154182412D01*
X148128275Y-154020588D01*
X148210491Y-153873358D01*
X148281744Y-153744527D01*
X148339938Y-153637902D01*
X148382980Y-153557289D01*
X148408773Y-153506493D01*
X148415583Y-153489787D01*
X148405415Y-153466122D01*
X148376304Y-153409525D01*
X148330343Y-153323802D01*
X148269625Y-153212757D01*
X148196242Y-153080196D01*
X148112287Y-152929926D01*
X148019852Y-152765750D01*
X147939333Y-152623661D01*
X147463083Y-151785636D01*
X146500000Y-151786236D01*
X145536916Y-151786836D01*
X145071250Y-152603606D01*
X144973860Y-152774550D01*
X144882584Y-152935004D01*
X144799638Y-153081051D01*
X144727243Y-153208773D01*
X144667617Y-153314252D01*
X144622978Y-153393572D01*
X144595546Y-153442813D01*
X144587746Y-153457337D01*
X144586857Y-153482462D01*
X144601454Y-153527314D01*
X144633398Y-153595906D01*
X144684553Y-153692252D01*
X144753625Y-153814861D01*
X144937341Y-154135425D01*
X146865041Y-154124417D01*
X147041860Y-153817500D01*
X147100648Y-153714373D01*
X147151223Y-153623587D01*
X147190059Y-153551639D01*
X147213630Y-153505025D01*
X147219172Y-153490748D01*
X147209573Y-153465571D01*
X147183408Y-153413274D01*
X147145295Y-153341998D01*
X147099852Y-153259883D01*
X147051695Y-153175069D01*
X147005442Y-153095697D01*
X146965710Y-153029906D01*
X146937117Y-152985837D01*
X146924637Y-152971475D01*
X146910879Y-152989189D01*
X146880078Y-153037932D01*
X146835807Y-153111758D01*
X146781643Y-153204724D01*
X146730541Y-153294267D01*
X146548333Y-153616417D01*
X145899553Y-153622015D01*
X145250774Y-153627613D01*
X145215840Y-153554357D01*
X145180907Y-153481102D01*
X145846965Y-152314068D01*
X146504122Y-152319659D01*
X147161280Y-152325250D01*
X147486806Y-152894019D01*
X147567395Y-153035556D01*
X147640722Y-153165743D01*
X147704232Y-153279932D01*
X147755368Y-153373471D01*
X147791574Y-153441711D01*
X147810294Y-153480002D01*
X147812333Y-153486182D01*
X147802192Y-153509703D01*
X147773455Y-153565292D01*
X147728657Y-153648332D01*
X147670328Y-153754206D01*
X147601001Y-153878298D01*
X147523209Y-154015989D01*
X147482855Y-154086872D01*
X147153377Y-154664167D01*
X144642798Y-154664167D01*
X144311982Y-154084528D01*
X144230892Y-153941969D01*
X144157004Y-153811156D01*
X144092837Y-153696622D01*
X144040909Y-153602897D01*
X144003740Y-153534513D01*
X143983848Y-153496001D01*
X143981166Y-153489324D01*
X143991386Y-153468635D01*
X144020829Y-153414457D01*
X144067669Y-153330029D01*
X144130082Y-153218590D01*
X144206243Y-153083382D01*
X144294328Y-152927643D01*
X144392510Y-152754615D01*
X144498965Y-152567537D01*
X144608452Y-152375629D01*
X145235738Y-151277500D01*
X147764261Y-151277500D01*
X148391547Y-152375629D01*
X148504287Y-152573247D01*
X148610525Y-152759962D01*
X148708435Y-152932533D01*
X148796193Y-153087720D01*
X148871973Y-153222284D01*
X148933952Y-153332982D01*
X148980303Y-153416576D01*
X149009202Y-153469824D01*
X149018833Y-153489417D01*
X149008613Y-153510122D01*
X148979170Y-153564317D01*
X148932329Y-153648761D01*
X148869915Y-153760214D01*
X148793753Y-153895436D01*
X148705668Y-154051185D01*
X148607485Y-154224223D01*
X148501028Y-154411307D01*
X148391547Y-154603205D01*
X147764261Y-155701334D01*
X146200797Y-155701334D01*
X145947713Y-155701446D01*
X145707334Y-155701771D01*
X145482956Y-155702290D01*
X145277878Y-155702986D01*
X145095396Y-155703841D01*
X144938808Y-155704836D01*
X144811411Y-155705955D01*
X144716502Y-155707178D01*
X144657378Y-155708488D01*
X144637333Y-155709846D01*
X144647285Y-155730296D01*
X144674576Y-155780460D01*
X144715357Y-155853403D01*
X144765779Y-155942190D01*
X144781212Y-155969138D01*
X144925090Y-156219917D01*
X148075324Y-156219917D01*
X148855138Y-154855411D01*
X149003616Y-154595377D01*
X149132223Y-154369557D01*
X149242271Y-154175511D01*
X149335069Y-154010800D01*
X149411930Y-153872985D01*
X149474164Y-153759626D01*
X149523081Y-153668284D01*
X149559993Y-153596519D01*
X149586211Y-153541892D01*
X149603045Y-153501963D01*
X149611807Y-153474294D01*
X149613806Y-153456444D01*
X149611547Y-153447827D01*
G37*
X149611547Y-153447827D02*
X149597395Y-153422723D01*
X149563951Y-153363897D01*
X149512945Y-153274377D01*
X149446102Y-153157189D01*
X149365150Y-153015358D01*
X149271818Y-152851911D01*
X149167833Y-152669873D01*
X149054922Y-152472272D01*
X148934812Y-152262133D01*
X148831734Y-152081834D01*
X148075324Y-150758917D01*
X144924676Y-150758917D01*
X144146004Y-152121425D01*
X144020121Y-152341914D01*
X143900597Y-152551691D01*
X143789065Y-152747865D01*
X143687158Y-152927544D01*
X143596508Y-153087835D01*
X143518749Y-153225846D01*
X143455512Y-153338687D01*
X143408431Y-153423465D01*
X143379138Y-153477288D01*
X143369264Y-153497258D01*
X143379886Y-153517787D01*
X143409531Y-153571283D01*
X143456091Y-153654032D01*
X143517455Y-153762318D01*
X143591516Y-153892428D01*
X143676163Y-154040647D01*
X143769287Y-154203261D01*
X143851603Y-154346667D01*
X144332012Y-155182750D01*
X145897548Y-155187454D01*
X147463083Y-155192158D01*
X147939333Y-154355023D01*
X148037191Y-154182412D01*
X148128275Y-154020588D01*
X148210491Y-153873358D01*
X148281744Y-153744527D01*
X148339938Y-153637902D01*
X148382980Y-153557289D01*
X148408773Y-153506493D01*
X148415583Y-153489787D01*
X148405415Y-153466122D01*
X148376304Y-153409525D01*
X148330343Y-153323802D01*
X148269625Y-153212757D01*
X148196242Y-153080196D01*
X148112287Y-152929926D01*
X148019852Y-152765750D01*
X147939333Y-152623661D01*
X147463083Y-151785636D01*
X146500000Y-151786236D01*
X145536916Y-151786836D01*
X145071250Y-152603606D01*
X144973860Y-152774550D01*
X144882584Y-152935004D01*
X144799638Y-153081051D01*
X144727243Y-153208773D01*
X144667617Y-153314252D01*
X144622978Y-153393572D01*
X144595546Y-153442813D01*
X144587746Y-153457337D01*
X144586857Y-153482462D01*
X144601454Y-153527314D01*
X144633398Y-153595906D01*
X144684553Y-153692252D01*
X144753625Y-153814861D01*
X144937341Y-154135425D01*
X146865041Y-154124417D01*
X147041860Y-153817500D01*
X147100648Y-153714373D01*
X147151223Y-153623587D01*
X147190059Y-153551639D01*
X147213630Y-153505025D01*
X147219172Y-153490748D01*
X147209573Y-153465571D01*
X147183408Y-153413274D01*
X147145295Y-153341998D01*
X147099852Y-153259883D01*
X147051695Y-153175069D01*
X147005442Y-153095697D01*
X146965710Y-153029906D01*
X146937117Y-152985837D01*
X146924637Y-152971475D01*
X146910879Y-152989189D01*
X146880078Y-153037932D01*
X146835807Y-153111758D01*
X146781643Y-153204724D01*
X146730541Y-153294267D01*
X146548333Y-153616417D01*
X145899553Y-153622015D01*
X145250774Y-153627613D01*
X145215840Y-153554357D01*
X145180907Y-153481102D01*
X145846965Y-152314068D01*
X146504122Y-152319659D01*
X147161280Y-152325250D01*
X147486806Y-152894019D01*
X147567395Y-153035556D01*
X147640722Y-153165743D01*
X147704232Y-153279932D01*
X147755368Y-153373471D01*
X147791574Y-153441711D01*
X147810294Y-153480002D01*
X147812333Y-153486182D01*
X147802192Y-153509703D01*
X147773455Y-153565292D01*
X147728657Y-153648332D01*
X147670328Y-153754206D01*
X147601001Y-153878298D01*
X147523209Y-154015989D01*
X147482855Y-154086872D01*
X147153377Y-154664167D01*
X144642798Y-154664167D01*
X144311982Y-154084528D01*
X144230892Y-153941969D01*
X144157004Y-153811156D01*
X144092837Y-153696622D01*
X144040909Y-153602897D01*
X144003740Y-153534513D01*
X143983848Y-153496001D01*
X143981166Y-153489324D01*
X143991386Y-153468635D01*
X144020829Y-153414457D01*
X144067669Y-153330029D01*
X144130082Y-153218590D01*
X144206243Y-153083382D01*
X144294328Y-152927643D01*
X144392510Y-152754615D01*
X144498965Y-152567537D01*
X144608452Y-152375629D01*
X145235738Y-151277500D01*
X147764261Y-151277500D01*
X148391547Y-152375629D01*
X148504287Y-152573247D01*
X148610525Y-152759962D01*
X148708435Y-152932533D01*
X148796193Y-153087720D01*
X148871973Y-153222284D01*
X148933952Y-153332982D01*
X148980303Y-153416576D01*
X149009202Y-153469824D01*
X149018833Y-153489417D01*
X149008613Y-153510122D01*
X148979170Y-153564317D01*
X148932329Y-153648761D01*
X148869915Y-153760214D01*
X148793753Y-153895436D01*
X148705668Y-154051185D01*
X148607485Y-154224223D01*
X148501028Y-154411307D01*
X148391547Y-154603205D01*
X147764261Y-155701334D01*
X146200797Y-155701334D01*
X145947713Y-155701446D01*
X145707334Y-155701771D01*
X145482956Y-155702290D01*
X145277878Y-155702986D01*
X145095396Y-155703841D01*
X144938808Y-155704836D01*
X144811411Y-155705955D01*
X144716502Y-155707178D01*
X144657378Y-155708488D01*
X144637333Y-155709846D01*
X144647285Y-155730296D01*
X144674576Y-155780460D01*
X144715357Y-155853403D01*
X144765779Y-155942190D01*
X144781212Y-155969138D01*
X144925090Y-156219917D01*
X148075324Y-156219917D01*
X148855138Y-154855411D01*
X149003616Y-154595377D01*
X149132223Y-154369557D01*
X149242271Y-154175511D01*
X149335069Y-154010800D01*
X149411930Y-153872985D01*
X149474164Y-153759626D01*
X149523081Y-153668284D01*
X149559993Y-153596519D01*
X149586211Y-153541892D01*
X149603045Y-153501963D01*
X149611807Y-153474294D01*
X149613806Y-153456444D01*
X149611547Y-153447827D01*
G36*
X149611547Y-128447827D02*
G01*
X149597395Y-128422723D01*
X149563951Y-128363897D01*
X149512945Y-128274377D01*
X149446102Y-128157189D01*
X149365150Y-128015358D01*
X149271818Y-127851911D01*
X149167833Y-127669873D01*
X149054922Y-127472272D01*
X148934812Y-127262133D01*
X148831734Y-127081834D01*
X148075324Y-125758917D01*
X144924676Y-125758917D01*
X144146004Y-127121425D01*
X144020121Y-127341914D01*
X143900597Y-127551691D01*
X143789065Y-127747865D01*
X143687158Y-127927544D01*
X143596508Y-128087835D01*
X143518749Y-128225846D01*
X143455512Y-128338687D01*
X143408431Y-128423465D01*
X143379138Y-128477288D01*
X143369264Y-128497258D01*
X143379886Y-128517787D01*
X143409531Y-128571283D01*
X143456091Y-128654032D01*
X143517455Y-128762318D01*
X143591516Y-128892428D01*
X143676163Y-129040647D01*
X143769287Y-129203261D01*
X143851603Y-129346667D01*
X144332012Y-130182750D01*
X145897548Y-130187454D01*
X147463083Y-130192158D01*
X147939333Y-129355023D01*
X148037191Y-129182412D01*
X148128275Y-129020588D01*
X148210491Y-128873358D01*
X148281744Y-128744527D01*
X148339938Y-128637902D01*
X148382980Y-128557289D01*
X148408773Y-128506493D01*
X148415583Y-128489787D01*
X148405415Y-128466122D01*
X148376304Y-128409525D01*
X148330343Y-128323802D01*
X148269625Y-128212757D01*
X148196242Y-128080196D01*
X148112287Y-127929926D01*
X148019852Y-127765750D01*
X147939333Y-127623661D01*
X147463083Y-126785636D01*
X146500000Y-126786236D01*
X145536916Y-126786836D01*
X145071250Y-127603606D01*
X144973860Y-127774550D01*
X144882584Y-127935004D01*
X144799638Y-128081051D01*
X144727243Y-128208773D01*
X144667617Y-128314252D01*
X144622978Y-128393572D01*
X144595546Y-128442813D01*
X144587746Y-128457337D01*
X144586857Y-128482462D01*
X144601454Y-128527314D01*
X144633398Y-128595906D01*
X144684553Y-128692252D01*
X144753625Y-128814861D01*
X144937341Y-129135425D01*
X146865041Y-129124417D01*
X147041860Y-128817500D01*
X147100648Y-128714373D01*
X147151223Y-128623587D01*
X147190059Y-128551639D01*
X147213630Y-128505025D01*
X147219172Y-128490748D01*
X147209573Y-128465571D01*
X147183408Y-128413274D01*
X147145295Y-128341998D01*
X147099852Y-128259883D01*
X147051695Y-128175069D01*
X147005442Y-128095697D01*
X146965710Y-128029906D01*
X146937117Y-127985837D01*
X146924637Y-127971475D01*
X146910879Y-127989189D01*
X146880078Y-128037932D01*
X146835807Y-128111758D01*
X146781643Y-128204724D01*
X146730541Y-128294267D01*
X146548333Y-128616417D01*
X145899553Y-128622015D01*
X145250774Y-128627613D01*
X145215840Y-128554357D01*
X145180907Y-128481102D01*
X145846965Y-127314068D01*
X146504122Y-127319659D01*
X147161280Y-127325250D01*
X147486806Y-127894019D01*
X147567395Y-128035556D01*
X147640722Y-128165743D01*
X147704232Y-128279932D01*
X147755368Y-128373471D01*
X147791574Y-128441711D01*
X147810294Y-128480002D01*
X147812333Y-128486182D01*
X147802192Y-128509703D01*
X147773455Y-128565292D01*
X147728657Y-128648332D01*
X147670328Y-128754206D01*
X147601001Y-128878298D01*
X147523209Y-129015989D01*
X147482855Y-129086872D01*
X147153377Y-129664167D01*
X144642798Y-129664167D01*
X144311982Y-129084528D01*
X144230892Y-128941969D01*
X144157004Y-128811156D01*
X144092837Y-128696622D01*
X144040909Y-128602897D01*
X144003740Y-128534513D01*
X143983848Y-128496001D01*
X143981166Y-128489324D01*
X143991386Y-128468635D01*
X144020829Y-128414457D01*
X144067669Y-128330029D01*
X144130082Y-128218590D01*
X144206243Y-128083382D01*
X144294328Y-127927643D01*
X144392510Y-127754615D01*
X144498965Y-127567537D01*
X144608452Y-127375629D01*
X145235738Y-126277500D01*
X147764261Y-126277500D01*
X148391547Y-127375629D01*
X148504287Y-127573247D01*
X148610525Y-127759962D01*
X148708435Y-127932533D01*
X148796193Y-128087720D01*
X148871973Y-128222284D01*
X148933952Y-128332982D01*
X148980303Y-128416576D01*
X149009202Y-128469824D01*
X149018833Y-128489417D01*
X149008613Y-128510122D01*
X148979170Y-128564317D01*
X148932329Y-128648761D01*
X148869915Y-128760214D01*
X148793753Y-128895436D01*
X148705668Y-129051185D01*
X148607485Y-129224223D01*
X148501028Y-129411307D01*
X148391547Y-129603205D01*
X147764261Y-130701334D01*
X146200797Y-130701334D01*
X145947713Y-130701446D01*
X145707334Y-130701771D01*
X145482956Y-130702290D01*
X145277878Y-130702986D01*
X145095396Y-130703841D01*
X144938808Y-130704836D01*
X144811411Y-130705955D01*
X144716502Y-130707178D01*
X144657378Y-130708488D01*
X144637333Y-130709846D01*
X144647285Y-130730296D01*
X144674576Y-130780460D01*
X144715357Y-130853403D01*
X144765779Y-130942190D01*
X144781212Y-130969138D01*
X144925090Y-131219917D01*
X148075324Y-131219917D01*
X148855138Y-129855411D01*
X149003616Y-129595377D01*
X149132223Y-129369557D01*
X149242271Y-129175511D01*
X149335069Y-129010800D01*
X149411930Y-128872985D01*
X149474164Y-128759626D01*
X149523081Y-128668284D01*
X149559993Y-128596519D01*
X149586211Y-128541892D01*
X149603045Y-128501963D01*
X149611807Y-128474294D01*
X149613806Y-128456444D01*
X149611547Y-128447827D01*
G37*
X149611547Y-128447827D02*
X149597395Y-128422723D01*
X149563951Y-128363897D01*
X149512945Y-128274377D01*
X149446102Y-128157189D01*
X149365150Y-128015358D01*
X149271818Y-127851911D01*
X149167833Y-127669873D01*
X149054922Y-127472272D01*
X148934812Y-127262133D01*
X148831734Y-127081834D01*
X148075324Y-125758917D01*
X144924676Y-125758917D01*
X144146004Y-127121425D01*
X144020121Y-127341914D01*
X143900597Y-127551691D01*
X143789065Y-127747865D01*
X143687158Y-127927544D01*
X143596508Y-128087835D01*
X143518749Y-128225846D01*
X143455512Y-128338687D01*
X143408431Y-128423465D01*
X143379138Y-128477288D01*
X143369264Y-128497258D01*
X143379886Y-128517787D01*
X143409531Y-128571283D01*
X143456091Y-128654032D01*
X143517455Y-128762318D01*
X143591516Y-128892428D01*
X143676163Y-129040647D01*
X143769287Y-129203261D01*
X143851603Y-129346667D01*
X144332012Y-130182750D01*
X145897548Y-130187454D01*
X147463083Y-130192158D01*
X147939333Y-129355023D01*
X148037191Y-129182412D01*
X148128275Y-129020588D01*
X148210491Y-128873358D01*
X148281744Y-128744527D01*
X148339938Y-128637902D01*
X148382980Y-128557289D01*
X148408773Y-128506493D01*
X148415583Y-128489787D01*
X148405415Y-128466122D01*
X148376304Y-128409525D01*
X148330343Y-128323802D01*
X148269625Y-128212757D01*
X148196242Y-128080196D01*
X148112287Y-127929926D01*
X148019852Y-127765750D01*
X147939333Y-127623661D01*
X147463083Y-126785636D01*
X146500000Y-126786236D01*
X145536916Y-126786836D01*
X145071250Y-127603606D01*
X144973860Y-127774550D01*
X144882584Y-127935004D01*
X144799638Y-128081051D01*
X144727243Y-128208773D01*
X144667617Y-128314252D01*
X144622978Y-128393572D01*
X144595546Y-128442813D01*
X144587746Y-128457337D01*
X144586857Y-128482462D01*
X144601454Y-128527314D01*
X144633398Y-128595906D01*
X144684553Y-128692252D01*
X144753625Y-128814861D01*
X144937341Y-129135425D01*
X146865041Y-129124417D01*
X147041860Y-128817500D01*
X147100648Y-128714373D01*
X147151223Y-128623587D01*
X147190059Y-128551639D01*
X147213630Y-128505025D01*
X147219172Y-128490748D01*
X147209573Y-128465571D01*
X147183408Y-128413274D01*
X147145295Y-128341998D01*
X147099852Y-128259883D01*
X147051695Y-128175069D01*
X147005442Y-128095697D01*
X146965710Y-128029906D01*
X146937117Y-127985837D01*
X146924637Y-127971475D01*
X146910879Y-127989189D01*
X146880078Y-128037932D01*
X146835807Y-128111758D01*
X146781643Y-128204724D01*
X146730541Y-128294267D01*
X146548333Y-128616417D01*
X145899553Y-128622015D01*
X145250774Y-128627613D01*
X145215840Y-128554357D01*
X145180907Y-128481102D01*
X145846965Y-127314068D01*
X146504122Y-127319659D01*
X147161280Y-127325250D01*
X147486806Y-127894019D01*
X147567395Y-128035556D01*
X147640722Y-128165743D01*
X147704232Y-128279932D01*
X147755368Y-128373471D01*
X147791574Y-128441711D01*
X147810294Y-128480002D01*
X147812333Y-128486182D01*
X147802192Y-128509703D01*
X147773455Y-128565292D01*
X147728657Y-128648332D01*
X147670328Y-128754206D01*
X147601001Y-128878298D01*
X147523209Y-129015989D01*
X147482855Y-129086872D01*
X147153377Y-129664167D01*
X144642798Y-129664167D01*
X144311982Y-129084528D01*
X144230892Y-128941969D01*
X144157004Y-128811156D01*
X144092837Y-128696622D01*
X144040909Y-128602897D01*
X144003740Y-128534513D01*
X143983848Y-128496001D01*
X143981166Y-128489324D01*
X143991386Y-128468635D01*
X144020829Y-128414457D01*
X144067669Y-128330029D01*
X144130082Y-128218590D01*
X144206243Y-128083382D01*
X144294328Y-127927643D01*
X144392510Y-127754615D01*
X144498965Y-127567537D01*
X144608452Y-127375629D01*
X145235738Y-126277500D01*
X147764261Y-126277500D01*
X148391547Y-127375629D01*
X148504287Y-127573247D01*
X148610525Y-127759962D01*
X148708435Y-127932533D01*
X148796193Y-128087720D01*
X148871973Y-128222284D01*
X148933952Y-128332982D01*
X148980303Y-128416576D01*
X149009202Y-128469824D01*
X149018833Y-128489417D01*
X149008613Y-128510122D01*
X148979170Y-128564317D01*
X148932329Y-128648761D01*
X148869915Y-128760214D01*
X148793753Y-128895436D01*
X148705668Y-129051185D01*
X148607485Y-129224223D01*
X148501028Y-129411307D01*
X148391547Y-129603205D01*
X147764261Y-130701334D01*
X146200797Y-130701334D01*
X145947713Y-130701446D01*
X145707334Y-130701771D01*
X145482956Y-130702290D01*
X145277878Y-130702986D01*
X145095396Y-130703841D01*
X144938808Y-130704836D01*
X144811411Y-130705955D01*
X144716502Y-130707178D01*
X144657378Y-130708488D01*
X144637333Y-130709846D01*
X144647285Y-130730296D01*
X144674576Y-130780460D01*
X144715357Y-130853403D01*
X144765779Y-130942190D01*
X144781212Y-130969138D01*
X144925090Y-131219917D01*
X148075324Y-131219917D01*
X148855138Y-129855411D01*
X149003616Y-129595377D01*
X149132223Y-129369557D01*
X149242271Y-129175511D01*
X149335069Y-129010800D01*
X149411930Y-128872985D01*
X149474164Y-128759626D01*
X149523081Y-128668284D01*
X149559993Y-128596519D01*
X149586211Y-128541892D01*
X149603045Y-128501963D01*
X149611807Y-128474294D01*
X149613806Y-128456444D01*
X149611547Y-128447827D01*
G36*
X149611547Y-103447827D02*
G01*
X149597395Y-103422723D01*
X149563951Y-103363897D01*
X149512945Y-103274377D01*
X149446102Y-103157189D01*
X149365150Y-103015358D01*
X149271818Y-102851911D01*
X149167833Y-102669873D01*
X149054922Y-102472272D01*
X148934812Y-102262133D01*
X148831734Y-102081834D01*
X148075324Y-100758917D01*
X144924676Y-100758917D01*
X144146004Y-102121425D01*
X144020121Y-102341914D01*
X143900597Y-102551691D01*
X143789065Y-102747865D01*
X143687158Y-102927544D01*
X143596508Y-103087835D01*
X143518749Y-103225846D01*
X143455512Y-103338687D01*
X143408431Y-103423465D01*
X143379138Y-103477288D01*
X143369264Y-103497258D01*
X143379886Y-103517787D01*
X143409531Y-103571283D01*
X143456091Y-103654032D01*
X143517455Y-103762318D01*
X143591516Y-103892428D01*
X143676163Y-104040647D01*
X143769287Y-104203261D01*
X143851603Y-104346667D01*
X144332012Y-105182750D01*
X145897548Y-105187454D01*
X147463083Y-105192158D01*
X147939333Y-104355023D01*
X148037191Y-104182412D01*
X148128275Y-104020588D01*
X148210491Y-103873358D01*
X148281744Y-103744527D01*
X148339938Y-103637902D01*
X148382980Y-103557289D01*
X148408773Y-103506493D01*
X148415583Y-103489787D01*
X148405415Y-103466122D01*
X148376304Y-103409525D01*
X148330343Y-103323802D01*
X148269625Y-103212757D01*
X148196242Y-103080196D01*
X148112287Y-102929926D01*
X148019852Y-102765750D01*
X147939333Y-102623661D01*
X147463083Y-101785636D01*
X146500000Y-101786236D01*
X145536916Y-101786836D01*
X145071250Y-102603606D01*
X144973860Y-102774550D01*
X144882584Y-102935004D01*
X144799638Y-103081051D01*
X144727243Y-103208773D01*
X144667617Y-103314252D01*
X144622978Y-103393572D01*
X144595546Y-103442813D01*
X144587746Y-103457337D01*
X144586857Y-103482462D01*
X144601454Y-103527314D01*
X144633398Y-103595906D01*
X144684553Y-103692252D01*
X144753625Y-103814861D01*
X144937341Y-104135425D01*
X146865041Y-104124417D01*
X147041860Y-103817500D01*
X147100648Y-103714373D01*
X147151223Y-103623587D01*
X147190059Y-103551639D01*
X147213630Y-103505025D01*
X147219172Y-103490748D01*
X147209573Y-103465571D01*
X147183408Y-103413274D01*
X147145295Y-103341998D01*
X147099852Y-103259883D01*
X147051695Y-103175069D01*
X147005442Y-103095697D01*
X146965710Y-103029906D01*
X146937117Y-102985837D01*
X146924637Y-102971475D01*
X146910879Y-102989189D01*
X146880078Y-103037932D01*
X146835807Y-103111758D01*
X146781643Y-103204724D01*
X146730541Y-103294267D01*
X146548333Y-103616417D01*
X145899553Y-103622015D01*
X145250774Y-103627613D01*
X145215840Y-103554357D01*
X145180907Y-103481102D01*
X145846965Y-102314068D01*
X146504122Y-102319659D01*
X147161280Y-102325250D01*
X147486806Y-102894019D01*
X147567395Y-103035556D01*
X147640722Y-103165743D01*
X147704232Y-103279932D01*
X147755368Y-103373471D01*
X147791574Y-103441711D01*
X147810294Y-103480002D01*
X147812333Y-103486182D01*
X147802192Y-103509703D01*
X147773455Y-103565292D01*
X147728657Y-103648332D01*
X147670328Y-103754206D01*
X147601001Y-103878298D01*
X147523209Y-104015989D01*
X147482855Y-104086872D01*
X147153377Y-104664167D01*
X144642798Y-104664167D01*
X144311982Y-104084528D01*
X144230892Y-103941969D01*
X144157004Y-103811156D01*
X144092837Y-103696622D01*
X144040909Y-103602897D01*
X144003740Y-103534513D01*
X143983848Y-103496001D01*
X143981166Y-103489324D01*
X143991386Y-103468635D01*
X144020829Y-103414457D01*
X144067669Y-103330029D01*
X144130082Y-103218590D01*
X144206243Y-103083382D01*
X144294328Y-102927643D01*
X144392510Y-102754615D01*
X144498965Y-102567537D01*
X144608452Y-102375629D01*
X145235738Y-101277500D01*
X147764261Y-101277500D01*
X148391547Y-102375629D01*
X148504287Y-102573247D01*
X148610525Y-102759962D01*
X148708435Y-102932533D01*
X148796193Y-103087720D01*
X148871973Y-103222284D01*
X148933952Y-103332982D01*
X148980303Y-103416576D01*
X149009202Y-103469824D01*
X149018833Y-103489417D01*
X149008613Y-103510122D01*
X148979170Y-103564317D01*
X148932329Y-103648761D01*
X148869915Y-103760214D01*
X148793753Y-103895436D01*
X148705668Y-104051185D01*
X148607485Y-104224223D01*
X148501028Y-104411307D01*
X148391547Y-104603205D01*
X147764261Y-105701334D01*
X146200797Y-105701334D01*
X145947713Y-105701446D01*
X145707334Y-105701771D01*
X145482956Y-105702290D01*
X145277878Y-105702986D01*
X145095396Y-105703841D01*
X144938808Y-105704836D01*
X144811411Y-105705955D01*
X144716502Y-105707178D01*
X144657378Y-105708488D01*
X144637333Y-105709846D01*
X144647285Y-105730296D01*
X144674576Y-105780460D01*
X144715357Y-105853403D01*
X144765779Y-105942190D01*
X144781212Y-105969138D01*
X144925090Y-106219917D01*
X148075324Y-106219917D01*
X148855138Y-104855411D01*
X149003616Y-104595377D01*
X149132223Y-104369557D01*
X149242271Y-104175511D01*
X149335069Y-104010800D01*
X149411930Y-103872985D01*
X149474164Y-103759626D01*
X149523081Y-103668284D01*
X149559993Y-103596519D01*
X149586211Y-103541892D01*
X149603045Y-103501963D01*
X149611807Y-103474294D01*
X149613806Y-103456444D01*
X149611547Y-103447827D01*
G37*
X149611547Y-103447827D02*
X149597395Y-103422723D01*
X149563951Y-103363897D01*
X149512945Y-103274377D01*
X149446102Y-103157189D01*
X149365150Y-103015358D01*
X149271818Y-102851911D01*
X149167833Y-102669873D01*
X149054922Y-102472272D01*
X148934812Y-102262133D01*
X148831734Y-102081834D01*
X148075324Y-100758917D01*
X144924676Y-100758917D01*
X144146004Y-102121425D01*
X144020121Y-102341914D01*
X143900597Y-102551691D01*
X143789065Y-102747865D01*
X143687158Y-102927544D01*
X143596508Y-103087835D01*
X143518749Y-103225846D01*
X143455512Y-103338687D01*
X143408431Y-103423465D01*
X143379138Y-103477288D01*
X143369264Y-103497258D01*
X143379886Y-103517787D01*
X143409531Y-103571283D01*
X143456091Y-103654032D01*
X143517455Y-103762318D01*
X143591516Y-103892428D01*
X143676163Y-104040647D01*
X143769287Y-104203261D01*
X143851603Y-104346667D01*
X144332012Y-105182750D01*
X145897548Y-105187454D01*
X147463083Y-105192158D01*
X147939333Y-104355023D01*
X148037191Y-104182412D01*
X148128275Y-104020588D01*
X148210491Y-103873358D01*
X148281744Y-103744527D01*
X148339938Y-103637902D01*
X148382980Y-103557289D01*
X148408773Y-103506493D01*
X148415583Y-103489787D01*
X148405415Y-103466122D01*
X148376304Y-103409525D01*
X148330343Y-103323802D01*
X148269625Y-103212757D01*
X148196242Y-103080196D01*
X148112287Y-102929926D01*
X148019852Y-102765750D01*
X147939333Y-102623661D01*
X147463083Y-101785636D01*
X146500000Y-101786236D01*
X145536916Y-101786836D01*
X145071250Y-102603606D01*
X144973860Y-102774550D01*
X144882584Y-102935004D01*
X144799638Y-103081051D01*
X144727243Y-103208773D01*
X144667617Y-103314252D01*
X144622978Y-103393572D01*
X144595546Y-103442813D01*
X144587746Y-103457337D01*
X144586857Y-103482462D01*
X144601454Y-103527314D01*
X144633398Y-103595906D01*
X144684553Y-103692252D01*
X144753625Y-103814861D01*
X144937341Y-104135425D01*
X146865041Y-104124417D01*
X147041860Y-103817500D01*
X147100648Y-103714373D01*
X147151223Y-103623587D01*
X147190059Y-103551639D01*
X147213630Y-103505025D01*
X147219172Y-103490748D01*
X147209573Y-103465571D01*
X147183408Y-103413274D01*
X147145295Y-103341998D01*
X147099852Y-103259883D01*
X147051695Y-103175069D01*
X147005442Y-103095697D01*
X146965710Y-103029906D01*
X146937117Y-102985837D01*
X146924637Y-102971475D01*
X146910879Y-102989189D01*
X146880078Y-103037932D01*
X146835807Y-103111758D01*
X146781643Y-103204724D01*
X146730541Y-103294267D01*
X146548333Y-103616417D01*
X145899553Y-103622015D01*
X145250774Y-103627613D01*
X145215840Y-103554357D01*
X145180907Y-103481102D01*
X145846965Y-102314068D01*
X146504122Y-102319659D01*
X147161280Y-102325250D01*
X147486806Y-102894019D01*
X147567395Y-103035556D01*
X147640722Y-103165743D01*
X147704232Y-103279932D01*
X147755368Y-103373471D01*
X147791574Y-103441711D01*
X147810294Y-103480002D01*
X147812333Y-103486182D01*
X147802192Y-103509703D01*
X147773455Y-103565292D01*
X147728657Y-103648332D01*
X147670328Y-103754206D01*
X147601001Y-103878298D01*
X147523209Y-104015989D01*
X147482855Y-104086872D01*
X147153377Y-104664167D01*
X144642798Y-104664167D01*
X144311982Y-104084528D01*
X144230892Y-103941969D01*
X144157004Y-103811156D01*
X144092837Y-103696622D01*
X144040909Y-103602897D01*
X144003740Y-103534513D01*
X143983848Y-103496001D01*
X143981166Y-103489324D01*
X143991386Y-103468635D01*
X144020829Y-103414457D01*
X144067669Y-103330029D01*
X144130082Y-103218590D01*
X144206243Y-103083382D01*
X144294328Y-102927643D01*
X144392510Y-102754615D01*
X144498965Y-102567537D01*
X144608452Y-102375629D01*
X145235738Y-101277500D01*
X147764261Y-101277500D01*
X148391547Y-102375629D01*
X148504287Y-102573247D01*
X148610525Y-102759962D01*
X148708435Y-102932533D01*
X148796193Y-103087720D01*
X148871973Y-103222284D01*
X148933952Y-103332982D01*
X148980303Y-103416576D01*
X149009202Y-103469824D01*
X149018833Y-103489417D01*
X149008613Y-103510122D01*
X148979170Y-103564317D01*
X148932329Y-103648761D01*
X148869915Y-103760214D01*
X148793753Y-103895436D01*
X148705668Y-104051185D01*
X148607485Y-104224223D01*
X148501028Y-104411307D01*
X148391547Y-104603205D01*
X147764261Y-105701334D01*
X146200797Y-105701334D01*
X145947713Y-105701446D01*
X145707334Y-105701771D01*
X145482956Y-105702290D01*
X145277878Y-105702986D01*
X145095396Y-105703841D01*
X144938808Y-105704836D01*
X144811411Y-105705955D01*
X144716502Y-105707178D01*
X144657378Y-105708488D01*
X144637333Y-105709846D01*
X144647285Y-105730296D01*
X144674576Y-105780460D01*
X144715357Y-105853403D01*
X144765779Y-105942190D01*
X144781212Y-105969138D01*
X144925090Y-106219917D01*
X148075324Y-106219917D01*
X148855138Y-104855411D01*
X149003616Y-104595377D01*
X149132223Y-104369557D01*
X149242271Y-104175511D01*
X149335069Y-104010800D01*
X149411930Y-103872985D01*
X149474164Y-103759626D01*
X149523081Y-103668284D01*
X149559993Y-103596519D01*
X149586211Y-103541892D01*
X149603045Y-103501963D01*
X149611807Y-103474294D01*
X149613806Y-103456444D01*
X149611547Y-103447827D01*
%TD*%
M02*
